<svg width="16" height="16" viewBox="0 0 16 16" fill="none" xmlns="http://www.w3.org/2000/svg">
<g clip-path="url(#clip0_305_344)">
<path d="M15.3751 6.49119L11.1084 2.22452C10.2775 1.39252 8.9228 1.39252 8.09186 2.22452C7.68866 2.62666 7.4668 3.16319 7.4668 3.73279C7.4668 4.30239 7.68866 4.83892 8.09186 5.24106L10.8503 7.99946L8.09186 10.7579C7.68866 11.1611 7.4668 11.6965 7.4668 12.2661C7.4668 12.8357 7.68866 13.3712 8.09186 13.7744C8.49506 14.1776 9.03053 14.3995 9.60013 14.3995C10.1697 14.3995 10.7052 14.1776 11.1084 13.7744L15.3751 9.50772C15.7783 9.10559 16.0001 8.56906 16.0001 7.99946C16.0001 7.42986 15.7783 6.89332 15.3751 6.49119ZM14.6209 8.75359L10.3543 13.0203C9.95 13.4235 9.25026 13.4235 8.846 13.0203C8.43 12.6043 8.43 11.928 8.846 11.512L12.3585 7.99946L8.846 4.48693C8.6444 4.28533 8.53346 4.01759 8.53346 3.73279C8.53346 3.44799 8.6444 3.18026 8.846 2.97866C9.054 2.77066 9.32706 2.66612 9.60013 2.66612C9.8732 2.66612 10.1463 2.77066 10.3543 2.97759L14.6209 7.24426C14.8225 7.44693 14.9335 7.71466 14.9335 7.99946C14.9335 8.28426 14.8225 8.55199 14.6209 8.75359Z" fill="#D5D3E8"/>
<path d="M7.90827 6.49119L3.6416 2.22452C2.81067 1.39252 1.456 1.39252 0.625067 2.22452C0.221867 2.62666 0 3.16319 0 3.73279C0 4.30239 0.221867 4.83892 0.625067 5.24106L3.38347 7.99946L0.625067 10.7579C0.221867 11.1611 0 11.6965 0 12.2661C0 12.8357 0.221867 13.3712 0.625067 13.7744C1.02827 14.1776 1.56373 14.3995 2.13333 14.3995C2.70293 14.3995 3.2384 14.1776 3.6416 13.7744L7.90827 9.50772C8.31147 9.10559 8.53333 8.56906 8.53333 7.99946C8.53333 7.42986 8.31147 6.89332 7.90827 6.49119ZM7.15413 8.75359L2.88747 13.0203C2.4832 13.4235 1.78347 13.4235 1.3792 13.0203C0.9632 12.6043 0.9632 11.928 1.3792 11.512L4.89173 7.99946L1.3792 4.48693C1.1776 4.28533 1.06667 4.01759 1.06667 3.73279C1.06667 3.44799 1.1776 3.18026 1.3792 2.97866C1.5872 2.77066 1.86027 2.66612 2.13333 2.66612C2.4064 2.66612 2.67947 2.77066 2.88747 2.97759L7.15413 7.24426C7.35573 7.44693 7.46667 7.71466 7.46667 7.99946C7.46667 8.28426 7.35573 8.55199 7.15413 8.75359Z" fill="#D5D3E8"/>
</g>
<defs>
<clipPath id="clip0_305_344">
<rect width="16" height="16" fill="white"/>
</clipPath>
</defs>
</svg>
