<svg width="24" height="24" viewBox="0 0 24 24" fill="none" xmlns="http://www.w3.org/2000/svg">
<g clip-path="url(#clip0_305_504)">
<path d="M23.9925 3.90124C24.0639 3.38085 23.6191 2.93609 23.0988 3.0075C20.9174 3.30688 15.6357 4.38903 11.9398 8.08483C8.29176 11.7328 9.27888 15.6612 9.68977 16.8285C9.76905 17.0537 9.9463 17.2309 10.1713 17.3102C11.3386 17.7211 15.2672 18.7082 18.9152 15.0602C22.6111 11.3642 23.6931 6.08257 23.9925 3.90124Z" fill="url(#paint0_linear_305_504)"/>
<path d="M19.1752 14.7925C19.2217 14.7433 19.2678 14.6938 19.3136 14.6442C19.3346 14.6213 19.3557 14.5984 19.3766 14.5756C19.4262 14.521 19.4751 14.4662 19.5236 14.4111C19.5377 14.3952 19.5518 14.3794 19.5657 14.3637C19.6272 14.2932 19.688 14.2222 19.7479 14.1507C19.7627 14.1332 19.7772 14.1154 19.792 14.0976C19.8375 14.0429 19.8827 13.988 19.9272 13.9329C19.9466 13.9089 19.9658 13.8849 19.985 13.8607C20.0268 13.8085 20.068 13.7562 20.1088 13.7036C20.1257 13.6818 20.1429 13.66 20.1595 13.6382C20.2158 13.565 20.2714 13.4916 20.326 13.4178C20.3295 13.413 20.3328 13.4084 20.3362 13.4037C20.3875 13.3341 20.438 13.2643 20.488 13.1942C20.5045 13.1711 20.5208 13.1479 20.5371 13.1246C20.5746 13.0713 20.612 13.0179 20.6488 12.9644C20.6655 12.9399 20.6823 12.9155 20.699 12.891C20.7398 12.8307 20.7801 12.7705 20.8198 12.7103C20.8301 12.6945 20.8407 12.6789 20.8509 12.6632C20.9004 12.5878 20.9491 12.5121 20.9969 12.4361C21.0093 12.4164 21.0216 12.3968 21.0339 12.377C21.0698 12.3197 21.1053 12.2622 21.1404 12.2047C21.1558 12.1794 21.1712 12.154 21.1864 12.1287C21.2199 12.0732 21.2529 12.0176 21.2856 11.9619C21.2986 11.9398 21.3118 11.9174 21.3248 11.8953C21.3693 11.8185 21.4134 11.7418 21.4567 11.6649C21.4614 11.6563 21.466 11.6477 21.4708 11.6393C21.5092 11.5704 21.5471 11.5018 21.5845 11.4329C21.5976 11.4086 21.6108 11.384 21.6238 11.3597C21.6533 11.3047 21.6824 11.2496 21.7114 11.1947C21.7244 11.1698 21.7375 11.1449 21.7504 11.12C21.7831 11.0566 21.8155 10.9933 21.8474 10.9299C21.8545 10.9156 21.8621 10.9014 21.8692 10.8871C21.9076 10.81 21.9455 10.7329 21.9827 10.656C21.993 10.6349 22.0029 10.6139 22.0129 10.5928C22.0404 10.5357 22.0675 10.4786 22.0942 10.4214C22.1061 10.3958 22.118 10.3702 22.1299 10.3445C22.1559 10.288 22.1818 10.2317 22.2072 10.1753C22.2169 10.1537 22.2268 10.132 22.2365 10.1103C22.2707 10.0336 22.3046 9.95709 22.3376 9.88055C22.3425 9.8692 22.3471 9.85784 22.352 9.84667C22.3802 9.78094 22.4081 9.71539 22.4354 9.64984C22.4456 9.62548 22.4557 9.60113 22.4657 9.57678C22.4881 9.52239 22.5102 9.46801 22.5322 9.414C22.5419 9.38964 22.5518 9.36547 22.5615 9.3413C22.5871 9.27685 22.6124 9.21258 22.6373 9.14849C22.6419 9.13677 22.6465 9.12524 22.6511 9.11352C22.68 9.03826 22.7084 8.96337 22.7364 8.88848C22.7444 8.86706 22.7521 8.84582 22.76 8.8244C22.7803 8.76965 22.8003 8.7149 22.8199 8.66052C22.8288 8.6358 22.8376 8.61126 22.8462 8.58673C22.866 8.53179 22.8852 8.47686 22.9043 8.42211C22.9112 8.40216 22.9184 8.3822 22.9252 8.36224C22.9504 8.28881 22.9753 8.21575 22.9997 8.14288C23.0039 8.12988 23.0081 8.11688 23.0125 8.10369C23.0325 8.04345 23.0521 7.98358 23.0713 7.92388C23.0788 7.90045 23.0863 7.87701 23.0938 7.85376C23.1099 7.80285 23.126 7.75195 23.1418 7.70141C23.1487 7.67852 23.1561 7.65582 23.163 7.63311C23.1822 7.57031 23.2011 7.50787 23.2198 7.44598C23.2222 7.43774 23.2247 7.42932 23.2273 7.42108C23.2482 7.35077 23.2685 7.281 23.2884 7.21161C23.2941 7.19146 23.2998 7.17151 23.3055 7.15136C23.3198 7.10119 23.3339 7.05121 23.3478 7.00158C23.354 6.97888 23.3602 6.95636 23.3664 6.93383C23.3805 6.88257 23.3943 6.83166 23.4078 6.78094C23.4124 6.76391 23.417 6.7467 23.4216 6.72967C23.4393 6.66284 23.4567 6.59637 23.4736 6.53064C23.4769 6.51727 23.4802 6.50427 23.4834 6.49109C23.497 6.43817 23.51 6.38543 23.523 6.33343C23.5281 6.31256 23.5333 6.29168 23.5382 6.27099C23.5495 6.22485 23.5605 6.17907 23.5713 6.13366C23.5761 6.11407 23.5809 6.0943 23.5854 6.07489C23.599 6.01703 23.6124 5.95935 23.6254 5.90259C23.6265 5.89764 23.6276 5.8927 23.6288 5.88775C23.6427 5.82605 23.6563 5.76507 23.6695 5.70465C23.6735 5.68689 23.6772 5.66931 23.681 5.65173C23.6905 5.60797 23.6997 5.56476 23.7088 5.52191C23.7129 5.50287 23.7169 5.48382 23.7208 5.46496C23.7301 5.42047 23.7391 5.37652 23.7479 5.33294C23.7508 5.31866 23.7539 5.30401 23.7566 5.28992C23.768 5.23334 23.7792 5.17749 23.7898 5.12237C23.7922 5.11011 23.7944 5.09802 23.7967 5.08575C23.805 5.04236 23.8132 4.99933 23.8211 4.95703C23.8242 4.93963 23.8273 4.92242 23.8306 4.90521C23.8376 4.86694 23.8445 4.82904 23.8511 4.79169C23.8539 4.77612 23.8568 4.76037 23.8595 4.74481C23.8685 4.69409 23.8773 4.6441 23.8855 4.59503C23.8857 4.5943 23.8857 4.59375 23.8859 4.59302C23.8943 4.54321 23.9024 4.49451 23.9103 4.44635C23.9126 4.43188 23.9148 4.4176 23.9172 4.40314C23.9227 4.3689 23.9282 4.33502 23.9333 4.3017C23.9357 4.28705 23.9379 4.2724 23.9403 4.25793C23.9456 4.22259 23.9509 4.18799 23.956 4.15393C23.9575 4.14368 23.9592 4.13324 23.9606 4.12317C23.967 4.07996 23.9731 4.03747 23.9791 3.99628C23.9804 3.98639 23.9817 3.97687 23.9831 3.96716C23.9864 3.94427 23.9894 3.92175 23.9925 3.8996C24.0276 3.63995 23.9344 3.39935 23.7674 3.23236L9.87598 17.124C9.95801 17.206 10.0582 17.2699 10.1702 17.3097C10.1818 17.3137 10.1935 17.3179 10.2057 17.3221C10.2118 17.3241 10.2175 17.3262 10.2237 17.3284C10.2453 17.3357 10.2676 17.3432 10.2909 17.3509C10.2947 17.3522 10.2988 17.3534 10.3028 17.3547C10.3222 17.3611 10.3422 17.3675 10.3627 17.3741C10.3711 17.3769 10.3799 17.3794 10.3885 17.3822C10.4052 17.3875 10.422 17.3926 10.4394 17.3979C10.4493 17.401 10.4595 17.4042 10.4696 17.4073C10.4868 17.4124 10.5044 17.4175 10.5222 17.4228C10.5328 17.4258 10.5432 17.4289 10.5538 17.432C10.5731 17.4375 10.593 17.4432 10.613 17.4487C10.6225 17.4514 10.6318 17.454 10.6415 17.4567C10.6716 17.465 10.702 17.4732 10.7335 17.4812C10.7346 17.4816 10.7358 17.482 10.7371 17.4822C10.7672 17.49 10.7979 17.4979 10.8292 17.5056C10.8397 17.5083 10.8505 17.5109 10.8611 17.5135C10.8838 17.519 10.9067 17.5245 10.9299 17.53C10.9426 17.5329 10.9554 17.5358 10.968 17.5387C10.9902 17.5439 11.0127 17.5488 11.0354 17.5539C11.0489 17.5569 11.0625 17.5598 11.076 17.5627C11.1 17.5679 11.1246 17.573 11.1489 17.5779C11.1614 17.5805 11.1738 17.5831 11.1863 17.5856C11.2192 17.5922 11.2526 17.5988 11.2864 17.605C11.291 17.6059 11.2956 17.6069 11.3002 17.6078C11.3384 17.6149 11.3776 17.6217 11.4174 17.6285C11.4293 17.6307 11.4417 17.6325 11.4538 17.6345C11.482 17.6393 11.5104 17.6438 11.5389 17.6484C11.554 17.6506 11.569 17.653 11.584 17.6552C11.6109 17.6592 11.638 17.6631 11.6653 17.6669C11.681 17.6691 11.697 17.6713 11.7129 17.6735C11.7411 17.6772 11.7695 17.6808 11.7978 17.6845C11.813 17.6863 11.8282 17.6882 11.8436 17.69C11.8781 17.694 11.9128 17.6979 11.948 17.7015C11.9577 17.7026 11.967 17.7037 11.9767 17.7046C12.0214 17.7092 12.0668 17.7134 12.1126 17.7173C12.1247 17.7184 12.1371 17.7193 12.1492 17.7202C12.1833 17.7229 12.2175 17.7255 12.2521 17.7279C12.269 17.729 12.286 17.7301 12.3032 17.7312C12.3338 17.733 12.3646 17.7349 12.3957 17.7363C12.414 17.7372 12.4321 17.7381 12.4504 17.7389C12.4817 17.7403 12.5134 17.7414 12.5451 17.7425C12.5629 17.7431 12.5806 17.7436 12.5984 17.7442C12.6345 17.7451 12.6707 17.7457 12.7072 17.7462C12.7209 17.7464 12.7344 17.7468 12.7483 17.7468C12.7983 17.7471 12.8491 17.7471 12.9 17.7466C12.9108 17.7464 12.9216 17.746 12.9322 17.7458C12.9728 17.7453 13.0137 17.7446 13.0547 17.7433C13.0728 17.7427 13.0913 17.742 13.1096 17.7413C13.1439 17.74 13.1785 17.7387 13.2133 17.7369C13.233 17.7359 13.2532 17.7349 13.2731 17.7336C13.3074 17.7317 13.3418 17.7294 13.3762 17.727C13.3962 17.7257 13.416 17.7242 13.4361 17.7228C13.4736 17.7198 13.5115 17.7165 13.5494 17.7131C13.5663 17.7116 13.5828 17.7101 13.5996 17.7085C13.6544 17.7032 13.7095 17.6973 13.7648 17.6907C13.7708 17.69 13.7769 17.6891 13.7827 17.6883C13.8321 17.6825 13.882 17.6759 13.9319 17.6689C13.9506 17.6664 13.9697 17.6633 13.9883 17.6605C14.0261 17.655 14.064 17.6492 14.102 17.6431C14.1235 17.6396 14.1449 17.636 14.1663 17.6323C14.2029 17.6261 14.2396 17.6195 14.2765 17.6127C14.298 17.6087 14.3196 17.6047 14.3412 17.6005C14.38 17.5929 14.419 17.5849 14.4582 17.5766C14.4776 17.5726 14.4968 17.5688 14.5162 17.5646C14.5701 17.5528 14.6241 17.5406 14.6785 17.5276C14.683 17.5265 14.6874 17.5256 14.6918 17.5245C14.7506 17.5104 14.8096 17.4952 14.8689 17.4794C14.8872 17.4747 14.9057 17.4693 14.924 17.4642C14.9654 17.4531 15.0068 17.4415 15.0482 17.4294C15.0703 17.423 15.0926 17.4162 15.1148 17.4097C15.1534 17.3979 15.1921 17.386 15.2309 17.3738C15.2536 17.3666 15.2765 17.3593 15.2992 17.3518C15.3391 17.3388 15.3792 17.3252 15.4193 17.3113C15.4405 17.304 15.4616 17.297 15.4828 17.2895C15.5323 17.272 15.5821 17.2536 15.6319 17.235C15.6432 17.2308 15.6548 17.2267 15.6661 17.2223C15.7273 17.1989 15.7888 17.1745 15.8503 17.1493C15.8675 17.1423 15.8848 17.1348 15.902 17.1277C15.9467 17.109 15.9913 17.0901 16.0362 17.0704C16.0587 17.0607 16.0812 17.0504 16.1038 17.0403C16.1439 17.0222 16.1841 17.0037 16.2244 16.9849C16.248 16.9739 16.2717 16.9627 16.2953 16.9513C16.3359 16.9319 16.3766 16.9118 16.4174 16.8915C16.4398 16.8803 16.4623 16.8691 16.4846 16.8578C16.5315 16.8338 16.5784 16.8091 16.6252 16.784C16.6414 16.7754 16.6573 16.7671 16.6734 16.7584C16.7362 16.7243 16.799 16.6893 16.862 16.6531C16.8765 16.6446 16.8911 16.6357 16.9058 16.6272C16.9543 16.5989 17.0028 16.5701 17.0513 16.5406C17.0737 16.5271 17.096 16.513 17.1183 16.4991C17.1597 16.4734 17.2013 16.4473 17.2427 16.4205C17.2667 16.4051 17.2905 16.3896 17.3144 16.3738C17.3553 16.3469 17.3963 16.3194 17.4371 16.2916C17.4606 16.2757 17.4838 16.2601 17.5071 16.2438C17.5519 16.2127 17.597 16.1807 17.6418 16.1482C17.6607 16.1347 17.6794 16.1215 17.6982 16.1078C17.7616 16.0615 17.8249 16.014 17.8885 15.9651C17.8984 15.9576 17.9081 15.9496 17.918 15.9421C17.9716 15.9003 18.0253 15.858 18.0789 15.8146C18.1005 15.7972 18.1219 15.7791 18.1435 15.7613C18.1858 15.7266 18.2281 15.6914 18.2704 15.6555C18.2942 15.6352 18.3182 15.6145 18.342 15.5938C18.3827 15.5585 18.4235 15.5228 18.4642 15.4863C18.4878 15.4653 18.5114 15.4442 18.535 15.4226C18.5782 15.3834 18.6215 15.3431 18.6647 15.3025C18.685 15.2833 18.7055 15.2646 18.7258 15.245C18.789 15.1847 18.8522 15.1234 18.9153 15.0602C18.9829 14.9928 19.0492 14.9246 19.1151 14.8561C19.1351 14.8348 19.155 14.8136 19.1752 14.7925Z" fill="url(#paint1_linear_305_504)"/>
<path d="M20.3182 8.21338C20.1832 8.2586 20.0483 8.29468 19.9148 8.33185C19.7811 8.3692 19.6484 8.40674 19.5164 8.43731C19.3843 8.47046 19.2534 8.48492 19.1242 8.50177C18.9949 8.51788 18.866 8.55414 18.7343 8.60962C18.6032 8.66693 18.4723 8.72937 18.3359 8.80719C18.4813 8.65228 18.6263 8.49756 18.7717 8.34228L19.4882 7.591C19.7266 7.33905 19.9734 7.09955 20.2147 6.85016C20.7022 6.35815 21.1991 5.88245 21.72 5.42889L21.668 5.32727L21.2414 5.62335L21.0266 5.77258C20.9559 5.82367 20.888 5.87769 20.8184 5.93024C20.5449 6.14465 20.2616 6.35339 19.995 6.57788C19.4514 7.01788 18.9238 7.47674 18.3934 7.93414C18.2929 8.02405 18.1922 8.11432 18.0914 8.20422C18.126 8.10736 18.1537 8.01123 18.1665 7.9151C18.1846 7.78564 18.2004 7.65436 18.2348 7.52215C18.2665 7.38995 18.3053 7.25702 18.3439 7.12335C18.3824 6.98987 18.4196 6.85474 18.4659 6.7196C18.5476 6.44769 18.6532 6.17523 18.7547 5.89471L18.6915 5.87604C18.4882 6.13055 18.2982 6.39661 18.1268 6.67053C18.0398 6.80731 17.9611 6.94629 17.8803 7.08618C17.8063 7.22644 17.7316 7.36798 17.6639 7.51044C17.595 7.65289 17.5178 7.79626 17.446 7.94128C17.3771 8.08612 17.331 8.2315 17.3147 8.37341C17.312 8.40124 17.3096 8.42907 17.3076 8.45672C17.2872 8.75811 17.1091 9.08587 16.8396 9.33398L16.8346 9.33856C16.3657 9.7705 15.9042 10.2089 15.4408 10.6459C15.4864 10.5099 15.5183 10.3817 15.5444 10.255C15.5695 10.1248 15.5747 10.0021 15.5585 9.8844C15.5432 9.76629 15.5247 9.64746 15.526 9.52276C15.5241 9.39898 15.5298 9.27246 15.5353 9.1452C15.5404 9.01812 15.5437 8.89013 15.5569 8.75995C15.5708 8.5003 15.6102 8.23407 15.643 7.96179L15.5708 7.96252C15.423 8.23919 15.2921 8.52246 15.1834 8.80755C15.1273 8.95038 15.0808 9.09283 15.0325 9.23675C14.9915 9.37902 14.9501 9.52276 14.916 9.66522C14.8809 9.80822 14.8371 9.95416 14.7998 10.1001C14.7655 10.2451 14.7554 10.3845 14.7761 10.5126C14.786 10.569 14.7983 10.6247 14.814 10.6789C14.8913 10.9429 14.7465 11.2976 14.4729 11.551C14.2382 11.7685 14.0029 11.9859 13.7692 12.2045C13.4728 12.4812 13.1868 12.7678 12.909 13.0615C12.9458 12.9445 12.9733 12.8326 12.9964 12.7218C13.0213 12.5918 13.0266 12.4691 13.0105 12.3512C12.9949 12.2331 12.9766 12.1143 12.9779 11.9896C12.976 11.8656 12.9817 11.7391 12.987 11.612C12.9921 11.4849 12.9956 11.3569 13.0086 11.2266C13.0225 10.9671 13.0621 10.7009 13.0947 10.4286L13.0225 10.4291C12.8748 10.7058 12.7439 10.9893 12.6351 11.2742C12.5791 11.4172 12.5325 11.5596 12.4842 11.7034C12.4432 11.8458 12.4018 11.9894 12.3679 12.132C12.3328 12.2748 12.289 12.4208 12.2515 12.5667C12.2172 12.7117 12.2072 12.8511 12.2279 12.9794C12.25 13.1061 12.2846 13.2292 12.3441 13.3398C12.4122 13.4665 12.3753 13.6527 12.2453 13.808C11.9085 14.2099 11.3041 14.9397 11.0031 15.3413C10.5982 15.887 10.2073 16.4436 9.86379 17.0389C9.84694 17.068 9.85353 17.1053 9.87917 17.1269C9.90316 17.1473 9.93795 17.1489 9.96395 17.131C10.5398 16.7333 11.0743 16.3022 11.5952 15.8602C12.1283 15.4059 12.6439 14.9379 13.1452 14.4575C13.1542 14.449 13.163 14.4404 13.172 14.432C13.3336 14.2771 13.5407 14.2284 13.6815 14.3014C13.7855 14.3551 13.9 14.3881 14.0177 14.41C14.1453 14.432 14.2843 14.4234 14.4292 14.3904C14.5749 14.3544 14.7208 14.3119 14.8635 14.2782C15.0059 14.2456 15.1493 14.2055 15.2918 14.1656C15.4355 14.1187 15.578 14.0735 15.7208 14.0187C16.0061 13.9125 16.2897 13.784 16.5667 13.6384L16.5682 13.5661C16.2965 13.5961 16.0308 13.6329 15.7722 13.6443C15.642 13.6562 15.5146 13.6582 15.3879 13.662C15.2612 13.6661 15.135 13.6706 15.0116 13.6675C14.8873 13.6675 14.7692 13.6479 14.6518 13.6311C14.5344 13.6137 14.4121 13.6177 14.2823 13.6415C14.1409 13.6695 13.997 13.7058 13.8428 13.7591C14.0941 13.496 14.3391 13.2272 14.578 12.9531C14.7673 12.7328 15.0252 12.4378 15.2522 12.1791C15.4937 11.9039 15.8413 11.7502 16.1075 11.8145C16.2377 11.846 16.379 11.855 16.5015 11.8779C16.6292 11.9 16.7681 11.8912 16.9128 11.8583C17.0585 11.8222 17.2045 11.7797 17.3471 11.7458C17.4896 11.7133 17.6331 11.6732 17.7754 11.6334C17.9191 11.5864 18.0616 11.5411 18.2046 11.4866C18.4897 11.3804 18.7733 11.2518 19.0504 11.1063L19.0518 11.0339C18.7801 11.064 18.5144 11.1008 18.2559 11.1121C18.1259 11.124 17.9982 11.126 17.8715 11.1299C17.7448 11.1341 17.6188 11.1385 17.4954 11.1354C17.3711 11.1354 17.2528 11.1156 17.1354 11.0989C17.0181 11.0815 16.8958 11.0856 16.7659 11.1094C16.5169 11.1588 16.2611 11.2313 15.9497 11.3881C16.4175 10.8794 16.8829 10.3669 17.3563 9.86334L17.3742 9.84356C17.6571 9.53302 18.0442 9.33636 18.3742 9.35815C18.4674 9.36438 18.5629 9.3609 18.6587 9.35193C18.8002 9.33709 18.9456 9.29223 19.0906 9.22467C19.2359 9.15417 19.3796 9.07818 19.5222 9.01043C19.6649 8.94378 19.8066 8.87036 19.9472 8.79748C20.0875 8.71801 20.2266 8.64038 20.3638 8.55432C20.6384 8.38531 20.9056 8.19726 21.161 7.99585L21.1431 7.93213C20.8626 8.031 20.5901 8.13427 20.3182 8.21338Z" fill="url(#paint2_linear_305_504)"/>
<path d="M10.1711 17.3102C11.0795 17.6301 13.6606 18.2985 16.48 16.8596L10.972 11.3496C10.6963 11.0739 10.4081 10.8173 10.1107 10.578C8.71069 13.3748 9.37188 15.9263 9.68939 16.8285C9.76867 17.0537 9.94592 17.231 10.1711 17.3102Z" fill="url(#paint3_linear_305_504)"/>
<path d="M0.895369 7.35403C0.414352 7.32217 -0.0304112 7.76675 0.00163221 8.24777C0.135665 10.2639 0.793746 15.1215 3.99717 18.325C7.15904 21.4868 10.8913 20.3038 12.0082 19.8424C12.2237 19.7534 12.401 19.5761 12.49 19.3608C12.9512 18.2439 14.1342 14.5114 10.9724 11.3496C7.76914 8.14615 2.91136 7.48825 0.895369 7.35403Z" fill="url(#paint4_linear_305_504)"/>
<path d="M10.7396 11.1247C10.6967 11.0846 10.6539 11.0447 10.6105 11.0054C10.5905 10.9872 10.5705 10.9691 10.5506 10.9512C10.503 10.9085 10.455 10.8666 10.4069 10.8248C10.3929 10.8129 10.3792 10.8006 10.3653 10.7887C10.3036 10.736 10.2413 10.684 10.1789 10.6327C10.1633 10.6201 10.1478 10.6078 10.1322 10.5952C10.0842 10.5564 10.0359 10.5179 9.98736 10.48C9.9663 10.4634 9.94506 10.4471 9.92382 10.4308C9.87786 10.3954 9.83172 10.3605 9.78539 10.3259C9.76617 10.3114 9.74712 10.2969 9.7279 10.2828C9.66326 10.2352 9.59844 10.1882 9.53307 10.142C9.52905 10.1393 9.52483 10.1363 9.52081 10.1336C9.45928 10.0902 9.39739 10.0477 9.33532 10.0058C9.31481 9.99187 9.29412 9.97832 9.27361 9.96459C9.22637 9.93309 9.17895 9.90178 9.13152 9.87102C9.10973 9.85692 9.08794 9.843 9.06634 9.82909C9.01287 9.79503 8.9594 9.76134 8.90557 9.7282C8.89165 9.71959 8.87792 9.7108 8.86382 9.70238C8.79681 9.66118 8.72924 9.6209 8.66167 9.58116C8.6441 9.57091 8.62652 9.56084 8.60876 9.55059C8.55767 9.52092 8.5064 9.49163 8.45513 9.4627C8.43261 9.45006 8.40991 9.43743 8.38738 9.42498C8.33776 9.39733 8.28796 9.37023 8.23815 9.34331C8.21838 9.33269 8.19842 9.32189 8.17864 9.31127C8.10998 9.27483 8.04131 9.23876 7.97247 9.2036C7.96478 9.19976 7.95709 9.19591 7.9494 9.19207C7.88787 9.16075 7.82617 9.12999 7.76446 9.0996C7.74249 9.08898 7.7207 9.07836 7.69872 9.06774C7.64929 9.04393 7.59985 9.02031 7.55041 8.99706C7.52807 8.98662 7.50573 8.976 7.48339 8.96575C7.42645 8.9392 7.3695 8.91338 7.31255 8.88774C7.29955 8.88207 7.28674 8.87603 7.27392 8.87035C7.20452 8.8394 7.13531 8.80938 7.06591 8.77971C7.04687 8.77166 7.02783 8.7636 7.00897 8.75573C6.95733 8.73394 6.90588 8.71233 6.85424 8.69127C6.83117 8.68175 6.8081 8.67241 6.78485 8.66307C6.73394 8.64257 6.68304 8.62224 6.63232 8.60228C6.61273 8.59459 6.59313 8.5869 6.57354 8.57921C6.50415 8.5523 6.43493 8.52593 6.36572 8.50029C6.35546 8.49645 6.34539 8.49279 6.33514 8.48894C6.27563 8.46697 6.2163 8.44536 6.15698 8.4243C6.135 8.41643 6.11285 8.40874 6.09069 8.40087C6.04162 8.38366 5.99237 8.36644 5.94311 8.34978C5.92114 8.34227 5.89917 8.33458 5.87719 8.32726C5.81878 8.30748 5.76055 8.28826 5.70251 8.26921C5.69189 8.26574 5.68127 8.26226 5.67083 8.25878C5.60253 8.23681 5.53442 8.2152 5.46649 8.19414C5.44689 8.1881 5.42767 8.18224 5.40808 8.17638C5.35846 8.161 5.30865 8.14598 5.25921 8.13134C5.23687 8.12474 5.21453 8.11815 5.1922 8.11156C5.14202 8.09691 5.09222 8.08245 5.04242 8.06835C5.02429 8.06322 5.00598 8.05791 4.98785 8.05297C4.92102 8.03411 4.85437 8.0158 4.78808 7.99804C4.77618 7.99492 4.76428 7.99181 4.75238 7.98851C4.69744 7.97405 4.64288 7.95958 4.5885 7.94567C4.56707 7.94017 4.54583 7.93486 4.52441 7.92955C4.4779 7.91765 4.43158 7.90612 4.38543 7.89495C4.36474 7.88982 4.34387 7.88469 4.32299 7.87957C4.26587 7.86583 4.20892 7.85228 4.15216 7.8391C4.14465 7.83727 4.13696 7.83544 4.12945 7.83379C4.06518 7.81896 4.00146 7.80449 3.93811 7.79058C3.91961 7.78655 3.9013 7.78252 3.88299 7.77849C3.83722 7.7686 3.79144 7.75872 3.74603 7.7492C3.72534 7.7448 3.70465 7.74059 3.68396 7.7362C3.63708 7.72649 3.59039 7.71715 3.54388 7.70781C3.52832 7.7047 3.51257 7.70141 3.49701 7.69848C3.43585 7.68621 3.37506 7.67449 3.31482 7.66332C3.30255 7.66094 3.29065 7.65874 3.27856 7.65654C3.23004 7.64757 3.18188 7.63878 3.13391 7.63018C3.11487 7.6267 3.09582 7.6234 3.07678 7.62011C3.03448 7.6126 2.99255 7.60527 2.9508 7.59832C2.93286 7.5952 2.91473 7.59209 2.89697 7.58916C2.84369 7.58037 2.79095 7.57158 2.73877 7.56334C2.73419 7.56261 2.72961 7.56188 2.72503 7.56115C2.66845 7.55217 2.61242 7.54357 2.55694 7.53533C2.54065 7.53277 2.52453 7.53057 2.50824 7.528C2.46814 7.52214 2.4284 7.51647 2.38904 7.51079C2.37146 7.50841 2.35406 7.50585 2.33667 7.50347C2.29565 7.49779 2.25519 7.4923 2.21509 7.48699C2.2019 7.48516 2.18854 7.48333 2.17554 7.48168C2.12353 7.47472 2.07208 7.46813 2.02136 7.4619C2.01001 7.46044 1.99902 7.45916 1.98767 7.45787C1.94775 7.45293 1.9082 7.44817 1.8692 7.44359C1.85327 7.44176 1.83734 7.43993 1.82141 7.4381C1.78625 7.43407 1.75128 7.43023 1.71686 7.42656C1.70257 7.42492 1.68793 7.42345 1.67364 7.4218C1.62695 7.41686 1.58081 7.4121 1.53558 7.40752C1.53503 7.40752 1.5343 7.40734 1.53375 7.40734C1.48779 7.40276 1.44275 7.39855 1.39844 7.39434C1.38507 7.39306 1.37189 7.39196 1.35852 7.39068C1.32684 7.38793 1.29571 7.385 1.26495 7.38244C1.2514 7.38134 1.23785 7.38006 1.22449 7.37896C1.19208 7.37621 1.16003 7.37365 1.12854 7.37127C1.1192 7.37035 1.1095 7.36962 1.10016 7.36889C1.06024 7.36577 1.02106 7.36303 0.982971 7.36028C0.973815 7.35955 0.965026 7.359 0.956054 7.35827C0.934814 7.3568 0.914306 7.35552 0.893615 7.35405C0.653564 7.33867 0.422851 7.44158 0.255859 7.60857L12.2963 19.649C12.3783 19.567 12.4446 19.4692 12.4891 19.3619C12.4937 19.3509 12.4983 19.3396 12.503 19.328C12.5054 19.3224 12.5078 19.3167 12.5102 19.3108C12.5184 19.2901 12.527 19.2689 12.5356 19.2467C12.5371 19.2431 12.5386 19.2391 12.54 19.2354C12.5474 19.2167 12.5547 19.1979 12.5622 19.1783C12.5653 19.1702 12.5684 19.1618 12.5713 19.1535C12.5774 19.1376 12.5834 19.1215 12.5895 19.105C12.5929 19.0955 12.5966 19.0858 12.6001 19.0761C12.6061 19.0596 12.6122 19.0429 12.6182 19.0259C12.6217 19.016 12.6254 19.0061 12.6288 18.9959C12.6354 18.9774 12.6418 18.9585 12.6484 18.9395C12.6515 18.9303 12.6547 18.9215 12.6578 18.9122C12.6675 18.8838 12.6772 18.8547 12.6869 18.8251C12.6872 18.8238 12.6876 18.8227 12.688 18.8216C12.6973 18.793 12.7067 18.7637 12.716 18.734C12.7191 18.724 12.7222 18.7137 12.7253 18.7037C12.7321 18.682 12.7387 18.6604 12.7453 18.6383C12.749 18.6264 12.7524 18.6143 12.7561 18.602C12.7623 18.581 12.7685 18.5597 12.7746 18.5383C12.7784 18.5255 12.7821 18.5127 12.7858 18.4997C12.7922 18.4768 12.7984 18.4537 12.8048 18.4305C12.8079 18.4187 12.8112 18.407 12.8145 18.3951C12.8227 18.364 12.831 18.3325 12.8392 18.3005C12.8403 18.2961 12.8414 18.2918 12.8425 18.2876C12.8519 18.2512 12.8608 18.2142 12.8698 18.1769C12.8725 18.1655 12.8751 18.1538 12.8779 18.1423C12.8843 18.1157 12.8903 18.089 12.8965 18.0619C12.8996 18.0478 12.9028 18.0337 12.9059 18.0194C12.9114 17.9941 12.9169 17.9687 12.9222 17.9429C12.9253 17.9278 12.9284 17.9128 12.9315 17.8978C12.937 17.8714 12.9421 17.8447 12.9474 17.8178C12.9502 17.8035 12.9529 17.7892 12.9557 17.7749C12.9617 17.7424 12.9676 17.7096 12.9734 17.6766C12.9751 17.6675 12.9767 17.6587 12.9782 17.6495C12.9855 17.6076 12.9925 17.5649 12.9991 17.5219C13.0009 17.5105 13.0026 17.499 13.0042 17.4877C13.0091 17.4556 13.0137 17.4236 13.0183 17.391C13.0205 17.3752 13.0225 17.3591 13.0247 17.3432C13.0286 17.3144 13.0322 17.2855 13.0357 17.2564C13.0379 17.2394 13.0399 17.2223 13.0419 17.2051C13.0452 17.1758 13.0483 17.1463 13.0514 17.1167C13.0533 17.1 13.0549 17.0834 13.0566 17.0667C13.0599 17.033 13.0628 16.9991 13.0657 16.9651C13.0668 16.9523 13.0679 16.9394 13.069 16.9266C13.0727 16.8797 13.076 16.8327 13.0789 16.7851C13.0795 16.775 13.0798 16.7649 13.0806 16.755C13.0826 16.7171 13.0846 16.6792 13.0862 16.641C13.0868 16.6239 13.0873 16.6069 13.0879 16.5899C13.0892 16.5578 13.0901 16.5258 13.0908 16.4934C13.0912 16.4749 13.0914 16.4564 13.0917 16.4377C13.0923 16.4059 13.0925 16.3738 13.0925 16.3418C13.0925 16.3233 13.0926 16.3048 13.0925 16.2863C13.0923 16.2515 13.0915 16.2164 13.091 16.1812C13.0906 16.1656 13.0904 16.1501 13.0901 16.1345C13.0886 16.0838 13.0868 16.0329 13.0844 15.9816C13.084 15.9761 13.0837 15.9704 13.0835 15.9649C13.0811 15.9192 13.0784 15.8732 13.0751 15.8271C13.074 15.8097 13.0725 15.7923 13.071 15.7749C13.0685 15.7399 13.0655 15.7049 13.0622 15.67C13.0604 15.6502 13.0584 15.6304 13.0566 15.6106C13.0531 15.5769 13.0494 15.5431 13.0456 15.5092C13.0432 15.4894 13.0408 15.4695 13.0384 15.4497C13.034 15.4138 13.0291 15.3779 13.024 15.342C13.0216 15.3243 13.0192 15.3065 13.0165 15.2886C13.0091 15.2391 13.0013 15.1895 12.9928 15.1397C12.9921 15.1355 12.9916 15.1315 12.9908 15.1274C12.9815 15.0736 12.9714 15.0194 12.9606 14.9652C12.9573 14.9483 12.9537 14.9315 12.9502 14.9147C12.9423 14.8769 12.9344 14.839 12.9258 14.8011C12.9213 14.781 12.9165 14.7607 12.9117 14.7403C12.9035 14.7052 12.8949 14.6698 12.8861 14.6343C12.8808 14.6136 12.8757 14.5929 12.8702 14.5721C12.8606 14.5356 12.8506 14.4992 12.8403 14.4626C12.835 14.4433 12.8297 14.4241 12.8242 14.4049C12.811 14.3598 12.7973 14.3146 12.7832 14.2694C12.7799 14.259 12.777 14.2485 12.7737 14.2383C12.7559 14.1826 12.7372 14.1269 12.7178 14.0711C12.7125 14.0555 12.7067 14.04 12.7012 14.0244C12.6867 13.9839 12.6719 13.9435 12.6565 13.9028C12.649 13.8825 12.6409 13.8622 12.6329 13.8418C12.6188 13.8056 12.6043 13.7691 12.5893 13.7329C12.5805 13.7117 12.5717 13.6902 12.5627 13.669C12.5472 13.6324 12.5312 13.5957 12.5149 13.5589C12.506 13.5388 12.4972 13.5187 12.488 13.4985C12.4688 13.4564 12.4487 13.4143 12.4285 13.3722C12.4216 13.3577 12.415 13.3434 12.4078 13.329C12.3804 13.2728 12.3518 13.2164 12.3221 13.16C12.3152 13.147 12.3079 13.134 12.3009 13.1208C12.2778 13.0774 12.2542 13.034 12.2298 12.9906C12.2185 12.9708 12.207 12.9509 12.1956 12.9309C12.1742 12.8941 12.1528 12.8571 12.1306 12.8201C12.1178 12.7989 12.1048 12.7775 12.0916 12.7562C12.0693 12.7198 12.0464 12.6835 12.0231 12.6471C12.0099 12.6266 11.9968 12.6059 11.9832 12.5852C11.9572 12.5453 11.9303 12.5054 11.903 12.4656C11.8917 12.449 11.8807 12.4325 11.8689 12.4158C11.8299 12.3598 11.7898 12.3036 11.7486 12.2477C11.7422 12.2391 11.7353 12.2303 11.7289 12.2217C11.6935 12.1745 11.6576 12.1271 11.6207 12.08C11.6058 12.061 11.5904 12.0421 11.5752 12.0232C11.5456 11.9861 11.5156 11.9489 11.485 11.9119C11.4676 11.8909 11.4498 11.87 11.4322 11.8491C11.402 11.8134 11.3713 11.7779 11.34 11.7424C11.3218 11.7217 11.3037 11.701 11.2852 11.6805C11.2515 11.6427 11.2167 11.605 11.1818 11.5673C11.1651 11.5495 11.149 11.5318 11.1321 11.514C11.0801 11.4591 11.027 11.4043 10.9725 11.3496C10.9139 11.291 10.8545 11.2337 10.795 11.1767C10.7765 11.1593 10.758 11.1421 10.7396 11.1247Z" fill="url(#paint5_linear_305_504)"/>
<path d="M4.67523 10.4962C4.70837 10.6192 4.73291 10.7428 4.75873 10.8649C4.78491 10.9871 4.81109 11.1086 4.83069 11.2299C4.85284 11.3509 4.8576 11.4721 4.86474 11.5917C4.87115 11.7112 4.89642 11.829 4.93945 11.9484C4.98413 12.0668 5.03375 12.1849 5.09729 12.3069C4.96234 12.1816 4.82757 12.0564 4.69244 11.9312L4.03876 11.3124C3.81958 11.1068 3.61249 10.8922 3.39569 10.6838C2.96905 10.2616 2.55817 9.82928 2.16962 9.37335L2.07129 9.42865L2.31921 9.80713L2.44409 9.99774C2.48712 10.0604 2.53308 10.1201 2.57739 10.1814C2.7594 10.4225 2.93518 10.673 3.12707 10.9069C3.50152 11.3849 3.89465 11.8469 4.28631 12.3115C4.36358 12.3992 4.44104 12.4872 4.51831 12.5753C4.43023 12.5495 4.34234 12.5301 4.25336 12.5244C4.1336 12.5162 4.01221 12.5101 3.89117 12.4869C3.76996 12.4662 3.64838 12.4389 3.52624 12.4116C3.40411 12.3847 3.28052 12.3589 3.15747 12.3246C2.90918 12.2666 2.66199 12.186 2.40674 12.11L2.38513 12.1703C2.60907 12.3431 2.84473 12.5028 3.08899 12.6445C3.21094 12.7167 3.33527 12.7809 3.46051 12.8469C3.58667 12.9066 3.71374 12.9668 3.8421 13.0206C3.97046 13.0754 4.09918 13.138 4.22973 13.1953C4.36047 13.2499 4.49304 13.2832 4.62433 13.2889C4.65014 13.2896 4.67596 13.2902 4.7016 13.29C4.98156 13.2889 5.27563 13.4335 5.48932 13.6685L5.49334 13.6728C5.86523 14.0817 6.24353 14.4831 6.62072 14.8867C6.49676 14.8531 6.37921 14.8319 6.26275 14.8158C6.14282 14.8011 6.02874 14.8044 5.9176 14.8273C5.80645 14.8497 5.69439 14.8748 5.57794 14.8819C5.46222 14.8918 5.34448 14.8949 5.22638 14.8984C5.10809 14.902 4.98871 14.9075 4.86804 14.9039C4.62671 14.9083 4.3808 14.8892 4.12884 14.8768L4.12463 14.944C4.37311 15.0635 4.62872 15.167 4.88763 15.2494C5.01727 15.292 5.14709 15.3261 5.2782 15.3616C5.40838 15.3904 5.53967 15.4195 5.67041 15.4416C5.80151 15.4649 5.93463 15.496 6.06848 15.5213C6.20141 15.5436 6.33087 15.5438 6.4519 15.516C6.50518 15.503 6.55792 15.4878 6.60955 15.4695C6.86114 15.3798 7.18267 15.4913 7.40094 15.7297C7.58825 15.9344 7.77539 16.1395 7.96398 16.3429C8.20239 16.6013 8.45086 16.849 8.70648 17.0889C8.59973 17.0623 8.497 17.044 8.39538 17.0299C8.27545 17.0153 8.16137 17.0185 8.05023 17.0414C7.93908 17.0638 7.82684 17.0889 7.71057 17.096C7.59484 17.1059 7.47711 17.109 7.35882 17.1125C7.24053 17.1163 7.12133 17.1216 7.00048 17.118C6.75933 17.1224 6.51342 17.1033 6.26147 17.0909L6.25726 17.1581C6.50555 17.2778 6.76135 17.3811 7.02026 17.4635C7.14971 17.5063 7.27972 17.5402 7.41064 17.5757C7.54083 17.6045 7.67211 17.6336 7.80303 17.6558C7.93395 17.6792 8.06726 17.7101 8.20111 17.7354C8.33404 17.7577 8.4635 17.7579 8.58453 17.7301C8.70428 17.7008 8.82165 17.6603 8.92877 17.5975C9.05145 17.5256 9.22283 17.5475 9.35906 17.6587C9.71191 17.9462 10.3528 18.4616 10.7075 18.7158C11.1898 19.0572 11.6834 19.3852 12.2161 19.6661C12.2421 19.68 12.2772 19.6714 12.2992 19.6457C12.3199 19.6221 12.3237 19.5895 12.3087 19.5665C11.9758 19.0554 11.6091 18.5854 11.2313 18.1287C10.8428 17.6614 10.4403 17.2112 10.0252 16.7754C10.0179 16.7677 10.0106 16.7598 10.0032 16.7521C9.86938 16.6115 9.8377 16.4214 9.91515 16.2852C9.97228 16.1847 10.0107 16.0756 10.0391 15.9642C10.0682 15.8436 10.0693 15.7145 10.0483 15.5815C10.0243 15.4479 9.99444 15.3146 9.97228 15.1835C9.95141 15.0527 9.92358 14.9216 9.89593 14.7913C9.8615 14.6602 9.82891 14.5303 9.78735 14.4007C9.70715 14.1414 9.60607 13.8854 9.4887 13.6364L9.42114 13.6399C9.43121 13.8915 9.44787 14.137 9.44128 14.3776C9.44366 14.4983 9.43707 14.6171 9.43231 14.735C9.42755 14.853 9.42333 14.9705 9.41216 15.0859C9.40392 15.202 9.37774 15.3137 9.3543 15.4243C9.33032 15.5348 9.32592 15.6487 9.33929 15.7685C9.35613 15.8985 9.3803 16.0303 9.41985 16.1708C9.19097 15.9538 8.95641 15.743 8.71655 15.5383C8.52355 15.3763 8.26538 15.1553 8.03906 14.9604C7.79827 14.7534 7.67816 14.4393 7.75579 14.1865C7.7937 14.0629 7.81164 13.9303 7.84112 13.8146C7.87023 13.6939 7.87133 13.5648 7.85028 13.4319C7.82629 13.2982 7.79644 13.1649 7.77447 13.034C7.75341 12.9031 7.72558 12.772 7.69793 12.6418C7.66369 12.5107 7.63092 12.3807 7.58935 12.251C7.50915 11.9919 7.40826 11.7358 7.29071 11.4868L7.22332 11.4902C7.23321 11.7418 7.24987 11.9874 7.24328 12.228C7.24566 12.3486 7.23925 12.4675 7.23431 12.5854C7.22973 12.7035 7.22534 12.8209 7.21435 12.9362C7.20611 13.0523 7.17993 13.164 7.15631 13.2746C7.13232 13.3854 7.12793 13.4991 7.14148 13.6188C7.17096 13.8479 7.22167 14.0819 7.3471 14.3622C6.90362 13.9594 6.4563 13.5591 6.01776 13.151L6.00055 13.1354C5.72937 12.8921 5.57171 12.5438 5.61419 12.2346C5.6261 12.147 5.62921 12.058 5.62719 11.9692C5.6228 11.8381 5.59076 11.7054 5.53729 11.5746C5.48108 11.4437 5.41974 11.3146 5.36609 11.1861C5.31335 11.0574 5.25421 10.9301 5.19562 10.8036C5.1308 10.6782 5.06762 10.5533 4.9964 10.431C4.85687 10.186 4.69922 9.94922 4.5282 9.72418L4.46759 9.74506C4.5412 10.0003 4.61957 10.2479 4.67523 10.4962Z" fill="url(#paint6_linear_305_504)"/>
</g>
<defs>
<linearGradient id="paint0_linear_305_504" x1="13.3341" y1="6.69059" x2="20.3094" y2="13.666" gradientUnits="userSpaceOnUse">
<stop stop-color="#7AC943"/>
<stop offset="0.4564" stop-color="#5FC146"/>
<stop offset="1" stop-color="#39B54A"/>
</linearGradient>
<linearGradient id="paint1_linear_305_504" x1="20.0576" y1="12.0092" x2="13.7173" y2="8.45477" gradientUnits="userSpaceOnUse">
<stop stop-color="#39B54A" stop-opacity="0"/>
<stop offset="0.1072" stop-color="#2FAB48" stop-opacity="0.105882"/>
<stop offset="0.4553" stop-color="#159043" stop-opacity="0.454902"/>
<stop offset="0.7642" stop-color="#06803F" stop-opacity="0.764706"/>
<stop offset="1" stop-color="#007A3E"/>
</linearGradient>
<linearGradient id="paint2_linear_305_504" x1="14.892" y1="10.3456" x2="16.6617" y2="12.1153" gradientUnits="userSpaceOnUse">
<stop stop-color="#39B54A"/>
<stop offset="0.2394" stop-color="#32AD48"/>
<stop offset="0.6031" stop-color="#1D9844"/>
<stop offset="1" stop-color="#007A3E"/>
</linearGradient>
<linearGradient id="paint3_linear_305_504" x1="15.5901" y1="19.4031" x2="8.54959" y2="12.3626" gradientUnits="userSpaceOnUse">
<stop stop-color="#39B54A" stop-opacity="0"/>
<stop offset="0.1072" stop-color="#2FAB48" stop-opacity="0.105882"/>
<stop offset="0.4553" stop-color="#159043" stop-opacity="0.454902"/>
<stop offset="0.7642" stop-color="#06803F" stop-opacity="0.764706"/>
<stop offset="1" stop-color="#007A3E"/>
</linearGradient>
<linearGradient id="paint4_linear_305_504" x1="2.78863" y1="17.1164" x2="9.764" y2="10.1411" gradientUnits="userSpaceOnUse">
<stop stop-color="#7AC943"/>
<stop offset="0.4564" stop-color="#5FC146"/>
<stop offset="1" stop-color="#39B54A"/>
</linearGradient>
<linearGradient id="paint5_linear_305_504" x1="8.20054" y1="10.4865" x2="4.93954" y2="16.8852" gradientUnits="userSpaceOnUse">
<stop stop-color="#39B54A" stop-opacity="0"/>
<stop offset="0.1072" stop-color="#2FAB48" stop-opacity="0.105882"/>
<stop offset="0.4553" stop-color="#159043" stop-opacity="0.454902"/>
<stop offset="0.7642" stop-color="#06803F" stop-opacity="0.764706"/>
<stop offset="1" stop-color="#007A3E"/>
</linearGradient>
<linearGradient id="paint6_linear_305_504" x1="6.30374" y1="15.4189" x2="8.07343" y2="13.6492" gradientUnits="userSpaceOnUse">
<stop stop-color="#39B54A"/>
<stop offset="0.2394" stop-color="#32AD48"/>
<stop offset="0.6031" stop-color="#1D9844"/>
<stop offset="1" stop-color="#007A3E"/>
</linearGradient>
<clipPath id="clip0_305_504">
<rect width="24" height="24" fill="white"/>
</clipPath>
</defs>
</svg>
