<svg width="24" height="24" viewBox="0 0 24 24" fill="none" xmlns="http://www.w3.org/2000/svg">
<g clip-path="url(#clip0_305_862)">
<path d="M10.2336 19.9551C11.1469 18.8667 11.7486 17.6844 11.9939 16.6317C12.0453 16.4112 11.7493 16.1628 11.5411 16.2517C10.5469 16.6761 9.48701 17.474 8.57379 18.5623C7.66057 19.6506 7.05882 20.8329 6.81351 21.8857C6.76212 22.1062 7.05817 22.3546 7.26635 22.2657C8.26057 21.8414 9.32042 21.0435 10.2336 19.9551Z" fill="url(#paint0_linear_305_862)"/>
<path d="M6.94259 22.1918L11.8648 16.3257C11.7712 16.2471 11.6452 16.2072 11.5411 16.2517C10.5469 16.6761 9.48701 17.474 8.57379 18.5623C7.66057 19.6506 7.05882 20.8329 6.81351 21.8857C6.78781 21.996 6.84899 22.1132 6.94259 22.1918Z" fill="url(#paint1_linear_305_862)"/>
<path d="M13.7662 19.9551C12.8529 18.8667 12.2512 17.6844 12.0059 16.6317C11.9545 16.4112 12.2505 16.1628 12.4587 16.2517C13.4529 16.6761 14.5128 17.474 15.426 18.5623C16.3393 19.6506 16.941 20.8329 17.1863 21.8857C17.2377 22.1062 16.9417 22.3546 16.7335 22.2657C15.7393 21.8414 14.6794 21.0435 13.7662 19.9551Z" fill="url(#paint2_linear_305_862)"/>
<path d="M13.7662 19.9551C12.8529 18.8667 12.2512 17.6844 12.0059 16.6317C11.9545 16.4112 12.2505 16.1628 12.4587 16.2517C13.4529 16.6761 14.5128 17.474 15.426 18.5623C16.3393 19.6506 16.941 20.8329 17.1863 21.8857C17.2377 22.1062 16.9417 22.3546 16.7335 22.2657C15.7393 21.8414 14.6794 21.0435 13.7662 19.9551Z" fill="url(#paint3_linear_305_862)"/>
<path d="M12.1349 16.3258L17.0575 22.1916C16.9637 22.2703 16.8379 22.3099 16.7338 22.2656C15.7392 21.8411 14.6796 21.0435 13.7665 19.9551C12.853 18.8667 12.2513 17.6846 12.0058 16.6316C11.9804 16.5213 12.0411 16.4045 12.1349 16.3258Z" fill="url(#paint4_linear_305_862)"/>
<path d="M7.19849 17.6642C9.02456 17.5044 10.6521 16.9748 11.8364 16.2381C12.0844 16.0838 12.041 15.5871 11.7699 15.4783C10.4757 14.9584 8.78089 14.7194 6.95482 14.8792C5.12875 15.039 3.50118 15.5686 2.31689 16.3053C2.06889 16.4596 2.11233 16.9563 2.38339 17.0651C3.6776 17.5849 5.37242 17.824 7.19849 17.6642Z" fill="url(#paint5_linear_305_862)"/>
<path d="M2.15549 16.7023L11.9978 15.8412C11.9841 15.6841 11.9054 15.5327 11.7699 15.4783C10.4757 14.9585 8.78086 14.7195 6.95479 14.8793C5.12872 15.039 3.50114 15.5687 2.31686 16.3054C2.19291 16.3825 2.14175 16.5452 2.15549 16.7023Z" fill="url(#paint6_linear_305_862)"/>
<path d="M16.8015 17.6642C14.9754 17.5044 13.3479 16.9748 12.1636 16.2381C11.9156 16.0838 11.959 15.5871 12.2301 15.4783C13.5243 14.9584 15.2191 14.7194 17.0452 14.8792C18.8712 15.039 20.4988 15.5686 21.6831 16.3053C21.9311 16.4596 21.8877 16.9563 21.6166 17.0651C20.3224 17.5849 18.6276 17.824 16.8015 17.6642Z" fill="url(#paint7_linear_305_862)"/>
<path d="M16.8015 17.6642C14.9754 17.5044 13.3479 16.9748 12.1636 16.2381C11.9156 16.0838 11.959 15.5871 12.2301 15.4783C13.5243 14.9584 15.2191 14.7194 17.0452 14.8792C18.8712 15.039 20.4988 15.5686 21.6831 16.3053C21.9311 16.4596 21.8877 16.9563 21.6166 17.0651C20.3224 17.5849 18.6276 17.824 16.8015 17.6642Z" fill="url(#paint8_linear_305_862)"/>
<path d="M21.844 16.7023C21.8304 16.8592 21.7522 17.0104 21.6165 17.065C20.3222 17.5847 18.6275 17.8241 16.8013 17.6643C14.9751 17.5046 13.3478 16.9746 12.1633 16.2382C12.0394 16.1609 11.9885 15.9984 12.0022 15.841L21.844 16.7023Z" fill="url(#paint9_linear_305_862)"/>
<path d="M6.41315 13.6293C8.22053 14.6728 10.0577 15.288 11.5996 15.45C11.9225 15.4839 12.1718 15.0521 11.981 14.7894C11.0697 13.5351 9.61837 12.2517 7.81098 11.2082C6.00359 10.1647 4.16646 9.54953 2.62453 9.38751C2.30162 9.35358 2.05235 9.78539 2.24317 10.0481C3.15442 11.3024 4.60571 12.5858 6.41315 13.6293Z" fill="url(#paint10_linear_305_862)"/>
<path d="M2.24121 9.60656L11.9829 15.2309C12.0617 15.0944 12.0764 14.9208 11.9809 14.7894C11.0697 13.5351 9.61834 12.2517 7.81095 11.2082C6.00356 10.1647 4.16643 9.54953 2.62455 9.3875C2.46309 9.37056 2.32003 9.47 2.24121 9.60656Z" fill="url(#paint11_linear_305_862)"/>
<path d="M17.5873 13.6293C15.78 14.6728 13.9428 15.288 12.4009 15.45C12.078 15.4839 11.8287 15.0521 12.0195 14.7894C12.9308 13.5351 14.3821 12.2517 16.1895 11.2082C17.9969 10.1647 19.834 9.54953 21.376 9.38751C21.6989 9.35358 21.9481 9.78539 21.7573 10.0481C20.8461 11.3024 19.3948 12.5858 17.5873 13.6293Z" fill="url(#paint12_linear_305_862)"/>
<path d="M17.5873 13.6293C15.78 14.6728 13.9428 15.288 12.4009 15.45C12.078 15.4839 11.8287 15.0521 12.0195 14.7894C12.9308 13.5351 14.3821 12.2517 16.1895 11.2082C17.9969 10.1647 19.834 9.54953 21.376 9.38751C21.6989 9.35358 21.9481 9.78539 21.7573 10.0481C20.8461 11.3024 19.3948 12.5858 17.5873 13.6293Z" fill="url(#paint13_linear_305_862)"/>
<path d="M21.7572 10.0483C20.846 11.3025 19.3949 12.5859 17.5871 13.6295C15.7797 14.6726 13.9427 15.2879 12.4006 15.45C12.2395 15.467 12.0963 15.3676 12.0176 15.231L21.7591 9.60681C21.8378 9.74295 21.8529 9.91679 21.7572 10.0483Z" fill="url(#paint14_linear_305_862)"/>
<path d="M7.76209 8.88637C8.81221 11.1384 10.1172 13.024 11.4014 14.2858C11.6704 14.55 12.1222 14.3393 12.0927 13.9635C11.9516 12.1686 11.3459 9.95691 10.2958 7.70491C9.24571 5.45291 7.94073 3.56726 6.65654 2.30548C6.3876 2.04124 5.93574 2.25197 5.96524 2.62783C6.10633 4.42265 6.71197 6.63437 7.76209 8.88637Z" fill="url(#paint15_linear_305_862)"/>
<path d="M6.19922 2.22662L11.8593 14.3647C12.0022 14.2981 12.1077 14.1514 12.093 13.9635C11.9519 12.1686 11.3462 9.95693 10.2961 7.70493C9.24595 5.45293 7.94096 3.56728 6.65677 2.30549C6.52228 2.17335 6.34209 2.15998 6.19922 2.22662Z" fill="url(#paint16_linear_305_862)"/>
<path d="M16.2372 8.88637C15.1871 11.1384 13.8821 13.024 12.5979 14.2858C12.329 14.55 11.8771 14.3393 11.9067 13.9635C12.0477 12.1686 12.6534 9.95691 13.7035 7.70491C14.7537 5.45291 16.0587 3.56726 17.3428 2.30548C17.6118 2.04124 18.0636 2.25197 18.0341 2.62783C17.893 4.42265 17.2874 6.63437 16.2372 8.88637Z" fill="url(#paint17_linear_305_862)"/>
<path d="M16.2372 8.88637C15.1871 11.1384 13.8821 13.024 12.5979 14.2858C12.329 14.55 11.8771 14.3393 11.9067 13.9635C12.0477 12.1686 12.6534 9.95691 13.7035 7.70491C14.7537 5.45291 16.0587 3.56726 17.3428 2.30548C17.6118 2.04124 18.0636 2.25197 18.0341 2.62783C17.893 4.42265 17.2874 6.63437 16.2372 8.88637Z" fill="url(#paint18_linear_305_862)"/>
<path d="M18.0343 2.62804C17.8934 4.42263 17.2875 6.63425 16.2373 8.88634C15.1875 11.1384 13.8825 13.024 12.5981 14.2857C12.4639 14.4176 12.2834 14.4313 12.1406 14.3649L17.8006 2.22705C17.9438 2.2935 18.0489 2.44004 18.0343 2.62804Z" fill="url(#paint19_linear_305_862)"/>
<path d="M11.9998 24C11.8047 24 11.6465 23.8418 11.6465 23.6467V12.0144C11.6465 11.8192 11.8047 11.661 11.9998 11.661C12.195 11.661 12.3532 11.8192 12.3532 12.0144V23.6467C12.3532 23.8418 12.195 24 11.9998 24Z" fill="url(#paint20_linear_305_862)"/>
<path d="M10.5293 7.04626C10.5293 9.66089 10.9353 12.0394 11.5989 13.8138C11.7378 14.1854 12.2625 14.1854 12.4014 13.8138C13.065 12.0394 13.471 9.66089 13.471 7.04626C13.471 4.43162 13.065 2.05308 12.4014 0.278682C12.2624 -0.0928941 11.7378 -0.0928941 11.5988 0.278682C10.9352 2.05308 10.5293 4.43162 10.5293 7.04626Z" fill="url(#paint21_linear_305_862)"/>
<path d="M12 0V14.0925C12.1659 14.0925 12.3318 13.9996 12.4013 13.8138C13.0648 12.0394 13.4708 9.66089 13.4708 7.04626C13.4708 4.43162 13.0649 2.05308 12.4013 0.278682C12.3318 0.0928941 12.1659 0 12 0V0Z" fill="url(#paint22_linear_305_862)"/>
</g>
<defs>
<linearGradient id="paint0_linear_305_862" x1="10.0897" y1="21.0295" x2="9.70458" y2="16.381" gradientUnits="userSpaceOnUse">
<stop stop-color="#8BC727"/>
<stop offset="1" stop-color="#017B4E"/>
</linearGradient>
<linearGradient id="paint1_linear_305_862" x1="8.41904" y1="18.9502" x2="11.5136" y2="19.0253" gradientUnits="userSpaceOnUse">
<stop stop-color="#026841" stop-opacity="0"/>
<stop offset="0.2391" stop-color="#0A6644" stop-opacity="0.239"/>
<stop offset="0.6113" stop-color="#20604D" stop-opacity="0.611"/>
<stop offset="1" stop-color="#3E5959"/>
</linearGradient>
<linearGradient id="paint2_linear_305_862" x1="12.5185" y1="17.1811" x2="17.8038" y2="22.4663" gradientUnits="userSpaceOnUse">
<stop stop-color="#8BC727"/>
<stop offset="1" stop-color="#017B4E"/>
</linearGradient>
<linearGradient id="paint3_linear_305_862" x1="14.5481" y1="19.134" x2="13.4409" y2="16.2599" gradientUnits="userSpaceOnUse">
<stop stop-color="#026841" stop-opacity="0"/>
<stop offset="0.2391" stop-color="#0A6644" stop-opacity="0.239"/>
<stop offset="0.6113" stop-color="#20604D" stop-opacity="0.611"/>
<stop offset="1" stop-color="#3E5959"/>
</linearGradient>
<linearGradient id="paint4_linear_305_862" x1="13.3972" y1="20.8755" x2="16.0363" y2="17.2939" gradientUnits="userSpaceOnUse">
<stop stop-color="#026841" stop-opacity="0"/>
<stop offset="0.2391" stop-color="#0A6644" stop-opacity="0.239"/>
<stop offset="0.6113" stop-color="#20604D" stop-opacity="0.611"/>
<stop offset="1" stop-color="#3E5959"/>
</linearGradient>
<linearGradient id="paint5_linear_305_862" x1="6.09019" y1="18.5137" x2="9.97819" y2="13.9221" gradientUnits="userSpaceOnUse">
<stop stop-color="#8BC727"/>
<stop offset="1" stop-color="#017B4E"/>
</linearGradient>
<linearGradient id="paint6_linear_305_862" x1="6.46324" y1="15.0939" x2="9.21673" y2="17.9881" gradientUnits="userSpaceOnUse">
<stop stop-color="#026841" stop-opacity="0"/>
<stop offset="0.2391" stop-color="#0A6644" stop-opacity="0.239"/>
<stop offset="0.6113" stop-color="#20604D" stop-opacity="0.611"/>
<stop offset="1" stop-color="#3E5959"/>
</linearGradient>
<linearGradient id="paint7_linear_305_862" x1="16.1871" y1="14.3851" x2="17.6948" y2="18.2486" gradientUnits="userSpaceOnUse">
<stop stop-color="#8BC727"/>
<stop offset="1" stop-color="#017B4E"/>
</linearGradient>
<linearGradient id="paint8_linear_305_862" x1="17.093" y1="16.5063" x2="14.9964" y2="13.6087" gradientUnits="userSpaceOnUse">
<stop stop-color="#026841" stop-opacity="0"/>
<stop offset="0.2391" stop-color="#0A6644" stop-opacity="0.239"/>
<stop offset="0.6113" stop-color="#20604D" stop-opacity="0.611"/>
<stop offset="1" stop-color="#3E5959"/>
</linearGradient>
<linearGradient id="paint9_linear_305_862" x1="17.3132" y1="17.3346" x2="15.46" y2="12.6545" gradientUnits="userSpaceOnUse">
<stop stop-color="#026841" stop-opacity="0"/>
<stop offset="0.2391" stop-color="#0A6644" stop-opacity="0.239"/>
<stop offset="0.6113" stop-color="#20604D" stop-opacity="0.611"/>
<stop offset="1" stop-color="#3E5959"/>
</linearGradient>
<linearGradient id="paint10_linear_305_862" x1="4.87529" y1="13.6071" x2="10.9427" y2="11.5841" gradientUnits="userSpaceOnUse">
<stop stop-color="#8BC727"/>
<stop offset="1" stop-color="#017B4E"/>
</linearGradient>
<linearGradient id="paint11_linear_305_862" x1="7.22237" y1="11.0651" x2="7.58958" y2="15.234" gradientUnits="userSpaceOnUse">
<stop stop-color="#026841" stop-opacity="0"/>
<stop offset="0.2391" stop-color="#0A6644" stop-opacity="0.239"/>
<stop offset="0.6113" stop-color="#20604D" stop-opacity="0.611"/>
<stop offset="1" stop-color="#3E5959"/>
</linearGradient>
<linearGradient id="paint12_linear_305_862" x1="17.0339" y1="9.77193" x2="16.7198" y2="15.4885" gradientUnits="userSpaceOnUse">
<stop stop-color="#8BC727"/>
<stop offset="1" stop-color="#017B4E"/>
</linearGradient>
<linearGradient id="paint13_linear_305_862" x1="15.8509" y1="12.1464" x2="13.3381" y2="11.4868" gradientUnits="userSpaceOnUse">
<stop stop-color="#026841" stop-opacity="0"/>
<stop offset="0.2391" stop-color="#0A6644" stop-opacity="0.239"/>
<stop offset="0.6113" stop-color="#20604D" stop-opacity="0.611"/>
<stop offset="1" stop-color="#3E5959"/>
</linearGradient>
<linearGradient id="paint14_linear_305_862" x1="17.5749" y1="12.9826" x2="15.3448" y2="11.2237" gradientUnits="userSpaceOnUse">
<stop stop-color="#026841" stop-opacity="0"/>
<stop offset="0.2391" stop-color="#0A6644" stop-opacity="0.239"/>
<stop offset="0.6113" stop-color="#20604D" stop-opacity="0.611"/>
<stop offset="1" stop-color="#3E5959"/>
</linearGradient>
<linearGradient id="paint15_linear_305_862" x1="6.40861" y1="7.75093" x2="13.1243" y2="9.13301" gradientUnits="userSpaceOnUse">
<stop stop-color="#8BC727"/>
<stop offset="1" stop-color="#017B4E"/>
</linearGradient>
<linearGradient id="paint16_linear_305_862" x1="9.85052" y1="7.14508" x2="7.35749" y2="10.7753" gradientUnits="userSpaceOnUse">
<stop stop-color="#026841" stop-opacity="0"/>
<stop offset="0.2391" stop-color="#0A6644" stop-opacity="0.239"/>
<stop offset="0.6113" stop-color="#20604D" stop-opacity="0.611"/>
<stop offset="1" stop-color="#3E5959"/>
</linearGradient>
<linearGradient id="paint17_linear_305_862" x1="14.1642" y1="5.74741" x2="15.9231" y2="11.307" gradientUnits="userSpaceOnUse">
<stop stop-color="#8BC727"/>
<stop offset="1" stop-color="#017B4E"/>
</linearGradient>
<linearGradient id="paint18_linear_305_862" x1="13.8253" y1="8.65188" x2="12.4119" y2="9.09164" gradientUnits="userSpaceOnUse">
<stop stop-color="#026841" stop-opacity="0"/>
<stop offset="0.2391" stop-color="#0A6644" stop-opacity="0.239"/>
<stop offset="0.6113" stop-color="#20604D" stop-opacity="0.611"/>
<stop offset="1" stop-color="#3E5959"/>
</linearGradient>
<linearGradient id="paint19_linear_305_862" x1="16.1877" y1="8.30766" x2="11.6332" y2="8.33905" gradientUnits="userSpaceOnUse">
<stop stop-color="#026841" stop-opacity="0"/>
<stop offset="0.2391" stop-color="#0A6644" stop-opacity="0.239"/>
<stop offset="0.6113" stop-color="#20604D" stop-opacity="0.611"/>
<stop offset="1" stop-color="#3E5959"/>
</linearGradient>
<linearGradient id="paint20_linear_305_862" x1="11.6465" y1="17.8305" x2="12.3532" y2="17.8305" gradientUnits="userSpaceOnUse">
<stop stop-color="#8BC727"/>
<stop offset="1" stop-color="#017B4E"/>
</linearGradient>
<linearGradient id="paint21_linear_305_862" x1="9.74163" y1="5.36551" x2="15.5301" y2="9.67323" gradientUnits="userSpaceOnUse">
<stop stop-color="#8BC727"/>
<stop offset="1" stop-color="#017B4E"/>
</linearGradient>
<linearGradient id="paint22_linear_305_862" x1="13.293" y1="6.32" x2="9.29962" y2="8.67167" gradientUnits="userSpaceOnUse">
<stop stop-color="#026841" stop-opacity="0"/>
<stop offset="0.2391" stop-color="#0A6644" stop-opacity="0.239"/>
<stop offset="0.6113" stop-color="#20604D" stop-opacity="0.611"/>
<stop offset="1" stop-color="#3E5959"/>
</linearGradient>
<clipPath id="clip0_305_862">
<rect width="24" height="24" fill="white"/>
</clipPath>
</defs>
</svg>
