<svg width="24" height="24" viewBox="0 0 24 24" fill="none" xmlns="http://www.w3.org/2000/svg">
<path d="M11.4051 22.4549C10.3534 22.501 9.12641 22.501 8.07447 22.4549C7.79011 22.4424 7.58466 22.1786 7.64124 21.8995L7.80824 21.0776L8.17573 18.3967H11.3041L11.6716 21.0776L11.8386 21.8995C11.8951 22.1786 11.6895 22.4424 11.4051 22.4549Z" fill="url(#paint0_linear_305_1058)"/>
<path d="M11.8387 21.8995L11.6717 21.0776L11.3042 18.3967H8.17584L7.97754 19.8435L10.6143 22.4802C10.8849 22.4745 11.1504 22.4661 11.4053 22.4549C11.6896 22.4424 11.8953 22.1786 11.8387 21.8995Z" fill="url(#paint1_linear_305_1058)"/>
<path d="M0.847768 19.8411H1.21123C1.89916 19.8411 2.56291 19.58 3.06169 19.1061C3.27885 18.8999 3.49327 18.6895 3.70457 18.4755C3.88383 18.294 4.16893 18.5313 4.02574 18.7424C4.01933 18.752 4.01274 18.7615 4.00633 18.7708C3.6967 19.2257 4.01951 19.8411 4.56993 19.8411H4.95463C5.7559 19.8411 6.49802 19.4284 6.9285 18.7527C6.96732 18.6917 7.00595 18.6302 7.04422 18.5685C7.12516 18.4381 7.32511 18.5355 7.27329 18.6798C7.27036 18.6879 7.26761 18.6958 7.26468 18.7036C7.0651 19.2579 7.47763 19.8411 8.06668 19.8411H8.31296C9.00491 19.8411 9.58682 19.3306 9.68753 18.6461C9.7225 18.4094 9.7582 18.4094 9.79299 18.6461C9.8937 19.3306 10.4758 19.8411 11.1676 19.8411H11.4157C12.0038 19.8411 12.416 19.2586 12.2164 18.7053C12.2136 18.6974 12.2107 18.6895 12.208 18.6815C12.1561 18.537 12.3563 18.4396 12.4372 18.57C12.4755 18.6313 12.5138 18.6923 12.5524 18.7531C12.9829 19.4285 13.725 19.8411 14.5261 19.8411H14.9108C15.4612 19.8411 15.784 19.2257 15.4742 18.7708C15.4678 18.7613 15.4614 18.752 15.455 18.7424C15.3118 18.5313 15.5967 18.294 15.7761 18.4755C15.9874 18.6895 16.2019 18.8999 16.4188 19.1061C16.9178 19.58 17.5814 19.8411 18.2695 19.8411H18.6329C19.4175 19.8411 19.7792 18.8671 19.1852 18.3543C14.2633 14.1038 9.74026 5.89745 9.74026 1.84406C9.74026 5.89745 5.2172 14.1038 0.29534 18.3543C-0.298469 18.8671 0.0629801 19.8411 0.847768 19.8411Z" fill="url(#paint2_linear_305_1058)"/>
<path d="M19.1848 18.3543C15.8016 15.4326 12.6068 10.6417 10.94 6.6154H8.53985C7.77264 8.46861 6.68151 10.4835 5.39758 12.4039L5.42908 12.5586L5.26172 13.3538L11.7002 19.7924C12.1269 19.6417 12.3814 19.1638 12.216 18.7053C12.2133 18.6974 12.2104 18.6895 12.2076 18.6815C12.1558 18.537 12.3559 18.4396 12.4369 18.57C12.4751 18.6313 12.5134 18.6925 12.552 18.7531C12.9825 19.4285 13.7246 19.8411 14.5257 19.8411H14.9104C15.4608 19.8411 15.7837 19.2257 15.4738 18.7708C15.4674 18.7615 15.461 18.752 15.4546 18.7424C15.3114 18.5313 15.5963 18.294 15.7758 18.4757C15.9871 18.6895 16.2015 18.8999 16.4185 19.1061C16.9174 19.58 17.581 19.8411 18.2691 19.8411H18.6326C19.4172 19.8411 19.7788 18.8671 19.1848 18.3543Z" fill="url(#paint3_linear_305_1058)"/>
<path d="M16.7721 13.5212H16.4848C15.9408 13.5212 15.416 13.3145 15.0215 12.94C14.8497 12.7771 14.6803 12.6106 14.5133 12.4412C14.3716 12.2981 14.1462 12.4856 14.2592 12.6526C14.2643 12.6601 14.2694 12.6676 14.2746 12.6751C14.5194 13.0347 14.2643 13.5212 13.8291 13.5212H13.5249C12.8914 13.5212 12.3045 13.1951 11.9645 12.661C11.9336 12.613 11.9034 12.565 11.873 12.516C11.8091 12.4129 11.6509 12.4903 11.6921 12.6046C11.6939 12.6106 11.6963 12.6172 11.6985 12.6233C11.8563 13.0609 11.5306 13.5212 11.0655 13.5212H10.8692C10.3224 13.5212 9.86192 13.1176 9.78227 12.5766C9.75462 12.3891 9.7266 12.3891 9.69914 12.5766C9.61949 13.1176 9.15898 13.5212 8.61223 13.5212H8.41722C7.95177 13.5212 7.62566 13.0598 7.78331 12.6218C7.78569 12.6157 7.78789 12.6092 7.78972 12.6031C7.83092 12.4889 7.67272 12.412 7.60881 12.515C7.5786 12.5639 7.5482 12.6125 7.51744 12.6606C7.17687 13.1951 6.59002 13.5212 5.95647 13.5212H5.65234C5.2171 13.5212 4.96203 13.0347 5.20684 12.6751C5.21197 12.6676 5.2171 12.6601 5.22222 12.6526C5.3352 12.4856 5.1098 12.2981 4.96807 12.4412C4.80108 12.6106 4.63171 12.7771 4.45996 12.94C4.06537 13.3145 3.54059 13.5212 2.99658 13.5212H2.70929C2.08893 13.5212 1.80292 12.7511 2.27277 12.3457C5.372 9.66849 8.27165 5.00792 9.32414 1.60199C9.50084 1.02777 9.6259 0.48889 9.69035 0.00146484C9.7072 0.000549317 9.72386 0 9.7407 0C9.75755 0 9.77439 0.000549317 9.79106 0.00146484C9.85551 0.48889 9.98057 1.02777 10.1573 1.60199C11.2098 5.00792 14.1094 9.66849 17.2088 12.3457C17.6785 12.7511 17.3925 13.5212 16.7721 13.5212Z" fill="url(#paint4_linear_305_1058)"/>
<path d="M16.4843 13.5212H16.7718C17.3922 13.5212 17.678 12.7511 17.2085 12.3455C14.6072 10.0991 12.147 6.45518 10.8013 3.32829L8.62914 3.44438C8.06903 4.72483 7.32562 6.08732 6.46484 7.40219L6.39746 7.64591L6.17773 8.24246L11.3792 13.4439C11.6617 13.2949 11.817 12.9525 11.6983 12.6231C11.6962 12.6168 11.6938 12.6106 11.6916 12.6044C11.6506 12.4901 11.8089 12.413 11.8728 12.5161C11.9031 12.5647 11.9335 12.613 11.964 12.6608C12.3042 13.1951 12.8911 13.5212 13.5246 13.5212H13.8288C14.2638 13.5212 14.5193 13.0345 14.2743 12.6749C14.2691 12.6676 14.2642 12.6601 14.2591 12.6525C14.1457 12.4856 14.3711 12.2979 14.5129 12.4414C14.68 12.6106 14.8496 12.7771 15.0212 12.94C15.4156 13.3147 15.9403 13.5212 16.4843 13.5212Z" fill="url(#paint5_linear_305_1058)"/>
<path d="M15.2005 8.54056H14.9771C14.5548 8.54056 14.1471 8.38053 13.8411 8.08939C13.7076 7.96305 13.5761 7.83378 13.4465 7.70213C13.3365 7.59062 13.1614 7.73618 13.2491 7.86582C13.2533 7.87205 13.257 7.87754 13.2614 7.88358C13.4513 8.16264 13.253 8.54038 12.9151 8.54038H12.6791C12.1869 8.54038 11.7317 8.28715 11.4671 7.87241C11.4433 7.83506 11.4201 7.79789 11.3963 7.75999C11.3468 7.68034 11.2236 7.74003 11.2558 7.82865C11.2573 7.83378 11.2591 7.83836 11.261 7.84293C11.3833 8.18314 11.1304 8.54038 10.7693 8.54038H10.6168C10.1924 8.54038 9.83494 8.22691 9.77287 7.80705C9.752 7.66148 9.72948 7.66148 9.7086 7.80705C9.64653 8.22691 9.28911 8.54038 8.86467 8.54038H8.71306C8.35161 8.54038 8.09819 8.18259 8.22087 7.84202C8.22289 7.83744 8.22417 7.83231 8.226 7.82755C8.25786 7.73911 8.13518 7.67924 8.08556 7.75907C8.06176 7.79734 8.03814 7.83506 8.01433 7.87241C7.75029 8.28715 7.29436 8.54038 6.80236 8.54038H6.56634C6.22851 8.54038 6.03021 8.16264 6.22009 7.88358C6.2243 7.87754 6.22814 7.87205 6.23235 7.86582C6.32006 7.73618 6.14501 7.59062 6.03497 7.70213C5.90533 7.83378 5.77368 7.96287 5.64038 8.08939C5.33441 8.38053 4.92663 8.54056 4.50439 8.54056H4.281C3.79962 8.54056 3.57752 7.94254 3.94189 7.6276C5.96136 5.88389 7.87151 3.05511 8.91649 0.627867C8.94634 0.55847 8.97563 0.48889 9.0042 0.420409C9.00475 0.41986 9.00475 0.41986 9.00475 0.419493C9.15343 0.168457 9.42735 0 9.74083 0C10.0543 0 10.328 0.168457 10.4769 0.419493C10.4769 0.41986 10.4769 0.41986 10.4775 0.420409C10.5058 0.48889 10.5353 0.55847 10.5652 0.627867C11.6101 3.05511 13.5203 5.88389 15.5398 7.6276C15.904 7.94254 15.6819 8.54056 15.2005 8.54056Z" fill="url(#paint6_linear_305_1058)"/>
<path d="M17.4278 22.4613C16.5716 22.4988 15.573 22.4988 14.7168 22.4613C14.4853 22.4512 14.318 22.2363 14.3641 22.0092L14.5 21.3401L14.7992 19.1583H17.3454L17.6446 21.3401L17.7805 22.0092C17.8266 22.2364 17.6593 22.4512 17.4278 22.4613Z" fill="url(#paint7_linear_305_1058)"/>
<path d="M17.7805 22.0092L17.6446 21.3401L17.3455 19.1583H14.7992L14.6377 20.3356L16.7841 22.4818C17.0041 22.4772 17.2202 22.4704 17.4278 22.4613C17.6593 22.4512 17.8267 22.2364 17.7805 22.0092Z" fill="url(#paint8_linear_305_1058)"/>
<path d="M8.83351 20.3338H9.12941C9.68934 20.3338 10.2295 20.1212 10.6356 19.7356C10.8123 19.5679 10.9868 19.3965 11.1588 19.2224C11.3047 19.0746 11.5367 19.2678 11.4202 19.4397C11.4149 19.4474 11.4098 19.4551 11.4045 19.4628C11.1523 19.833 11.4153 20.3338 11.8632 20.3338H12.1763C12.8285 20.3338 13.4326 19.998 13.783 19.4479C13.8145 19.3983 13.846 19.3483 13.8773 19.298C13.9431 19.192 14.1058 19.2712 14.0637 19.3886C14.0613 19.3952 14.059 19.4016 14.0568 19.408C13.8942 19.859 14.23 20.3338 14.7093 20.3338H14.91C15.4731 20.3338 15.9468 19.9183 16.0288 19.3612C16.0572 19.1685 16.0863 19.1685 16.1145 19.3612C16.1965 19.9183 16.6704 20.3338 17.2334 20.3338H17.4354C17.914 20.3338 18.2495 19.8597 18.0871 19.4093C18.0849 19.4029 18.0825 19.3965 18.0801 19.3899C18.038 19.2723 18.2008 19.1931 18.2669 19.2991C18.2978 19.3491 18.3291 19.3989 18.3606 19.4481C18.7109 19.998 19.315 20.3338 19.967 20.3338H20.2801C20.728 20.3338 20.9909 19.8328 20.7388 19.4626C20.7335 19.4549 20.7284 19.4472 20.7231 19.4395C20.6066 19.2676 20.8384 19.0746 20.9845 19.2224C21.1565 19.3965 21.331 19.5677 21.5077 19.7354C21.9138 20.1212 22.454 20.3338 23.0139 20.3338H23.3098C23.9485 20.3338 24.2427 19.541 23.7593 19.1235C19.7532 15.6639 16.0716 8.98441 16.0716 5.68504C16.0716 8.98441 12.3901 15.6639 8.38399 19.1235C7.90059 19.5411 8.19484 20.3338 8.83351 20.3338Z" fill="url(#paint9_linear_305_1058)"/>
<path d="M23.7597 19.1237C21.006 16.7455 18.4055 12.8459 17.0489 9.5687H15.0951C14.4708 11.0771 13.5827 12.7172 12.5375 14.2804L12.5632 14.4061L12.4268 15.0534L17.6676 20.2943C18.0148 20.1716 18.2218 19.7825 18.0874 19.4093C18.0851 19.4029 18.0829 19.3965 18.0805 19.3899C18.0382 19.2723 18.2012 19.1929 18.2671 19.2991C18.2982 19.3491 18.3295 19.3989 18.3608 19.4481C18.7111 19.998 19.3153 20.3338 19.9674 20.3338H20.2805C20.7284 20.3338 20.9913 19.8328 20.7392 19.4626C20.7339 19.4549 20.7286 19.4472 20.7234 19.4395C20.6068 19.2676 20.8388 19.0746 20.9847 19.2224C21.1568 19.3965 21.3313 19.5677 21.508 19.7354C21.914 20.1212 22.4541 20.3338 23.0143 20.3338H23.31C23.9488 20.3338 24.2431 19.5411 23.7597 19.1237Z" fill="url(#paint10_linear_305_1058)"/>
<path d="M21.7946 15.1897H21.5607C21.118 15.1897 20.6908 15.0216 20.3696 14.7167C20.2299 14.5841 20.0921 14.4486 19.9562 14.3107C19.8406 14.1941 19.6574 14.3468 19.7493 14.4827C19.7533 14.4887 19.7575 14.495 19.7617 14.501C19.9611 14.7936 19.7533 15.1897 19.3992 15.1897H19.1516C18.636 15.1897 18.1583 14.9243 17.8814 14.4895C17.8563 14.4505 17.8318 14.4113 17.8071 14.3715C17.7551 14.2875 17.6264 14.3507 17.6597 14.4437C17.6613 14.4486 17.6632 14.4539 17.665 14.4589C17.7934 14.815 17.5284 15.1897 17.1497 15.1897H16.9899C16.5449 15.1897 16.1701 14.8613 16.1053 14.4208C16.0828 14.2683 16.0601 14.2683 16.0377 14.4208C15.9727 14.8613 15.5979 15.1897 15.153 15.1897H14.9942C14.6154 15.1897 14.3499 14.8143 14.4782 14.4576C14.4801 14.4527 14.4821 14.4473 14.4835 14.4424C14.5171 14.3494 14.3883 14.2868 14.3361 14.3708C14.3116 14.4105 14.2869 14.4501 14.2618 14.4891C13.9846 14.9243 13.507 15.1897 12.9914 15.1897H12.7439C12.3896 15.1897 12.1819 14.7936 12.3811 14.501C12.3853 14.495 12.3896 14.4889 12.3938 14.4827C12.4855 14.3468 12.3022 14.1943 12.1867 14.3107C12.0508 14.4486 11.9131 14.5841 11.7732 14.7167C11.4521 15.0216 11.0249 15.1897 10.5821 15.1897H10.3483C9.8433 15.1897 9.61057 14.5629 9.9929 14.2329C12.5155 12.0538 14.8758 8.26023 15.7323 5.48802C15.8762 5.02073 15.978 4.58201 16.0304 4.18541C16.0442 4.18449 16.0579 4.18413 16.0714 4.18413C16.0852 4.18413 16.0987 4.18449 16.1124 4.18541C16.1648 4.5822 16.2666 5.02073 16.4105 5.48802C17.2671 8.26023 19.6273 12.0538 22.15 14.2329C22.5323 14.5629 22.2996 15.1897 21.7946 15.1897Z" fill="url(#paint11_linear_305_1058)"/>
<path d="M21.5612 15.1897H21.795C22.3 15.1897 22.5328 14.5629 22.1504 14.2328C20.033 12.4043 18.0306 9.43833 16.9354 6.89317L15.1674 6.98766C14.7114 8.02989 14.1064 9.13896 13.4057 10.209L13.3508 10.4075L13.1719 10.8929L17.4056 15.1269C17.6356 15.0053 17.7621 14.7268 17.6655 14.4587C17.6636 14.4536 17.6618 14.4485 17.66 14.4433C17.6266 14.3505 17.7554 14.2877 17.8075 14.3715C17.8321 14.4111 17.8568 14.4505 17.8817 14.4895C18.1586 14.9242 18.6363 15.1897 19.1519 15.1897H19.3995C19.7536 15.1897 19.9614 14.7936 19.7622 14.5008C19.758 14.4948 19.7538 14.4887 19.7497 14.4827C19.6576 14.3466 19.8409 14.1939 19.9563 14.3108C20.0923 14.4485 20.2304 14.5839 20.3701 14.7167C20.6913 15.0216 21.1183 15.1897 21.5612 15.1897Z" fill="url(#paint12_linear_305_1058)"/>
<path d="M20.5154 11.1357H20.3335C19.9899 11.1357 19.6581 11.0053 19.4089 10.7686C19.3003 10.6657 19.1933 10.5604 19.0877 10.4533C18.9982 10.3626 18.8557 10.4811 18.9271 10.5866C18.9306 10.5915 18.9335 10.5961 18.937 10.601C19.0915 10.8281 18.9302 11.1357 18.6552 11.1357H18.4631C18.0625 11.1357 17.6919 10.9295 17.4767 10.5921C17.4573 10.5617 17.4383 10.5313 17.4189 10.5005C17.3788 10.4355 17.2784 10.4842 17.3046 10.5564C17.3057 10.5604 17.3074 10.5642 17.3088 10.5681C17.4083 10.8449 17.2026 11.1357 16.9087 11.1357H16.7846C16.4391 11.1357 16.1481 10.8806 16.0976 10.5388C16.0806 10.4203 16.0624 10.4203 16.0452 10.5388C15.9949 10.8806 15.7039 11.1357 15.3584 11.1357H15.235C14.9407 11.1357 14.7346 10.8444 14.8345 10.5673C14.836 10.5635 14.8371 10.5593 14.8386 10.5554C14.8646 10.4833 14.7646 10.4348 14.7243 10.4998C14.7051 10.5309 14.6857 10.5617 14.6663 10.5921C14.4513 10.9295 14.0803 11.1357 13.6799 11.1357H13.4876C13.2128 11.1357 13.0515 10.8281 13.206 10.601C13.2093 10.5961 13.2124 10.5915 13.2159 10.5866C13.2873 10.4811 13.1448 10.3626 13.0553 10.4533C12.9496 10.5604 12.8425 10.6657 12.734 10.7686C12.4849 11.0055 12.153 11.1357 11.8095 11.1357H11.6276C11.2356 11.1357 11.0551 10.6488 11.3515 10.3927C12.9952 8.97324 14.55 6.67088 15.4005 4.69517C15.4249 4.63878 15.4488 4.5822 15.4719 4.52635C15.4723 4.52598 15.4723 4.52598 15.4723 4.52544C15.5935 4.32127 15.8163 4.18413 16.0714 4.18413C16.3267 4.18413 16.5495 4.32127 16.6707 4.52544C16.6707 4.52598 16.6707 4.52598 16.6711 4.52635C16.6941 4.58201 16.7181 4.63859 16.7425 4.69517C17.593 6.67088 19.1478 8.97324 20.7915 10.3927C21.0879 10.6488 20.9072 11.1357 20.5154 11.1357Z" fill="url(#paint13_linear_305_1058)"/>
<defs>
<linearGradient id="paint0_linear_305_1058" x1="8.1243" y1="20.4431" x2="10.92" y2="20.4431" gradientUnits="userSpaceOnUse">
<stop stop-color="#C08552"/>
<stop offset="1" stop-color="#895738"/>
</linearGradient>
<linearGradient id="paint1_linear_305_1058" x1="11.2037" y1="21.7356" x2="8.16202" y2="16.6454" gradientUnits="userSpaceOnUse">
<stop stop-color="#895738" stop-opacity="0"/>
<stop offset="1" stop-color="#5E3023"/>
</linearGradient>
<linearGradient id="paint2_linear_305_1058" x1="2.27561" y1="10.8426" x2="15.1932" y2="10.8426" gradientUnits="userSpaceOnUse">
<stop stop-color="#7AC943"/>
<stop offset="0.4564" stop-color="#5FC146"/>
<stop offset="1" stop-color="#39B54A"/>
</linearGradient>
<linearGradient id="paint3_linear_305_1058" x1="12.6072" y1="16.7646" x2="9.57504" y2="8.22786" gradientUnits="userSpaceOnUse">
<stop stop-color="#39B54A" stop-opacity="0"/>
<stop offset="0.1072" stop-color="#2FAB48" stop-opacity="0.105882"/>
<stop offset="0.4553" stop-color="#159043" stop-opacity="0.454902"/>
<stop offset="0.7642" stop-color="#06803F" stop-opacity="0.764706"/>
<stop offset="1" stop-color="#007A3E"/>
</linearGradient>
<linearGradient id="paint4_linear_305_1058" x1="3.83842" y1="6.76061" x2="14.0523" y2="6.76061" gradientUnits="userSpaceOnUse">
<stop stop-color="#7AC943"/>
<stop offset="0.4564" stop-color="#5FC146"/>
<stop offset="1" stop-color="#39B54A"/>
</linearGradient>
<linearGradient id="paint5_linear_305_1058" x1="11.1538" y1="9.43615" x2="5.64923" y2="0.946092" gradientUnits="userSpaceOnUse">
<stop stop-color="#39B54A" stop-opacity="0"/>
<stop offset="0.1072" stop-color="#2FAB48" stop-opacity="0.105882"/>
<stop offset="0.4553" stop-color="#159043" stop-opacity="0.454902"/>
<stop offset="0.7642" stop-color="#06803F" stop-opacity="0.764706"/>
<stop offset="1" stop-color="#007A3E"/>
</linearGradient>
<linearGradient id="paint6_linear_305_1058" x1="5.15776" y1="4.27027" x2="13.0885" y2="4.27027" gradientUnits="userSpaceOnUse">
<stop stop-color="#7AC943"/>
<stop offset="0.4564" stop-color="#5FC146"/>
<stop offset="1" stop-color="#39B54A"/>
</linearGradient>
<linearGradient id="paint7_linear_305_1058" x1="14.7573" y1="20.8238" x2="17.0329" y2="20.8238" gradientUnits="userSpaceOnUse">
<stop stop-color="#C08552"/>
<stop offset="1" stop-color="#895738"/>
</linearGradient>
<linearGradient id="paint8_linear_305_1058" x1="17.2637" y1="21.8759" x2="14.7879" y2="17.7327" gradientUnits="userSpaceOnUse">
<stop stop-color="#895738" stop-opacity="0"/>
<stop offset="1" stop-color="#5E3023"/>
</linearGradient>
<linearGradient id="paint9_linear_305_1058" x1="9.99574" y1="13.0095" x2="20.51" y2="13.0095" gradientUnits="userSpaceOnUse">
<stop stop-color="#7AC943"/>
<stop offset="0.4564" stop-color="#5FC146"/>
<stop offset="1" stop-color="#39B54A"/>
</linearGradient>
<linearGradient id="paint10_linear_305_1058" x1="18.4058" y1="17.8297" x2="15.9378" y2="10.8812" gradientUnits="userSpaceOnUse">
<stop stop-color="#39B54A" stop-opacity="0"/>
<stop offset="0.1072" stop-color="#2FAB48" stop-opacity="0.105882"/>
<stop offset="0.4553" stop-color="#159043" stop-opacity="0.454902"/>
<stop offset="0.7642" stop-color="#06803F" stop-opacity="0.764706"/>
<stop offset="1" stop-color="#007A3E"/>
</linearGradient>
<linearGradient id="paint11_linear_305_1058" x1="11.2672" y1="9.68694" x2="19.5809" y2="9.68694" gradientUnits="userSpaceOnUse">
<stop stop-color="#7AC943"/>
<stop offset="0.4564" stop-color="#5FC146"/>
<stop offset="1" stop-color="#39B54A"/>
</linearGradient>
<linearGradient id="paint12_linear_305_1058" x1="17.2223" y1="11.8647" x2="12.7418" y2="4.95422" gradientUnits="userSpaceOnUse">
<stop stop-color="#39B54A" stop-opacity="0"/>
<stop offset="0.1072" stop-color="#2FAB48" stop-opacity="0.105882"/>
<stop offset="0.4553" stop-color="#159043" stop-opacity="0.454902"/>
<stop offset="0.7642" stop-color="#06803F" stop-opacity="0.764706"/>
<stop offset="1" stop-color="#007A3E"/>
</linearGradient>
<linearGradient id="paint13_linear_305_1058" x1="12.3411" y1="7.65993" x2="18.7963" y2="7.65993" gradientUnits="userSpaceOnUse">
<stop stop-color="#7AC943"/>
<stop offset="0.4564" stop-color="#5FC146"/>
<stop offset="1" stop-color="#39B54A"/>
</linearGradient>
</defs>
</svg>
