<svg width="24" height="24" viewBox="0 0 24 24" fill="none" xmlns="http://www.w3.org/2000/svg">
<g clip-path="url(#clip0_305_330)">
<path d="M23.9586 0.337091C23.8743 0.133108 23.6753 5.11364e-05 23.4546 0C2.29091 0 0 8.77311 0 12.5454C0 17.4392 3.72657 20.7273 9.27272 20.7273C16.2774 20.7273 17.7447 14.0618 18.5323 10.4804C19.298 6.83474 21.148 3.50581 23.8396 0.930529C23.9954 0.77487 24.0424 0.540767 23.9586 0.337091Z" fill="#4CAF50"/>
<path d="M0.545472 24C0.244227 24 0 23.7558 0 23.4545C0 20.2113 5.62362 9.80505 14.4894 5.50908C14.7606 5.37776 15.0868 5.49103 15.2182 5.76215C15.3495 6.03328 15.2362 6.35953 14.9651 6.4909C6.012 10.8295 1.09089 20.9051 1.09089 23.4546C1.09089 23.7558 0.846717 24 0.545472 24Z" fill="#388E3C"/>
</g>
<defs>
<clipPath id="clip0_305_330">
<rect width="24" height="24" fill="white"/>
</clipPath>
</defs>
</svg>
