<svg width="24" height="24" viewBox="0 0 24 24" fill="none" xmlns="http://www.w3.org/2000/svg">
<path d="M14.176 23.9228C13.8536 24.0642 13.4778 24.0088 13.2126 23.7772C12.4804 23.138 11.7266 21.8598 11.499 19.9009C11.3016 18.2021 11.3182 16.6364 11.319 16.5706L12.2996 16.58C12.2996 16.58 12.5245 20.4539 14.458 22.4469C14.9034 22.906 14.7617 23.6659 14.176 23.9228Z" fill="#DB976A"/>
<path d="M14.4574 22.447C12.5238 20.454 12.299 16.5801 12.299 16.5801L11.8098 16.5754C11.8098 16.5754 11.6212 21.1326 14.1754 23.9228C14.761 23.6659 14.9027 22.906 14.4574 22.447Z" fill="#D18754"/>
<path d="M21.5649 11.5689C21.8363 11.3424 22.3955 10.8163 22.7201 10.0923C23.398 8.58019 23.7041 6.67087 23.7041 6.67087C23.7041 6.67087 22.1978 6.53606 20.7692 7.03406C20.0261 7.29314 19.304 7.72345 18.826 8.43309C17.7797 9.98611 17.8653 8.23125 17.3997 8.38228C16.6322 8.63119 16.0095 9.7845 15.2513 11.1139C15.2513 11.1139 15.3903 9.41752 15.8545 8.47898C17.8948 4.35267 15.4543 6.95067 15.413 5.64656C15.413 5.64656 15.6026 2.74172 15.0503 2.93048C14.5912 3.08742 13.9482 3.90567 13.6809 3.17461C12.663 0.390797 12.0047 0 12.0047 0H11.9963C11.9963 0 11.338 0.390797 10.3201 3.17456C10.0528 3.90562 9.40984 3.08737 8.95066 2.93044C8.39837 2.74167 8.58798 5.64652 8.58798 5.64652C8.54673 6.95067 6.10623 4.35267 8.14652 8.47894C8.61058 9.41747 8.7497 11.1138 8.7497 11.1138C7.9915 9.78445 7.36881 8.63114 6.60128 8.38223C6.13558 8.2312 6.22117 9.98606 5.17502 8.43305C4.69698 7.72341 3.97487 7.29309 3.23172 7.03402C1.8032 6.53602 0.296875 6.67083 0.296875 6.67083C0.296875 6.67083 0.603016 8.58014 1.28088 10.0923C1.60544 10.8163 2.16466 11.3424 2.43611 11.5689C2.59867 11.7045 2.64541 11.939 2.53741 12.1212C2.27223 12.5685 1.21844 12.3312 1.2978 12.6997C1.39891 13.1689 2.34855 14.4149 3.211 14.9684C4.91256 16.0605 5.5218 16.1285 5.5218 16.1285L2.71802 17.5406C2.71802 17.5406 2.60148 18.5026 6.74116 18.5026C7.18019 18.5026 6.97605 19.9135 7.44273 19.8749C9.79408 19.6801 11.4756 18.378 12.0005 17.92C12.5253 18.378 14.2069 19.6801 16.5582 19.8749C17.0249 19.9135 16.8208 18.5026 17.2598 18.5026C21.3995 18.5026 21.283 17.5406 21.283 17.5406L18.4792 16.1286C18.4792 16.1286 19.0884 16.0605 20.79 14.9685C21.6524 14.415 22.6021 13.169 22.7032 12.6998C22.7825 12.3313 21.7287 12.5686 21.4636 12.1213C21.3556 11.9391 21.4023 11.7046 21.5649 11.5689Z" fill="#80C56E"/>
<path d="M21.5649 11.5689C21.8363 11.3424 22.3955 10.8163 22.7201 10.0923C23.398 8.58019 23.7041 6.67087 23.7041 6.67087C23.7041 6.67087 22.1978 6.53606 20.7692 7.03406C20.0261 7.29314 19.304 7.72345 18.826 8.43309C17.7797 9.98611 17.8653 8.23125 17.3997 8.38228C16.6322 8.63119 16.0095 9.7845 15.2513 11.1139C15.2513 11.1139 15.3903 9.41752 15.8545 8.47898C17.8948 4.35267 15.4543 6.95067 15.413 5.64656C15.413 5.64656 15.6026 2.74172 15.0503 2.93048C14.5912 3.08742 13.9482 3.90567 13.6809 3.17461C12.663 0.390797 12.0047 0 12.0047 0H11.9963C11.9963 0 11.338 0.390797 10.3201 3.17456C10.0528 3.90562 9.40984 3.08737 8.95066 2.93044C8.39837 2.74167 8.58798 5.64652 8.58798 5.64652C8.54673 6.95067 6.10623 4.35267 8.14652 8.47894C8.61058 9.41747 8.7497 11.1138 8.7497 11.1138C7.9915 9.78445 7.36881 8.63114 6.60128 8.38223C6.13558 8.2312 6.22117 9.98606 5.17502 8.43305C4.69698 7.72341 3.97487 7.29309 3.23172 7.03402C1.8032 6.53602 0.296875 6.67083 0.296875 6.67083C0.296875 6.67083 0.603016 8.58014 1.28088 10.0923C1.60544 10.8163 2.16466 11.3424 2.43611 11.5689C2.59867 11.7045 2.64541 11.939 2.53741 12.1212C2.27223 12.5685 1.21844 12.3312 1.2978 12.6997C1.39891 13.1689 2.34855 14.4149 3.211 14.9684C4.91256 16.0605 5.5218 16.1285 5.5218 16.1285L2.71802 17.5406C2.71802 17.5406 2.60148 18.5026 6.74116 18.5026C7.18019 18.5026 6.97605 19.9135 7.44273 19.8749C9.79408 19.6801 11.4756 18.378 12.0005 17.92C12.5253 18.378 14.2069 19.6801 16.5582 19.8749C17.0249 19.9135 16.8208 18.5026 17.2598 18.5026C21.3995 18.5026 21.283 17.5406 21.283 17.5406L18.4792 16.1286C18.4792 16.1286 19.0884 16.0605 20.79 14.9685C21.6524 14.415 22.6021 13.169 22.7032 12.6998C22.7825 12.3313 21.7287 12.5686 21.4636 12.1213C21.3556 11.9391 21.4023 11.7046 21.5649 11.5689Z" fill="#80C56E"/>
<path d="M23.2743 21.2085C23.1821 21.2085 23.1819 21.3517 23.2743 21.3517C23.3665 21.3517 23.3667 21.2085 23.2743 21.2085Z" fill="#4D984E"/>
<path d="M5.68291 12.2352C7.90567 15.0653 10.5742 15.6568 11.7644 16.1645L11.9963 0C11.9963 0 11.338 0.390797 10.3201 3.17461C10.0528 3.90567 9.4098 3.08742 8.95066 2.93048C8.39837 2.74172 8.58798 5.64656 8.58798 5.64656C8.54673 6.95072 6.10623 4.35267 8.14651 8.47898C8.61058 9.41752 8.7497 11.1139 8.7497 11.1139C7.9915 9.7845 7.36881 8.63119 6.60128 8.38228C6.13558 8.23125 6.22117 9.98611 5.17502 8.43309C4.69698 7.72345 3.97487 7.29314 3.23172 7.03406C1.8032 6.53606 0.296875 6.67083 0.296875 6.67083C0.296875 6.67083 3.72761 9.74573 5.68291 12.2352Z" fill="#66AD66"/>
<path d="M21.5644 11.5689C21.8358 11.3424 22.395 10.8163 22.7196 10.0923C23.3975 8.58018 23.7036 6.67087 23.7036 6.67087C23.7036 6.67087 20.1686 9.78665 18.1623 12.2352C16.4362 14.3418 14.8777 15.7004 12 16.2635V17.92C12.5249 18.378 14.2065 19.6801 16.5577 19.8749C17.0244 19.9135 16.8203 18.5026 17.2593 18.5026C21.399 18.5026 21.2825 17.5406 21.2825 17.5406L18.4787 16.1286C18.4787 16.1286 19.0879 16.0605 20.7895 14.9685C21.6519 14.415 22.6016 13.169 22.7027 12.6997C22.782 12.3313 21.7282 12.5686 21.4631 12.1213C21.3551 11.9391 21.4018 11.7046 21.5644 11.5689Z" fill="#66AD66"/>
<path d="M19.7717 13.5351C19.7605 13.5283 19.7176 13.5104 19.5753 13.5104C19.3119 13.5104 18.869 13.5692 18.4783 13.6212C18.1475 13.6651 17.8617 13.7032 17.715 13.7032C17.7023 13.7032 17.6908 13.7029 17.6803 13.7023L17.5749 13.6965L17.6488 13.6212C17.9382 13.3261 18.4291 12.663 18.8995 11.9319C19.4171 11.1273 19.6091 10.7148 19.6223 10.6061C19.4329 10.6886 18.6116 11.6135 18.0606 12.234C17.687 12.6548 17.3341 13.0522 17.1118 13.2756L17.0558 13.3319L17.0323 13.256C16.9427 12.9662 16.9247 12.4715 16.9088 12.035C16.8962 11.6893 16.879 11.2173 16.8151 11.1692C16.7982 11.178 16.7495 11.2276 16.6806 11.3806C16.4879 11.8084 16.1912 13.0002 16.5647 13.7547L16.5807 13.7869L16.5541 13.8112C15.7397 14.5532 14.9892 15.0503 14.1207 15.423L14.0703 15.4446L14.0558 15.3917C13.9734 15.0923 13.9553 14.4855 13.9377 13.8987C13.9229 13.4014 13.9044 12.7859 13.837 12.6956C13.6662 12.8198 13.1881 14.679 13.4766 15.6207L13.4902 15.6652L13.4462 15.68C13.1137 15.7918 12.7602 15.8914 12.3655 15.9843L12.3068 15.9982V11.6605L12.332 11.647C13.4861 11.0312 14.1214 9.76715 14.2482 9.25143C14.2789 9.1267 14.2745 9.06899 14.2685 9.05118C14.1993 9.06107 13.9955 9.29835 13.7983 9.52795C13.444 9.94045 12.9588 10.5054 12.3812 10.8939L12.3067 10.944V6.78604L12.3314 6.7724C13.1948 6.29507 13.6839 5.27723 13.754 4.83839C13.7728 4.71993 13.7528 4.69167 13.7539 4.69167C13.7525 4.69106 13.7506 4.69078 13.7483 4.69078C13.6659 4.69078 13.4479 4.932 13.2371 5.16529C12.996 5.43201 12.696 5.76389 12.3833 6.00014L12.3114 6.05446L12.3068 5.96442C12.2372 4.59084 12.1072 3.08296 11.9962 2.86218C11.8853 3.08292 11.7553 4.59018 11.6856 5.96325L11.681 6.05357L11.609 5.99892C11.3025 5.76618 11.0039 5.43693 10.7641 5.17232C10.5494 4.93556 10.3274 4.69078 10.2441 4.69078C10.2432 4.69078 10.2423 4.69082 10.2416 4.69082C10.241 4.69082 10.2405 4.69078 10.2406 4.69054C10.2382 4.69392 10.2204 4.72448 10.2385 4.83839C10.3085 5.27728 10.7976 6.29507 11.661 6.7724L11.6857 6.78604V10.9435L11.6112 10.8932C11.0413 10.5087 10.5559 9.94528 10.2013 9.534C10.0002 9.30051 9.79222 9.05925 9.72416 9.05071C9.71806 9.06787 9.71333 9.12553 9.74431 9.25148C9.87116 9.7672 10.5064 11.0312 11.6604 11.647L11.6857 11.6605V15.9982L11.627 15.9844C11.2323 15.8915 10.8787 15.7919 10.5463 15.68L10.5023 15.6652L10.5159 15.6208C10.8043 14.6792 10.3263 12.8199 10.1556 12.6956C10.0882 12.7859 10.0699 13.4002 10.0551 13.8967C10.0377 14.4843 10.0196 15.0918 9.93683 15.3919L9.92225 15.4447L9.87191 15.4231C9.00331 15.0503 8.2528 14.5532 7.43844 13.8112L7.41181 13.787L7.4278 13.7547C7.80139 13 7.50481 11.8083 7.31216 11.3806C7.24231 11.2255 7.19333 11.1767 7.17875 11.1691C7.11392 11.2191 7.09658 11.6901 7.08392 12.0354C7.06789 12.4717 7.04975 12.9664 6.96017 13.2561L6.93669 13.332L6.88063 13.2757C6.68534 13.0794 6.38042 12.7482 6.05764 12.3974C5.48108 11.771 4.52994 10.7376 4.32767 10.6589C4.35519 10.9471 5.67463 12.9395 6.34695 13.6246L6.42097 13.7L6.31545 13.7057C6.30542 13.7063 6.29427 13.7066 6.28212 13.7066C6.13705 13.7066 5.85102 13.6682 5.5198 13.6237C5.12591 13.5708 4.67952 13.5109 4.41514 13.5109C4.2695 13.5109 4.22909 13.5298 4.2207 13.5343C4.25966 13.6748 5.35152 14.2692 6.42584 14.2692C6.60486 14.2692 6.77328 14.2519 6.92652 14.2177L6.95089 14.2122L6.96927 14.2291C7.26111 14.4973 7.53838 14.7299 7.81691 14.9399C8.3548 15.3456 8.90872 15.673 9.51045 15.9409L9.58363 15.9735L9.52016 16.0224C9.38286 16.1282 8.90436 16.2877 8.39778 16.4566C7.94712 16.6069 7.27522 16.831 7.18695 16.9315C7.23683 16.9555 7.41172 16.9865 7.74064 16.9865C8.58055 16.9865 9.92375 16.7914 10.1817 16.2539L10.2003 16.2154L10.2406 16.2295C10.6711 16.3801 11.1315 16.5099 11.6484 16.6263L11.6856 16.6347V18.1782C11.8155 18.0775 11.9213 17.9891 12.0004 17.9201C12.0777 17.9876 12.1807 18.0737 12.3067 18.1715V16.6347L12.344 16.6263C12.8607 16.5099 13.3213 16.38 13.7517 16.2295L13.7801 16.2196L13.8013 16.2408C14.3064 16.7459 15.6339 16.9731 16.4152 16.9731C16.4152 16.9731 16.4153 16.9731 16.4153 16.9731C16.68 16.9731 16.7738 16.946 16.804 16.9326C16.7239 16.8554 16.2531 16.7122 15.8708 16.5958C15.1141 16.3655 14.57 16.1887 14.4609 16.0092L14.4326 15.9629L14.4822 15.9408C15.0838 15.6729 15.6376 15.3455 16.1754 14.9399C16.4539 14.7299 16.7312 14.4974 17.0231 14.2291L17.041 14.2127L17.0649 14.2175C17.2186 14.2487 17.3855 14.2645 17.561 14.2645C18.643 14.2642 19.7318 13.6759 19.7717 13.5351Z" fill="#4D984E"/>
</svg>
