<svg width="24" height="24" viewBox="0 0 24 24" fill="none" xmlns="http://www.w3.org/2000/svg">
<g clip-path="url(#clip0_305_586)">
<path d="M23.7183 13.0818L23.7092 13.0824C22.7169 13.15 21.8209 12.9618 21.1672 12.6014C20.5803 12.2779 19.9076 12.0768 19.1882 12.0103C19.1837 12.0099 19.1792 12.0094 19.1746 12.009C19.0777 11.9997 18.9816 11.992 18.8866 11.9858C18.004 11.9285 17.271 11.2789 17.097 10.4117C16.8994 9.42629 16.5173 8.19043 15.7784 6.91499C15.7756 6.91024 15.7729 6.90544 15.7701 6.90064C15.3332 6.13988 14.7714 5.49885 14.1177 5.01428C13.3896 4.47451 12.7293 3.58044 12.3027 2.4507L12.2968 2.43507C12.2335 2.26722 12.0478 2.17173 11.879 2.23239C11.759 2.2755 11.73 2.36402 11.6973 2.4507C11.2707 3.58025 10.6105 4.47423 9.88253 5.01404C9.22827 5.49913 8.66629 6.14125 8.22897 6.90266C8.22662 6.90675 8.22422 6.91089 8.22186 6.91499C7.48294 8.19043 7.10073 9.42633 6.90304 10.4117C6.72906 11.2789 5.99598 11.9285 5.11339 11.9859C5.01837 11.992 4.92237 11.9998 4.82534 12.0091C4.82082 12.0095 4.8163 12.0099 4.81179 12.0103C4.0923 12.0769 3.41969 12.278 2.83277 12.6015C2.17903 12.9619 1.28312 13.15 0.290789 13.0824L0.281706 13.0818C0.0396352 13.0652 -0.093918 13.3574 0.077047 13.5295L0.0833529 13.5359C0.783166 14.2425 1.22651 15.0432 1.38133 15.7735C1.52044 16.4297 1.80877 17.0706 2.22919 17.6591C2.23145 17.6623 2.23371 17.6655 2.23597 17.6687C2.39884 17.8984 2.56665 18.113 2.73677 18.3132C3.13498 18.7818 3.05748 19.4945 2.55583 19.8502C2.34985 19.9962 2.23512 20.1584 2.23512 20.3292C2.23512 20.9698 3.84689 21.4891 5.83513 21.4891C6.51795 21.4891 7.15621 21.4278 7.70012 21.3214C8.05165 21.2527 8.40648 21.2032 8.76205 21.1598C9.42361 21.0791 9.95702 20.8421 10.1546 20.4102C10.1777 20.3598 10.2061 20.3114 10.2393 20.2649C10.3589 20.0974 10.6399 19.5412 10.9446 18.8962C11.3659 18.0046 12.6341 18.0046 13.0553 18.8962C13.3601 19.5412 13.6411 20.0974 13.7607 20.2649C13.7939 20.3114 13.8223 20.3598 13.8454 20.4102C14.043 20.8421 14.5764 21.0791 15.2379 21.1598C15.5935 21.2032 15.9483 21.2526 16.2999 21.3214C16.8438 21.4278 17.482 21.4891 18.1648 21.4891C20.1531 21.4891 21.7649 20.9698 21.7649 20.3292C21.7649 20.1584 21.6501 19.9962 21.4441 19.8502C20.9425 19.4945 20.865 18.7818 21.2632 18.3132C21.4333 18.113 21.6011 17.8984 21.764 17.6687C21.7663 17.6655 21.7685 17.6623 21.7708 17.6591C22.1912 17.0706 22.4795 16.4297 22.6186 15.7735C22.7735 15.0432 23.2168 14.2425 23.9166 13.5359L23.923 13.5295C24.0939 13.3572 23.9603 13.0651 23.7183 13.0818Z" fill="url(#paint0_linear_305_586)"/>
<path d="M11.9997 14.0858C14.163 14.0858 16.017 12.0852 16.7974 9.24088C16.5718 8.51734 16.247 7.72426 15.7781 6.91499C15.7753 6.91024 15.7726 6.90544 15.7698 6.90064C15.3329 6.13988 14.7711 5.49885 14.1175 5.01428C13.3893 4.47451 12.729 3.58044 12.3024 2.4507L12.2965 2.43507C12.2333 2.26722 12.0476 2.17173 11.8787 2.23239C11.7588 2.2755 11.7297 2.36402 11.697 2.4507C11.2704 3.58025 10.6102 4.47423 9.88225 5.01404C9.22799 5.49913 8.66601 6.14125 8.22869 6.90266C8.22634 6.90675 8.22394 6.91089 8.22159 6.91499C7.75269 7.7244 7.4278 8.51758 7.20215 9.24125C7.98257 12.0853 9.83651 14.0858 11.9997 14.0858Z" fill="url(#paint1_linear_305_586)"/>
<path d="M14.1173 5.01428C13.3892 4.47451 12.7289 3.58044 12.3023 2.4507L12.2964 2.43507C12.2331 2.26722 12.0475 2.17173 11.8786 2.23239C11.7587 2.2755 11.7296 2.36402 11.6969 2.4507C11.2703 3.58025 10.6101 4.47423 9.88213 5.01404C9.55714 5.25499 9.25498 5.5348 8.97949 5.84859C9.27243 8.04078 10.5132 9.68723 11.9995 9.68723C13.486 9.68723 14.7268 8.04054 15.0196 5.84816C14.7443 5.53461 14.4422 5.25508 14.1173 5.01428Z" fill="url(#paint2_linear_305_586)"/>
<path d="M16.7024 14.5112C16.7514 14.609 16.8445 14.6829 16.9603 14.7032C17.1542 14.7375 17.3391 14.6076 17.373 14.4137C17.4597 13.9207 17.6011 13.4338 17.7935 12.9625C17.8894 12.7275 17.718 12.4702 17.4641 12.4702C17.3193 12.4702 17.1885 12.5577 17.1337 12.6918C16.9215 13.2108 16.7656 13.7474 16.6705 14.2905C16.6568 14.3686 16.6695 14.4453 16.7024 14.5112Z" fill="url(#paint3_linear_305_586)"/>
<path d="M23.7183 13.0818L23.7092 13.0824C22.7169 13.1499 21.821 12.9618 21.1672 12.6014C20.5803 12.2779 19.9076 12.0768 19.1882 12.0103C19.1837 12.0098 19.1792 12.0094 19.1746 12.009C19.0777 11.9996 18.9816 11.992 18.8866 11.9858C18.0041 11.9284 17.271 11.2788 17.097 10.4117C16.8994 9.42627 16.5173 8.1904 15.7784 6.91497C15.7756 6.91021 15.7729 6.90541 15.7701 6.90061C15.3332 6.13986 14.7714 5.49882 14.1177 5.01426C13.3896 4.47449 12.7293 3.58042 12.3027 2.45068L12.2968 2.43505C12.2485 2.30696 12.1289 2.22131 12 2.21472V18.2272C12.4223 18.2272 12.8446 18.4501 13.0552 18.8959C13.3601 19.541 13.641 20.0973 13.7607 20.2648C13.7939 20.3112 13.8223 20.3596 13.8454 20.41C14.3192 21.4457 16.7232 21.3612 18.1963 20.6872C18.1963 20.6872 18.2091 20.6813 18.2331 20.6701C18.2616 20.6565 18.2906 20.6428 18.3189 20.6287C18.3233 20.6265 18.3279 20.6244 18.3322 20.6221L18.3325 20.622C18.9266 20.3304 20.4964 19.4569 21.764 17.6685C21.7663 17.6653 21.7685 17.6622 21.7708 17.659C22.1912 17.0705 22.4796 16.4296 22.6187 15.7733C22.7735 15.0431 23.2168 14.2424 23.9166 13.5358L23.923 13.5294C24.094 13.3572 23.9604 13.0651 23.7183 13.0818Z" fill="url(#paint4_linear_305_586)"/>
<path d="M6.97881 15.1493C6.94591 15.2152 6.89236 15.2715 6.82168 15.3075C5.66586 15.8963 4.34007 16.1939 2.9876 16.1682C2.79066 16.1645 2.634 16.0017 2.63776 15.8048C2.64148 15.6078 2.80416 15.4513 3.0011 15.455C4.23692 15.4784 5.4461 15.2077 6.49786 14.6719C6.67339 14.5825 6.88817 14.6523 6.97758 14.8278C7.03099 14.9326 7.02761 15.0516 6.97881 15.1493Z" fill="url(#paint5_linear_305_586)"/>
<path d="M7.29778 14.5112C7.24883 14.609 7.15566 14.6829 7.03989 14.7032C6.84601 14.7375 6.66107 14.6076 6.62719 14.4137C6.54055 13.9207 6.39909 13.4338 6.20667 12.9625C6.11076 12.7275 6.28224 12.4702 6.53608 12.4702C6.68093 12.4702 6.81175 12.5577 6.86653 12.6918C7.07867 13.2108 7.23462 13.7474 7.32973 14.2905C7.34342 14.3686 7.33072 14.4453 7.29778 14.5112Z" fill="url(#paint6_linear_305_586)"/>
<path d="M9.58609 18.0742C9.56671 18.0032 9.5252 17.9375 9.46294 17.8884C8.44449 17.0851 7.20242 16.5341 5.87098 16.295C5.6771 16.2602 5.49169 16.3891 5.45686 16.583C5.42199 16.7769 5.55098 16.9622 5.74486 16.9971C6.96143 17.2156 8.09437 17.7175 9.02115 18.4484C9.17583 18.5705 9.40007 18.5439 9.52205 18.3893C9.59494 18.2969 9.61485 18.1796 9.58609 18.0742Z" fill="url(#paint7_linear_305_586)"/>
<path d="M10.841 16.9481L11.5037 17.3035C10.254 18.5252 8.48138 19.2993 6.51855 19.4581C6.3225 19.4741 6.15008 19.3277 6.13398 19.1316C6.11817 18.9352 6.26434 18.7632 6.46081 18.7473C8.17253 18.6086 9.72039 17.965 10.841 16.9481Z" fill="url(#paint8_linear_305_586)"/>
<path d="M17.0221 15.1493C17.055 15.2152 17.1085 15.2715 17.1792 15.3075C18.335 15.8963 19.6608 16.1939 21.0133 16.1682C21.2102 16.1645 21.3669 16.0017 21.3631 15.8048C21.3594 15.6078 21.1967 15.4513 20.9998 15.455C19.764 15.4784 18.5548 15.2077 17.503 14.6719C17.3275 14.5825 17.1127 14.6523 17.0233 14.8278C16.9699 14.9326 16.9733 15.0516 17.0221 15.1493Z" fill="url(#paint9_linear_305_586)"/>
<path d="M14.415 18.0742C14.4344 18.0032 14.4759 17.9375 14.5381 17.8884C15.5566 17.0851 16.7987 16.5341 18.1301 16.295C18.324 16.2602 18.5094 16.3891 18.5442 16.583C18.5791 16.7769 18.4501 16.9622 18.2562 16.9971C17.0396 17.2156 15.9067 17.7175 14.9799 18.4484C14.8252 18.5705 14.601 18.5439 14.479 18.3893C14.4061 18.2969 14.3862 18.1796 14.415 18.0742Z" fill="url(#paint10_linear_305_586)"/>
<path d="M13.1598 16.9481L12.4971 17.3035C13.7468 18.5252 15.5194 19.2993 17.4822 19.4581C17.6783 19.4741 17.8507 19.3277 17.8668 19.1316C17.8826 18.9352 17.7364 18.7632 17.54 18.7473C15.8282 18.6086 14.2804 17.965 13.1598 16.9481Z" fill="url(#paint11_linear_305_586)"/>
<path d="M23.9994 13.3252C24.0052 13.3958 23.9832 13.4698 23.924 13.5294L23.9177 13.5358C23.2178 14.2424 22.7745 15.0432 22.6197 15.7733C22.4806 16.4296 22.1922 17.0705 21.7718 17.659C21.7696 17.6622 21.7673 17.6653 21.765 17.6685C20.4975 19.4569 18.9276 20.3304 18.3335 20.622L18.3333 20.6221C18.3289 20.6244 18.3243 20.6265 18.3199 20.6287C18.2916 20.6428 18.2626 20.6565 18.2341 20.6701C18.2101 20.6813 18.1973 20.6872 18.1973 20.6872C16.7242 21.3612 14.3202 21.4457 13.8463 20.41C13.8233 20.3596 13.7949 20.3112 13.7617 20.2648C13.642 20.0972 13.361 19.5409 13.0562 18.8959C12.8456 18.4501 12.4233 18.2272 12.001 18.2272C12.001 18.2272 16.2434 12.896 23.9994 13.3252Z" fill="url(#paint12_linear_305_586)"/>
<path d="M22.9484 13.1844C19.3786 13.3338 16.5299 14.5213 14.7688 15.4912C12.856 16.5446 11.7977 17.5542 11.7536 17.5966C11.6133 17.7317 11.609 17.9549 11.744 18.0954C11.8133 18.1674 11.9058 18.2037 11.9985 18.2037C12.0864 18.2037 12.1745 18.1711 12.243 18.1054C12.2533 18.0955 13.2929 17.1065 15.1313 16.0974C16.8221 15.1693 19.5559 14.0329 22.9779 13.8897C23.1726 13.8815 23.3239 13.7171 23.3157 13.5223C23.3076 13.3275 23.1434 13.1761 22.9484 13.1844Z" fill="url(#paint13_linear_305_586)"/>
<path d="M0.00185816 13.3252C-0.00388303 13.3958 0.0180935 13.4698 0.0772936 13.5294L0.0836466 13.5358C0.78346 14.2424 1.2268 15.0432 1.38163 15.7733C1.52073 16.4296 1.80906 17.0705 2.22949 17.659C2.23174 17.6622 2.234 17.6653 2.23626 17.6685C3.50384 19.4569 5.07368 20.3304 5.6678 20.622L5.66803 20.6221C5.67236 20.6244 5.67702 20.6265 5.68135 20.6287C5.70968 20.6428 5.73867 20.6565 5.76719 20.6701C5.79114 20.6813 5.80399 20.6872 5.80399 20.6872C7.27707 21.3612 9.68108 21.4457 10.1549 20.41C10.178 20.3596 10.2064 20.3112 10.2396 20.2648C10.3592 20.0972 10.6402 19.5409 10.945 18.8959C11.1557 18.4501 11.578 18.2272 12.0003 18.2272C12.0003 18.2272 7.75787 12.896 0.00185816 13.3252Z" fill="url(#paint14_linear_305_586)"/>
<path d="M1.05223 13.1844C4.62202 13.3338 7.47073 14.5213 9.23187 15.4912C11.1447 16.5446 12.2029 17.5542 12.247 17.5966C12.3874 17.7317 12.3916 17.9549 12.2566 18.0954C12.1873 18.1674 12.0948 18.2037 12.0021 18.2037C11.9142 18.2037 11.8261 18.1711 11.7577 18.1054C11.7474 18.0955 10.7077 17.1065 8.86937 16.0974C7.17854 15.1693 4.44475 14.0329 1.02277 13.8897C0.82799 13.8815 0.676743 13.7171 0.684884 13.5223C0.692978 13.3275 0.857261 13.1761 1.05223 13.1844Z" fill="url(#paint15_linear_305_586)"/>
<path d="M12.0006 13.9718V14.7238C10.3333 14.2001 8.81331 13.0038 7.74555 11.3492C7.63872 11.1841 7.68625 10.9629 7.85143 10.8561C8.01708 10.7492 8.23778 10.7968 8.34461 10.9624C9.2759 12.4052 10.5747 13.465 12.0006 13.9718Z" fill="url(#paint16_linear_305_586)"/>
<path d="M11.6441 10.346C11.5704 10.346 11.4961 10.3232 11.4323 10.2761C10.3893 9.50498 9.53086 8.45171 8.94973 7.2302C8.86507 7.05232 8.94069 6.83952 9.11858 6.75491C9.29646 6.67025 9.50926 6.74587 9.59387 6.92375C10.1249 8.0399 10.9072 9.00079 11.8564 9.70253C12.0148 9.81962 12.0483 10.043 11.9312 10.2014C11.8612 10.2959 11.7534 10.346 11.6441 10.346Z" fill="url(#paint17_linear_305_586)"/>
<path d="M12 13.9718V14.7238C13.6673 14.2001 15.1873 13.0038 16.2551 11.3492C16.3619 11.1841 16.3144 10.9629 16.1492 10.8561C15.9835 10.7492 15.7628 10.7968 15.656 10.9624C14.7247 12.4052 13.4259 13.465 12 13.9718Z" fill="url(#paint18_linear_305_586)"/>
<path d="M12.357 10.346C12.4307 10.346 12.5049 10.3232 12.5688 10.2761C13.6118 9.50498 14.4702 8.45171 15.0513 7.2302C15.136 7.05232 15.0604 6.83952 14.8825 6.75491C14.7046 6.67025 14.4918 6.74587 14.4072 6.92375C13.8762 8.0399 13.0938 9.00079 12.1447 9.70253C11.9863 9.81962 11.9528 10.043 12.0699 10.2014C12.1399 10.2959 12.2477 10.346 12.357 10.346Z" fill="url(#paint19_linear_305_586)"/>
<path d="M0.443359 13.9343C0.936631 14.5346 1.25531 15.1775 1.38162 15.7734C1.52073 16.4297 1.80906 17.0706 2.22948 17.6591C2.23174 17.6623 2.234 17.6654 2.23626 17.6686C2.39913 17.8984 2.56694 18.113 2.73706 18.3132C3.13527 18.7818 3.05776 19.4945 2.55612 19.8501C2.35014 19.9962 2.23541 20.1583 2.23541 20.3292C2.23541 20.9698 3.84718 21.4891 5.83542 21.4891C6.51824 21.4891 7.1565 21.4278 7.70041 21.3214C8.05194 21.2526 8.40676 21.2032 8.76234 21.1598C9.42389 21.0791 9.95731 20.8421 10.1549 20.4101C10.178 20.3597 10.2064 20.3114 10.2396 20.2649C10.3592 20.0974 10.6402 19.5412 10.9449 18.8962C11.3662 18.0046 12.6343 18.0046 13.0556 18.8962C13.3604 19.5412 13.6414 20.0974 13.761 20.2649C13.7942 20.3114 13.8226 20.3597 13.8456 20.4101C14.0433 20.8421 14.5767 21.0791 15.2382 21.1598C15.5938 21.2032 15.9486 21.2526 16.3001 21.3214C16.8441 21.4278 17.4823 21.4891 18.1651 21.4891C20.1534 21.4891 21.7651 20.9698 21.7651 20.3292C21.7651 20.1583 21.6504 19.9962 21.4444 19.8501C20.9427 19.4945 20.8653 18.7818 21.2635 18.3132C21.4336 18.113 21.6014 17.8984 21.7643 17.6686C21.7666 17.6654 21.7688 17.6623 21.7711 17.6591C22.1915 17.0706 22.4798 16.4297 22.6189 15.7734C22.7453 15.1775 23.0639 14.5346 23.5572 13.9343H0.443359Z" fill="url(#paint20_linear_305_586)"/>
<path d="M11.9997 21.7859C11.8024 21.7859 11.6426 21.6261 11.6426 21.4288V3.98904C11.6426 3.79182 11.8024 3.63196 11.9997 3.63196C12.1969 3.63196 12.3567 3.79182 12.3567 3.98904V21.4288C12.3568 21.6261 12.1969 21.7859 11.9997 21.7859Z" fill="url(#paint21_linear_305_586)"/>
</g>
<defs>
<linearGradient id="paint0_linear_305_586" x1="4.00538" y1="7.76163" x2="18.3925" y2="22.1487" gradientUnits="userSpaceOnUse">
<stop stop-color="#8BC727"/>
<stop offset="1" stop-color="#017B4E"/>
</linearGradient>
<linearGradient id="paint1_linear_305_586" x1="11.9998" y1="7.88996" x2="11.9998" y2="16.2674" gradientUnits="userSpaceOnUse">
<stop stop-color="#026841" stop-opacity="0"/>
<stop offset="0.2391" stop-color="#0A6644" stop-opacity="0.239"/>
<stop offset="0.6113" stop-color="#20604D" stop-opacity="0.611"/>
<stop offset="1" stop-color="#3E5959"/>
</linearGradient>
<linearGradient id="paint2_linear_305_586" x1="11.9996" y1="4.47033" x2="11.9996" y2="11.1213" gradientUnits="userSpaceOnUse">
<stop stop-color="#026841" stop-opacity="0"/>
<stop offset="0.2391" stop-color="#0A6644" stop-opacity="0.239"/>
<stop offset="0.6113" stop-color="#20604D" stop-opacity="0.611"/>
<stop offset="1" stop-color="#3E5959"/>
</linearGradient>
<linearGradient id="paint3_linear_305_586" x1="16.7868" y1="13.2188" x2="17.2888" y2="13.6266" gradientUnits="userSpaceOnUse">
<stop stop-color="#BBEC6C"/>
<stop offset="1" stop-color="#81B823"/>
</linearGradient>
<linearGradient id="paint4_linear_305_586" x1="15.9893" y1="11.0513" x2="10.954" y2="13.3101" gradientUnits="userSpaceOnUse">
<stop stop-color="#026841" stop-opacity="0"/>
<stop offset="0.2391" stop-color="#0A6644" stop-opacity="0.239"/>
<stop offset="0.6113" stop-color="#20604D" stop-opacity="0.611"/>
<stop offset="1" stop-color="#3E5959"/>
</linearGradient>
<linearGradient id="paint5_linear_305_586" x1="4.71047" y1="14.9991" x2="4.99283" y2="15.9716" gradientUnits="userSpaceOnUse">
<stop stop-color="#BBEC6C"/>
<stop offset="1" stop-color="#81B823"/>
</linearGradient>
<linearGradient id="paint6_linear_305_586" x1="7.13293" y1="13.4083" x2="6.28587" y2="13.8162" gradientUnits="userSpaceOnUse">
<stop stop-color="#BBEC6C"/>
<stop offset="1" stop-color="#81B823"/>
</linearGradient>
<linearGradient id="paint7_linear_305_586" x1="7.77042" y1="16.7587" x2="7.33117" y2="17.9194" gradientUnits="userSpaceOnUse">
<stop stop-color="#BBEC6C"/>
<stop offset="1" stop-color="#81B823"/>
</linearGradient>
<linearGradient id="paint8_linear_305_586" x1="8.89291" y1="18.3767" x2="9.39094" y2="19.107" gradientUnits="userSpaceOnUse">
<stop stop-color="#BBEC6C"/>
<stop offset="1" stop-color="#81B823"/>
</linearGradient>
<linearGradient id="paint9_linear_305_586" x1="19.1966" y1="14.9891" x2="19.1339" y2="16.1185" gradientUnits="userSpaceOnUse">
<stop stop-color="#BBEC6C"/>
<stop offset="1" stop-color="#81B823"/>
</linearGradient>
<linearGradient id="paint10_linear_305_586" x1="16.2307" y1="16.7587" x2="16.6699" y2="17.9194" gradientUnits="userSpaceOnUse">
<stop stop-color="#BBEC6C"/>
<stop offset="1" stop-color="#81B823"/>
</linearGradient>
<linearGradient id="paint11_linear_305_586" x1="15.1085" y1="18.3809" x2="14.6104" y2="19.1112" gradientUnits="userSpaceOnUse">
<stop stop-color="#BBEC6C"/>
<stop offset="1" stop-color="#81B823"/>
</linearGradient>
<linearGradient id="paint12_linear_305_586" x1="18.967" y1="17.3093" x2="17.32" y2="14.6976" gradientUnits="userSpaceOnUse">
<stop stop-color="#026841" stop-opacity="0"/>
<stop offset="0.2391" stop-color="#0A6644" stop-opacity="0.239"/>
<stop offset="0.6113" stop-color="#20604D" stop-opacity="0.611"/>
<stop offset="1" stop-color="#3E5959"/>
</linearGradient>
<linearGradient id="paint13_linear_305_586" x1="16.8332" y1="13.9503" x2="17.445" y2="15.5974" gradientUnits="userSpaceOnUse">
<stop stop-color="#BBEC6C"/>
<stop offset="1" stop-color="#81B823"/>
</linearGradient>
<linearGradient id="paint14_linear_305_586" x1="5.06681" y1="16.9081" x2="7.81976" y2="13.7081" gradientUnits="userSpaceOnUse">
<stop stop-color="#026841" stop-opacity="0"/>
<stop offset="0.2391" stop-color="#0A6644" stop-opacity="0.239"/>
<stop offset="0.6113" stop-color="#20604D" stop-opacity="0.611"/>
<stop offset="1" stop-color="#3E5959"/>
</linearGradient>
<linearGradient id="paint15_linear_305_586" x1="7.16739" y1="13.9503" x2="6.55563" y2="15.5974" gradientUnits="userSpaceOnUse">
<stop stop-color="#BBEC6C"/>
<stop offset="1" stop-color="#81B823"/>
</linearGradient>
<linearGradient id="paint16_linear_305_586" x1="9.82762" y1="12.9287" x2="9.41976" y2="13.713" gradientUnits="userSpaceOnUse">
<stop stop-color="#BBEC6C"/>
<stop offset="1" stop-color="#81B823"/>
</linearGradient>
<linearGradient id="paint17_linear_305_586" x1="10.6549" y1="7.98917" x2="10.1159" y2="9.47924" gradientUnits="userSpaceOnUse">
<stop stop-color="#BBEC6C"/>
<stop offset="1" stop-color="#81B823"/>
</linearGradient>
<linearGradient id="paint18_linear_305_586" x1="14.173" y1="12.9287" x2="14.5809" y2="13.713" gradientUnits="userSpaceOnUse">
<stop stop-color="#BBEC6C"/>
<stop offset="1" stop-color="#81B823"/>
</linearGradient>
<linearGradient id="paint19_linear_305_586" x1="13.3462" y1="7.98917" x2="13.8852" y2="9.47924" gradientUnits="userSpaceOnUse">
<stop stop-color="#BBEC6C"/>
<stop offset="1" stop-color="#81B823"/>
</linearGradient>
<linearGradient id="paint20_linear_305_586" x1="12.0003" y1="16.4076" x2="12.0003" y2="21.2549" gradientUnits="userSpaceOnUse">
<stop stop-color="#026841" stop-opacity="0"/>
<stop offset="0.2391" stop-color="#0A6644" stop-opacity="0.239"/>
<stop offset="0.6113" stop-color="#20604D" stop-opacity="0.611"/>
<stop offset="1" stop-color="#3E5959"/>
</linearGradient>
<linearGradient id="paint21_linear_305_586" x1="11.6426" y1="12.709" x2="12.3568" y2="12.709" gradientUnits="userSpaceOnUse">
<stop stop-color="#BBEC6C"/>
<stop offset="1" stop-color="#81B823"/>
</linearGradient>
<clipPath id="clip0_305_586">
<rect width="24" height="24" fill="white"/>
</clipPath>
</defs>
</svg>
