<svg width="24" height="24" viewBox="0 0 24 24" fill="none" xmlns="http://www.w3.org/2000/svg">
<g clip-path="url(#clip0_305_774)">
<path d="M6.55733 23.5341C6.50877 23.5365 6.45889 23.5289 6.4107 23.51C6.22919 23.4388 6.13983 23.234 6.21098 23.0525C6.23846 22.9824 6.90284 21.3059 8.51253 18.7428C9.99338 16.3848 12.5882 12.8068 16.5399 9.15139C16.683 9.01896 16.9064 9.02767 17.0388 9.17082C17.1713 9.31398 17.1626 9.53736 17.0194 9.66979C13.1324 13.2654 10.5797 16.7821 9.1227 19.0991C7.54317 21.6109 6.87493 23.2937 6.86835 23.3104C6.81602 23.4437 6.69159 23.5273 6.55733 23.5341Z" fill="url(#paint0_linear_305_774)"/>
<path d="M23.9192 4.08078C23.4017 3.32849 23.4457 2.12233 22.4716 1.74887C22.4666 1.74694 22.4611 1.74417 22.4554 1.74252C21.3821 1.31202 20.1314 1.74271 19.5901 2.77179C19.3585 3.21217 19.1594 3.70911 19.0182 4.18577C18.9311 4.48007 18.6489 4.65127 18.3388 4.59292C18.3319 4.59165 18.3285 4.59099 18.3216 4.58967C17.9144 4.5132 17.6274 4.07297 17.7491 3.68671C18.036 2.7756 18.4384 1.94275 18.9628 1.12897C18.9641 1.12755 18.9648 1.12661 18.9656 1.12511C19.0772 0.964589 18.9783 0.726142 18.7814 0.693012C18.208 0.596542 17.6265 0.523883 17.0469 0.475177C15.994 0.386706 14.9315 0.907883 14.345 1.79824C14.2077 2.00671 14.0277 2.36318 13.8803 2.68228C13.7145 3.0412 13.2828 3.18054 12.9263 2.99075C12.9201 2.98741 12.9138 2.98407 12.9076 2.98078C12.5773 2.80501 12.4341 2.40365 12.5898 2.06445C12.6837 1.85984 12.7884 1.65649 12.9032 1.45508C13.1005 1.10929 12.7957 0.688542 12.4032 0.773577C11.2481 1.02393 10.0885 1.43193 8.98737 1.83621C8.21975 2.11805 7.60582 2.84219 7.41533 3.61758C7.35175 3.87635 7.30963 4.15047 7.28469 4.42407C7.22412 5.08892 7.28572 5.76304 7.46328 6.40642C7.58441 6.84525 7.27405 7.27998 6.8198 7.30586C6.49161 7.32459 6.19034 7.11602 6.09994 6.79984C5.87448 6.01127 5.77711 5.16167 5.85824 4.33904C5.85819 4.33555 5.85876 4.33207 5.85932 4.32915C5.89212 3.95367 5.47848 3.7236 5.16902 3.95522C4.75928 4.26191 4.35499 4.60398 3.97862 4.94421C2.83448 5.97847 2.3437 7.69038 2.86304 9.15588C3.10987 9.85235 3.5501 10.4855 4.04662 11.024C4.19194 11.1816 4.26158 11.4016 4.22756 11.6084C4.13448 12.1741 3.41565 12.393 3.0253 11.993C2.36017 11.3114 1.79485 10.4865 1.463 9.54671C1.31805 9.13626 0.741207 9.14158 0.564124 9.55899C-0.572064 12.2373 -0.0466991 15.16 2.64008 16.5931C4.72577 17.7056 7.55203 17.851 9.72977 16.93C9.9277 16.8463 10.171 16.8541 10.3849 16.9651C10.3854 16.9653 10.3857 16.9654 10.3862 16.9657C10.4578 17.0021 10.5386 16.9886 10.5788 16.9337C14.2281 11.9988 18.6933 7.83014 23.8668 4.52774C24.0034 4.44167 24.0267 4.23706 23.9192 4.08078ZM4.20309 14.867C3.32271 14.8549 2.58925 14.1574 2.53551 13.2786C2.53302 13.2381 2.53198 13.198 2.53231 13.1582C2.53589 12.7263 3.00991 12.471 3.38436 12.6863C3.6325 12.829 3.92022 12.9106 4.22704 12.9106C4.53387 12.9106 4.82149 12.829 5.06963 12.6864C5.44535 12.4704 5.91904 12.7282 5.92177 13.1615C5.92177 13.1651 5.92182 13.1688 5.92182 13.1724C5.92182 14.1164 5.15005 14.8801 4.20309 14.867ZM11.7853 3.70379C12.2365 3.70379 12.6023 4.06958 12.6023 4.52082C12.6023 4.97207 12.2365 5.33786 11.7853 5.33786C11.3341 5.33786 10.9683 4.97207 10.9683 4.52082C10.9683 4.06958 11.3341 3.70379 11.7853 3.70379ZM11.3799 8.28017C10.4995 8.26802 9.76605 7.57052 9.71231 6.6917C9.70982 6.65127 9.70878 6.61113 9.70911 6.57132C9.71269 6.13941 10.1867 5.88412 10.5612 6.09941C10.8093 6.24209 11.097 6.32374 11.4038 6.32374C11.7107 6.32374 11.9983 6.24214 12.2464 6.09951C12.6221 5.88351 13.0958 6.14129 13.0986 6.57461C13.0986 6.57824 13.0986 6.58191 13.0986 6.58553C13.0987 7.52953 12.3269 8.29325 11.3799 8.28017ZM17.955 6.83866C17.5037 6.83866 17.138 6.47287 17.138 6.02162C17.138 5.57038 17.5037 5.20459 17.955 5.20459C18.4062 5.20459 18.772 5.57038 18.772 6.02162C18.772 6.47287 18.4062 6.83866 17.955 6.83866Z" fill="url(#paint1_linear_305_774)"/>
<path d="M23.9192 4.08078C23.4017 3.32849 23.4457 2.12233 22.4716 1.74887C22.4666 1.74694 22.4611 1.74417 22.4554 1.74252C21.3821 1.31202 20.1314 1.74271 19.5901 2.77179C19.3585 3.21217 19.1594 3.70911 19.0182 4.18577C18.9311 4.48007 18.6489 4.65127 18.3388 4.59292C18.3319 4.59165 18.3285 4.59099 18.3216 4.58967C17.9144 4.5132 17.6274 4.07297 17.7491 3.68671C18.036 2.7756 18.4384 1.94275 18.9628 1.12897C18.9641 1.12755 18.9648 1.12661 18.9656 1.12511C19.0772 0.964589 18.9783 0.726142 18.7814 0.693012C18.208 0.596542 17.6265 0.523883 17.0469 0.475177C15.994 0.386706 14.9315 0.907883 14.345 1.79824C14.2077 2.00671 14.0277 2.36318 13.8803 2.68228C13.7145 3.0412 13.2828 3.18054 12.9263 2.99075C12.9201 2.98741 12.9138 2.98407 12.9076 2.98078C12.5773 2.80501 12.4341 2.40365 12.5898 2.06445C12.6837 1.85984 12.7884 1.65649 12.9032 1.45508C13.1005 1.10929 12.7957 0.688542 12.4032 0.773577C11.2481 1.02393 10.0885 1.43193 8.98737 1.83621C8.21975 2.11805 7.60582 2.84219 7.41533 3.61758C7.35175 3.87635 7.30963 4.15047 7.28469 4.42407C7.22412 5.08892 7.28572 5.76304 7.46328 6.40642C7.58441 6.84525 7.27405 7.27998 6.8198 7.30586C6.49161 7.32459 6.19034 7.11602 6.09994 6.79984C5.87448 6.01127 5.77711 5.16167 5.85824 4.33904C5.85819 4.33555 5.85876 4.33207 5.85932 4.32915C5.89212 3.95367 5.47848 3.7236 5.16902 3.95522C4.75928 4.26191 4.35499 4.60398 3.97862 4.94421C2.83448 5.97847 2.3437 7.69038 2.86304 9.15588C3.10987 9.85235 3.5501 10.4855 4.04662 11.024C4.19194 11.1816 4.26158 11.4016 4.22756 11.6084C4.13448 12.1741 3.41565 12.393 3.0253 11.993C2.36017 11.3114 1.79485 10.4865 1.463 9.54671C1.31805 9.13626 0.741207 9.14158 0.564124 9.55899C-0.572064 12.2373 -0.0466991 15.16 2.64008 16.5931C4.72577 17.7056 7.55203 17.851 9.72977 16.93C9.9277 16.8463 10.171 16.8541 10.3849 16.9651C10.3854 16.9653 10.3857 16.9654 10.3862 16.9657C10.4578 17.0021 10.5386 16.9886 10.5788 16.9337C14.2281 11.9988 18.6933 7.83014 23.8668 4.52774C24.0034 4.44167 24.0267 4.23706 23.9192 4.08078ZM4.20309 14.867C3.32271 14.8549 2.58925 14.1574 2.53551 13.2786C2.53302 13.2381 2.53198 13.198 2.53231 13.1582C2.53589 12.7263 3.00991 12.471 3.38436 12.6863C3.6325 12.829 3.92022 12.9106 4.22704 12.9106C4.53387 12.9106 4.82149 12.829 5.06963 12.6864C5.44535 12.4704 5.91904 12.7282 5.92177 13.1615C5.92177 13.1651 5.92182 13.1688 5.92182 13.1724C5.92182 14.1164 5.15005 14.8801 4.20309 14.867ZM11.7853 3.70379C12.2365 3.70379 12.6023 4.06958 12.6023 4.52082C12.6023 4.97207 12.2365 5.33786 11.7853 5.33786C11.3341 5.33786 10.9683 4.97207 10.9683 4.52082C10.9683 4.06958 11.3341 3.70379 11.7853 3.70379ZM11.3799 8.28017C10.4995 8.26802 9.76605 7.57052 9.71231 6.6917C9.70982 6.65127 9.70878 6.61113 9.70911 6.57132C9.71269 6.13941 10.1867 5.88412 10.5612 6.09941C10.8093 6.24209 11.097 6.32374 11.4038 6.32374C11.7107 6.32374 11.9983 6.24214 12.2464 6.09951C12.6221 5.88351 13.0958 6.14129 13.0986 6.57461C13.0986 6.57824 13.0986 6.58191 13.0986 6.58553C13.0987 7.52953 12.3269 8.29325 11.3799 8.28017ZM17.955 6.83866C17.5037 6.83866 17.138 6.47287 17.138 6.02162C17.138 5.57038 17.5037 5.20459 17.955 5.20459C18.4062 5.20459 18.772 5.57038 18.772 6.02162C18.772 6.47287 18.4062 6.83866 17.955 6.83866Z" fill="url(#paint2_linear_305_774)"/>
<path d="M21.508 2.40957C21.5035 2.40816 21.4982 2.40641 21.493 2.40547C20.4282 2.11587 19.2756 2.65818 18.7271 3.59211C17.941 4.9306 17.5961 6.4786 17.5098 7.99912C17.4913 8.32425 17.2198 8.58877 16.8909 8.58919C16.7162 8.58943 16.5601 8.5154 16.4539 8.39686C16.3593 8.29121 16.3021 8.14816 16.3091 7.9938C16.4026 5.93107 16.9719 3.89352 18.2262 2.1923C18.2275 2.19093 18.2282 2.18999 18.229 2.18858C18.3422 2.03569 18.2626 1.83564 18.0788 1.8227C17.5428 1.78496 17.0004 1.77936 16.4679 1.79084C15.4765 1.8122 14.4483 2.40769 13.8905 3.22434C13.6265 3.61084 13.3671 4.06924 13.186 4.50406C12.5894 5.93634 12.7374 7.54698 13.5088 8.88618C13.6661 9.15931 13.5843 9.52999 13.3122 9.7219C13.0615 9.89874 12.7388 9.87512 12.5423 9.68425C12.5102 9.65305 12.4807 9.61663 12.4555 9.57667C11.4297 7.94717 11.2834 5.95672 12.009 4.17809C12.1626 3.80166 12.3528 3.42477 12.5792 3.05154C12.7786 2.72303 12.5216 2.37616 12.1545 2.48679C11.5065 2.68218 10.8655 2.92825 10.2505 3.19173C9.53542 3.49804 8.93932 4.17145 8.70991 4.9003C8.63518 5.13776 8.57899 5.389 8.53801 5.63813C8.22615 7.533 9.09815 9.31314 10.4436 10.5993C10.6772 10.8226 10.6693 11.2142 10.4303 11.4709C10.1969 11.7216 9.82398 11.7595 9.58403 11.5561C9.57791 11.5509 9.57231 11.5462 9.56619 11.5406C7.90798 10.0134 6.89909 7.94425 7.26125 5.65644C7.26144 5.65329 7.26219 5.65013 7.26285 5.64745C7.31711 5.30514 6.96092 5.1242 6.66831 5.35418C6.28008 5.65931 5.89777 5.99507 5.53923 6.32839C4.5085 7.2866 3.87782 8.86674 4.27321 10.2495C4.63499 11.5147 5.60963 12.4202 6.66196 13.117C6.93048 13.2947 6.99735 13.6846 6.79584 13.9891C6.59598 14.2912 6.2061 14.385 5.9269 14.2154C5.72412 14.0922 5.5277 13.9668 5.35335 13.838C4.29556 13.057 3.36422 12.0147 3.0101 10.699C2.91132 10.3321 2.39881 10.3716 2.21669 10.7668C1.18149 13.0138 1.1213 15.8996 3.5917 17.1789C5.48106 18.1574 7.97641 17.9409 9.82191 16.996C10.0044 16.9026 10.2208 16.8905 10.4029 16.9784C10.4034 16.9786 10.4036 16.9787 10.404 16.9789C10.465 17.0077 10.5381 16.9887 10.5783 16.9337C11.9112 15.1297 13.3473 13.4236 14.8976 11.8027C14.9372 11.7618 14.9056 11.6939 14.849 11.6986C14.8483 11.6987 14.8479 11.6987 14.8472 11.6987C14.815 11.7013 14.7833 11.7025 14.7521 11.7031C14.4098 11.7095 14.1995 11.3363 14.3718 11.0326C14.4863 10.8308 14.5534 10.5995 14.5572 10.3528C14.561 10.107 14.5019 9.87583 14.3924 9.67681C14.227 9.3763 14.4527 8.98754 14.8042 8.98458H14.8129C15.3783 8.98594 15.876 9.3522 16.053 9.88552C16.1043 10.0402 16.2481 10.145 16.4117 10.1491C16.5158 10.1518 16.6169 10.1134 16.6933 10.0423C18.9251 7.99253 21.312 6.15757 23.8664 4.52759C24.0031 4.44161 24.0415 4.25973 23.9493 4.1298C23.3341 3.26312 22.476 2.70858 21.508 2.40957ZM11.0121 14.9088C11.0093 14.9122 11.008 14.9139 11.0053 14.9174C10.4283 15.6466 9.32337 15.8362 8.56459 15.2863C7.82845 14.7529 7.78097 13.6154 8.27546 12.9106C8.30083 12.8744 8.32728 12.8386 8.35476 12.8046C8.65179 12.4374 9.19561 12.519 9.34097 12.9347C9.4373 13.2101 9.60859 13.458 9.84841 13.6496C10.0882 13.8411 10.3666 13.953 10.6533 13.9928C11.0873 14.0532 11.286 14.5578 11.0121 14.9088ZM11.9781 12.9596C11.6731 13.3134 11.1437 13.3717 10.8029 13.0823C10.4465 12.7795 10.4426 12.2382 10.7408 11.8922C11.0389 11.5461 11.5749 11.47 11.9269 11.7783C12.2638 12.0733 12.2841 12.6048 11.9781 12.9596Z" fill="url(#paint3_linear_305_774)"/>
<path d="M21.508 2.40957C21.5035 2.40816 21.4982 2.40641 21.493 2.40547C20.4282 2.11587 19.2756 2.65818 18.7271 3.59211C17.941 4.9306 17.5961 6.4786 17.5098 7.99912C17.4913 8.32425 17.2198 8.58877 16.8909 8.58919C16.7162 8.58943 16.5601 8.5154 16.4539 8.39686C16.3593 8.29121 16.3021 8.14816 16.3091 7.9938C16.4026 5.93107 16.9719 3.89352 18.2262 2.1923C18.2275 2.19093 18.2282 2.18999 18.229 2.18858C18.3422 2.03569 18.2626 1.83564 18.0788 1.8227C17.5428 1.78496 17.0004 1.77936 16.4679 1.79084C15.4765 1.8122 14.4483 2.40769 13.8905 3.22434C13.6265 3.61084 13.3671 4.06924 13.186 4.50406C12.5894 5.93634 12.7374 7.54698 13.5088 8.88618C13.6661 9.15931 13.5843 9.52999 13.3122 9.7219C13.0615 9.89874 12.7388 9.87512 12.5423 9.68425C12.5102 9.65305 12.4807 9.61663 12.4555 9.57667C11.4297 7.94717 11.2834 5.95672 12.009 4.17809C12.1626 3.80166 12.3528 3.42477 12.5792 3.05154C12.7786 2.72303 12.5216 2.37616 12.1545 2.48679C11.5065 2.68218 10.8655 2.92825 10.2505 3.19173C9.53542 3.49804 8.93932 4.17145 8.70991 4.9003C8.63518 5.13776 8.57899 5.389 8.53801 5.63813C8.22615 7.533 9.09815 9.31314 10.4436 10.5993C10.6772 10.8226 10.6693 11.2142 10.4303 11.4709C10.1969 11.7216 9.82398 11.7595 9.58403 11.5561C9.57791 11.5509 9.57231 11.5462 9.56619 11.5406C7.90798 10.0134 6.89909 7.94425 7.26125 5.65644C7.26144 5.65329 7.26219 5.65013 7.26285 5.64745C7.31711 5.30514 6.96092 5.1242 6.66831 5.35418C6.28008 5.65931 5.89777 5.99507 5.53923 6.32839C4.5085 7.2866 3.87782 8.86674 4.27321 10.2495C4.63499 11.5147 5.60963 12.4202 6.66196 13.117C6.93048 13.2947 6.99735 13.6846 6.79584 13.9891C6.59598 14.2912 6.2061 14.385 5.9269 14.2154C5.72412 14.0922 5.5277 13.9668 5.35335 13.838C4.29556 13.057 3.36422 12.0147 3.0101 10.699C2.91132 10.3321 2.39881 10.3716 2.21669 10.7668C1.18149 13.0138 1.1213 15.8996 3.5917 17.1789C5.48106 18.1574 7.97641 17.9409 9.82191 16.996C10.0044 16.9026 10.2208 16.8905 10.4029 16.9784C10.4034 16.9786 10.4036 16.9787 10.404 16.9789C10.465 17.0077 10.5381 16.9887 10.5783 16.9337C11.9112 15.1297 13.3473 13.4236 14.8976 11.8027C14.9372 11.7618 14.9056 11.6939 14.849 11.6986C14.8483 11.6987 14.8479 11.6987 14.8472 11.6987C14.815 11.7013 14.7833 11.7025 14.7521 11.7031C14.4098 11.7095 14.1995 11.3363 14.3718 11.0326C14.4863 10.8308 14.5534 10.5995 14.5572 10.3528C14.561 10.107 14.5019 9.87583 14.3924 9.67681C14.227 9.3763 14.4527 8.98754 14.8042 8.98458H14.8129C15.3783 8.98594 15.876 9.3522 16.053 9.88552C16.1043 10.0402 16.2481 10.145 16.4117 10.1491C16.5158 10.1518 16.6169 10.1134 16.6933 10.0423C18.9251 7.99253 21.312 6.15757 23.8664 4.52759C24.0031 4.44161 24.0415 4.25973 23.9493 4.1298C23.3341 3.26312 22.476 2.70858 21.508 2.40957ZM11.0121 14.9088C11.0093 14.9122 11.008 14.9139 11.0053 14.9174C10.4283 15.6466 9.32337 15.8362 8.56459 15.2863C7.82845 14.7529 7.78097 13.6154 8.27546 12.9106C8.30083 12.8744 8.32728 12.8386 8.35476 12.8046C8.65179 12.4374 9.19561 12.519 9.34097 12.9347C9.4373 13.2101 9.60859 13.458 9.84841 13.6496C10.0882 13.8411 10.3666 13.953 10.6533 13.9928C11.0873 14.0532 11.286 14.5578 11.0121 14.9088ZM11.9781 12.9596C11.6731 13.3134 11.1437 13.3717 10.8029 13.0823C10.4465 12.7795 10.4426 12.2382 10.7408 11.8922C11.0389 11.5461 11.5749 11.47 11.9269 11.7783C12.2638 12.0733 12.2841 12.6048 11.9781 12.9596Z" fill="url(#paint4_linear_305_774)"/>
<path d="M21.5078 2.40958C21.5033 2.40817 21.498 2.40643 21.4928 2.40549C20.428 2.11589 19.2753 2.65819 18.7269 3.59212C17.9408 4.93062 17.5959 6.47862 17.5096 7.99913C17.4911 8.32426 17.2196 8.58878 16.8907 8.5892C16.716 8.58944 16.5599 8.51542 16.4537 8.39688C16.3973 8.33386 16.3553 8.25871 16.3312 8.17593C16.3145 8.11871 16.3071 8.0573 16.3088 7.99382C16.3093 7.97758 16.3099 7.962 16.3108 7.9453C16.4274 5.88459 16.9821 3.87993 18.226 2.19236C18.2273 2.19099 18.228 2.19005 18.2288 2.18864C18.342 2.03575 18.2624 1.8357 18.0785 1.82276C17.5425 1.78502 17.0001 1.77942 16.4677 1.7909C15.4762 1.81226 14.4467 2.40026 13.8903 3.22441C13.8426 3.29495 13.7936 3.36699 13.7477 3.43871C13.5271 3.78304 13.3381 4.14332 13.1858 4.50412C12.5793 5.9405 12.7372 7.54704 13.5086 8.88624C13.6659 9.15937 13.584 9.53005 13.312 9.72196C13.0613 9.8988 12.7385 9.87518 12.5421 9.68431C12.51 9.65311 12.4805 9.61669 12.4553 9.57673C11.4295 7.94723 11.2832 5.95678 12.0088 4.17815C12.1624 3.80172 12.353 3.42473 12.579 3.05161C12.6198 2.98436 12.6417 2.91542 12.6471 2.85057C12.6678 2.60069 12.4456 2.39904 12.1543 2.4869C12.0355 2.52271 11.9145 2.55979 11.7963 2.59956C11.2735 2.77551 10.7613 2.97819 10.2503 3.19179C9.52621 3.49452 8.93911 4.17151 8.70969 4.90036C8.63496 5.13782 8.57878 5.38906 8.53779 5.63819C8.22593 7.53306 9.09793 9.3132 10.4433 10.5993C10.6769 10.8226 10.6691 11.2142 10.4301 11.471C10.1967 11.7216 9.82377 11.7596 9.58381 11.5562C9.57769 11.551 9.57209 11.5462 9.56598 11.5406C7.90776 10.0135 6.89887 7.94431 7.26103 5.6565C7.26122 5.65335 7.26198 5.65019 7.26263 5.64751C7.31689 5.30521 6.96071 5.12426 6.66809 5.35424C6.27986 5.65937 5.89755 5.99513 5.53901 6.32845C4.50828 7.28666 3.8776 8.8668 4.27299 10.2495C4.63478 11.5148 5.60941 12.4203 6.66174 13.117C6.93026 13.2948 6.99713 13.6846 6.79562 13.9892C6.59576 14.2913 6.20588 14.3851 5.92668 14.2155C5.72391 14.0923 5.52748 13.9669 5.35313 13.8381C4.29534 13.0571 3.3632 12.0162 3.00988 10.6991C2.93374 10.4152 2.60993 10.3723 2.38343 10.5519C2.1512 12.6299 2.86216 14.7694 4.66376 15.9477C6.59934 17.2137 9.10104 17.0566 11.1512 16.164C12.3239 14.6414 13.5691 13.1917 14.8974 11.8027C14.937 11.7618 14.9054 11.694 14.8488 11.6987C14.848 11.6987 14.8477 11.6988 14.847 11.6988C14.8148 11.7013 14.7831 11.7026 14.7519 11.7032C14.4096 11.7095 14.1992 11.3364 14.3716 11.0326C14.4861 10.8309 14.5532 10.5996 14.557 10.3528C14.5608 10.107 14.5017 9.87589 14.3922 9.67688C14.2268 9.37636 14.4525 8.9876 14.804 8.98464H14.8127C15.3781 8.986 15.8758 9.35226 16.0528 9.88558C16.1041 10.0403 16.2479 10.145 16.4115 10.1492C16.5156 10.1518 16.6167 10.1135 16.6931 10.0424C18.9248 7.99259 21.3118 6.15763 23.8662 4.52765C24.0029 4.44168 24.0413 4.25979 23.9491 4.12986C23.3339 3.26313 22.4758 2.70859 21.5078 2.40958ZM11.0119 14.9088C11.0091 14.9123 11.0078 14.914 11.0051 14.9174C10.4281 15.6466 9.32315 15.8362 8.56438 15.2863C7.82824 14.7529 7.78075 13.6154 8.27525 12.9106C8.30061 12.8744 8.32706 12.8386 8.35454 12.8046C8.65158 12.4374 9.19539 12.519 9.34075 12.9347C9.43708 13.2101 9.60838 13.458 9.84819 13.6496C10.088 13.8411 10.3664 13.953 10.653 13.9928C11.0871 14.0532 11.2857 14.5579 11.0119 14.9088ZM11.9779 12.9596C11.6728 13.3134 11.1434 13.3717 10.8027 13.0823C10.4463 12.7795 10.4424 12.2382 10.7406 11.8922C11.0387 11.5461 11.5747 11.4701 11.9267 11.7783C12.2636 12.0733 12.2839 12.6048 11.9779 12.9596Z" fill="url(#paint5_linear_305_774)"/>
<path d="M21.5085 2.40955C21.504 2.40814 21.4987 2.4064 21.4934 2.40546C20.4287 2.11586 19.2747 2.65318 18.7275 3.59209C18.6484 3.72791 18.5731 3.86776 18.5021 4.00932C17.8755 5.25953 17.5884 6.6248 17.5102 7.99911C17.4917 8.32424 17.2202 8.58875 16.8914 8.58918C16.7166 8.58941 16.5605 8.51539 16.4543 8.39685C16.3979 8.33384 16.3559 8.25868 16.3318 8.17591C16.3152 8.11868 16.3077 8.05727 16.3095 7.99379C16.3099 7.97755 16.3105 7.96198 16.3115 7.94527C16.4089 6.21995 16.8074 4.49892 17.6956 2.99807C17.8593 2.72146 18.0364 2.45049 18.2266 2.19233C18.2279 2.19097 18.2286 2.19002 18.2294 2.18861C18.3427 2.03572 18.263 1.83567 18.0792 1.82273C17.5432 1.78499 17.0019 1.78042 16.4683 1.79087C16.3181 1.79384 16.1651 1.81097 16.0156 1.83878C16.0156 1.83878 16.0156 1.83878 16.0151 1.83873C15.1243 1.9808 14.3947 2.55487 13.8909 3.22433C13.8411 3.29059 13.7943 3.36692 13.7483 3.43864C13.5278 3.78296 13.3388 4.14325 13.1865 4.50405C12.58 5.94042 12.7379 7.54697 13.5092 8.88617C13.6666 9.15929 13.5847 9.52998 13.3127 9.72188C13.062 9.89873 12.7392 9.87511 12.5428 9.68424C12.5107 9.65304 12.4811 9.61661 12.456 9.57666C11.4302 7.94715 11.2839 5.95671 12.0095 4.17807C12.163 3.80165 12.3537 3.42466 12.5797 3.05153C12.6204 2.98428 12.6424 2.91534 12.6478 2.85049C12.6685 2.60061 12.4463 2.39897 12.155 2.48682C12.0362 2.52264 11.9152 2.55972 11.797 2.59948C11.2742 2.77544 10.7619 2.97812 10.2509 3.19172C9.52689 3.49445 8.93978 4.17144 8.71037 4.90028C8.63564 5.13774 8.57946 5.38899 8.53847 5.63812C8.22661 7.53299 9.09861 9.31313 10.444 10.5992C10.6776 10.8225 10.6698 11.2142 10.4307 11.4709C10.1973 11.7216 9.82444 11.7595 9.58449 11.5561C9.57837 11.5509 9.57277 11.5462 9.56666 11.5406C7.90844 10.0134 6.89955 7.94424 7.26171 5.65642C7.2619 5.65327 7.26266 5.65012 7.26331 5.64744C7.30063 5.40979 7.14181 5.24904 6.94129 5.25078C5.31287 7.65153 4.89696 11.0411 7.44628 12.9754C7.63386 13.1177 7.83117 13.2541 8.03644 13.3777C8.09306 13.2159 8.17254 13.0578 8.27593 12.9106C8.30134 12.8744 8.32774 12.8386 8.35522 12.8046C8.65226 12.4374 9.19607 12.519 9.34143 12.9346C9.43776 13.2101 9.60906 13.458 9.84887 13.6496C10.0887 13.8411 10.367 13.9529 10.6537 13.9928C10.9139 14.029 11.0891 14.2269 11.1289 14.4536C11.5588 14.5192 11.9913 14.557 12.4206 14.5664C13.2177 13.6172 14.0413 12.6984 14.8981 11.8026C14.9377 11.7617 14.906 11.6938 14.8494 11.6985C14.8487 11.6986 14.8483 11.6986 14.8476 11.6987C14.8155 11.7012 14.7837 11.7024 14.7526 11.7031C14.4102 11.7094 14.1999 11.3362 14.3723 11.0325C14.4867 10.8308 14.5539 10.5994 14.5577 10.3527C14.5615 10.1069 14.5024 9.87577 14.3929 9.67675C14.2275 9.37624 14.4531 8.98748 14.8047 8.98452H14.8134C15.3787 8.98588 15.8765 9.35214 16.0534 9.88546C16.1048 10.0402 16.2486 10.1449 16.4122 10.1491C16.5163 10.1517 16.6174 10.1134 16.6938 10.0423C18.9255 7.99247 21.3124 6.15751 23.8668 4.52753C24.0035 4.44155 24.042 4.25967 23.9498 4.12974C23.3346 3.26311 22.4765 2.70856 21.5085 2.40955ZM11.9786 12.9596C11.6735 13.3134 11.1441 13.3717 10.8034 13.0823C10.447 12.7795 10.443 12.2382 10.7412 11.8921C11.0394 11.5461 11.5754 11.47 11.9274 11.7783C12.2643 12.0733 12.2846 12.6048 11.9786 12.9596Z" fill="url(#paint6_linear_305_774)"/>
<path d="M23.8669 4.52765C21.3125 6.15762 18.9256 7.99259 16.6938 10.0424C16.6174 10.1135 16.5163 10.1518 16.4122 10.1492C16.2486 10.145 16.1048 10.0403 16.0535 9.88558C15.8766 9.35226 15.3788 8.986 14.8134 8.98463C14.8099 8.98463 14.8082 8.98463 14.8047 8.98463C14.4532 8.9876 14.2275 9.37631 14.3929 9.67687C14.5024 9.87588 14.5615 10.107 14.5577 10.3528C14.5538 10.5996 14.4867 10.8309 14.3723 11.0326C14.2 11.3364 14.4103 11.7096 14.7526 11.7032C14.7837 11.7026 14.8155 11.7013 14.8477 11.6988C14.8484 11.6988 14.8488 11.6987 14.8495 11.6987C14.9061 11.6939 14.9377 11.7618 14.8981 11.8027C14.5703 12.1412 14.4084 12.3125 14.0889 12.659C13.208 12.2597 12.4071 11.7985 11.6875 11.1759C8.91017 8.77311 9.93624 4.91598 12.2297 2.47085C12.4837 2.43513 12.6665 2.6228 12.6479 2.85056C12.6425 2.91551 12.6205 2.98435 12.5798 3.0516C12.3537 3.42468 12.1631 3.80172 12.0096 4.17814C11.284 5.95678 11.4302 7.94722 12.456 9.57673C12.4812 9.61668 12.5108 9.65311 12.5429 9.68431C12.7393 9.87518 13.0621 9.8988 13.3128 9.72195C13.5848 9.53005 13.6666 9.15936 13.5093 8.88623C12.738 7.54703 12.5801 5.94049 13.1865 4.50412C13.3389 4.14332 13.5279 3.78303 13.7484 3.43871C13.7944 3.36699 13.8411 3.29066 13.891 3.2244C14.3949 2.55494 15.1244 1.98087 16.0152 1.8388C16.0157 1.83885 16.0157 1.83885 16.0157 1.83885C16.1652 1.81103 16.3182 1.79386 16.4684 1.79094C17.0019 1.78049 17.5432 1.78501 18.0792 1.8228C18.2631 1.83574 18.3427 2.03579 18.2295 2.18868C18.2287 2.19009 18.228 2.19103 18.2267 2.1924C18.0364 2.45056 17.8594 2.72153 17.6957 2.99814C16.8075 4.49899 16.4092 6.21983 16.3115 7.94534C16.3106 7.96209 16.31 7.97762 16.3096 7.99386C16.3078 8.05734 16.3152 8.11875 16.3319 8.17598C16.356 8.2588 16.398 8.33395 16.4544 8.39692C16.5606 8.51546 16.7167 8.58948 16.8914 8.58925C17.2203 8.58882 17.4918 8.32431 17.5103 7.99918C17.5884 6.62487 17.8756 5.2596 18.5022 4.00939C18.5731 3.86788 18.6485 3.72798 18.7276 3.59216C19.2748 2.65339 20.4288 2.11593 21.4935 2.40553C21.4988 2.40642 21.504 2.40821 21.5086 2.40962C22.4767 2.70878 23.3346 3.26318 23.9499 4.12991C24.042 4.25979 24.0035 4.44167 23.8669 4.52765Z" fill="url(#paint7_linear_305_774)"/>
<path d="M23.8665 4.52764C21.3122 6.15762 18.9252 7.99258 16.6935 10.0424C16.6171 10.1135 16.516 10.1518 16.4119 10.1492C16.2483 10.145 16.1045 10.0403 16.0531 9.88557C15.8762 9.35225 15.3784 8.98599 14.8131 8.98463C14.8096 8.98463 14.8078 8.98463 14.8044 8.98463C14.7218 8.98524 14.6463 9.00778 14.5814 9.04439C13.4279 6.71206 14.9431 4.0515 16.7192 2.68783C17.1552 2.3531 17.628 2.08947 18.1389 1.83484C18.2787 1.88213 18.3294 2.05333 18.2291 2.18863C18.2283 2.19004 18.2276 2.19098 18.2263 2.19234C18.036 2.45051 17.859 2.72147 17.6953 2.99809C16.8071 4.49893 16.4088 6.21978 16.3111 7.94529C16.3102 7.96204 16.3096 7.97757 16.3092 7.9938C16.3074 8.05729 16.3149 8.1187 16.3315 8.17592C16.3556 8.25874 16.3976 8.3339 16.454 8.39686C16.5602 8.5154 16.7163 8.58943 16.891 8.58919C17.2199 8.58877 17.4914 8.32425 17.5099 7.99912C17.588 6.62482 17.8752 5.25954 18.5018 4.00933C18.5727 3.86783 18.6481 3.72792 18.7272 3.59211C19.2744 2.65333 20.4284 2.11587 21.4931 2.40547C21.4984 2.40637 21.5037 2.40816 21.5082 2.40957C22.4763 2.70872 23.3342 3.26312 23.9495 4.12985C24.0417 4.25978 24.0032 4.44166 23.8665 4.52764Z" fill="url(#paint8_linear_305_774)"/>
<path d="M23.949 4.13021C23.3847 3.33529 22.5319 2.6936 21.5851 2.4328C20.2386 4.02621 19.141 5.92089 18.9795 8.04546C20.545 6.77977 22.1689 5.61073 23.8659 4.52772C24.0025 4.44174 24.0412 4.26 23.949 4.13021Z" fill="url(#paint9_linear_305_774)"/>
</g>
<defs>
<linearGradient id="paint0_linear_305_774" x1="10.1659" y1="15.4127" x2="11.1624" y2="15.9984" gradientUnits="userSpaceOnUse">
<stop stop-color="#BBEC6C"/>
<stop offset="1" stop-color="#81B823"/>
</linearGradient>
<linearGradient id="paint1_linear_305_774" x1="7.68827" y1="1.47692" x2="12.5844" y2="9.66849" gradientUnits="userSpaceOnUse">
<stop stop-color="#8BC727"/>
<stop offset="1" stop-color="#017B4E"/>
</linearGradient>
<linearGradient id="paint2_linear_305_774" x1="8.66276" y1="1.886" x2="12.3819" y2="9.51264" gradientUnits="userSpaceOnUse">
<stop stop-color="#026841" stop-opacity="0"/>
<stop offset="0.2391" stop-color="#0A6644" stop-opacity="0.239"/>
<stop offset="0.6113" stop-color="#20604D" stop-opacity="0.611"/>
<stop offset="1" stop-color="#3E5959"/>
</linearGradient>
<linearGradient id="paint3_linear_305_774" x1="6.09622" y1="4.99178" x2="16.3884" y2="12.4315" gradientUnits="userSpaceOnUse">
<stop stop-color="#8BC727"/>
<stop offset="1" stop-color="#017B4E"/>
</linearGradient>
<linearGradient id="paint4_linear_305_774" x1="13.5571" y1="10.6069" x2="14.812" y2="12.05" gradientUnits="userSpaceOnUse">
<stop stop-color="#026841" stop-opacity="0"/>
<stop offset="0.2391" stop-color="#0A6644" stop-opacity="0.239"/>
<stop offset="0.6113" stop-color="#20604D" stop-opacity="0.611"/>
<stop offset="1" stop-color="#3E5959"/>
</linearGradient>
<linearGradient id="paint5_linear_305_774" x1="13.1345" y1="13.1044" x2="13.1032" y2="17.7789" gradientUnits="userSpaceOnUse">
<stop stop-color="#026841" stop-opacity="0"/>
<stop offset="0.2391" stop-color="#0A6644" stop-opacity="0.239"/>
<stop offset="0.6113" stop-color="#20604D" stop-opacity="0.611"/>
<stop offset="1" stop-color="#3E5959"/>
</linearGradient>
<linearGradient id="paint6_linear_305_774" x1="14.4032" y1="11.2126" x2="13.9326" y2="16.4519" gradientUnits="userSpaceOnUse">
<stop stop-color="#026841" stop-opacity="0"/>
<stop offset="0.2391" stop-color="#0A6644" stop-opacity="0.239"/>
<stop offset="0.6113" stop-color="#20604D" stop-opacity="0.611"/>
<stop offset="1" stop-color="#3E5959"/>
</linearGradient>
<linearGradient id="paint7_linear_305_774" x1="16.4956" y1="9.25188" x2="15.8054" y2="14.0205" gradientUnits="userSpaceOnUse">
<stop stop-color="#026841" stop-opacity="0"/>
<stop offset="0.2391" stop-color="#0A6644" stop-opacity="0.239"/>
<stop offset="0.6113" stop-color="#20604D" stop-opacity="0.611"/>
<stop offset="1" stop-color="#3E5959"/>
</linearGradient>
<linearGradient id="paint8_linear_305_774" x1="16.9091" y1="6.36957" x2="13.8346" y2="8.87936" gradientUnits="userSpaceOnUse">
<stop stop-color="#026841" stop-opacity="0"/>
<stop offset="0.2391" stop-color="#0A6644" stop-opacity="0.239"/>
<stop offset="0.6113" stop-color="#20604D" stop-opacity="0.611"/>
<stop offset="1" stop-color="#3E5959"/>
</linearGradient>
<linearGradient id="paint9_linear_305_774" x1="21.4065" y1="4.86438" x2="18.3947" y2="5.86833" gradientUnits="userSpaceOnUse">
<stop stop-color="#026841" stop-opacity="0"/>
<stop offset="0.2391" stop-color="#0A6644" stop-opacity="0.239"/>
<stop offset="0.6113" stop-color="#20604D" stop-opacity="0.611"/>
<stop offset="1" stop-color="#3E5959"/>
</linearGradient>
<clipPath id="clip0_305_774">
<rect width="24" height="24" fill="white"/>
</clipPath>
</defs>
</svg>
