<svg width="24" height="24" viewBox="0 0 24 24" fill="none" xmlns="http://www.w3.org/2000/svg">
<path d="M22.319 1.4362C22.2347 1.23229 22.0359 1.09928 21.8152 1.09923C17.7236 1.09923 13.9907 2.38929 11.8315 4.5485C9.90428 6.53126 9.94932 9.70087 11.9321 11.6281C13.8751 13.5168 16.9681 13.5168 18.9111 11.6281C19.8446 10.6946 20.1281 8.97055 20.4291 7.1461C20.7563 5.18318 21.0834 3.14394 22.2012 2.03049C22.3571 1.87448 22.4035 1.6399 22.319 1.4362Z" fill="#4CAF50"/>
<path d="M10.91 16.3664C10.6611 16.3662 10.4439 16.1975 10.3822 15.9564C9.76718 13.5508 7.88824 7.02731 6.60033 5.73939C6.39111 5.52281 6.39714 5.17761 6.61372 4.96838C6.82504 4.76432 7.16002 4.76432 7.37134 4.96838C8.65598 6.25303 10.1467 11.0229 10.922 13.7776C11.9754 10.7147 13.7031 7.92749 15.9776 5.62162C16.1869 5.40503 16.532 5.39905 16.7486 5.60823C16.9652 5.81745 16.9712 6.1626 16.762 6.37924C16.7576 6.38378 16.7532 6.38823 16.7486 6.39263C14.1519 9.03174 12.3195 12.3257 11.4466 15.9237C11.3987 16.1747 11.1828 16.3587 10.9275 16.3664H10.91Z" fill="#388E3C"/>
<path d="M17.8892 15.494C17.7863 15.3567 17.6246 15.2759 17.453 15.2759H4.36687C4.06574 15.2762 3.82191 15.5206 3.82227 15.8218C3.82232 15.8725 3.82947 15.9229 3.84343 15.9716L6.02447 23.6052C6.09154 23.8387 6.30495 23.9997 6.54792 24H15.272C15.515 23.9997 15.7284 23.8387 15.7955 23.6052L17.9765 15.9716C18.0238 15.8076 17.9915 15.6308 17.8892 15.494Z" fill="#455A64"/>
<path d="M7.37123 1.81243C5.94141 0.562702 4.08262 -0.083887 2.18584 0.0087384C1.88471 0.00817611 1.64016 0.251855 1.63965 0.552989C1.63939 0.698164 1.69705 0.83746 1.79985 0.940002C2.28675 1.6533 2.56682 2.48744 2.609 3.35005C2.64769 4.21108 2.93809 5.04179 3.44431 5.73935C4.54799 6.80382 6.30568 6.77208 7.37016 5.6684C8.40754 4.59283 8.40754 2.88907 7.37016 1.8135L7.37123 1.81243Z" fill="#4CAF50"/>
</svg>
