<svg width="80" height="80" viewBox="0 0 80 80" fill="none" xmlns="http://www.w3.org/2000/svg">
<path d="M62.5 67.5H7.5C4.73859 67.5 2.5 65.2614 2.5 62.5V27.5C2.5 24.7386 4.73859 22.5 7.5 22.5H62.5C65.2614 22.5 67.5 24.7386 67.5 27.5V62.5C67.5 65.2614 65.2614 67.5 62.5 67.5Z" fill="#614AD3"/>
<path d="M57.5 67.5H7.5C4.73859 67.5 2.5 65.2614 2.5 62.5V27.5C2.5 24.7386 4.73859 22.5 7.5 22.5H57.5C60.2614 22.5 62.5 24.7386 62.5 27.5V62.5C62.5 65.2614 60.2614 67.5 57.5 67.5Z" fill="#D5D3E8"/>
<path d="M56.25 62.5H8.75C8.05969 62.5 7.5 61.9403 7.5 61.25V28.75C7.5 28.0597 8.05969 27.5 8.75 27.5H56.25C56.9403 27.5 57.5 28.0597 57.5 28.75V61.25C57.5 61.9403 56.9403 62.5 56.25 62.5Z" fill="#614AD3"/>
<path d="M28.75 67.5H40V72.5H28.75V67.5Z" fill="#614AD3"/>
<path d="M28.75 70H36.25V72.5H28.75V70Z" fill="#17365F"/>
<path d="M51.25 77.5H17.5C16.8097 77.5 16.25 76.9403 16.25 76.25V75C16.25 73.6192 17.3692 72.5 18.75 72.5H50C51.3808 72.5 52.5 73.6192 52.5 75V76.25C52.5 76.9403 51.9403 77.5 51.25 77.5Z" fill="#2D248A"/>
<path d="M51.25 77.5H46.25C45.5597 77.5 45 76.9403 45 76.25V75C45 73.6192 46.1192 72.5 47.5 72.5H50C51.3808 72.5 52.5 73.6192 52.5 75V76.25C52.5 76.9403 51.9403 77.5 51.25 77.5Z" fill="#614AD3"/>
<path d="M32.5 65C43.5457 65 52.5 56.0457 52.5 45C52.5 33.9543 43.5457 25 32.5 25C21.4543 25 12.5 33.9543 12.5 45C12.5 56.0457 21.4543 65 32.5 65Z" fill="#F4F4F9"/>
<path d="M13.75 46.25C14.4403 46.25 15 45.6903 15 45C15 35.3505 22.8505 27.5 32.5 27.5C33.1903 27.5 33.75 26.9403 33.75 26.25C33.75 25.5597 33.1903 25 32.5 25C21.4544 25 12.5 33.9544 12.5 45C12.5 45.6903 13.0597 46.25 13.75 46.25Z" fill="white"/>
<path d="M44.6054 43.3958L25.8554 33.3958C25.2916 33.0952 24.6118 33.1125 24.0643 33.4409C23.5166 33.7695 23.1816 34.3614 23.1816 35V55C23.1816 55.6386 23.5168 56.2305 24.0643 56.5591C24.3516 56.7316 24.6755 56.8181 24.9998 56.8181C25.2934 56.8181 25.5876 56.747 25.8554 56.6042L44.6054 46.6042C45.1979 46.2883 45.5679 45.6714 45.5679 45C45.5679 44.3286 45.1979 43.7117 44.6054 43.3958Z" fill="#614AD3"/>
<path d="M24.9998 56.8181C23.9955 56.8181 23.1816 56.0041 23.1816 55V35C23.1816 34.3614 23.5168 33.7695 24.0643 33.4409C24.6118 33.1125 25.2916 33.0952 25.8554 33.3958L44.6054 43.3958C45.4913 43.8683 45.8265 44.9697 45.3541 45.8556C44.8816 46.7416 43.7804 47.0769 42.8941 46.6042L26.8179 38.0303V55C26.8179 56.0042 26.004 56.8181 24.9998 56.8181Z" fill="#2D248A"/>
<path d="M36.0353 28.9645C35.3954 28.9645 34.7558 28.7205 34.2676 28.2323C33.7954 27.76 33.1676 27.5 32.4998 27.5C31.832 27.5 31.2042 27.76 30.732 28.2323C29.7556 29.2086 28.1728 29.2086 27.1965 28.2323C26.2203 27.2559 26.2203 25.6731 27.1965 24.6969C28.6131 23.2802 30.4965 22.5 32.4998 22.5C34.5031 22.5 36.3865 23.2802 37.8031 24.6967C38.7795 25.673 38.7795 27.2559 37.8031 28.2322C37.315 28.7203 36.6751 28.9645 36.0353 28.9645Z" fill="#614AD3"/>
<path d="M43.1067 21.8934C42.4668 21.8934 41.8271 21.6494 41.339 21.1613C38.9779 18.8003 35.839 17.5 32.5001 17.5C29.1612 17.5 26.0223 18.8003 23.6612 21.1611C22.685 22.1375 21.1021 22.1375 20.1257 21.1611C19.1495 20.1848 19.1495 18.6019 20.1257 17.6256C23.4311 14.3203 27.8256 12.5 32.5001 12.5C37.1745 12.5 41.5692 14.3203 44.8743 17.6256C45.8507 18.6019 45.8507 20.1848 44.8743 21.1611C44.3862 21.6494 43.7465 21.8934 43.1067 21.8934Z" fill="#614AD3"/>
<path d="M50.1776 14.8223C49.5376 14.8223 48.898 14.5783 48.4099 14.0902C44.1602 9.84047 38.5099 7.5 32.4999 7.5C26.4901 7.5 20.8398 9.84047 16.5899 14.0902C15.6137 15.0664 14.0307 15.0664 13.0545 14.0902C12.0782 13.1138 12.0782 11.5309 13.0545 10.5547C18.2487 5.36047 25.1545 2.5 32.4999 2.5C39.8455 2.5 46.7513 5.36047 51.9452 10.5545C52.9216 11.5308 52.9216 13.1138 51.9452 14.09C51.4571 14.5783 50.8171 14.8223 50.1776 14.8223Z" fill="#614AD3"/>
<path d="M28.9644 28.9645C28.3245 28.9645 27.6848 28.7205 27.1965 28.2322C26.2203 27.2558 26.2203 25.673 27.1965 24.6967C28.6131 23.2802 30.4965 22.5 32.4998 22.5C33.8804 22.5 34.9998 23.6192 34.9998 25C34.9998 26.3808 33.8804 27.5 32.4998 27.5C31.832 27.5 31.2042 27.76 30.732 28.2323C30.2439 28.7203 29.604 28.9645 28.9644 28.9645Z" fill="#2D248A"/>
<path d="M21.8936 21.8934C21.2537 21.8934 20.614 21.6494 20.1257 21.1613C19.1495 20.185 19.1495 18.602 20.1257 17.6258C23.4311 14.3203 27.8256 12.5 32.5001 12.5C33.8807 12.5 35.0001 13.6192 35.0001 15C35.0001 16.3806 33.8807 17.5 32.5001 17.5C29.1612 17.5 26.0223 18.8003 23.6612 21.1611C23.1731 21.6494 22.5332 21.8934 21.8936 21.8934Z" fill="#2D248A"/>
<path d="M14.8223 14.8223C14.1824 14.8223 13.5427 14.5783 13.0545 14.0902C12.0782 13.1138 12.0782 11.5309 13.0545 10.5547C18.2487 5.36047 25.1545 2.5 32.4999 2.5C33.8805 2.5 34.9999 3.61922 34.9999 5C34.9999 6.38078 33.8805 7.5 32.4999 7.5C26.4901 7.5 20.8398 9.84047 16.5899 14.0902C16.102 14.5781 15.462 14.8223 14.8223 14.8223Z" fill="#2D248A"/>
<path d="M68.75 77.5H63.75C58.9175 77.5 55 73.5825 55 68.75V42.5C55 41.1192 56.1192 40 57.5 40H75C76.3808 40 77.5 41.1192 77.5 42.5V68.75C77.5 73.5825 73.5825 77.5 68.75 77.5Z" fill="#614AD3"/>
<path d="M63.75 77.5C58.9175 77.5 55 73.5825 55 68.75V42.5C55 41.1192 56.1192 40 57.5 40H70C71.3808 40 72.5 41.1192 72.5 42.5V68.75C72.5 73.5825 68.5825 77.5 63.75 77.5Z" fill="#2D248A"/>
<path d="M60 47.5C61.3807 47.5 62.5 46.3807 62.5 45C62.5 43.6193 61.3807 42.5 60 42.5C58.6193 42.5 57.5 43.6193 57.5 45C57.5 46.3807 58.6193 47.5 60 47.5Z" fill="#5AD7FF"/>
<path d="M67.5 47.5C68.8807 47.5 70 46.3807 70 45C70 43.6193 68.8807 42.5 67.5 42.5C66.1193 42.5 65 43.6193 65 45C65 46.3807 66.1193 47.5 67.5 47.5Z" fill="#D7E6F0"/>
<path d="M60 55C61.3807 55 62.5 53.8807 62.5 52.5C62.5 51.1193 61.3807 50 60 50C58.6193 50 57.5 51.1193 57.5 52.5C57.5 53.8807 58.6193 55 60 55Z" fill="#D7E6F0"/>
<path d="M67.5 55C68.8807 55 70 53.8807 70 52.5C70 51.1193 68.8807 50 67.5 50C66.1193 50 65 51.1193 65 52.5C65 53.8807 66.1193 55 67.5 55Z" fill="#D7E6F0"/>
<path d="M67.5 61.25H66.25V60C66.25 58.6192 65.1308 57.5 63.75 57.5C62.3692 57.5 61.25 58.6192 61.25 60V61.25H60C58.6192 61.25 57.5 62.3692 57.5 63.75C57.5 65.1306 58.6192 66.25 60 66.25H61.25V67.5C61.25 68.8806 62.3692 70 63.75 70C65.1308 70 66.25 68.8806 66.25 67.5V66.25H67.5C68.8808 66.25 70 65.1306 70 63.75C70 62.3692 68.8808 61.25 67.5 61.25Z" fill="#D7E6F0"/>
</svg>
