<svg width="80" height="80" viewBox="0 0 80 80" fill="none" xmlns="http://www.w3.org/2000/svg">
<path d="M78.704 34.3964C78.704 16.062 63.8395 1.19873 45.5027 1.19873C27.1659 1.19873 12.3008 16.062 12.3008 34.3964C12.3008 52.7313 27.1659 67.594 45.5027 67.594C63.8395 67.594 78.704 52.7313 78.704 34.3964Z" fill="#71D8FD"/>
<path d="M46.9492 1.2323C60.7175 5.96375 70.6125 19.024 70.6125 34.3964C70.6125 49.7693 60.7175 62.8296 46.9492 67.561C64.6146 66.8036 78.704 52.2467 78.704 34.3964C78.704 16.5466 64.6146 1.98975 46.9492 1.2323Z" fill="#60C3F7"/>
<path d="M69.8278 10.0745C63.33 3.57788 54.691 0 45.5028 0C36.314 0 27.675 3.57788 21.1772 10.0745C14.6801 16.571 11.1016 25.2087 11.1016 34.3964C11.1016 43.584 14.6801 52.2223 21.1772 58.7189C27.675 65.2155 36.314 68.7933 45.5028 68.7933C54.691 68.7933 63.33 65.2155 69.8278 58.7189C76.325 52.2223 79.9034 43.584 79.9034 34.3964C79.9034 25.2087 76.325 16.571 69.8278 10.0745ZM64.1686 33.1976C64.0917 28.9838 63.6095 24.8999 62.7574 21.1066C64.7911 21.7621 66.6948 22.5385 68.4325 23.4296C73.7065 26.1328 76.8431 29.5642 77.4108 33.1976H64.1686ZM61.7705 33.9441H46.7015V18.5895C51.4373 18.6761 55.9905 19.2767 60.1122 20.3406C61.1168 24.3146 61.6851 29.4189 61.7705 33.9441ZM46.7015 16.1908V2.48657C50.4631 3.03894 54.0123 6.18347 56.801 11.4807C57.7965 13.371 58.6522 15.4565 59.3608 17.6923C55.4088 16.7828 51.1266 16.2701 46.7015 16.1908ZM44.3035 2.48596V16.1908C39.8784 16.2695 35.5962 16.7828 31.6442 17.6923C32.3528 15.4559 33.2085 13.3704 34.2034 11.4807C36.9933 6.18347 40.5419 3.03894 44.3035 2.48596ZM44.3035 18.5895V33.9441H29.2345C29.3199 29.4189 29.8882 24.3152 30.8928 20.3406C35.0145 19.2767 39.5677 18.6761 44.3035 18.5895ZM26.8364 33.1976H13.5948C14.1619 29.5642 17.2991 26.1328 22.5725 23.4296C24.3102 22.5385 26.2139 21.7621 28.2476 21.1066C27.3949 24.8999 26.9133 28.9838 26.8364 33.1976ZM26.8364 35.5957C26.9133 39.8096 27.3955 43.8928 28.2476 47.6862C26.2139 47.0306 24.3102 46.2543 22.5725 45.3638C17.2991 42.6605 14.1619 39.2291 13.5942 35.5957H26.8364ZM29.2345 35.5957H44.3035V50.2039C39.5677 50.1172 35.0145 49.5166 30.8928 48.4528C29.8882 44.4781 29.3199 40.1208 29.2345 35.5957ZM44.3035 52.6019V66.3068C40.5419 65.7538 36.9933 62.6099 34.2034 57.3126C33.2085 55.4224 32.3528 53.3368 31.6442 51.1011C35.5968 52.0105 39.8784 52.5232 44.3035 52.6019ZM46.7015 66.3068V52.6025C51.1266 52.5238 55.4082 52.0105 59.3608 51.1011C58.6522 53.3374 57.7965 55.423 56.801 57.3126C54.0123 62.6099 50.4631 65.7544 46.7015 66.3068ZM46.7015 50.2039V35.5957H61.7699C61.6844 40.1208 61.1168 44.4781 60.1122 48.4528C55.9905 49.5166 51.4373 50.1172 46.7015 50.2039ZM64.1686 35.5957H77.4108C76.8431 39.2291 73.7065 42.6605 68.4325 45.3638C66.6948 46.2543 64.7911 47.0306 62.7574 47.6862C63.6095 43.8928 64.0917 39.8096 64.1686 35.5957ZM76.4904 26.3898C74.774 24.5081 72.4346 22.7863 69.5269 21.2958C67.2759 20.1416 64.7679 19.1699 62.072 18.3936C61.248 15.4779 60.1921 12.774 58.9232 10.3638C57.4169 7.50305 55.6816 5.1947 53.7871 3.48755C64.879 6.4624 73.6125 15.2606 76.4904 26.3898ZM37.2179 3.48755C35.3234 5.1947 33.5881 7.50305 32.0818 10.3638C30.8129 12.774 29.757 15.4779 28.933 18.3936C26.2371 19.1699 23.7291 20.1422 21.4788 21.2958C18.5704 22.7863 16.231 24.5081 14.5146 26.3898C17.3925 15.2606 26.126 6.4624 37.2179 3.48755ZM14.5146 42.403C16.231 44.2853 18.5704 46.0071 21.4788 47.4976C23.7291 48.6511 26.2371 49.6228 28.933 50.3998C29.757 53.3154 30.8129 56.0193 32.0818 58.4296C33.5881 61.2903 35.3234 63.5986 37.2179 65.3058C26.126 62.3303 17.3925 53.5327 14.5146 42.403ZM53.7871 65.3058C55.6816 63.5986 57.4169 61.2903 58.9232 58.4296C60.1921 56.0193 61.248 53.3154 62.072 50.3998C64.7679 49.6234 67.2759 48.6511 69.5269 47.4976C72.4346 46.0071 74.774 44.2853 76.491 42.4036C73.6125 53.5327 64.879 62.3309 53.7871 65.3058Z" fill="#54A1FF"/>
<path d="M77.3448 56.1646C76.6826 56.1646 76.1455 56.701 76.1455 57.3633V67.5024C76.1455 69.704 74.3541 71.4954 72.1526 71.4954H70.3301L71.4904 70.3351C71.9585 69.8669 71.9585 69.1077 71.4904 68.6395C71.0222 68.1714 70.2629 68.1714 69.7948 68.6395L66.729 71.7047C66.4135 71.9208 66.2065 72.2833 66.2065 72.6941C66.2065 72.699 66.2072 72.7039 66.2072 72.7087C66.2072 72.7136 66.2065 72.7185 66.2065 72.724C66.2065 73.042 66.3329 73.3466 66.5581 73.5718L69.7362 76.7493C69.97 76.983 70.277 77.1002 70.584 77.1002C70.8904 77.1002 71.1974 76.983 71.4318 76.7493C71.8999 76.2811 71.8999 75.5219 71.4318 75.0537L70.2709 73.8934H72.1526C75.6768 73.8934 78.5436 71.0266 78.5436 67.5031V57.3639C78.5436 56.701 78.0071 56.1646 77.3448 56.1646Z" fill="#D2555F"/>
<path d="M15.3479 5.32962L12.1698 2.15213C11.7017 1.68399 10.9424 1.68399 10.4736 2.15213C10.0055 2.62027 10.0055 3.37955 10.4736 3.84769L11.6345 5.00797H9.75342C6.22925 5.00797 3.36182 7.87479 3.36182 11.3983V21.5381C3.36182 22.1997 3.89893 22.7368 4.56116 22.7368C5.22339 22.7368 5.75989 22.1997 5.75989 21.5381V11.3983C5.75989 9.19681 7.55127 7.40604 9.75342 7.40604H11.5759L10.415 8.56631C9.9469 9.03445 9.9469 9.79373 10.415 10.2619C10.6494 10.4956 10.9564 10.6128 11.2634 10.6128C11.5698 10.6128 11.8768 10.4956 12.1112 10.2619L15.177 7.19608C15.4919 6.98001 15.6989 6.61746 15.6989 6.2067C15.6989 6.20181 15.6982 6.19754 15.6982 6.19266C15.7019 5.88077 15.5859 5.56766 15.3479 5.32962Z" fill="#87B45F"/>
<path d="M69.8278 10.0745C63.33 3.57788 54.691 0 45.5028 0C44.6147 0 43.7328 0.0341797 42.8569 0.100098C47.7324 1.13403 52.2332 3.18115 56.129 6.01013C55.3813 5.06165 54.5989 4.21875 53.7871 3.48755C64.879 6.4624 73.6125 15.2606 76.4904 26.3898C74.774 24.5081 72.4346 22.7863 69.5269 21.2958C68.9415 20.9955 68.3379 20.7086 67.719 20.4333C68.181 21.496 68.5918 22.5861 68.9482 23.7006C73.9104 26.3599 76.8615 29.6844 77.4102 33.1976H70.5901C70.6035 33.5962 70.6127 33.9954 70.6127 34.3964C70.6127 34.798 70.6035 35.1971 70.5901 35.5957H77.4102C76.8615 39.1089 73.9104 42.4329 68.9482 45.0928C68.5918 46.2073 68.181 47.2968 67.719 48.36C68.3379 48.0847 68.9415 47.7972 69.5269 47.4976C72.4346 46.0071 74.774 44.2853 76.4904 42.4036C73.6125 53.5327 64.879 62.3309 53.7871 65.3058C54.5995 64.5746 55.3813 63.7317 56.1296 62.7832C52.2332 65.6122 47.7324 67.6593 42.8569 68.6932C43.7328 68.7592 44.6147 68.7933 45.5028 68.7933C54.691 68.7933 63.33 65.2155 69.8278 58.7189C76.325 52.2223 79.9034 43.584 79.9034 34.3964C79.9034 25.2087 76.325 16.571 69.8278 10.0745Z" fill="#4A7FDD"/>
<path d="M57.3956 80H5.58655C2.50122 80 0 77.4994 0 74.4147V28.9996C0 28.4302 0.461426 27.9688 1.03088 27.9688H22.8625C23.2068 27.9688 23.5284 28.1409 23.7195 28.4271L26.7584 32.9791C26.9495 33.2654 27.2711 33.4375 27.6154 33.4375H61.9519C62.5208 33.4375 62.9822 33.8989 62.9822 34.4678V74.4147C62.9822 77.4994 60.481 80 57.3956 80Z" fill="#FFCD74"/>
<path d="M61.9513 33.4375H27.6154C27.2705 33.4375 26.9495 33.2654 26.7578 32.9791L23.7195 28.4271C23.5284 28.1409 23.2068 27.9688 22.8625 27.9688H1.03088C0.461426 27.9688 0 28.4302 0 28.9996V33.0933H15.0012C17.0551 33.0933 18.9734 34.1187 20.1141 35.827C21.2543 37.5354 23.1726 38.5614 25.2271 38.5614H51.7102C55.1056 38.5614 57.8577 41.3135 57.8577 44.7076V79.5386C57.8577 79.6875 57.8497 79.8346 57.8381 79.9805C60.7166 79.7546 62.9822 77.3499 62.9822 74.4141V34.4678C62.9822 33.8989 62.5208 33.4375 61.9513 33.4375Z" fill="#FFB96A"/>
<path d="M15.8228 62.9059V48.6023C15.8228 48.3234 15.9473 48.103 16.1969 47.9413C16.4471 47.7795 16.7407 47.699 17.0789 47.699H24.7717C25.0653 47.699 25.2856 47.8198 25.4327 48.0621C25.5798 48.3051 25.6537 48.595 25.6537 48.9331C25.6537 49.2859 25.5762 49.5868 25.4218 49.8364C25.2679 50.0867 25.0507 50.2112 24.7717 50.2112H18.6877V54.6191H22.0605C22.3395 54.6191 22.5562 54.729 22.7106 54.95C22.865 55.1703 22.9419 55.4419 22.9419 55.7654C22.9419 56.059 22.865 56.3159 22.7106 56.5369C22.5562 56.7566 22.3395 56.8671 22.0605 56.8671H18.6877V62.9059C18.6877 63.1854 18.5449 63.4058 18.2581 63.5675C17.9718 63.7292 17.6373 63.8098 17.2552 63.8098C16.8585 63.8098 16.5204 63.7292 16.2415 63.5675C15.9619 63.4058 15.8228 63.1854 15.8228 62.9059Z" fill="#FF6469"/>
<path d="M25.9619 48.9447C25.9619 48.6151 26.0388 48.3258 26.1932 48.075C26.3477 47.8241 26.5717 47.699 26.8658 47.699H36.1896C36.4832 47.699 36.7072 47.8241 36.8616 48.075C37.016 48.3258 37.0935 48.6151 37.0935 48.9447C37.0935 49.2883 37.0123 49.585 36.8506 49.8358C36.6888 50.0867 36.4685 50.2112 36.1896 50.2112H32.9712V62.9016C32.9712 63.1824 32.8278 63.4039 32.5415 63.5663C32.2546 63.7286 31.9202 63.8098 31.5387 63.8098C31.142 63.8098 30.8038 63.7286 30.5243 63.5663C30.2454 63.4039 30.1056 63.1824 30.1056 62.9016V50.2112H26.8658C26.5863 50.2112 26.366 50.0897 26.2042 49.8462C26.0425 49.6033 25.9619 49.3024 25.9619 48.9447Z" fill="#FF6469"/>
<path d="M38.6577 62.9059V48.5803C38.6577 48.3453 38.7572 48.1396 38.9556 47.9633C39.1539 47.7869 39.4146 47.699 39.738 47.699H44.1686C45.6816 47.699 46.8944 48.0994 47.8057 48.9001C48.7163 49.7009 49.1722 50.9534 49.1722 52.6575V52.7899C49.1722 54.5087 48.698 55.7727 47.7501 56.5808C46.8022 57.3889 45.5498 57.793 43.9922 57.793H41.5233V62.9059C41.5233 63.1854 41.3805 63.4058 41.0936 63.5669C40.8068 63.7292 40.4729 63.8098 40.0908 63.8098C39.6941 63.8098 39.356 63.7292 39.077 63.5669C38.7975 63.4058 38.6577 63.1854 38.6577 62.9059ZM41.5233 55.545H43.9922C44.7271 55.545 45.2965 55.332 45.7006 54.906C46.1046 54.48 46.3066 53.8483 46.3066 53.0103V52.746C46.3066 51.9086 46.1046 51.2769 45.7006 50.8502C45.2965 50.4248 44.7271 50.2112 43.9922 50.2112H41.5233V55.545Z" fill="#FF6469"/>
</svg>
