<svg width="56" height="56" viewBox="0 0 56 56" fill="none" xmlns="http://www.w3.org/2000/svg">
<path d="M28 56C43.464 56 56 43.464 56 28C56 12.536 43.464 0 28 0C12.536 0 0 12.536 0 28C0 43.464 12.536 56 28 56Z" fill="#F44336"/>
<path fill-rule="evenodd" clip-rule="evenodd" d="M38.2634 29.6078C38.4261 29.7936 38.624 29.9453 38.8456 30.0542C39.0672 30.1631 39.3082 30.2271 39.5547 30.2425C39.8011 30.2578 40.0482 30.2243 40.2817 30.1437C40.5151 30.0631 40.7303 29.9372 40.9148 29.7731C41.0993 29.609 41.2496 29.41 41.3568 29.1876C41.4641 28.9651 41.5263 28.7237 41.5398 28.4771C41.5534 28.2305 41.5179 27.9837 41.4356 27.7509C41.3534 27.5181 41.2258 27.3038 41.0603 27.1205C39.4212 25.2756 37.4099 23.7988 35.1587 22.7876C32.9076 21.7763 30.4677 21.2534 27.9999 21.2534C25.532 21.2534 23.0921 21.7763 20.841 22.7876C18.5898 23.7988 16.5785 25.2756 14.9394 27.1205C14.6139 27.492 14.4485 27.9772 14.4792 28.4702C14.51 28.9632 14.7343 29.424 15.1034 29.7522C15.4725 30.0805 15.9564 30.2495 16.4496 30.2224C16.9428 30.1954 17.4053 29.9745 17.7363 29.6078C19.0243 28.1578 20.6049 26.9972 22.374 26.2024C24.143 25.4076 26.0604 24.9966 27.9999 24.9966C29.9393 24.9966 31.8567 25.4076 33.6257 26.2024C35.3948 26.9972 36.9754 28.1578 38.2634 29.6078ZM33.131 34.609C32.5146 33.8407 31.7335 33.2206 30.8454 32.7946C29.9573 32.3685 28.9849 32.1473 27.9999 32.1473C27.0149 32.1473 26.0425 32.3685 25.1544 32.7946C24.2663 33.2206 23.4853 33.8407 22.8689 34.609C22.7152 34.8014 22.525 34.9617 22.3093 35.0805C22.0936 35.1993 21.8566 35.2744 21.6118 35.3015C21.367 35.3285 21.1193 35.307 20.8828 35.2381C20.6464 35.1692 20.4258 35.0543 20.2339 34.9C20.0419 34.7457 19.8823 34.5551 19.7642 34.339C19.646 34.1229 19.5717 33.8856 19.5455 33.6407C19.5192 33.3958 19.5416 33.1482 19.6112 32.9119C19.6809 32.6757 19.7965 32.4555 19.9514 32.2641C20.9185 31.0593 22.1437 30.087 23.5367 29.419C24.9297 28.7509 26.4549 28.404 27.9999 28.404C29.5448 28.404 31.07 28.7509 32.463 29.419C33.856 30.087 35.0812 31.0593 36.0483 32.2641C36.2045 32.4554 36.3212 32.6757 36.3918 32.9124C36.4624 33.149 36.4855 33.3973 36.4597 33.6429C36.4339 33.8885 36.3598 34.1266 36.2416 34.3434C36.1233 34.5602 35.9634 34.7515 35.7709 34.9062C35.5784 35.0609 35.3572 35.176 35.1201 35.2448C34.8829 35.3136 34.6345 35.3348 34.3891 35.3072C34.1437 35.2796 33.9061 35.2037 33.6902 35.0838C33.4743 34.964 33.2842 34.8026 33.131 34.609ZM28 35.5555C28.6271 35.5555 29.2402 35.7415 29.7616 36.09C30.2831 36.4384 30.6895 36.9337 30.9295 37.5131C31.1695 38.0925 31.2323 38.7301 31.1099 39.3452C30.9875 39.9603 30.6855 40.5253 30.2421 40.9688C29.7986 41.4122 29.2336 41.7142 28.6184 41.8366C28.0033 41.9589 27.3658 41.8961 26.7863 41.6561C26.2069 41.4161 25.7117 41.0097 25.3633 40.4882C25.0148 39.9667 24.8289 39.3537 24.8289 38.7265C24.8297 37.8857 25.164 37.0796 25.7586 36.4851C26.3531 35.8906 27.1592 35.5563 28 35.5555ZM10.0065 24.6777C9.64291 24.3404 9.42766 23.8729 9.40776 23.3773C9.38786 22.8817 9.56493 22.3985 9.90026 22.033C12.2047 19.5307 15.0029 17.5334 18.1183 16.1673C21.2336 14.8011 24.5984 14.0958 28.0001 14.0958C31.4019 14.0958 34.7666 14.8011 37.882 16.1673C40.9973 17.5334 43.7956 19.5307 46.1 22.033C46.4366 22.3979 46.6144 22.8815 46.5944 23.3775C46.5745 23.8735 46.3583 24.3412 45.9934 24.6778C45.6286 25.0144 45.1449 25.1922 44.649 25.1722C44.153 25.1522 43.6852 24.936 43.3487 24.5712C41.3936 22.4507 39.0204 20.7584 36.3786 19.6009C33.7369 18.4433 30.884 17.8457 27.9998 17.8457C25.1156 17.8457 22.2627 18.4433 19.621 19.6009C16.9792 20.7584 14.606 22.4507 12.6509 24.5712C12.3136 24.9347 11.8461 25.1499 11.3507 25.1698C10.8552 25.1898 10.3719 25.0129 10.0065 24.6777Z" fill="white"/>
</svg>
