<svg width="24" height="24" viewBox="0 0 24 24" fill="none" xmlns="http://www.w3.org/2000/svg">
<g clip-path="url(#clip0_153_141)">
<path d="M11.411 0.146523L2.148 5.06394C1.89107 5.20033 1.73047 5.46742 1.73047 5.75839V18.1021C1.73047 18.6007 2.01064 19.0569 2.45523 19.2824L11.5387 23.8896C11.8286 24.0366 12.1711 24.0366 12.4609 23.8896L21.5445 19.2824C21.9891 19.0569 22.2692 18.6006 22.2692 18.1021V5.75839C22.2692 5.46742 22.1086 5.20033 21.8516 5.06394L12.5887 0.146523C12.2205 -0.0488411 11.7793 -0.0488411 11.411 0.146523Z" fill="#F8B400"/>
<path d="M12 24C12.1581 24 12.3162 23.9633 12.4611 23.8897L21.5447 19.2826C21.9892 19.0571 22.2694 18.6008 22.2694 18.1023V5.7584C22.2694 5.62989 22.2366 5.5069 22.1795 5.39691L12 10.8186V24Z" fill="#614AD3"/>
<path d="M11.9999 10.8186L1.82047 5.39685C1.76329 5.50684 1.73047 5.62983 1.73047 5.75834V18.1021C1.73047 18.6007 2.01064 19.0569 2.45523 19.2824L11.5387 23.8896C11.6837 23.9631 11.8417 23.9998 11.9998 23.9998V10.8186H11.9999Z" fill="#2D248A"/>
<path d="M15.6292 1.76056L5.32715 7.24693V9.00244C5.32715 9.17092 5.42008 9.32567 5.56873 9.40495L7.3591 10.3592C7.50118 10.4349 7.67266 10.332 7.67266 10.171V8.53251L17.9907 3.01422L15.6292 1.76056Z" fill="#F9F8FB"/>
<path d="M13.4839 20.497L16.2322 19.1826C16.5841 19.0143 16.8045 18.6552 16.7953 18.2653L16.795 18.2531C16.7874 17.9314 16.4459 17.7284 16.1596 17.8754L13.484 19.2496V20.497H13.4839Z" fill="#403A46"/>
<path d="M13.4839 22.4136L14.9931 21.7125C15.3504 21.5464 15.5755 21.1844 15.5662 20.7904C15.5586 20.4676 15.2151 20.2647 14.9287 20.4138L13.4839 21.166V22.4136Z" fill="#403A46"/>
<path d="M5.32715 7.26453V9.00242C5.32715 9.17089 5.42008 9.32564 5.56873 9.40492L7.3591 10.3592C7.50118 10.4349 7.67266 10.3319 7.67266 10.1709V8.53249L7.69012 8.52314C7.08372 8.20016 6.09878 7.67548 5.32715 7.26453Z" fill="#B6C8CE"/>
</g>
<defs>
<clipPath id="clip0_153_141">
<rect width="24" height="24" fill="white"/>
</clipPath>
</defs>
</svg>
