<svg width="24" height="24" viewBox="0 0 24 24" fill="none" xmlns="http://www.w3.org/2000/svg">
<path d="M3.55322 2.625H17.2076C18.2464 2.625 19.0826 3.46125 19.0826 4.5V21.375C19.0826 22.4138 18.2464 23.25 17.2076 23.25H3.55322C2.51447 23.25 1.67822 22.4138 1.67822 21.375V4.5C1.67822 3.46125 2.51447 2.625 3.55322 2.625Z" fill="url(#paint0_linear_150_184)"/>
<path d="M6.7832 0.75H20.4376C21.4763 0.75 22.3126 1.58625 22.3126 2.625V18.75C22.3126 19.7888 21.4763 20.625 20.4376 20.625H6.7832C5.74445 20.625 4.9082 19.7888 4.9082 18.75V2.625C4.9082 1.58625 5.74445 0.75 6.7832 0.75Z" fill="url(#paint1_linear_150_184)"/>
<path d="M8.79113 8.5311C8.30179 8.53954 7.80295 8.74023 7.43511 9.10806L4.91602 11.6272V18.7795C4.91602 19.8199 5.75403 20.627 6.79397 20.6575H19.6L10.091 9.10806C9.76038 8.70647 9.28046 8.52266 8.79113 8.5311Z" fill="url(#paint2_linear_150_184)"/>
<path d="M16.6976 7.38269C16.2176 7.38269 15.7373 7.56651 15.3695 7.93434L4.91602 18.3878V18.7795C4.91602 19.8199 5.75358 20.6575 6.79397 20.6575H20.47C21.5104 20.6575 22.348 19.8199 22.348 18.7795V12.2569L18.0254 7.93434C17.6575 7.56651 17.1776 7.38269 16.6976 7.38269Z" fill="url(#paint3_linear_150_184)"/>
<path d="M12.5622 6.93393C12.2793 6.93393 11.9991 6.87821 11.7377 6.76993C11.4763 6.66166 11.2388 6.50296 11.0387 6.3029C10.8387 6.10284 10.68 5.86534 10.5717 5.60394C10.4634 5.34255 10.4077 5.06239 10.4077 4.77947C10.4077 4.49654 10.4634 4.21638 10.5717 3.95499C10.68 3.6936 10.8387 3.45609 11.0387 3.25603C11.2388 3.05597 11.4763 2.89727 11.7377 2.789C11.9991 2.68073 12.2793 2.625 12.5622 2.625C12.8451 2.625 13.1253 2.68073 13.3867 2.789C13.6481 2.89727 13.8856 3.05597 14.0856 3.25603C14.2857 3.45609 14.4444 3.6936 14.5526 3.95499C14.6609 4.21638 14.7166 4.49654 14.7166 4.77947C14.7166 5.06239 14.6609 5.34255 14.5526 5.60394C14.4444 5.86534 14.2857 6.10284 14.0856 6.3029C13.8856 6.50296 13.6481 6.66166 13.3867 6.76993C13.1253 6.87821 12.8451 6.93393 12.5622 6.93393Z" fill="url(#paint4_linear_150_184)"/>
<path d="M5.45459 18.3589V18.5457H5.82959V18.3589H5.45459ZM6.39172 18.3589V18.5457H6.76673V18.3589H6.39172ZM7.32996 18.3589V18.5457H7.70496V18.3589H7.32996ZM8.26709 18.3589V18.5457H8.64209V18.3589H8.26709ZM9.20422 18.3589V18.5457H9.57923V18.3589H9.20422ZM10.1425 18.3589V18.5457H10.5175V18.3589H10.1425ZM11.0796 18.3589V18.5457H11.4546V18.3589H11.0796ZM12.0167 18.3589V18.5457H12.3917V18.3589H12.0167ZM12.955 18.3589V18.5457H13.33V18.3589H12.955ZM13.8921 18.3589V18.5457H14.2671V18.3589H13.8921ZM14.8292 18.3589V18.5457H15.2042V18.3589H14.8292ZM15.7675 18.3589V18.5457H16.1425V18.3589H15.7675ZM16.7046 18.3589V18.5457H17.0796V18.3589H16.7046ZM17.6417 18.3589V18.5457H18.0167V18.3589H17.6417ZM18.58 18.3589V18.5457H18.9539V18.3589H18.58ZM19.5171 18.3589V18.5457H19.8921V18.3589H19.5171ZM20.4542 18.3589V18.5457H20.8292V18.3589H20.4542ZM21.391 18.3589V18.5457H21.7664V18.3589H21.391Z" fill="#1E9A4A"/>
<path d="M2.18701 4.71277V4.89954H2.56201V4.71277H2.18701ZM3.12415 4.71277V4.89954H3.49915V4.71277H3.12415ZM4.06238 4.71277V4.89954H4.43738V4.71277H4.06238Z" fill="#6E98F5"/>
<defs>
<linearGradient id="paint0_linear_150_184" x1="0.749909" y1="24.7372" x2="11.9999" y2="16.3183" gradientUnits="userSpaceOnUse">
<stop stop-color="#F5F8FF"/>
<stop offset="1" stop-color="#A0C9FF"/>
</linearGradient>
<linearGradient id="paint1_linear_150_184" x1="15.4716" y1="13.7813" x2="15.4716" y2="1.45347" gradientUnits="userSpaceOnUse">
<stop stop-color="#0056FF"/>
<stop offset="1" stop-color="#0AB0F2"/>
</linearGradient>
<linearGradient id="paint2_linear_150_184" x1="8.79121" y1="9.28233" x2="9.90615" y2="16.9387" gradientUnits="userSpaceOnUse">
<stop stop-color="#70E274"/>
<stop offset="1" stop-color="#3AAB70"/>
</linearGradient>
<linearGradient id="paint3_linear_150_184" x1="15.473" y1="21.4086" x2="16.6976" y2="8.13397" gradientUnits="userSpaceOnUse">
<stop stop-color="#0DBD4F"/>
<stop offset="1" stop-color="#7CE678"/>
</linearGradient>
<linearGradient id="paint4_linear_150_184" x1="12.5624" y1="2.62488" x2="12.5624" y2="6.93425" gradientUnits="userSpaceOnUse">
<stop stop-color="#F6F600"/>
<stop offset="1" stop-color="#F69134"/>
</linearGradient>
</defs>
</svg>
