<svg width="24" height="24" viewBox="0 0 24 24" fill="none" xmlns="http://www.w3.org/2000/svg">
<g clip-path="url(#clip0_150_194)">
<path d="M23.756 18.8887C23.6713 19.6608 23.0459 20.264 22.2709 20.3183C22.2068 20.3229 22.1431 20.3274 22.0794 20.3315C21.6069 20.3635 21.2395 20.756 21.2395 21.2297V23.0206C21.2395 23.623 20.5499 23.9649 20.0708 23.6C19.1963 22.9339 18.033 21.9431 17.3192 20.9158C17.1503 20.6725 16.8713 20.5307 16.575 20.5324C14.3774 20.5435 12.1798 20.4728 9.98211 20.3183C9.36941 20.2756 8.84919 19.8905 8.61744 19.3489C8.5558 19.2068 8.51469 19.0531 8.49702 18.8924C8.17157 15.9194 8.17157 12.9459 8.49702 9.97239C8.58168 9.20106 9.2075 8.60068 9.98127 8.54645C13.2551 8.31671 16.5286 8.27073 19.8021 8.40835C20.6247 8.44248 21.4478 8.48846 22.2705 8.54645C23.0447 8.60068 23.6709 9.20106 23.7556 9.97239C24.0811 12.9446 24.0811 15.9164 23.756 18.8887Z" fill="#614AD3"/>
<path d="M9.3356 9.89066C9.00227 12.9348 9.00227 15.9793 9.3356 19.0228C9.35365 19.1876 9.39579 19.3447 9.45884 19.4905C9.62009 19.8675 9.91793 20.1704 10.2893 20.3393C10.1869 20.3327 10.0846 20.3257 9.98224 20.3184C9.36949 20.2757 8.84923 19.8907 8.61762 19.3489C8.55584 19.2066 8.51463 19.053 8.4972 18.8923C8.17151 15.9195 8.17151 12.9459 8.4972 9.97241C8.5818 9.20122 9.20754 8.6008 9.98126 8.54666C10.1324 8.5362 10.2835 8.52575 10.435 8.51624C9.8457 8.71897 9.40624 9.24683 9.3356 9.89066Z" fill="#2D248A"/>
<path d="M14.3228 17.7786C14.3237 18.2632 14.9598 18.6555 15.4443 18.6555H19.1946C19.5845 18.6555 19.9006 18.3393 19.9006 17.9492C19.9006 17.7542 19.8218 17.5775 19.6941 17.4497C19.5663 17.322 19.3896 17.2429 19.1946 17.2429H19.4481C19.838 17.2429 20.1544 16.927 20.1544 16.5367C20.1544 16.3415 20.0756 16.1652 19.9473 16.0372C19.8198 15.9094 19.6433 15.8306 19.4481 15.8306H19.7018C20.0869 15.8306 20.4001 15.522 20.4076 15.1385C20.4156 14.7422 20.0821 14.4181 19.6858 14.4181H19.448C19.8379 14.4181 20.1543 14.102 20.1543 13.7116C20.1543 13.5164 20.0755 13.3401 19.9472 13.2121C19.8197 13.0844 19.6432 13.0056 19.448 13.0056H17.4616C17.4588 13.0011 17.4579 12.9998 17.4551 12.9953L18.2297 11.3452C18.4495 10.8774 18.2482 10.3201 17.7803 10.1003C17.6519 10.0399 17.5166 10.0115 17.3834 10.0115C17.0317 10.0115 16.6949 10.2106 16.5354 10.5499L16.2043 11.2555C16.0086 11.6721 15.6953 12.0242 15.2985 12.2569C15.0365 12.4104 14.8184 12.6446 14.6851 12.9443C14.5942 13.1488 14.5535 13.3643 14.5573 13.5758L14.3228 17.7786Z" fill="#FFDDCE"/>
<path d="M18.0704 10.3118C18.0385 10.3084 18.0066 10.3068 17.9747 10.3068C17.623 10.3068 17.2862 10.5059 17.1268 10.8452L16.7956 11.5508C16.5999 11.9674 16.2866 12.3195 15.8898 12.5522C15.6278 12.7057 14.6856 12.9442 14.6508 14.7291C14.6481 14.8686 14.5977 14.9972 14.5608 15.1257L14.5579 13.5758C14.554 13.3642 14.5948 13.1488 14.6857 12.9442C14.8189 12.6445 15.0371 12.4104 15.299 12.2569C15.6958 12.0241 16.0092 11.672 16.2048 11.2554L16.536 10.5498C16.6954 10.2104 17.0323 10.0114 17.3839 10.0114C17.5171 10.0114 17.6525 10.0399 17.7809 10.1002C17.8936 10.1531 17.9909 10.2257 18.0704 10.3118Z" fill="#FFCBBE"/>
<path d="M19.9009 17.9492C19.9009 18.3393 19.5848 18.6555 19.1949 18.6555H15.3467C14.9394 18.6555 14.5618 18.4587 14.3281 18.1352H19.1948C19.493 18.1352 19.7478 17.9506 19.8515 17.6891C19.8517 17.6893 19.8517 17.6898 19.8522 17.69C19.8522 17.69 19.8519 17.6902 19.8522 17.6902C19.8836 17.7704 19.9009 17.8579 19.9009 17.9492Z" fill="#FFCBBE"/>
<path d="M20.1047 16.2765C20.1366 16.357 20.1543 16.4448 20.1543 16.5366C20.1543 16.9269 19.8382 17.243 19.4482 17.243H19.1776C19.0339 17.243 18.9175 17.1265 18.9175 16.9828C18.9175 16.8392 19.0339 16.7227 19.1776 16.7227H19.4482C19.7464 16.7228 20.0012 16.538 20.1047 16.2765Z" fill="#FFCBBE"/>
<path d="M20.3586 14.864C20.3905 14.9445 20.4082 15.0323 20.4082 15.1241C20.4082 15.5144 20.0922 15.8305 19.7021 15.8305H19.4315C19.2878 15.8305 19.1714 15.714 19.1714 15.5704C19.1714 15.4267 19.2878 15.3103 19.4315 15.3103H19.7021C20.0003 15.3103 20.2551 15.1254 20.3586 14.864Z" fill="#FFCBBE"/>
<path d="M20.1052 13.4515C20.1371 13.532 20.1548 13.6198 20.1548 13.7115C20.1548 14.1019 19.8387 14.4179 19.4487 14.4179H19.1781C19.0344 14.4179 18.918 14.3015 18.918 14.1578C18.918 14.0142 19.0344 13.8977 19.1781 13.8977H19.4487C19.7469 13.8978 20.0017 13.7129 20.1052 13.4515Z" fill="#FFCBBE"/>
<path d="M12.3608 13.5758V17.9801C12.3608 18.2855 12.6085 18.5331 12.9139 18.5331H14.0045C14.3099 18.5331 14.5575 18.2855 14.5575 17.9801V13.5758C14.5575 13.2703 14.3099 13.0227 14.0045 13.0227H12.9139C12.6085 13.0227 12.3608 13.2703 12.3608 13.5758Z" fill="#F1F4F6"/>
<path d="M12.3608 16.5928V17.9802C12.3608 18.2856 12.6086 18.5331 12.9141 18.5331H14.0046C14.31 18.5331 14.5575 18.2856 14.5575 17.9802V16.5928C14.5575 16.8982 14.31 17.146 14.0046 17.146H12.9141C12.6086 17.146 12.3608 16.8982 12.3608 16.5928Z" fill="#D0E2E7"/>
<path d="M0.234375 10.4019C0.31575 11.1443 0.917156 11.7244 1.66242 11.7766C1.72406 11.7809 1.78533 11.7852 1.84655 11.7892C2.30095 11.82 2.6542 12.1974 2.6542 12.653V14.375C2.6542 14.9543 3.31725 15.283 3.77798 14.9321C4.61883 14.2916 5.73745 13.339 6.42384 12.3511C6.58627 12.1172 6.85453 11.9808 7.13944 11.9824C9.25266 11.9931 11.3658 11.9252 13.479 11.7766C14.0682 11.7355 14.5684 11.3652 14.7913 10.8444C14.8506 10.7077 14.8901 10.5599 14.9071 10.4054C15.22 7.54661 15.22 4.68738 14.9071 1.82814C14.8257 1.08649 14.2239 0.509175 13.4798 0.457003C10.3317 0.236175 7.18406 0.191925 4.03636 0.324253C3.2453 0.357066 2.45381 0.401316 1.66275 0.457003C0.918328 0.509175 0.316172 1.08649 0.23475 1.82819C-0.0781875 4.68621 -0.0781875 7.54385 0.234375 10.4019Z" fill="#F9DA41"/>
<path d="M1.04104 1.7496C0.720551 4.67681 0.720551 7.60429 1.04104 10.5309C1.05843 10.6893 1.09893 10.8404 1.15954 10.9806C1.3146 11.3431 1.601 11.6344 1.95805 11.7967C1.85966 11.7904 1.76122 11.7836 1.66283 11.7766C1.07361 11.7355 0.573363 11.3654 0.35066 10.8444C0.29127 10.7076 0.25166 10.5598 0.234879 10.4054C-0.078293 7.54673 -0.078293 4.68745 0.234879 1.82817C0.316207 1.0866 0.917941 0.509292 1.66194 0.457168C1.80725 0.447136 1.95261 0.437058 2.09821 0.427917C1.53154 0.622964 1.10896 1.13053 1.04104 1.7496Z" fill="#EDC932"/>
<path d="M10.1107 5.89744C10.5551 5.89744 10.9167 5.29664 10.9167 4.55812C10.9167 3.81961 10.5551 3.21881 10.1107 3.21881C9.66623 3.21881 9.30469 3.81961 9.30469 4.55812C9.30469 5.29664 9.66623 5.89744 10.1107 5.89744Z" fill="#21386B"/>
<path d="M5.03155 5.89744C5.47602 5.89744 5.83757 5.29664 5.83757 4.55812C5.83757 3.81961 5.47602 3.21881 5.03155 3.21881C4.58713 3.21881 4.22559 3.81961 4.22559 4.55812C4.22559 5.29664 4.58713 5.89744 5.03155 5.89744Z" fill="#21386B"/>
<path d="M10.3471 6.88194C10.1626 6.80436 9.95037 6.89066 9.87265 7.07497C9.48129 8.00328 8.57782 8.6031 7.57099 8.6031C6.56412 8.6031 5.66065 8.00328 5.26929 7.07497C5.19162 6.89066 4.97908 6.80436 4.79482 6.88194C4.61051 6.95966 4.52407 7.17205 4.60179 7.35636C5.10663 8.55374 6.27209 9.32746 7.57094 9.32746C8.86976 9.32746 10.0352 8.55374 10.5401 7.35636C10.6179 7.17205 10.5314 6.95966 10.3471 6.88194Z" fill="#21386B"/>
</g>
<defs>
<clipPath id="clip0_150_194">
<rect width="24" height="24" fill="white"/>
</clipPath>
</defs>
</svg>
