<svg width="40" height="40" viewBox="0 0 40 40" fill="none" xmlns="http://www.w3.org/2000/svg">
<path d="M20.0001 6.75001C24.0001 6.75001 27.6668 8.41666 30.3335 11L34.1669 7.16666C30.5835 3.58337 25.5835 1.33337 20.0001 1.33337C14.5001 1.33337 9.50014 3.58337 5.8335 7.16673L9.66686 11.0001C12.3335 8.33337 16.0001 6.75001 20.0001 6.75001Z" fill="#F8B64C"/>
<path d="M9.66664 11L5.83336 7.16663C2.25 10.8333 0 15.8333 0 21.3333C0 26.8333 2.25 31.8333 5.83336 35.5L9.66672 31.6666C7.00008 29 5.41672 25.3333 5.41672 21.3333C5.41664 17.3333 7 13.6666 9.66664 11Z" fill="#54C0EB"/>
<path d="M34.1668 7.16663L30.3335 11C33.0001 13.6666 34.5835 17.3333 34.5835 21.3333C34.5835 25.3333 32.9169 29 30.3335 31.6667L34.1669 35.5001C37.7501 31.9166 40.0001 26.9166 40.0001 21.3333C40.0001 15.8333 37.7501 10.8333 34.1668 7.16663Z" fill="#F1543F"/>
<path d="M30.3332 11L26.6666 14.6666C24.9166 13 22.5832 11.9166 19.9999 11.9166C17.4167 11.9166 14.9999 13 13.3333 14.6666L9.6665 11C12.3332 8.33336 15.9999 6.75 19.9999 6.75C23.9999 6.75 27.6665 8.33336 30.3332 11Z" fill="#FFD15C"/>
<path d="M13.3331 28L9.6665 31.6667C6.99986 29 5.4165 25.3333 5.4165 21.3333C5.4165 17.3333 7.08314 13.6667 9.6665 10.9999L13.3331 14.6666C11.6665 16.3332 10.5831 18.7499 10.5831 21.3332C10.4998 23.9167 11.5831 26.3334 13.3331 28Z" fill="#84DBFF"/>
<path d="M34.5832 21.3334C34.5832 25.3334 32.9166 29 30.3332 31.6668L26.6665 28C28.3331 26.25 29.4165 23.9167 29.4165 21.3334C29.4165 18.7501 28.3331 16.3334 26.6665 14.6668L30.3331 11.0001C32.9999 13.6667 34.5832 17.3334 34.5832 21.3334Z" fill="#FF7058"/>
<path d="M32.8332 13.4166L21.9999 21.6666C21.8332 22.6666 20.9999 23.3333 19.9999 23.3333C18.8332 23.3333 17.9165 22.4166 17.9165 21.2499C17.9165 20.0832 18.8331 19.1665 19.9999 19.1665C20.2499 19.1665 20.4165 19.1665 20.6665 19.2499L32.8332 13.4166Z" fill="#40596B"/>
<path d="M27.1664 38.6667H12.8331C11.0831 38.6667 9.6665 37.25 9.6665 35.5C9.6665 33.75 11.0831 32.3334 12.8331 32.3334H27.0831C28.8331 32.3334 30.2498 33.75 30.2498 35.5C30.3331 37.25 28.9164 38.6667 27.1664 38.6667Z" fill="#CDD6E0"/>
<path d="M19.9999 22.167C20.4601 22.167 20.8332 21.7939 20.8332 21.3336C20.8332 20.8734 20.4601 20.5002 19.9999 20.5002C19.5396 20.5002 19.1665 20.8734 19.1665 21.3336C19.1665 21.7939 19.5396 22.167 19.9999 22.167Z" fill="white"/>
</svg>
