<svg width="20" height="20" viewBox="0 0 20 20" fill="none" xmlns="http://www.w3.org/2000/svg">
<path d="M7.98828 17.9143V19.9399L7.49847 19.5442C7.42279 19.483 5.6221 18.0211 3.79608 15.9247C1.27716 13.0327 0 10.4367 0 8.20908V7.98828C0 3.58353 3.58353 0 7.98828 0C12.393 0 15.9766 3.58353 15.9766 7.98828V8.20908C15.9766 8.39615 15.9666 8.58612 15.9486 8.77838L14.3864 7.35321C14.0665 4.10492 11.3193 1.55869 7.98828 1.55869C4.44305 1.55869 1.55869 4.44305 1.55869 7.98828V8.20908C1.55869 11.9734 6.40884 16.5305 7.98828 17.9143ZM12.7812 16.7947H15.1192V14.4568H12.7812V16.7947ZM7.98828 4.67606C9.81461 4.67606 11.3005 6.16196 11.3005 7.98828C11.3005 9.81461 9.81461 11.3005 7.98828 11.3005C6.16196 11.3005 4.67606 9.81461 4.67606 7.98828C4.67606 6.16196 6.16196 4.67606 7.98828 4.67606ZM7.98828 6.23474C7.02133 6.23474 6.23474 7.02133 6.23474 7.98828C6.23474 8.95508 7.02133 9.74182 7.98828 9.74182C8.95508 9.74182 9.74182 8.95508 9.74182 7.98828C9.74182 7.02133 8.95508 6.23474 7.98828 6.23474ZM18.9496 15.7356L18.5114 15.3358V17.8381C18.5114 19.0033 17.5633 19.9512 16.3982 19.9512H11.4633C10.2982 19.9512 9.35013 19.0033 9.35013 17.8381V15.3358L8.9119 15.7356L7.86148 14.5842L13.9307 9.04724L20 14.5842L18.9496 15.7356ZM16.9527 13.9139L13.9307 11.1571L10.9088 13.9139V17.838C10.9088 18.1438 11.1575 18.3925 11.4633 18.3925H16.3982C16.7039 18.3925 16.9527 18.1438 16.9527 17.838V13.9139Z" fill="#2D248A"/>
</svg>
