<svg width="40" height="40" viewBox="0 0 40 40" fill="none" xmlns="http://www.w3.org/2000/svg">
<g clip-path="url(#clip0_231_295)">
<path d="M35.786 31.6845C37.9014 28.6055 39.1404 24.8774 39.1404 20.8595C39.1404 10.2885 30.5709 1.71893 19.9998 1.71893C9.42883 1.71893 0.859375 10.2885 0.859375 20.8595C0.859375 24.8792 2.09945 28.6088 4.21656 31.6885L35.786 31.6845Z" fill="#FF4155"/>
<path d="M19.8963 1.44788C15.4539 1.44788 11.8398 5.06202 11.8398 9.50444C11.8501 9.65913 11.8112 9.7428 11.8887 9.79874C11.9921 9.87319 12.0537 9.99327 12.0537 10.1199V10.5765C12.0537 10.9908 12.5441 11.1994 12.6093 10.9969C12.7739 10.4857 13.2293 10.4425 13.4202 10.4457C13.4258 10.4458 13.4314 10.4461 13.4373 10.4458C13.5944 10.4464 13.7465 10.4936 13.8772 10.5823C13.9411 10.6261 14.0315 10.5966 14.0558 10.5205C14.1276 10.2926 14.152 10.062 14.1361 9.846C14.0529 8.7128 14.1146 6.72131 15.4628 6.11459C16.6662 5.57248 17.878 5.94819 18.6745 6.10077C19.1246 6.23178 19.866 6.54702 20.9056 6.20124C21.8833 5.876 23.2905 5.59694 24.4411 6.11452C25.7867 6.72014 25.8502 8.70655 25.7683 9.83686C25.7533 10.0453 25.7745 10.2551 25.8313 10.4602C25.8513 10.5326 25.9331 10.5676 25.9988 10.5336C26.4153 10.3193 27.0187 10.486 27.1833 10.9969C27.2014 11.053 27.258 11.0867 27.316 11.0768C27.561 11.0334 27.7389 10.823 27.7389 10.5764V10.1198C27.7389 9.99327 27.8005 9.87319 27.9039 9.79866C27.9817 9.74256 27.9426 9.65756 27.9529 9.50436C27.9529 5.06202 24.3387 1.44788 19.8963 1.44788Z" fill="#41416B"/>
<path d="M19.6726 1.71235C19.759 1.65219 19.7848 1.54211 19.7469 1.44977C15.3732 1.52977 11.8398 5.11196 11.8398 9.50438C11.8501 9.65907 11.8112 9.74274 11.8887 9.79867C11.9921 9.87313 12.0537 9.99321 12.0537 10.1198V10.5764C12.0537 10.9907 12.5441 11.1993 12.6093 10.9969C12.7739 10.4856 13.2293 10.4424 13.4202 10.4456C13.4258 10.4457 13.4314 10.446 13.4373 10.4457C13.5944 10.4463 13.7465 10.4935 13.8772 10.5823C13.9411 10.6261 14.0315 10.5966 14.0558 10.5204C14.1276 10.2926 14.152 10.062 14.1361 9.84594C14.0529 8.71274 14.1146 6.72125 15.4628 6.11453C16.6537 5.57813 17.8524 5.94024 18.6491 6.09571L18.7022 5.98602C18.7023 5.98602 17.1788 3.44633 19.6726 1.71235Z" fill="#35355E"/>
<path d="M4.1626 31.6104C7.60658 36.6739 13.4147 40 20.0001 40C26.5873 40 32.3967 36.6722 35.8404 31.6063C35.3687 30.1007 34.4987 28.6273 32.9152 27.8121L32.9156 27.811C32.809 27.7603 32.6669 27.6855 32.4199 27.5887C27.3396 25.3303 26.7542 25.4316 26.2392 25.2597C26.2548 25.275 26.2687 25.292 26.279 25.3124C26.2608 25.4648 26.3585 25.4398 26.0006 26.3596C25.259 28.1999 23.9105 29.8161 22.3478 31.0519C22.1899 31.1766 21.9714 31.1849 21.8041 31.0731C21.5346 30.8931 21.0602 32.5932 21.0859 33.0756C21.0949 33.3651 21.0881 33.0207 21.0905 36.9539C21.0905 37.1089 20.9621 37.235 20.8043 37.235C20.7911 37.235 19.1504 37.235 19.2003 37.235C19.0425 37.235 18.9141 37.1089 18.9141 36.9539C18.9165 33.0208 18.9096 33.3647 18.9187 33.0756C18.9189 33.0722 18.9188 33.0687 18.9185 33.0653C18.8525 32.2149 18.4441 30.9105 18.2005 31.0731C18.0331 31.1849 17.8147 31.1766 17.6568 31.0519C16.0941 29.816 14.7456 28.1999 14.0039 26.3596C13.646 25.4398 13.7438 25.4648 13.7256 25.3124C13.7359 25.292 13.7498 25.275 13.7653 25.2597C13.2503 25.4316 12.6649 25.3303 7.58463 27.5887C7.33768 27.6855 7.19549 27.7602 7.08885 27.811L7.08939 27.8121C5.50432 28.628 4.63416 30.1034 4.1626 31.6104Z" fill="#FFDD40"/>
<path d="M13.7253 25.3124C13.7356 25.292 13.7495 25.275 13.765 25.2597C13.25 25.4316 12.6647 25.3303 7.58439 27.5887C7.33744 27.6855 7.19525 27.7602 7.08861 27.811L7.08916 27.8121C5.50432 28.628 4.63416 30.1034 4.1626 31.6104C5.43963 33.488 7.04158 35.1267 8.88799 36.4454L9.50502 34.4093C9.76838 33.5403 10.3856 32.8224 11.2053 32.4317L15.7696 30.2567V29.2339C15.0347 28.366 14.4224 27.3985 14.0038 26.3595C13.6457 25.4398 13.7435 25.4648 13.7253 25.3124Z" fill="#FFC839"/>
<path d="M15.2998 23.9628L15.3849 24.4318L15.3876 24.4429C15.4123 24.5507 15.4403 24.6592 15.471 24.7655L15.4758 24.7816C15.486 24.817 15.497 24.853 15.508 24.8883L15.5147 24.9098C15.5265 24.9468 15.5387 24.9844 15.5519 25.0238L15.5563 25.0366C15.8369 25.8606 16.4498 27.0616 17.7753 28.1035C18.1189 28.3737 18.4944 28.622 18.8913 28.8415C19.0696 28.9401 19.1996 29.09 19.2671 29.2751C19.2715 29.2873 19.2783 29.2987 19.287 29.3085C19.4905 29.5376 19.6849 29.7894 19.8649 30.0569C19.9038 30.1144 19.9992 30.1144 20.0378 30.0569C20.217 29.7902 20.412 29.5381 20.6171 29.3074C20.6258 29.2977 20.6325 29.2863 20.637 29.2741C20.7048 29.0894 20.8345 28.9398 21.0121 28.8415C23.8627 27.2648 24.4756 24.9409 24.6061 23.9459C24.2572 23.147 24.1458 22.1595 24.1197 21.4015C23.6987 21.8919 23.2569 22.302 22.8347 22.6298C22.0122 23.2686 20.9972 23.6155 19.9518 23.6155C18.9064 23.6155 17.8914 23.2685 17.0689 22.6298C16.6467 22.302 16.2049 21.8919 15.7838 21.4015C15.7578 22.1595 15.6463 23.1471 15.2974 23.9459L15.2998 23.9628Z" fill="#FCA870"/>
<path d="M17.0694 22.6298C16.6472 22.3019 16.2054 21.8918 15.7843 21.4014C15.7582 22.1595 15.6468 23.1471 15.2979 23.9459L15.3 23.9628L15.3851 24.4318L15.3878 24.4429C15.4125 24.5507 15.4405 24.6592 15.4712 24.7655L15.476 24.7816C15.4862 24.817 15.4971 24.853 15.5082 24.8883L15.5149 24.9098C15.5267 24.9468 15.5389 24.9844 15.5521 25.0237L15.5565 25.0366C15.8371 25.8606 16.45 27.0615 17.7755 28.1035C17.8836 28.1885 17.9958 28.2703 18.1099 28.3508C19.2722 26.3935 19.6452 24.5756 19.7649 23.6116C18.7861 23.5727 17.8427 23.2303 17.0694 22.6298Z" fill="#F9955F"/>
<path d="M26.4318 11.4589C26.3494 11.244 26.2513 11.0466 26.1401 10.872C25.9498 10.5737 25.8597 10.2091 25.886 9.8453C25.9701 8.68429 25.9005 6.64202 24.4896 6.0071C23.3046 5.47405 21.8663 5.75757 20.8685 6.08944C20.2775 6.28616 19.6265 6.28608 19.0355 6.08944C18.0376 5.75757 16.5994 5.47374 15.4144 6.0071C14.8076 6.28015 13.8195 7.14312 14.0187 9.8546C14.0449 10.2118 13.9544 10.5732 13.764 10.8722C13.6559 11.0416 13.5601 11.2329 13.4794 11.4404C13.2427 12.0483 13.1662 12.723 13.2579 13.3916L13.5888 15.7983C13.5888 19.7842 16.0004 22.087 17.0372 22.8922C17.8647 23.5349 18.8999 23.8889 19.952 23.8889C21.004 23.8889 22.0393 23.535 22.8668 22.8922C23.9036 22.0871 26.3151 19.7841 26.3146 15.8055L26.646 13.3922C26.7369 12.7302 26.6629 12.0617 26.4318 11.4589Z" fill="#F9BD91"/>
<path d="M19.8219 22.8921C19.0843 22.087 17.3688 19.7842 17.3688 15.7983L17.1334 13.3916C17.0681 12.723 17.1226 12.0483 17.2909 11.4403C17.3484 11.2328 17.4166 11.0415 17.4934 10.872C17.629 10.5731 17.6933 10.2117 17.6746 9.85447C17.533 7.14299 18.2359 6.28002 18.6675 6.00697C18.6791 5.99963 18.6909 5.99299 18.7027 5.98588C17.7343 5.70627 16.4736 5.53041 15.4148 6.00697C14.8081 6.28002 13.82 7.14299 14.0191 9.85447C14.0454 10.2117 13.9549 10.5731 13.7645 10.872C13.6564 11.0415 13.5606 11.2328 13.4798 11.4403C13.2432 12.0483 13.1666 12.723 13.2584 13.3916L13.5893 15.7983C13.5893 19.7842 16.0009 22.087 17.0377 22.8921C17.8652 23.5349 18.9004 23.8888 19.9525 23.8888C20.3363 23.8888 20.7177 23.8412 21.0878 23.7502C20.6294 23.5917 20.1958 23.3004 19.8219 22.8921Z" fill="#FCA870"/>
<path d="M20.0252 30.1095C19.4571 29.2314 18.897 28.7703 18.897 28.7703L17.4497 31.0948C18.4923 31.7659 18.6785 33.4053 18.7117 33.9335C18.7982 32.2359 19.4411 30.9459 20.0252 30.1095Z" fill="#FF9100"/>
<path d="M21.1853 37.3198V34.1013C21.1853 34.1013 21.2034 31.9 22.4546 31.0948L21.0073 28.7703C21.0073 28.7703 18.7012 30.6652 18.7012 34.1013V37.3199H21.1853V37.3198Z" fill="#FFB332"/>
<path d="M18.9419 28.7503C16.0556 27.154 15.4992 24.7773 15.3925 23.8671C15.3736 23.7059 15.187 23.6262 15.0561 23.7222L13.1024 25.1546C12.9981 25.2311 12.9481 25.363 12.9795 25.4884C13.7569 28.5824 16.2558 30.8416 17.3574 31.7125C17.6377 31.9342 18.0467 31.8699 18.2462 31.5734C18.5284 31.154 18.9275 30.5609 19.257 30.0713C19.5645 29.6142 19.424 29.0169 18.9419 28.7503Z" fill="#FFC839"/>
<path d="M17.8399 28.0217C15.9067 26.5022 15.4839 24.6468 15.3925 23.8671C15.3736 23.7059 15.187 23.6262 15.0561 23.7222L13.1024 25.1547C12.9981 25.2312 12.9481 25.3631 12.9795 25.4885C13.477 27.4685 14.6792 29.1057 15.7692 30.2568C16.6346 27.4158 17.5999 27.8558 17.8399 28.0217Z" fill="#FFB332"/>
<path d="M26.8019 25.1546L24.8481 23.7222C24.7173 23.6262 24.5306 23.7059 24.5117 23.8671C24.405 24.7773 23.8487 27.154 20.9624 28.7503C20.4803 29.0169 20.3397 29.6142 20.6474 30.0713C20.9767 30.5609 21.3759 31.154 21.6581 31.5734C21.8577 31.8699 22.2667 31.9341 22.547 31.7125C23.6485 30.8416 26.1474 28.5824 26.9247 25.4884C26.9562 25.363 26.9062 25.231 26.8019 25.1546Z" fill="#FFC839"/>
<path d="M20.5488 33.1629C20.5488 33.4324 20.3304 33.651 20.0608 33.651C19.7913 33.651 19.5728 33.4324 19.5728 33.1629C19.5728 32.8934 19.7913 32.6749 20.0608 32.6749C20.3304 32.6749 20.5488 32.8934 20.5488 33.1629Z" fill="#FFC839"/>
<path d="M20.44 35.5836C20.44 35.8531 20.2214 36.0716 19.9519 36.0716C19.6824 36.0716 19.4639 35.8531 19.4639 35.5836C19.4639 35.314 19.6824 35.0955 19.9519 35.0955C20.2214 35.0955 20.44 35.314 20.44 35.5836Z" fill="#FFC839"/>
<path d="M18.7012 37.211V38.1229C18.7012 38.3512 18.8887 38.5362 19.1199 38.5362H20.7666C20.9979 38.5362 21.1854 38.3512 21.1854 38.1229V37.211H18.7012Z" fill="#FF9100"/>
<path d="M19.8967 0C14.7395 0 10.5586 4.18078 10.5586 9.33805V10.4481H11.958V9.50437C11.958 5.12 15.5123 1.5657 19.8966 1.5657C24.2811 1.5657 27.8354 5.12 27.8354 9.50437V10.4481H29.2348V9.33805C29.2348 4.18078 25.054 0 19.8967 0V0Z" fill="#E3E7FC"/>
<path d="M10.5586 9.33805V10.4481H11.958V9.50437C11.958 5.165 15.4398 1.6393 19.7621 1.56742C19.7712 1.50641 19.7555 1.44148 19.7123 1.39C19.5015 1.13852 19.2612 0.635391 19.8966 0C14.7394 0 10.5586 4.18078 10.5586 9.33805Z" fill="#C8CEFC"/>
<path d="M28.8695 9.60602H28.1352C27.8514 9.60602 27.6214 9.8361 27.6214 10.1198V10.5764C27.6214 10.8088 27.4205 10.9866 27.189 10.9657L27.1846 10.9653C27.2132 11.0515 27.2289 11.143 27.2289 11.2377V17.3592C27.2289 17.454 27.2133 17.5455 27.1846 17.6316C27.6838 17.5873 28.1527 17.4443 28.5696 17.2234C29.0711 16.9578 29.3832 16.4352 29.3832 15.8677V12.3605V11.9661V10.1198C29.3833 9.83602 29.1532 9.60602 28.8695 9.60602Z" fill="#C8CEFC"/>
<path d="M28.5695 13.4148C28.165 13.6291 27.7114 13.7692 27.2289 13.8179V17.3592C27.2289 17.454 27.2132 17.5454 27.1846 17.6316C27.6838 17.5872 28.1527 17.4444 28.5696 17.2234C29.0711 16.9578 29.3832 16.4351 29.3832 15.8676V12.3604V12.059C29.3832 12.6265 29.071 13.1492 28.5695 13.4148Z" fill="#B8C0F4"/>
<path d="M26.4296 18.269H26.3586C25.8582 18.269 25.4487 17.8596 25.4487 17.3592V11.2377C25.4487 10.7373 25.8582 10.3279 26.3586 10.3279H26.4296C26.93 10.3279 27.3394 10.7373 27.3394 11.2377V17.3592C27.3394 17.8596 26.93 18.269 26.4296 18.269Z" fill="#E3E7FC"/>
<path d="M10.9239 9.60602H11.6582C11.942 9.60602 12.172 9.8361 12.172 10.1198V10.5764C12.172 10.8088 12.3729 10.9866 12.6044 10.9657L12.6088 10.9653C12.5802 11.0515 12.5645 11.143 12.5645 11.2377V17.3592C12.5645 17.454 12.5802 17.5455 12.6088 17.6316C12.1096 17.5873 11.6407 17.4443 11.2238 17.2234C10.7223 16.9578 10.4102 16.4352 10.4102 15.8677V12.3605V11.9661V10.1198C10.4102 9.83602 10.6402 9.60602 10.9239 9.60602Z" fill="#B8C0F4"/>
<path d="M12.5645 13.7398C12.082 13.6911 11.6282 13.551 11.2238 13.3367C10.7223 13.0711 10.4102 12.5484 10.4102 11.9808V12.3604V15.8676C10.4102 16.4351 10.7224 16.9577 11.2238 17.2234C11.6407 17.4443 12.1096 17.5872 12.6088 17.6316C12.5802 17.5454 12.5645 17.454 12.5645 17.3592V13.7398H12.5645Z" fill="#A4B0EA"/>
<path d="M13.3634 18.269H13.4345C13.9349 18.269 14.3443 17.8596 14.3443 17.3592V11.2377C14.3443 10.7373 13.9349 10.3279 13.4345 10.3279H13.3634C12.863 10.3279 12.4536 10.7373 12.4536 11.2377V17.3592C12.4536 17.8596 12.863 18.269 13.3634 18.269Z" fill="#E3E7FC"/>
<path d="M26.4296 14.4052H26.3585C25.8581 14.4052 25.4487 13.9958 25.4487 13.4955V17.3593C25.4487 17.8597 25.8581 18.2692 26.3585 18.2692H26.4296C26.93 18.2692 27.3394 17.8598 27.3394 17.3593V13.4955C27.3394 13.9958 26.93 14.4052 26.4296 14.4052Z" fill="#C8CEFC"/>
<path d="M13.4345 14.4052H13.3634C12.863 14.4052 12.4536 13.9958 12.4536 13.4955V17.3593C12.4536 17.8597 12.863 18.2692 13.3634 18.2692H13.4345C13.9349 18.2692 14.3443 17.8598 14.3443 17.3593V13.4955C14.3442 13.9958 13.9349 14.4052 13.4345 14.4052Z" fill="#C8CEFC"/>
<path d="M23.3025 24.0621C23.2069 23.7511 23.3816 23.4215 23.6926 23.3258C24.8685 22.9645 25.9239 22.5122 26.6022 22.1964C26.8531 22.0797 27.046 21.8611 27.1314 21.5969L28.0601 18.7223C28.2418 18.1603 27.9076 17.78 27.8378 17.5833C27.6939 17.2916 27.8138 16.9383 28.1056 16.7943C28.3975 16.6504 28.7506 16.7704 28.8946 17.0621C28.9484 17.2298 29.5326 17.9972 29.1814 19.0846L28.2527 21.9592C28.0669 22.5343 27.6465 23.0101 27.0996 23.2647C26.3876 23.5961 25.2787 24.0711 24.0388 24.4522C23.7264 24.5483 23.3977 24.3718 23.3025 24.0621Z" fill="#E3E7FC"/>
<path d="M20.543 25.5376C19.9573 25.5376 19.4824 25.0628 19.4824 24.477C19.4824 23.8913 19.9572 23.4165 20.543 23.4165C21.2126 23.4165 22.0085 23.2964 22.9086 23.0598C23.4754 22.9105 24.055 23.2491 24.204 23.8156C24.353 24.3821 24.0146 24.962 23.4481 25.111C22.372 25.394 21.3945 25.5376 20.543 25.5376Z" fill="#FF4155"/>
<path d="M21.6129 24.138C21.6129 23.7943 21.7586 23.4852 21.9905 23.267C21.4597 23.3659 20.9747 23.4165 20.543 23.4165C19.9573 23.4165 19.4824 23.8913 19.4824 24.477C19.4824 25.0628 19.9572 25.5376 20.543 25.5376C21.1592 25.5376 21.8423 25.4613 22.58 25.3125C22.0289 25.2052 21.6129 24.7204 21.6129 24.138Z" fill="#E80054"/>
<path d="M33.0127 1.4472H27.6275C24.7575 1.4472 22.4092 3.79541 22.4092 6.66549C22.4092 9.53556 24.7574 11.8838 27.6275 11.8838H31.2971C31.4714 11.8838 31.6128 12.0251 31.6128 12.1994V14.0295C31.6128 14.2363 31.8373 14.3658 32.016 14.2617C33.0236 13.6742 33.5225 12.8567 33.7693 12.1688C33.8461 11.9547 34.0217 11.7898 34.2428 11.7359C36.5243 11.1792 38.2311 9.11213 38.2311 6.66541C38.231 3.79549 35.8828 1.4472 33.0127 1.4472Z" fill="#49DAFC"/>
<path d="M22.4097 6.66549C22.4097 9.53556 24.7579 11.8838 27.6279 11.8838H29.2974C27.2065 9.83447 29.1483 7.31283 29.1483 7.31283L28.76 6.02674C26.7637 3.68392 28.76 1.44978 28.76 1.44978L28.7562 1.4472H27.6279C24.7579 1.4472 22.4097 3.79549 22.4097 6.66549Z" fill="#26C6F7"/>
<path d="M26.6545 6.72845C26.6545 7.11603 26.3404 7.43017 25.9528 7.43017C25.5652 7.43017 25.251 7.11603 25.251 6.72845C25.251 6.34087 25.5652 6.02673 25.9528 6.02673C26.3404 6.02673 26.6545 6.34087 26.6545 6.72845Z" fill="white"/>
<path d="M29.4615 6.72845C29.4615 7.11603 29.1474 7.43017 28.7598 7.43017C28.3722 7.43017 28.0581 7.11603 28.0581 6.72845C28.0581 6.34087 28.3722 6.02673 28.7598 6.02673C29.1474 6.02673 29.4615 6.34087 29.4615 6.72845Z" fill="white"/>
<path d="M32.2682 6.72845C32.2682 7.11603 31.954 7.43017 31.5665 7.43017C31.1789 7.43017 30.8647 7.11603 30.8647 6.72845C30.8647 6.34087 31.1789 6.02673 31.5665 6.02673C31.954 6.02673 32.2682 6.34087 32.2682 6.72845Z" fill="white"/>
<path d="M35.0753 6.72845C35.0753 7.11603 34.7612 7.43017 34.3736 7.43017C33.986 7.43017 33.6719 7.11603 33.6719 6.72845C33.6719 6.34087 33.986 6.02673 34.3736 6.02673C34.7612 6.02673 35.0753 6.34087 35.0753 6.72845Z" fill="white"/>
</g>
<defs>
<clipPath id="clip0_231_295">
<rect width="40" height="40" fill="white"/>
</clipPath>
</defs>
</svg>
