<svg width="20" height="20" viewBox="0 0 20 20" fill="none" xmlns="http://www.w3.org/2000/svg">
<path d="M9.99968 0.833313C8.18668 0.833313 6.4144 1.37093 4.90695 2.37817C3.3995 3.38542 2.22459 4.81706 1.53078 6.49205C0.83698 8.16704 0.655449 10.0101 1.00915 11.7883C1.36284 13.5665 2.23589 15.1998 3.51787 16.4818C4.79985 17.7638 6.43319 18.6368 8.21135 18.9905C9.98951 19.3442 11.8326 19.1627 13.5076 18.4689C15.1826 17.7751 16.6142 16.6002 17.6215 15.0927C18.6287 13.5853 19.1663 11.813 19.1663 9.99998C19.1635 7.56971 18.1968 5.2398 16.4783 3.52133C14.7599 1.80287 12.4299 0.83618 9.99968 0.833313ZM9.99968 17.5C8.51632 17.5 7.06627 17.0601 5.8329 16.236C4.59953 15.4119 3.63824 14.2406 3.07058 12.8701C2.50292 11.4997 2.3544 9.99166 2.64379 8.5368C2.93318 7.08194 3.64748 5.74557 4.69638 4.69668C5.74527 3.64778 7.08164 2.93348 8.5365 2.64409C9.99136 2.3547 11.4994 2.50323 12.8698 3.07088C14.2402 3.63854 15.4116 4.59983 16.2357 5.8332C17.0598 7.06657 17.4997 8.51662 17.4997 9.99998C17.4973 11.9884 16.7063 13.8946 15.3003 15.3006C13.8943 16.7066 11.9881 17.4976 9.99968 17.5Z" fill="#2D248A"/>
<path d="M10.8327 9.65496V4.99996C10.8327 4.77895 10.7449 4.56698 10.5886 4.4107C10.4323 4.25442 10.2204 4.16663 9.99935 4.16663C9.77834 4.16663 9.56637 4.25442 9.41009 4.4107C9.25381 4.56698 9.16602 4.77895 9.16602 4.99996V9.99996C9.16606 10.221 9.25389 10.4329 9.41018 10.5891L11.9102 13.0891C12.0674 13.2409 12.2779 13.3249 12.4963 13.323C12.7148 13.3211 12.9239 13.2335 13.0784 13.079C13.2329 12.9245 13.3205 12.7155 13.3224 12.497C13.3243 12.2785 13.2403 12.068 13.0885 11.9108L10.8327 9.65496Z" fill="#2D248A"/>
</svg>
