<svg width="40" height="40" viewBox="0 0 40 40" fill="none" xmlns="http://www.w3.org/2000/svg">
<g clip-path="url(#clip0_33_12)">
<path d="M34.1422 5.85789C30.3646 2.08039 25.3422 0 20 0C14.6578 0 9.63539 2.08039 5.85781 5.85789C2.08039 9.63539 0 14.6578 0 20C0 25.3422 2.08039 30.3646 5.85781 34.1421C9.63539 37.9196 14.6578 40 20 40C25.3422 40 30.3646 37.9196 34.1422 34.1421C37.9196 30.3646 40 25.3422 40 20C40 14.6578 37.9196 9.63539 34.1422 5.85789ZM33.3135 33.3135C29.7573 36.8697 25.0292 38.8281 20 38.8281C14.9708 38.8281 10.2427 36.8697 6.68648 33.3135C3.13031 29.7573 1.17188 25.0292 1.17188 20C1.17188 14.9708 3.13031 10.2427 6.68648 6.68648C10.2427 3.13031 14.9708 1.17188 20 1.17188C25.0292 1.17188 29.7573 3.13031 33.3135 6.68648C36.8697 10.2427 38.8281 14.9708 38.8281 20C38.8281 25.0292 36.8697 29.7573 33.3135 33.3135Z" fill="#1C2541"/>
<path d="M29.1899 18.8542L27.8134 18.1034C27.5293 17.9484 27.1734 18.0532 27.0185 18.3373C26.8635 18.6213 26.9682 18.9773 27.2523 19.1323L28.6288 19.883C28.6861 19.9143 28.6981 19.9638 28.6981 19.9999C28.6981 20.036 28.6861 20.0855 28.6288 20.1168L15.0306 27.534C14.9756 27.5639 14.9286 27.5492 14.8988 27.5316C14.8691 27.5139 14.8337 27.4798 14.8337 27.4171V12.5827C14.8337 12.52 14.8691 12.4859 14.8988 12.4682C14.9286 12.4505 14.9756 12.4359 15.0306 12.4658L24.7512 17.768C25.0354 17.923 25.3912 17.8182 25.5461 17.5341C25.7011 17.2501 25.5964 16.8941 25.3123 16.7391L15.5916 11.437C15.1832 11.2141 14.7006 11.223 14.3006 11.4605C13.9006 11.698 13.6618 12.1174 13.6618 12.5827V27.417C13.6618 27.8823 13.9006 28.3017 14.3006 28.5392C14.5077 28.6621 14.7368 28.7237 14.9663 28.7237C15.1803 28.7237 15.3947 28.6702 15.5916 28.5627L29.1899 21.1455C29.6094 20.9166 29.87 20.4777 29.87 19.9998C29.87 19.522 29.6094 19.083 29.1899 18.8542Z" fill="#1C2541"/>
<path d="M25.2127 3.68428C24.7244 3.52842 24.223 3.39311 23.7224 3.28209C23.4065 3.21201 23.0936 3.41139 23.0236 3.72733C22.9536 4.04326 23.1528 4.35623 23.4687 4.42623C23.9348 4.52951 24.4016 4.65553 24.8563 4.80069C24.9156 4.81959 24.9756 4.82858 25.0347 4.82858C25.2828 4.82858 25.5132 4.66967 25.5927 4.42069C25.6912 4.1124 25.5211 3.78272 25.2127 3.68428Z" fill="#1C2541"/>
<path d="M13.758 34.6848C10.2018 33.1712 7.3157 30.4198 5.63125 26.9374C5.49031 26.646 5.13992 26.5242 4.84859 26.665C4.55726 26.806 4.43539 27.1564 4.57633 27.4477C6.3843 31.1853 9.48203 34.1385 13.299 35.7631C13.3738 35.7949 13.4516 35.81 13.5282 35.81C13.7561 35.81 13.9727 35.6763 14.0676 35.4534C14.1944 35.1556 14.0557 34.8115 13.758 34.6848Z" fill="#1C2541"/>
<path d="M35.4244 12.554C33.8787 9.35791 31.3096 6.66041 28.1902 4.95846C27.9062 4.80338 27.5502 4.90807 27.3952 5.19213C27.2402 5.47619 27.3448 5.83213 27.629 5.98713C30.5355 7.57291 32.9293 10.0863 34.3694 13.0642C34.4705 13.2733 34.6796 13.3951 34.8973 13.3951C34.9828 13.3951 35.0698 13.3763 35.152 13.3365C35.4433 13.1957 35.5652 12.8453 35.4244 12.554Z" fill="#1C2541"/>
</g>
<defs>
<clipPath id="clip0_33_12">
<rect width="40" height="40" fill="white"/>
</clipPath>
</defs>
</svg>
