<svg width="104" height="114" viewBox="0 0 104 114" fill="none" xmlns="http://www.w3.org/2000/svg">
<path d="M11.0378 32.6595C8.33829 32.6564 5.75016 31.5827 3.84129 29.6738C1.93241 27.765 0.858687 25.1768 0.855682 22.4773V10.4254C0.889483 7.74696 1.97721 5.18969 3.88321 3.30759C5.78921 1.42549 8.36001 0.370117 11.0387 0.370117C13.7173 0.370117 16.2881 1.42549 18.1941 3.30759C20.1001 5.18969 21.1878 7.74696 21.2216 10.4254V22.4773C21.2182 25.177 20.1441 27.7651 18.235 29.6739C16.3258 31.5828 13.7375 32.6564 11.0378 32.6595ZM11.0378 3.48648C9.19819 3.48862 7.43449 4.22037 6.13366 5.52121C4.83282 6.82204 4.10107 8.58574 4.09893 10.4254V22.4773C4.12678 24.2994 4.87018 26.0375 6.1686 27.3163C7.46703 28.595 9.21628 29.3117 11.0387 29.3117C12.861 29.3117 14.6103 28.595 15.9087 27.3163C17.2071 26.0375 17.9505 24.2994 17.9784 22.4773V10.4254C17.9762 8.58546 17.2443 6.82152 15.9431 5.52064C14.6419 4.21976 12.8778 3.48819 11.0378 3.48648Z" fill="#EDEEF0"/>
<path d="M28.9389 1.86475H32.1822V31.0377H28.9389V1.86475Z" fill="#EDEEF0"/>
<path d="M84.4681 1.86475H87.7114V31.0377H84.4681V1.86475Z" fill="#EDEEF0"/>
<path d="M84.4681 43.2017H87.7114V72.3746H84.4681V43.2017Z" fill="#EDEEF0"/>
<path d="M99.9011 1.86475H103.144V31.0377H99.9011V1.86475Z" fill="#EDEEF0"/>
<path d="M50.6119 32.6594C47.9122 32.6564 45.3239 31.5827 43.4148 29.6739C41.5056 27.765 40.4315 25.1769 40.4281 22.4772V10.4253C40.4281 9.08819 40.6915 7.76414 41.2032 6.52878C41.7149 5.29342 42.4649 4.17095 43.4104 3.22545C44.3559 2.27995 45.4784 1.52994 46.7137 1.01824C47.9491 0.506534 49.2731 0.243164 50.6103 0.243164C51.9474 0.243164 53.2714 0.506534 54.5068 1.01824C55.7422 1.52994 56.8646 2.27995 57.8101 3.22545C58.7556 4.17095 59.5056 5.29342 60.0174 6.52878C60.5291 7.76414 60.7924 9.08819 60.7924 10.4253V22.4772C60.7894 25.1765 59.7159 27.7644 57.8074 29.6732C55.8989 31.582 53.3112 32.6559 50.6119 32.6594ZM50.6119 3.48641C48.7719 3.48812 47.0078 4.21969 45.7067 5.52057C44.4055 6.82145 43.6735 8.58539 43.6713 10.4253V22.4772C43.6713 23.3884 43.8508 24.2908 44.1995 25.1326C44.5483 25.9745 45.0594 26.7394 45.7037 27.3838C46.348 28.0281 47.113 28.5392 47.9549 28.8879C48.7967 29.2367 49.699 29.4161 50.6103 29.4161C51.5215 29.4161 52.4238 29.2367 53.2657 28.8879C54.1075 28.5392 54.8725 28.0281 55.5168 27.3838C56.1612 26.7394 56.6723 25.9745 57.021 25.1326C57.3697 24.2908 57.5492 23.3884 57.5492 22.4772V10.4253C57.5475 8.58582 56.8161 6.82212 55.5155 5.52124C54.2149 4.22036 52.4514 3.48855 50.6119 3.48641Z" fill="#EDEEF0"/>
<path d="M69.0384 1.86475H72.2816V31.0377H69.0384V1.86475Z" fill="#EDEEF0"/>
<path d="M66.3789 73.9964C63.6791 73.9929 61.0909 72.9186 59.1823 71.009C57.2736 69.0995 56.2005 66.5108 56.1984 63.811V51.7623C56.1814 50.4145 56.4321 49.0767 56.9362 47.8265C57.4402 46.5763 58.1875 45.4387 59.1346 44.4795C60.0817 43.5204 61.2098 42.7588 62.4535 42.2391C63.6972 41.7193 65.0318 41.4517 66.3797 41.4517C67.7277 41.4517 69.0622 41.7193 70.3059 42.2391C71.5496 42.7588 72.6778 43.5204 73.6249 44.4795C74.572 45.4387 75.3192 46.5763 75.8233 47.8265C76.3273 49.0767 76.5781 50.4145 76.5611 51.7623V63.811C76.5589 66.5111 75.4856 69.1 73.5766 71.0096C71.6677 72.9192 69.079 73.9934 66.3789 73.9964ZM66.3789 44.8234C64.5395 44.826 62.7763 45.5579 61.4758 46.8587C60.1753 48.1595 59.4438 49.9229 59.4416 51.7623V63.811C59.4276 64.731 59.5966 65.6447 59.939 66.4988C60.2813 67.3529 60.7902 68.1303 61.4358 68.7859C62.0815 69.4416 62.8511 69.9622 63.6998 70.3176C64.5486 70.6729 65.4596 70.856 66.3797 70.856C67.2999 70.856 68.2109 70.6729 69.0596 70.3176C69.9084 69.9622 70.678 69.4416 71.3236 68.7859C71.9693 68.1303 72.4781 67.3529 72.8205 66.4988C73.1628 65.6447 73.3319 64.731 73.3178 63.811V51.7623C73.3157 49.9227 72.5839 48.159 71.2831 46.8581C69.9823 45.5573 68.2186 44.8255 66.3789 44.8234Z" fill="#EDEEF0"/>
<path d="M21.8816 43.2017H25.1249V72.3746H21.8816V43.2017Z" fill="#EDEEF0"/>
<path d="M0.855682 43.2017H4.09893V72.3746H0.855682V43.2017Z" fill="#EDEEF0"/>
<path d="M0.855682 82.9619H4.09893V112.135H0.855682V82.9619Z" fill="#EDEEF0"/>
<path d="M99.9011 43.2017H103.144V72.3746H99.9011V43.2017Z" fill="#EDEEF0"/>
<path d="M42.9076 43.2017H46.1508V72.3746H42.9076V43.2017Z" fill="#EDEEF0"/>
<path d="M21.8816 82.9619H25.1249V112.135H21.8816V82.9619Z" fill="#EDEEF0"/>
<path d="M50.6119 113.757C47.9122 113.754 45.3239 112.68 43.4148 110.771C41.5056 108.862 40.4315 106.274 40.4281 103.574V91.5225C40.4281 90.1854 40.6915 88.8613 41.2032 87.626C41.7149 86.3906 42.4649 85.2681 43.4104 84.3226C44.3559 83.3771 45.4784 82.6271 46.7137 82.1154C47.9491 81.6037 49.2731 81.3403 50.6103 81.3403C51.9474 81.3403 53.2714 81.6037 54.5068 82.1154C55.7422 82.6271 56.8646 83.3771 57.8101 84.3226C58.7556 85.2681 59.5056 86.3906 60.0174 87.626C60.5291 88.8613 60.7924 90.1854 60.7924 91.5225V103.574C60.7894 106.274 59.7159 108.862 57.8074 110.77C55.8989 112.679 53.3112 113.753 50.6119 113.757ZM50.6119 84.5836C48.7721 84.5857 47.0082 85.3174 45.7071 86.6182C44.406 87.919 43.6739 89.6827 43.6713 91.5225V103.574C43.6713 104.486 43.8508 105.388 44.1995 106.23C44.5483 107.072 45.0594 107.837 45.7037 108.481C46.348 109.125 47.113 109.636 47.9549 109.985C48.7967 110.334 49.699 110.513 50.6103 110.513C51.5215 110.513 52.4238 110.334 53.2657 109.985C54.1075 109.636 54.8725 109.125 55.5168 108.481C56.1612 107.837 56.6723 107.072 57.021 106.23C57.3697 105.388 57.5492 104.486 57.5492 103.574V91.5225C57.547 89.6831 56.8155 87.9197 55.515 86.6189C54.2145 85.3181 52.4513 84.5862 50.6119 84.5836Z" fill="#EDEEF0"/>
<path d="M92.9622 113.757C90.2625 113.754 87.6742 112.68 85.765 110.771C83.8559 108.862 82.7818 106.274 82.7784 103.574V91.5226C82.8122 88.8441 83.8999 86.2869 85.8059 84.4048C87.7119 82.5227 90.2827 81.4673 92.9614 81.4673C95.64 81.4673 98.2108 82.5227 100.117 84.4048C102.023 86.2869 103.111 88.8441 103.144 91.5226V103.574C103.141 106.274 102.068 108.862 100.159 110.771C98.2498 112.68 95.6617 113.754 92.9622 113.757ZM92.9622 84.5836C91.1224 84.5858 89.3585 85.3175 88.0574 86.6183C86.7563 87.9191 86.0242 89.6828 86.0216 91.5226V103.574C86.0495 105.397 86.7929 107.135 88.0913 108.413C89.3897 109.692 91.139 110.409 92.9614 110.409C94.7837 110.409 96.533 109.692 97.8314 108.413C99.1298 107.135 99.8732 105.397 99.9011 103.574V91.5226C99.8989 89.6829 99.1672 87.9192 97.8664 86.6184C96.5655 85.3175 94.8018 84.5858 92.9622 84.5836Z" fill="#EDEEF0"/>
<path d="M69.0384 82.9619H72.2816V112.135H69.0384V82.9619Z" fill="#EDEEF0"/>
</svg>
