<svg width="24" height="24" viewBox="0 0 24 24" fill="none" xmlns="http://www.w3.org/2000/svg">
<g clip-path="url(#clip0_42_325)">
<path d="M20.9999 24.0001H15.0001V15.0001H17.9099L18.675 11.9999H15.0001V8.39993C15.0001 7.40588 15.8058 6.59993 16.8001 6.59993H18.6001V3.6H16.8001C14.1508 3.60417 12.0041 5.75068 11.9999 8.39993V11.9999H9V15.0001H11.9999V24.0001H2.99993C1.34319 24.0001 0 22.6569 0 20.9999V2.99993C0 1.34319 1.34319 0 2.99993 0H20.9999C22.6569 0 24.0001 1.34319 24.0001 2.99993V20.9999C24.0001 22.6569 22.6569 24.0001 20.9999 24.0001ZM16.2 22.7999H20.9999C21.9942 22.7999 22.7999 21.9942 22.7999 20.9999V2.99993C22.7999 2.00588 21.9942 1.19993 20.9999 1.19993H2.99993C2.00588 1.19993 1.19993 2.00588 1.19993 2.99993V20.9999C1.19993 21.9942 2.00588 22.7999 2.99993 22.7999H10.8V16.2H7.80007V10.8H10.8V8.39993C10.8042 5.08799 13.4879 2.40403 16.8001 2.40007H19.8V7.80007H16.8001C16.4687 7.80007 16.2 8.06858 16.2 8.39993V10.8H20.2199L18.84 16.2H16.2V22.7999Z" fill="#1C2541"/>
</g>
<defs>
<clipPath id="clip0_42_325">
<rect width="24" height="24" fill="white"/>
</clipPath>
</defs>
</svg>
