<svg width="24" height="24" viewBox="0 0 24 24" fill="none" xmlns="http://www.w3.org/2000/svg">
<g clip-path="url(#clip0_42_355)">
<path d="M17.4208 0H6.57923C2.95144 0 0 2.95144 0 6.57928V17.4208C0 21.0486 2.95144 24 6.57923 24H17.4208C21.0486 24 24 21.0486 24 17.4208V6.57928C24 2.95144 21.0486 0 17.4208 0ZM22.5827 17.4208C22.5827 20.2671 20.2671 22.5827 17.4208 22.5827H6.57923C3.73294 22.5827 1.41731 20.2671 1.41731 17.4208V6.57928C1.41731 3.73294 3.73294 1.41731 6.57923 1.41731H17.4208C20.2671 1.41731 22.5827 3.73294 22.5827 6.57928V17.4208Z" fill="#1C2541"/>
<path d="M12 5.41699C8.37028 5.41699 5.4173 8.36998 5.4173 11.9997C5.4173 15.6294 8.37023 18.5824 12 18.5824C15.6297 18.5824 18.5828 15.6294 18.5828 11.9996C18.5828 8.36993 15.6297 5.41699 12 5.41699ZM12 17.1651C9.15178 17.1651 6.83456 14.8479 6.83456 11.9996C6.83456 9.15143 9.15178 6.83421 12 6.83421C14.8483 6.83421 17.1655 9.15148 17.1655 11.9997C17.1655 14.8479 14.8483 17.1651 12 17.1651Z" fill="#1C2541"/>
<path d="M18.9764 3.02344C17.8737 3.02344 16.9765 3.92067 16.9765 5.02345C16.9765 6.12623 17.8737 7.02342 18.9764 7.02342C20.0792 7.02342 20.9764 6.12619 20.9764 5.02341C20.9764 3.92063 20.0792 3.02344 18.9764 3.02344ZM18.9764 5.60606C18.6552 5.60606 18.3938 5.34469 18.3938 5.02341C18.3938 4.70213 18.6552 4.44075 18.9764 4.44075C19.2977 4.44075 19.5591 4.70217 19.5591 5.02341C19.5591 5.34464 19.2977 5.60606 18.9764 5.60606Z" fill="#1C2541"/>
</g>
<defs>
<clipPath id="clip0_42_355">
<rect width="24" height="24" fill="white"/>
</clipPath>
</defs>
</svg>
