<svg width="24" height="24" viewBox="0 0 24 24" fill="none" xmlns="http://www.w3.org/2000/svg">
<g clip-path="url(#clip0_42_366)">
<path d="M6.26087 23.4951H0V7.32129H6.26087V23.4951ZM1.04341 22.4517H5.21745V8.3647H1.04341V22.4517Z" fill="#1C2541"/>
<path d="M24.0001 23.4951H17.7392V14.6256C17.7392 13.7612 17.0384 13.0604 16.174 13.0604C15.3094 13.0604 14.6088 13.7612 14.6088 14.6256V23.4951H8.3479V7.32129H14.6088V8.3712C15.5538 7.68795 16.6904 7.32053 17.8565 7.32129C21.2413 7.32129 24.0001 10.0669 24.0001 13.4452V23.4951ZM18.7826 22.4517H22.9565V13.4452C22.9494 10.6346 20.6671 8.36107 17.8565 8.3647C16.5718 8.3647 15.3652 8.906 14.4653 9.88426L13.5652 10.869V8.3647H9.39131V22.4517H13.5652V14.6256C13.5652 13.1847 14.7332 12.0169 16.174 12.0169C17.6146 12.0169 18.7826 13.1847 18.7826 14.6256V22.4517Z" fill="#1C2541"/>
<path d="M3.13043 6.27747C1.40147 6.27747 0 4.876 0 3.14704C0 1.41827 1.40147 0.0166016 3.13043 0.0166016C4.8594 0.0166016 6.26087 1.41827 6.26087 3.14704C6.25724 4.87447 4.85787 6.27403 3.13043 6.27747ZM3.13043 1.06021C1.97792 1.06021 1.04341 1.99452 1.04341 3.14704C1.04341 4.29974 1.97792 5.23406 3.13043 5.23406C4.28295 5.23406 5.21745 4.29974 5.21745 3.14704C5.21745 1.99452 4.28295 1.06021 3.13043 1.06021Z" fill="#1C2541"/>
</g>
<defs>
<clipPath id="clip0_42_366">
<rect width="24" height="23.9674" fill="white"/>
</clipPath>
</defs>
</svg>
