<svg width="40" height="40" viewBox="0 0 40 40" fill="none" xmlns="http://www.w3.org/2000/svg">
<path d="M20 7.8125C16.123 7.8125 12.9688 10.9667 12.9688 14.8438C12.9688 18.7208 16.123 21.875 20 21.875C23.877 21.875 27.0312 18.7208 27.0312 14.8438C27.0312 10.9667 23.877 7.8125 20 7.8125ZM20 20.3125C16.9845 20.3125 14.5312 17.8592 14.5312 14.8438C14.5312 11.8283 16.9845 9.375 20 9.375C23.0155 9.375 25.4688 11.8283 25.4688 14.8438C25.4688 17.8592 23.0155 20.3125 20 20.3125Z" fill="#1C2541"/>
<path d="M27.0312 30.1562C27.4627 30.1562 27.8125 29.8065 27.8125 29.375C27.8125 28.9435 27.4627 28.5938 27.0312 28.5938C26.5998 28.5938 26.25 28.9435 26.25 29.375C26.25 29.8065 26.5998 30.1562 27.0312 30.1562Z" fill="#1C2541"/>
<path d="M30.6188 22.8228L28.365 26.0152C28.1161 26.3677 28.2002 26.8552 28.5526 27.1041C28.9052 27.3529 29.3927 27.2688 29.6414 26.9164L31.8889 23.7329C33.8221 21.1511 34.8438 18.0777 34.8438 14.8438C34.8438 6.65883 28.1849 0 20 0C11.8151 0 5.15625 6.65883 5.15625 14.8438C5.15625 18.0777 6.17789 21.1511 8.11109 23.733L18.4921 38.4375H8.28125C7.84984 38.4375 7.5 38.7873 7.5 39.2188C7.5 39.6502 7.84984 40 8.28125 40H31.7188C32.1502 40 32.5 39.6502 32.5 39.2188C32.5 38.7873 32.1502 38.4375 31.7188 38.4375H21.5079L25.5884 32.6575C25.8373 32.305 25.7533 31.8176 25.4009 31.5687C25.0482 31.3198 24.5608 31.4038 24.312 31.7563L20 37.8641C20 37.8641 9.3725 22.8107 9.36797 22.8047C7.63492 20.4936 6.71875 17.7407 6.71875 14.8438C6.71875 7.52047 12.6767 1.5625 20 1.5625C27.3233 1.5625 33.2812 7.52047 33.2812 14.8438C33.2812 17.7407 32.3651 20.4936 30.632 22.8047C30.6275 22.8107 30.6231 22.8167 30.6188 22.8228Z" fill="#1C2541"/>
</svg>
