<svg width="24" height="24" viewBox="0 0 24 24" fill="none" xmlns="http://www.w3.org/2000/svg">
<g clip-path="url(#clip0_42_301)">
<path d="M20.5911 3.40887C18.3927 1.21051 15.4705 0 12.3614 0C12.3612 0 12.3605 0 12.3603 0C10.8226 0.000183105 9.32404 0.297913 7.90662 0.885132C6.48902 1.47235 5.219 2.32141 4.13153 3.40887C1.93335 5.60706 0.722842 8.52979 0.722842 11.6385C0.722842 13.4925 1.17017 15.3349 2.01776 16.9764L0.0614651 22.5652C-0.0764133 22.9594 0.0211819 23.3879 0.316714 23.6832C0.52344 23.8901 0.795535 24 1.07532 24C1.19525 24 1.31647 23.9799 1.43476 23.9385L7.0235 21.9824C8.66504 22.83 10.5074 23.2773 12.3614 23.2773C15.4702 23.2773 18.3927 22.0666 20.5911 19.8684C22.7892 17.6702 23.9999 14.7475 23.9999 11.6387C23.9999 8.52979 22.7894 5.60706 20.5911 3.40887ZM19.5957 18.873C17.6634 20.8055 15.0941 21.8696 12.3614 21.8696C10.6896 21.8696 9.02887 21.4561 7.55854 20.6735C7.29193 20.5318 6.97681 20.5074 6.69391 20.6065L1.6164 22.3835L3.39362 17.306C3.49268 17.0228 3.46814 16.7076 3.32642 16.4412C2.54401 14.9713 2.13037 13.3105 2.13037 11.6385C2.13037 8.90588 3.19458 6.33655 5.12689 4.40424C7.05902 2.47211 9.62799 1.4079 12.3605 1.40753H12.3614C15.0942 1.40753 17.6634 2.47174 19.5957 4.40424C21.5282 6.33655 22.5924 8.9057 22.5924 11.6385C22.5924 14.3714 21.5282 16.9407 19.5957 18.873Z" fill="#1C2541"/>
<path d="M16.6868 12.6785C16.1514 12.1431 15.2802 12.1431 14.7448 12.6785L14.1592 13.2641C12.7051 12.4718 11.5285 11.2952 10.736 9.84113L11.3216 9.25555C11.8572 8.72015 11.8572 7.84894 11.3216 7.31354L9.7436 5.73553C9.2082 5.20013 8.33698 5.20013 7.80158 5.73553L6.53925 6.99786C5.81617 7.72095 5.7801 8.96405 6.43763 10.4983C7.00855 11.8304 8.05335 13.2945 9.37958 14.6207C10.7058 15.947 12.1699 16.9918 13.502 17.5627C14.231 17.8751 14.894 18.0309 15.4669 18.0309C16.0999 18.0309 16.6229 17.8406 17.0024 17.4611L18.2648 16.1985V16.1987C18.5242 15.9393 18.6671 15.5945 18.6671 15.2277C18.6671 14.8608 18.5242 14.516 18.2648 14.2567L16.6868 12.6785ZM16.0071 16.4657C15.8007 16.6721 15.1661 16.7444 14.0566 16.269C12.8851 15.767 11.5776 14.828 10.3749 13.6254C9.17231 12.4227 8.23353 11.1154 7.73145 9.94385C7.25593 8.83441 7.32825 8.19958 7.53461 7.99323L8.77277 6.75507L10.3021 8.28455L9.5691 9.0177C9.23768 9.34912 9.15766 9.85175 9.37024 10.2685C10.3339 12.1581 11.8422 13.6664 13.7318 14.6301C14.1487 14.8427 14.6514 14.7628 14.9828 14.4312L15.7158 13.6982L17.2452 15.2277L16.0071 16.4657Z" fill="#1C2541"/>
</g>
<defs>
<clipPath id="clip0_42_301">
<rect width="24" height="24" fill="white"/>
</clipPath>
</defs>
</svg>
