<svg width="24" height="25" viewBox="0 0 24 25" fill="none" xmlns="http://www.w3.org/2000/svg">
<g clip-path="url(#clip0_42_377)">
<path d="M14.453 24.0159C10.9268 24.0125 8.06924 21.1549 8.06587 17.6287V11.2416H5V7.50505L5.2107 7.35161C7.61864 5.6207 9.20921 3.21912 9.80314 0.40232L9.88623 0H14.1976V5.6207H17.7743V11.2416H13.6866V16.3512C13.6866 17.2311 14.2494 18.0122 15.0842 18.2902C15.9188 18.5685 16.8378 18.2814 17.3656 17.5777L17.8638 16.9134L19.895 20.982L19.7225 21.2311C18.5333 22.9723 16.5616 24.0144 14.453 24.0159ZM6.02189 10.2195H9.08776V17.6287C9.08757 19.9266 10.5505 21.9695 12.726 22.709C14.9016 23.4487 17.3067 22.7208 18.707 20.899L17.6338 18.7528C16.7124 19.4826 15.4547 19.6213 14.3963 19.1098C13.3381 18.5984 12.6652 17.5268 12.6647 16.3512V10.2195H16.7524V6.64278H13.1755V1.02189H10.7101C10.0202 3.83234 8.40438 6.24027 6.02189 8.02882V10.2195Z" fill="#1C2541"/>
</g>
<defs>
<clipPath id="clip0_42_377">
<rect width="24" height="24.016" fill="white"/>
</clipPath>
</defs>
</svg>
