<svg width="24" height="20" viewBox="0 0 24 20" fill="none" xmlns="http://www.w3.org/2000/svg">
<path d="M24 2.62333C22.4903 2.69291 22.5233 2.68724 22.3526 2.70152L23.2467 0.148115C23.2467 0.148115 20.4558 1.17479 19.7483 1.35844C17.8901 -0.311663 15.1282 -0.385454 13.1536 0.828169C11.5366 1.82225 10.6686 3.52934 10.9581 5.52464C7.8111 5.08793 5.15955 3.59617 3.0661 1.0814L2.40399 0.286177L1.90924 1.19475C1.28394 2.34282 1.07629 3.6555 1.3244 4.89091C1.42621 5.39775 1.59924 5.88115 1.83893 6.33378L1.27093 6.11369L1.20355 7.06273C1.13525 8.02678 1.45624 9.15214 2.06232 10.0728C2.23297 10.3321 2.4527 10.6168 2.7312 10.8977L2.43768 10.8526L2.79584 11.9401C3.2666 13.3689 4.24438 14.4743 5.51331 15.0888C4.24603 15.6266 3.22229 15.9697 1.53955 16.5232L0 17.0293L1.422 17.8068C1.96417 18.1033 3.88 19.0933 5.77295 19.3903C9.98071 20.0502 14.7182 19.5128 17.9075 16.6404C20.5939 14.2211 21.4753 10.7796 21.2922 7.19822C21.2646 6.65605 21.4131 6.13859 21.7104 5.74144C22.3061 4.94621 23.9963 2.62864 24 2.62333ZM20.586 4.89915C20.0922 5.55852 19.8448 6.40062 19.8891 7.27C20.0739 10.8825 19.0909 13.684 16.9675 15.5964C14.4869 17.8304 10.4859 18.7073 5.99066 18.0022C5.17657 17.8746 4.3352 17.5887 3.63885 17.3033C5.04968 16.8179 6.13916 16.3852 7.89862 15.5524L10.3548 14.3899L7.643 14.2163C6.34405 14.1332 5.26245 13.5036 4.59759 12.4815C4.95062 12.461 5.29102 12.4039 5.62994 12.3094L8.21631 11.5891L5.60834 10.9504C4.34106 10.6401 3.61871 9.88182 3.23584 9.30027C2.98444 8.91813 2.82019 8.52665 2.72168 8.16575C2.98315 8.23588 3.28802 8.28587 3.77966 8.33458L6.19354 8.57335L4.28101 7.0814C2.90295 6.00657 2.35071 4.39177 2.75555 2.8394C7.05633 7.30021 12.106 6.96495 12.6143 7.08287C12.5024 5.99614 12.4995 5.99357 12.4702 5.89012C11.8193 3.58903 13.2458 2.42064 13.8893 2.02513C15.2333 1.19914 17.3666 1.07463 18.8443 2.43547C19.1635 2.72917 19.595 2.84471 19.999 2.74437C20.3615 2.65428 20.6591 2.55888 20.9504 2.45506L20.3439 4.18687L21.1181 4.18742C20.972 4.38334 20.7968 4.6179 20.586 4.89915Z" fill="#1C2541"/>
</svg>
