<svg width="24" height="24" viewBox="0 0 24 24" fill="none" xmlns="http://www.w3.org/2000/svg">
<g clip-path="url(#clip0_42_307)">
<path d="M23.3474 14.4042C23.5153 13.6111 23.6003 12.8036 23.6003 12C23.6003 8.90149 22.3936 5.98846 20.2028 3.79742C18.0117 1.60638 15.0987 0.399719 12.0002 0.399719C11.198 0.399719 10.3905 0.48468 9.59619 0.652771C8.69916 0.225037 7.70691 0 6.71008 0C3.01007 0 0 3.01007 0 6.7099C0 7.70636 0.225037 8.69861 0.652771 9.59619C0.485046 10.389 0.400085 11.1964 0.400085 12C0.400085 15.0985 1.60675 18.0115 3.79761 20.2026C5.98846 22.3934 8.90149 23.6001 12.0002 23.6001C12.8024 23.6001 13.6097 23.515 14.4038 23.3472C15.3012 23.775 16.2935 24 17.2903 24C20.9901 24 24 20.9899 24 17.2903C24 16.2938 23.775 15.3016 23.3474 14.4042ZM17.2903 22.5938C16.4202 22.5938 15.5901 22.3889 14.8229 21.9846C14.7211 21.9309 14.6085 21.9034 14.4952 21.9034C14.4415 21.9034 14.3877 21.9097 14.3348 21.9221C13.5648 22.1025 12.7795 22.1938 12.0002 22.1938C6.37921 22.1938 1.80634 17.621 1.80634 12C1.80634 11.2192 1.89771 10.4339 2.07806 9.66577C2.1167 9.50079 2.09454 9.32739 2.01562 9.17743C1.61115 8.40967 1.40625 7.57947 1.40625 6.7099C1.40625 3.78552 3.78552 1.40625 6.71008 1.40625C7.5802 1.40625 8.41003 1.61115 9.17688 2.01526C9.32684 2.09436 9.50024 2.11652 9.66522 2.07788C10.4354 1.89752 11.2209 1.80597 12.0002 1.80597C17.6212 1.80597 22.194 6.37903 22.194 12C22.194 12.7808 22.1027 13.5663 21.9223 14.3346C21.8835 14.4996 21.9056 14.673 21.9846 14.8229C22.3889 15.5905 22.5938 16.4205 22.5938 17.2903C22.5938 20.2147 20.2147 22.5938 17.2903 22.5938Z" fill="#1C2541"/>
<path d="M12 6.56464C14.074 6.56464 15.8265 7.64825 15.8265 8.93091C15.8265 9.31927 16.1413 9.63403 16.5297 9.63403C16.9178 9.63403 17.2328 9.31927 17.2328 8.93091C17.2328 7.87054 16.6518 6.89313 15.5973 6.17847C14.6265 5.52057 13.3489 5.1582 12 5.1582C10.6511 5.1582 9.37354 5.52057 8.40271 6.17847C7.34802 6.89313 6.76721 7.87054 6.76721 8.93091C6.76721 9.99127 7.34802 10.9689 8.40271 11.6835C9.37335 12.3414 10.6509 12.7036 12 12.7036C14.074 12.7036 15.8265 13.7872 15.8265 15.0701C15.8265 16.3527 14.074 17.4363 12 17.4363C9.92578 17.4363 8.17346 16.3527 8.17346 15.0701C8.17346 14.6817 7.8587 14.3669 7.47034 14.3669C7.08215 14.3669 6.76721 14.6817 6.76721 15.0701C6.76721 16.1302 7.34802 17.1078 8.40271 17.8225C9.37354 18.4802 10.6511 18.8426 12 18.8426C13.3489 18.8426 14.6265 18.4802 15.5973 17.8225C16.6518 17.1078 17.2328 16.1302 17.2328 15.0701C17.2328 14.0095 16.6518 13.0321 15.5973 12.3174C14.6265 11.6597 13.3489 11.2974 12 11.2974C9.92578 11.2974 8.17346 10.2137 8.17346 8.93091C8.17346 7.64825 9.92578 6.56464 12 6.56464Z" fill="#1C2541"/>
</g>
<defs>
<clipPath id="clip0_42_307">
<rect width="24" height="24" fill="white"/>
</clipPath>
</defs>
</svg>
