<svg width="24" height="24" viewBox="0 0 24 24" fill="none" xmlns="http://www.w3.org/2000/svg">
<g clip-path="url(#clip0_42_384)">
<path d="M15.6941 11.0151L10.3919 8.11402C10.0871 7.94721 9.72671 7.95343 9.42789 8.1305C9.12888 8.30774 8.95053 8.62085 8.95053 8.96838V14.7208C8.95053 15.0667 9.12778 15.3792 9.42477 15.5567C9.57986 15.6493 9.7518 15.6958 9.9241 15.6958C10.0819 15.6958 10.2401 15.6568 10.3857 15.5785L15.6881 12.7273C16.0028 12.558 16.1993 12.2308 16.2007 11.8732C16.202 11.5156 16.0079 11.1869 15.6941 11.0151ZM10.357 13.9972V9.69787L14.3197 11.8662L10.357 13.9972Z" fill="#1C2541"/>
<path d="M23.8234 7.29033L23.8223 7.27934C23.802 7.08617 23.5996 5.36791 22.7643 4.49395C21.7988 3.466 20.7042 3.34112 20.1778 3.28125C20.1342 3.27631 20.0943 3.27173 20.0586 3.26697L20.0166 3.26257C16.8438 3.03186 12.0521 3.00037 12.0042 3.00018L12 3L11.9957 3.00018C11.9478 3.00037 7.1561 3.03186 3.9547 3.26257L3.9124 3.26697C3.87834 3.27154 3.84081 3.27576 3.79997 3.28052C3.27959 3.34057 2.19671 3.46564 1.22845 4.53076C0.43286 5.39538 0.20288 7.07683 0.17926 7.26579L0.176513 7.29033C0.169372 7.37071 0 9.28434 0 11.2055V13.0014C0 14.9225 0.169372 16.8361 0.176513 16.9167L0.177795 16.9288C0.198119 17.1188 0.400267 18.8056 1.23175 19.6799C2.13958 20.6735 3.28746 20.8049 3.90489 20.8756C4.00249 20.8868 4.08653 20.8963 4.14384 20.9064L4.19932 20.9141C6.03129 21.0884 11.7751 21.1742 12.0186 21.1777L12.026 21.1779L12.0333 21.1777C12.0813 21.1775 16.8727 21.146 20.0456 20.9153L20.0875 20.9109C20.1276 20.9056 20.1727 20.9009 20.2221 20.8957C20.7395 20.8408 21.8166 20.7267 22.7715 19.6761C23.567 18.8113 23.7972 17.1298 23.8206 16.941L23.8234 16.9165C23.8305 16.8359 24.0001 14.9225 24.0001 13.0014V11.2055C23.9999 9.28434 23.8305 7.37089 23.8234 7.29033ZM22.5935 13.0014C22.5935 14.7795 22.4382 16.6107 22.4236 16.7788C22.3639 17.2419 22.1213 18.3057 21.7336 18.7271C21.136 19.3846 20.522 19.4498 20.0738 19.4972C20.0196 19.5029 19.9694 19.5084 19.924 19.514C16.8552 19.736 12.2444 19.77 12.032 19.7713C11.7938 19.7678 6.13401 19.6812 4.35789 19.5162C4.26689 19.5014 4.16856 19.49 4.06493 19.4783C3.53923 19.4181 2.81963 19.3357 2.26629 18.7271L2.25329 18.7131C1.87243 18.3163 1.63677 17.3215 1.5769 16.7843C1.56573 16.6572 1.40643 14.8044 1.40643 13.0014V11.2055C1.40643 9.42936 1.56133 7.60014 1.57635 7.42857C1.64758 6.8831 1.89477 5.88372 2.26629 5.47979C2.88225 4.8023 3.53172 4.72723 3.96129 4.67761C4.0023 4.67285 4.04057 4.66845 4.07591 4.66387C7.18942 4.44085 11.8333 4.40771 12 4.40643C12.1666 4.40753 16.8088 4.44085 19.8947 4.66387C19.9326 4.66863 19.974 4.67339 20.0185 4.67852C20.4603 4.72888 21.1281 4.80505 21.7409 5.45873L21.7466 5.46477C22.1275 5.86156 22.3631 6.87376 22.423 7.4218C22.4336 7.54173 22.5935 9.3986 22.5935 11.2055V13.0014Z" fill="#1C2541"/>
</g>
<defs>
<clipPath id="clip0_42_384">
<rect width="24" height="23.9999" fill="white"/>
</clipPath>
</defs>
</svg>
