<svg width="108" height="108" viewBox="0 0 108 108" fill="none" xmlns="http://www.w3.org/2000/svg">
<path d="M19.7359 11.6589C15.8011 11.6589 12.5999 14.8591 12.5999 18.7922C12.5999 22.7253 15.8011 25.9255 19.7359 25.9255C23.6739 25.9255 26.8779 22.7253 26.8779 18.7922C26.8779 14.8591 23.6739 11.6589 19.7359 11.6589ZM19.7359 21.6713C18.1469 21.6713 16.8543 20.3797 16.8543 18.7922C16.8543 17.2047 18.1469 15.9133 19.7359 15.9133C21.3281 15.9133 22.6237 17.2049 22.6237 18.7924C22.6237 20.3799 21.3281 21.6713 19.7359 21.6713Z" fill="#0B132B"/>
<path d="M82.1315 11.6589H63.2675C59.3327 11.6589 56.1315 14.8591 56.1315 18.7922C56.1315 22.7253 59.3327 25.9255 63.2675 25.9255H82.1315C86.0663 25.9255 89.2675 22.7253 89.2675 18.7922C89.2675 14.8591 86.0663 11.6589 82.1315 11.6589ZM82.1315 21.6713H63.2675C61.6786 21.6713 60.3859 20.3797 60.3859 18.7922C60.3859 17.2047 61.6788 15.9131 63.2675 15.9131H82.1315C83.7205 15.9131 85.0131 17.2047 85.0131 18.7922C85.0131 20.3797 83.7205 21.6713 82.1315 21.6713Z" fill="#0B132B"/>
<path d="M38.2292 11.6589C34.2944 11.6589 31.0932 14.8591 31.0932 18.7922C31.0932 22.7253 34.2944 25.9255 38.2292 25.9255C42.1672 25.9255 45.3712 22.7253 45.3712 18.7922C45.3712 14.8591 42.1672 11.6589 38.2292 11.6589ZM38.2292 21.6713C36.6403 21.6713 35.3476 20.3797 35.3476 18.7922C35.3476 17.2047 36.6405 15.9131 38.2292 15.9131C39.8214 15.9131 41.117 17.2047 41.117 18.7922C41.117 20.3797 39.8214 21.6713 38.2292 21.6713Z" fill="#0B132B"/>
<path d="M34.7608 46.922C33.6186 46.6484 32.4704 47.3535 32.1975 48.4964L27.9775 66.1557C27.7045 67.2983 28.4093 68.446 29.5519 68.719C29.7181 68.7586 29.8846 68.7778 30.0482 68.7778C31.0099 68.7778 31.8819 68.121 32.1152 67.1445L36.3352 49.4853C36.6084 48.3426 35.9035 47.1951 34.7608 46.922Z" fill="#0B132B"/>
<path d="M42.5703 66.6434C42.9758 67.0045 43.4812 67.1821 43.9845 67.1821C44.5702 67.1821 45.1535 66.9417 45.5739 66.4698L51.5388 59.7738C52.523 58.6782 52.523 56.9624 51.5449 55.8738L45.5737 49.1708C44.7919 48.2933 43.4472 48.2161 42.5703 48.9972C41.6928 49.7787 41.6152 51.1235 42.3967 52.0005L47.581 57.8201L42.3967 63.6399C41.6154 64.5174 41.6931 65.8621 42.5703 66.6434Z" fill="#0B132B"/>
<path d="M21.7426 48.9974C20.8651 48.2159 19.5208 48.2942 18.7393 49.171L12.775 55.8664C11.7895 56.9622 11.7895 58.6788 12.7683 59.767L18.7395 66.47C19.1599 66.9421 19.7429 67.1823 20.3289 67.1823C20.8322 67.1823 21.3378 67.0047 21.743 66.6436C22.6205 65.8621 22.6981 64.5174 21.9166 63.6403L16.7324 57.8207L21.9166 52.001C22.6977 51.1235 22.6201 49.7787 21.7426 48.9974Z" fill="#0B132B"/>
<path d="M103.231 71.6201H102.441C102.028 70.2803 101.492 68.9868 100.838 67.7507L101.401 67.1852C102.301 66.2906 102.798 65.0961 102.8 63.8216C102.802 62.5441 102.307 61.3447 101.406 60.4438L100.308 59.3463V14.0369C100.308 7.69216 95.8302 2.53052 90.3264 2.53052H9.98114C4.47736 2.53052 0 7.69216 0 14.0369V73.4903C0 79.8351 4.47736 84.9967 9.98114 84.9967H22.4615C23.6362 84.9967 24.5886 84.0444 24.5886 82.8697C24.5886 81.6949 23.6362 80.7426 22.4615 80.7426H9.98114C6.87698 80.7426 4.2544 77.4213 4.2544 73.4905V34.8987H96.0529V56.3943C95.8106 56.3569 95.565 56.3324 95.3151 56.3324C95.3125 56.3324 95.31 56.3324 95.3077 56.3324C94.0332 56.3346 92.8387 56.8307 91.951 57.7232L91.376 58.2956C90.114 57.6289 88.7996 57.0865 87.4444 56.6725V55.9148C87.4444 53.2857 85.305 51.147 82.6753 51.147H78.8259C76.1995 51.147 74.0629 53.2857 74.0629 55.9148V56.7244C72.7331 57.1422 71.4492 57.6799 70.2219 58.333L69.671 57.7837C68.7762 56.8845 67.5814 56.3879 66.3069 56.386C66.3046 56.386 66.3023 56.386 66.2998 56.386C65.0251 56.386 63.8282 56.8807 62.929 57.7793L60.2094 60.4976C59.3082 61.3983 58.8132 62.5979 58.8151 63.8751C58.817 65.1496 59.3135 66.3442 60.2068 67.2318L60.7943 67.8209C60.1566 69.0381 59.6329 70.3077 59.2277 71.6197H58.4198C55.7932 71.6197 53.6566 73.7557 53.6566 76.3814V80.2346C53.6566 80.4059 53.6661 80.5751 53.6838 80.7417H41.307C40.1323 80.7417 39.18 81.6941 39.18 82.8688C39.18 84.0435 40.1323 84.9959 41.307 84.9959H58.4196H59.2357C59.647 86.3204 60.1788 87.6001 60.8274 88.8253L60.2526 89.3975C58.4021 91.258 58.4037 94.2784 60.257 96.1302L62.9781 98.8503C63.8729 99.7495 65.0677 100.246 66.3422 100.248H66.3491C67.624 100.248 68.8209 99.7533 69.7201 98.8545L70.2899 98.2852C71.526 98.9368 72.8112 99.4692 74.1342 99.8782V100.701C74.1342 103.331 76.2708 105.469 78.8974 105.469H82.7527C85.3791 105.469 87.5156 103.331 87.5156 100.701V99.8832C88.8511 99.4713 90.1416 98.9368 91.3762 98.285L91.9434 98.8501C92.838 99.7495 94.0326 100.246 95.307 100.248H95.3144C96.5891 100.248 97.786 99.7533 98.6869 98.853L101.401 96.1347C102.301 95.2401 102.797 94.0455 102.799 92.7711C102.801 91.4936 102.306 90.2942 101.405 89.3933L100.837 88.8259C101.485 87.5997 102.016 86.3191 102.427 84.9961H103.23C105.86 84.9961 108 82.8602 108 80.2346V76.3814C108 73.7561 105.861 71.6201 103.231 71.6201ZM4.2544 30.6443V14.0369C4.2544 10.1061 6.87698 6.78492 9.98114 6.78492H90.3264C93.4305 6.78492 96.0531 10.1061 96.0531 14.0369V30.6445H4.2544V30.6443ZM103.746 80.235C103.746 80.5052 103.505 80.7421 103.231 80.7421H100.798C99.8063 80.7421 98.9461 81.4275 98.7247 82.3942C98.2652 84.3992 97.4761 86.3006 96.379 88.0461C95.8506 88.8866 95.974 89.981 96.6765 90.6828L98.3977 92.403C98.5264 92.5316 98.5454 92.6852 98.5454 92.7654C98.5452 92.8611 98.5203 93.0001 98.396 93.1233L95.6783 95.8459C95.5494 95.9746 95.3956 95.994 95.3146 95.994C95.3144 95.994 95.3142 95.994 95.3142 95.994C95.2176 95.994 95.0782 95.9689 94.9535 95.8434L93.2259 94.123C92.5233 93.4233 91.4311 93.302 90.5922 93.8293C88.8441 94.9289 86.9347 95.7193 84.9167 96.1785C83.9487 96.3992 83.2617 97.2598 83.2617 98.2529V100.702C83.2617 100.975 83.0239 101.216 82.7531 101.216H78.8978C78.6267 101.216 78.389 100.976 78.389 100.702V98.2468C78.389 97.2528 77.7005 96.3912 76.731 96.172C74.7387 95.7214 72.8327 94.9323 71.0663 93.827C70.7183 93.6091 70.3272 93.5028 69.9384 93.5028C69.3889 93.5028 68.8443 93.7152 68.434 94.1257L66.713 95.8459C66.5841 95.9746 66.4303 95.994 66.3493 95.994C66.3491 95.994 66.3489 95.994 66.3487 95.994C66.2523 95.994 66.1127 95.9689 65.9905 95.8461L63.265 93.1218C63.0741 92.9312 63.0762 92.5932 63.2625 92.4059L64.9898 90.6855C65.6956 89.9827 65.819 88.8845 65.2873 88.0425C64.1885 86.3027 63.3983 84.4025 62.9385 82.3948C62.717 81.4281 61.8568 80.7426 60.8647 80.7426H58.42C58.1443 80.7426 57.9112 80.5103 57.9112 80.2355V76.3823C57.9112 76.1074 58.1443 75.875 58.42 75.875H60.8586C61.8515 75.875 62.7126 75.1879 62.933 74.2199C63.3869 72.2251 64.167 70.3328 65.2514 68.5951C65.775 67.7562 65.6513 66.6671 64.9529 65.9668L63.2127 64.2215C63.0946 64.1042 63.0697 63.9652 63.0695 63.8695C63.0695 63.7893 63.0885 63.6357 63.2171 63.5073L65.9365 60.7891C66.0654 60.6605 66.2192 60.6411 66.3002 60.6411H66.3008C66.3972 60.6413 66.5369 60.6662 66.6615 60.7917L68.3769 62.5003C69.0816 63.202 70.1778 63.3223 71.017 62.7899C72.7551 61.6879 74.6588 60.8897 76.6749 60.4179C77.6368 60.1928 78.3171 59.3347 78.3171 58.3467V55.9154C78.3171 55.6372 78.55 55.402 78.8257 55.402H82.6751C82.9541 55.402 83.1899 55.6372 83.1899 55.9154V58.3108C83.1899 59.3075 83.8818 60.1705 84.8549 60.3871C86.8788 60.8379 88.8098 61.6339 90.5941 62.7534C91.4325 63.279 92.5237 63.1575 93.2257 62.4585L94.9603 60.7309C95.078 60.6126 95.2174 60.5877 95.3138 60.5875H95.3144C95.3954 60.5875 95.5492 60.6069 95.6779 60.7356L98.3975 63.4535C98.5262 63.5822 98.5452 63.7357 98.5452 63.8159C98.5449 63.9116 98.52 64.0506 98.395 64.1749L96.6735 65.9014C95.9725 66.6045 95.8511 67.6988 96.3807 68.5383C97.482 70.2843 98.2743 72.1962 98.7358 74.2208C98.9565 75.1886 99.8171 75.8752 100.81 75.8752H103.231C103.505 75.8752 103.746 76.1125 103.746 76.3825V80.235Z" fill="#0B132B"/>
<path d="M80.8285 65.3174C73.6604 65.3174 67.8289 71.1464 67.8289 78.3113C67.8289 85.4729 73.6604 91.2994 80.8285 91.2994C87.9934 91.2994 93.8223 85.4731 93.8223 78.3113C93.8223 71.1466 87.9934 65.3174 80.8285 65.3174ZM80.8285 87.045C76.0065 87.045 72.0833 83.127 72.0833 78.3113C72.0833 73.4923 76.0065 69.5718 80.8285 69.5718C85.6474 69.5718 89.5679 73.4923 89.5679 78.3113C89.5679 83.127 85.6472 87.045 80.8285 87.045Z" fill="#0B132B"/>
<path d="M31.9473 80.7424H31.9056C30.7309 80.7424 29.7785 81.6948 29.7785 82.8695C29.7785 84.0442 30.7309 84.9966 31.9056 84.9966H31.9473C33.122 84.9966 34.0744 84.0442 34.0744 82.8695C34.0744 81.6948 33.122 80.7424 31.9473 80.7424Z" fill="#0B132B"/>
</svg>
