<svg width="108" height="108" viewBox="0 0 108 108" fill="none" xmlns="http://www.w3.org/2000/svg">
<path d="M4.43868 60.67H7.20395C7.70364 71.2368 12.1273 81.2373 19.6098 88.7153C27.0922 96.1934 37.0952 100.611 47.6624 101.105V103.906C47.6624 104.456 47.8812 104.985 48.2707 105.374C48.6602 105.764 49.1885 105.982 49.7393 105.982C50.2902 105.982 50.8184 105.764 51.2079 105.374C51.5974 104.985 51.8163 104.456 51.8163 103.906V101.105C62.3789 100.608 72.3763 96.188 79.8524 88.7097C87.3285 81.2314 91.7454 71.2328 92.2391 60.67H95.0519C95.6027 60.67 96.131 60.4511 96.5205 60.0617C96.91 59.6722 97.1288 59.1439 97.1288 58.593C97.1288 58.0422 96.91 57.5139 96.5205 57.1244C96.131 56.7349 95.6027 56.5161 95.0519 56.5161H92.251C91.9273 48.9499 89.5788 41.6093 85.4506 35.2603C85.3009 35.0265 85.1067 34.8245 84.879 34.6658C84.6513 34.507 84.3946 34.3947 84.1235 34.3352C83.576 34.215 83.0031 34.3172 82.531 34.6194C82.2972 34.769 82.0952 34.9632 81.9365 35.1909C81.7777 35.4186 81.6654 35.6754 81.6059 35.9465C81.4857 36.494 81.5879 37.0668 81.8901 37.539C85.602 43.2067 87.7364 49.7613 88.0734 56.528H78.5789C78.2864 52.3045 77.071 48.1965 75.0185 44.4937C74.886 44.2552 74.7078 44.0452 74.4942 43.8756C74.2805 43.706 74.0356 43.5801 73.7733 43.5052C73.511 43.4302 73.2365 43.4077 72.9655 43.4388C72.6945 43.47 72.4323 43.5542 72.1938 43.6867C71.9554 43.8191 71.7454 43.9973 71.5757 44.2109C71.4061 44.4246 71.2803 44.6695 71.2053 44.9318C71.1304 45.1941 71.1078 45.4686 71.139 45.7396C71.1701 46.0106 71.2543 46.2728 71.3868 46.5113C73.0978 49.5964 74.1296 53.0116 74.4132 56.528H69.6659C69.1151 56.528 68.5868 56.7468 68.1973 57.1363C67.8078 57.5258 67.589 58.0541 67.589 58.6049C67.589 59.1557 67.8078 59.684 68.1973 60.0735C68.5868 60.463 69.1151 60.6818 69.6659 60.6818H74.4132C73.936 66.519 71.403 71.9974 67.265 76.1419C63.127 80.2863 57.6526 82.828 51.8163 83.3144V78.5671C51.8163 78.0163 51.5974 77.488 51.2079 77.0985C50.8184 76.709 50.2902 76.4902 49.7393 76.4902C49.1885 76.4902 48.6602 76.709 48.2707 77.0985C47.8812 77.488 47.6624 78.0163 47.6624 78.5671V83.3144C41.8136 82.841 36.3236 80.3035 32.1733 76.1554C28.0229 72.0072 25.4826 66.5185 25.0062 60.67H29.8127C30.3636 60.67 30.8919 60.4511 31.2814 60.0617C31.6709 59.6722 31.8897 59.1439 31.8897 58.593C31.8897 58.0422 31.6709 57.5139 31.2814 57.1244C30.8919 56.7349 30.3636 56.5161 29.8127 56.5161H25.0062C25.4783 50.6752 28.0198 45.1945 32.1733 41.0607C36.3267 36.9268 41.8193 34.4112 47.6624 33.9667V38.7139C47.6624 39.2648 47.8812 39.793 48.2707 40.1825C48.6602 40.572 49.1885 40.7908 49.7393 40.7908C50.2902 40.7908 50.8184 40.572 51.2079 40.1825C51.5974 39.793 51.8163 39.2648 51.8163 38.7139V33.9667C56.819 34.3662 61.5806 36.2833 65.4646 39.4616L57.964 46.9623C55.344 45.1448 52.1898 44.2591 49.0067 44.4471C45.8235 44.6351 42.7955 45.8859 40.4077 47.9992C38.0199 50.1124 36.4103 52.9659 35.8368 56.1026C35.2633 59.2393 35.7591 62.4777 37.2447 65.2992C38.7303 68.1207 41.1197 70.362 44.0304 71.6642C46.9411 72.9663 50.2046 73.254 53.2982 72.4812C56.3918 71.7083 59.1366 69.9196 61.0929 67.4015C63.0492 64.8834 64.1038 61.7817 64.0879 58.593C64.0927 55.3866 63.009 52.2735 61.0141 49.7632L83.2193 27.5223L90.0673 29.801C90.2763 29.8768 90.4977 29.913 90.72 29.9078C90.9934 29.9112 91.2647 29.8594 91.5176 29.7554C91.7705 29.6514 91.9998 29.4973 92.1917 29.3025L105.626 15.8915C105.877 15.6416 106.06 15.3315 106.158 14.9909C106.255 14.6503 106.264 14.2904 106.183 13.9455C106.102 13.6005 105.935 13.282 105.696 13.0202C105.457 12.7584 105.155 12.562 104.819 12.4497L99.9178 10.8238L101.745 8.99612C101.938 8.80286 102.091 8.57358 102.194 8.32138C102.298 8.06917 102.351 7.79897 102.351 7.52621C102.35 7.25345 102.296 6.98347 102.191 6.73169C102.086 6.4799 101.933 6.25124 101.74 6.05876C101.546 5.86628 101.317 5.71375 101.065 5.60988C100.813 5.506 100.542 5.45283 100.27 5.45338C99.9969 5.45393 99.7269 5.5082 99.4751 5.61309C99.2233 5.71798 98.9947 5.87143 98.8022 6.06469L96.9389 7.92799L95.2655 2.91964C95.1532 2.58361 94.9568 2.2819 94.695 2.04319C94.4332 1.80448 94.1147 1.6367 93.7698 1.55582C93.4249 1.47494 93.065 1.48364 92.7243 1.5811C92.3837 1.67855 92.0737 1.86152 91.8237 2.1126L78.4128 15.5236C78.1397 15.7984 77.9485 16.1438 77.8605 16.521C77.7725 16.8983 77.7911 17.2926 77.9143 17.6599L80.2879 24.6265L78.116 26.7983C70.8514 20.329 61.5814 16.5573 51.8637 16.117V13.2924C51.8637 12.7416 51.6449 12.2133 51.2554 11.8238C50.8659 11.4343 50.3376 11.2155 49.7868 11.2155C49.236 11.2155 48.7077 11.4343 48.3182 11.8238C47.9287 12.2133 47.7099 12.7416 47.7099 13.2924V16.1526C37.1456 16.6126 27.1357 21.0084 19.6486 28.4757C12.1616 35.9429 7.73931 45.9412 7.25143 56.5043H4.43868C3.88784 56.5043 3.35957 56.7231 2.97007 57.1126C2.58057 57.5021 2.36176 58.0303 2.36176 58.5812C2.36176 59.132 2.58057 59.6603 2.97007 60.0498C3.35957 60.4393 3.88784 60.6581 4.43868 60.6581V60.67ZM70.2356 79.0893C75.1553 74.1574 78.134 67.6186 78.6264 60.67H88.1209C87.6232 70.1349 83.6378 79.0802 76.9336 85.78C70.2295 92.4798 61.2816 96.4594 51.8163 96.9509V87.4563C58.7649 86.983 65.3076 84.011 70.2356 79.0893ZM29.2312 79.0893C34.1629 84.0143 40.709 86.9902 47.6624 87.4682V96.9627C38.1973 96.4681 29.2507 92.4857 22.5487 85.7837C15.8467 79.0817 11.8642 70.1351 11.3697 60.67H20.8642C21.3397 67.6181 24.3113 74.16 29.2312 79.0893ZM59.8985 58.593C59.9097 59.9244 59.6563 61.2446 59.1531 62.4772C58.6499 63.7098 57.9068 64.8302 56.967 65.7733C55.6231 67.1238 53.9265 68.0692 52.0709 68.5015C50.2153 68.9337 48.2755 68.8355 46.4731 68.218C44.6707 67.6004 43.0783 66.4885 41.8776 65.0091C40.677 63.5297 39.9166 61.7425 39.6833 59.8516C39.4499 57.9607 39.753 56.0422 40.5579 54.3153C41.3628 52.5884 42.6372 51.1227 44.2354 50.0855C45.8336 49.0483 47.6913 48.4814 49.5963 48.4496C51.5013 48.4178 53.3768 48.9223 55.0088 49.9056L48.7305 56.1363C48.5371 56.3283 48.3836 56.5566 48.2789 56.8082C48.1741 57.0598 48.1202 57.3296 48.1202 57.6021C48.1202 57.8746 48.1741 58.1444 48.2789 58.3959C48.3836 58.6475 48.5371 58.8758 48.7305 59.0678C48.9122 59.2786 49.1371 59.4478 49.3901 59.5637C49.643 59.6797 49.918 59.7397 50.1963 59.7397C50.4745 59.7397 50.7495 59.6797 51.0025 59.5637C51.2554 59.4478 51.4804 59.2786 51.662 59.0678L58.0114 52.7183C59.2415 54.4299 59.9017 56.4853 59.8985 58.593ZM100.25 15.3337L90.1978 25.4572L86.5306 24.2704L96.6659 14.1469L100.25 15.3337ZM92.3934 7.41766L93.5802 11.1561L83.4567 21.2796L82.2699 17.553L92.3934 7.41766ZM75.1253 29.7416L68.4079 36.459C63.721 32.5178 57.9021 30.1695 51.7925 29.7535V20.259C60.4188 20.6897 68.6442 24.0326 75.1253 29.7416ZM22.5494 31.415C29.2596 24.7338 38.2053 20.7725 47.6624 20.2946V29.7891C40.7129 30.2366 34.1626 33.1938 29.2308 38.1104C24.2989 43.027 21.3214 49.568 20.8523 56.5161H11.3578C11.851 47.0518 15.839 38.1073 22.5494 31.415Z" fill="#0B132B"/>
</svg>
