<svg width="108" height="108" viewBox="0 0 108 108" fill="none" xmlns="http://www.w3.org/2000/svg">
<g clip-path="url(#clip0_24_228)">
<path d="M87.0573 71.3342V60.0912L82.3127 61.9372L82.2988 61.9059L82.1857 61.7006C80.3676 58.8699 77.4272 56.9003 74.1163 56.3001L62.6993 54.2227V53.3215C66.9689 50.8422 70.0954 46.6126 71.0698 41.6122C74.2328 40.958 76.6182 38.1516 76.6182 34.7972V17.6126C76.6182 12.7566 73.4377 8.52183 68.8236 7.14386L67.9537 6.27393C63.9068 2.22702 58.5271 0 52.8047 0C40.9928 0 31.3818 9.60924 31.3818 21.4229V34.7972C31.3818 38.1516 33.7672 40.958 36.9303 41.6122C37.9063 46.6126 41.0311 50.8439 45.3007 53.3215V54.2227L33.8855 56.2984C30.578 56.8986 27.6394 58.8646 25.8195 61.6937L25.7151 61.9477L20.9427 60.0912V71.3342C18.065 71.3342 15.7231 73.6761 15.7231 76.5538V83.5132C15.7231 86.391 18.065 88.7328 20.9427 88.7328V95.1424L54 108L87.0573 95.1424V88.7328C89.9351 88.7328 92.2769 86.391 92.2769 83.5132V76.5538C92.2769 73.6761 89.9351 71.3342 87.0573 71.3342ZM65.9598 58.3531L73.4934 59.7224C75.7117 60.126 77.676 61.4066 78.9861 63.2299L62.153 69.7753L65.9598 58.3531ZM48.9283 54.9169C50.5342 55.4075 52.2358 55.6755 54 55.6755C55.7642 55.6755 57.4658 55.4075 59.0717 54.9169L54 58.7202L48.9283 54.9169ZM51.3519 61.083L47.8009 64.6323L45.4973 57.7233L46.6056 57.5232L51.3519 61.083ZM61.3944 57.525L62.5027 57.725L60.1991 64.634L56.6481 61.0847L61.3944 57.525ZM71.3986 37.7932V31.8011C72.4338 32.4049 73.1385 33.5149 73.1385 34.7972C73.1385 36.0795 72.4338 37.1895 71.3986 37.7932ZM36.6014 37.7932C35.5662 37.1895 34.8616 36.0795 34.8616 34.7972C34.8616 33.5149 35.5662 32.4049 36.6014 31.8011V37.7932ZM36.6014 26.0979V28.0848C35.982 28.2466 35.4009 28.4902 34.8616 28.8051V21.4229C34.8616 11.53 42.9101 3.47972 52.8047 3.47972C57.5963 3.47972 62.1043 5.34659 65.4935 8.73583L67.0281 10.2721L67.4961 10.387C70.8192 11.2169 73.1385 14.1885 73.1385 17.6126V28.8051C72.5991 28.4902 72.018 28.2449 71.3986 28.0848V26.0979H65.8815C61.1665 26.0979 56.6602 23.8465 53.833 20.0762L52.4498 18.2285L48.9927 21.6873C46.1463 24.532 42.3638 26.0979 38.3413 26.0979H36.6014ZM40.0811 38.2769V29.4976C44.3769 29.0991 48.3629 27.2358 51.4529 24.1475L52.1297 23.4707C55.6181 27.321 60.6428 29.5776 65.8815 29.5776H67.9189V38.2769C67.9189 45.9514 61.6745 52.1958 54 52.1958C46.3255 52.1958 40.0811 45.9514 40.0811 38.2769ZM34.5066 59.7224L42.0402 58.3531L45.847 69.7753L29.0104 63.2282C30.3205 61.4031 32.2883 60.126 34.5066 59.7224ZM19.2028 83.5132V76.5538C19.2028 75.5934 19.984 74.8139 20.9427 74.8139C23.8204 74.8139 26.1623 77.1558 26.1623 80.0335C26.1623 82.9112 23.8204 85.2531 20.9427 85.2531C19.984 85.2531 19.2028 84.4736 19.2028 83.5132ZM52.2601 103.588L24.4224 92.7641V87.9951C27.4898 86.6485 29.642 83.5915 29.642 80.0335C29.642 76.4755 27.4898 73.4186 24.4224 72.0719V65.1786L52.2601 76.004V103.588ZM47.0945 70.2625L54 63.3552L60.9055 70.2607L54 72.9471L47.0945 70.2625ZM83.5776 92.7623L55.7399 103.586V76.004L83.5776 65.1786V72.0719C80.5102 73.4186 78.358 76.4755 78.358 80.0335C78.358 83.5915 80.5102 86.6485 83.5776 87.9951V92.7623ZM88.7972 83.5132C88.7972 84.4736 88.016 85.2531 87.0573 85.2531C84.1796 85.2531 81.8377 82.9112 81.8377 80.0335C81.8377 77.1558 84.1796 74.8139 87.0573 74.8139C88.016 74.8139 88.7972 75.5934 88.7972 76.5538V83.5132Z" fill="#0B132B"/>
</g>
<defs>
<clipPath id="clip0_24_228">
<rect width="108" height="108" fill="white"/>
</clipPath>
</defs>
</svg>
