<svg width="108" height="108" viewBox="0 0 108 108" fill="none" xmlns="http://www.w3.org/2000/svg">
<g clip-path="url(#clip0_24_233)">
<path d="M20.2812 49.0969L21.0541 51.3708C21.3359 52.2011 20.9309 53.1014 20.1428 53.4524L12.2099 57.3825C11.3948 57.7816 10.4102 57.4619 9.98322 56.6687L3.88713 45.354C3.50913 44.6512 3.67957 43.7982 4.255 43.2936L25.2762 23.3684L20.9368 17.9592C20.3563 17.2352 20.4727 16.1755 21.1975 15.595C21.2836 15.5199 21.3789 15.4617 21.4743 15.4136V15.4077C24.1262 14.029 26.746 14.088 29.2486 14.9554C31.3622 15.6844 33.3534 16.9897 35.1962 18.4536C38.2902 18.2992 41.1648 18.6873 43.8227 19.5285C51.4476 21.9408 57.1995 28.0108 61.171 35.3539C65.0632 42.5528 67.2519 51.0089 67.8054 58.3672C68.1733 63.2761 67.8155 67.7438 66.7625 71.0825C66.5381 71.7913 65.8943 72.2494 65.1906 72.2638C63.7158 72.387 62.2257 73.0847 61.0276 74.1445C60.0303 75.0228 59.2481 76.1349 58.849 77.3659C58.46 78.5472 58.4237 79.8457 58.9022 81.151C59.4413 82.6098 60.6124 84.1058 62.6417 85.5182C63.4078 86.0506 63.5943 87.0986 63.0669 87.8664C62.737 88.3347 62.2147 88.5895 61.6823 88.5895H19.2063C18.4131 88.5895 17.7423 88.041 17.566 87.296C17.1838 85.9975 13.6898 72.9675 24.9733 61.684C33.2581 53.3992 34.0301 51.0612 32.6936 47.9199C30.3505 50.1179 27.0388 49.6504 23.9979 49.2243C22.4598 49.0058 21.0271 48.8033 20.2812 49.0969ZM17.3905 51.0629L16.756 49.199C16.6126 48.7729 16.6387 48.2835 16.8733 47.8566C18.4072 45.0351 21.2928 45.4393 24.4611 45.8873C27.1713 46.2695 30.2012 46.7015 31.3512 43.9484V43.9543C31.5005 43.6024 31.7655 43.2936 32.1283 43.1071C32.9493 42.676 33.966 42.9949 34.3971 43.8159L34.6789 44.3584C34.695 44.3854 34.7102 44.4175 34.727 44.4445C37.9063 50.4824 38.9542 52.4795 27.3577 64.0718C18.9025 72.5321 19.8551 81.9568 20.52 85.2153H57.3834C56.6333 84.2678 56.095 83.2941 55.7389 82.3137C54.9779 80.2439 55.0302 78.1869 55.6436 76.3247C56.2401 74.514 57.3741 72.889 58.7958 71.6326C60.2446 70.3552 62.0013 69.4389 63.8271 69.0668C64.5359 66.2436 64.7434 62.618 64.4405 58.6186C63.9233 51.6754 61.8629 43.7146 58.2044 36.9469C54.6218 30.3176 49.5028 24.8653 42.8051 22.7458C40.3557 21.9737 37.6776 21.6379 34.7751 21.8564V21.8514C34.36 21.8826 33.9348 21.7611 33.5829 21.4734C31.8574 20.0567 30.0096 18.7742 28.1517 18.1296C27.1451 17.7837 26.1225 17.6284 25.0897 17.7516L28.8647 22.464L28.8706 22.4699C29.4139 23.1465 29.3599 24.1363 28.7204 24.7429L7.46041 44.8917L12.1778 53.6388L17.3905 51.0629Z" fill="#0B132B"/>
<path d="M13.5034 85.2153H66.7288C67.6831 85.2153 68.5446 85.6043 69.1723 86.232C69.795 86.8547 70.184 87.7238 70.184 88.6755V94.4265C70.184 95.3791 69.795 96.2406 69.1723 96.87C68.5446 97.4927 67.6822 97.88 66.7288 97.88H13.5034C12.5558 97.88 11.6876 97.4927 11.0641 96.87C10.4363 96.2406 10.0474 95.3783 10.0474 94.4265V88.6755C10.0474 87.723 10.4363 86.8547 11.0641 86.232H11.07C11.6935 85.6043 12.5558 85.2153 13.5034 85.2153ZM66.7288 88.5903H13.5034C13.4823 88.5903 13.4603 88.6021 13.4443 88.6114L13.4502 88.6182C13.4342 88.6334 13.4241 88.6545 13.4241 88.6755V94.4265C13.4241 94.4476 13.435 94.4696 13.4502 94.4797C13.4662 94.4966 13.4823 94.5059 13.5034 94.5059H66.7288C66.7499 94.5059 66.7718 94.4957 66.782 94.4797C66.7988 94.4696 66.8081 94.4485 66.8081 94.4265V88.6755C66.8081 88.6545 66.798 88.6325 66.782 88.6182C66.7718 88.6013 66.7507 88.592 66.7288 88.592V88.5903Z" fill="#0B132B"/>
<path d="M4.24322 104.644H75.9881C76.2058 104.644 76.3982 104.558 76.5366 104.42V104.415C76.68 104.27 76.7652 104.079 76.7652 103.861V98.6637C76.7652 98.4461 76.6791 98.2486 76.5408 98.1102L76.5357 98.1052C76.3973 97.9668 76.2041 97.8807 75.9873 97.8807H4.24322C4.03059 97.8807 3.83316 97.9668 3.69478 98.1052L3.68972 98.1102C3.55134 98.2486 3.46528 98.4461 3.46528 98.6637V103.861C3.46528 104.079 3.55556 104.271 3.69394 104.415V104.42C3.83316 104.559 4.03059 104.644 4.24322 104.644ZM75.989 108.019H4.24322C3.10922 108.019 2.07141 107.551 1.31541 106.795L1.31034 106.8C0.559407 106.05 0.0911255 105.005 0.0911255 103.862V98.6646C0.0911255 97.5255 0.559407 96.4877 1.31034 95.7309H1.31541V95.7258C2.07141 94.974 3.10922 94.5066 4.24322 94.5066H75.9881C77.1221 94.5066 78.1599 94.9749 78.9168 95.7258L78.9218 95.7309C79.6736 96.4869 80.1411 97.5255 80.1411 98.6646V103.862C80.1411 105.005 79.6728 106.051 78.9218 106.8V106.795C78.1675 107.552 77.1221 108.019 75.989 108.019Z" fill="#0B132B"/>
<path d="M77.6976 22.2875C77.6976 21.356 78.4536 20.5991 79.3851 20.5991C80.3174 20.5991 81.0743 21.3551 81.0743 22.2875V45.1202H96.212C97.1435 45.1202 97.8995 45.8711 97.8995 46.8026V67.137C97.8995 68.0685 97.1435 68.8245 96.212 68.8245C95.2796 68.8245 94.5228 68.0685 94.5228 67.137V48.4901H79.3851C78.4536 48.4901 77.6976 47.7341 77.6976 46.8018V22.2875Z" fill="#0B132B"/>
<path d="M74.1724 30.6897C73.5919 31.4136 72.533 31.5258 71.8091 30.9453C71.0843 30.3648 70.967 29.3059 71.5534 28.5811L78.0697 20.514C78.6561 19.7901 79.7158 19.6787 80.4398 20.2584C80.5368 20.3385 80.6212 20.4238 80.6954 20.514V20.509L87.2176 28.5702C87.804 29.2941 87.6927 30.3589 86.967 30.9445C86.2439 31.53 85.1791 31.4187 84.5927 30.6939L79.38 24.251L74.1724 30.6897Z" fill="#0B132B"/>
<path d="M79.3851 0.0192871C81.1865 0.0192871 82.8141 0.748287 83.9979 1.93122C85.1749 3.10826 85.9031 4.7426 85.9031 6.54232C85.9031 8.34288 85.1749 9.97132 83.9979 11.1543C82.8149 12.3313 81.1865 13.0603 79.3851 13.0603C77.5854 13.0603 75.951 12.3313 74.774 11.1543C73.5927 9.97216 72.8621 8.34288 72.8621 6.54232C72.8621 4.7426 73.5919 3.10826 74.774 1.93122C75.951 0.749131 77.5854 0.0192871 79.3851 0.0192871ZM81.6117 4.31651C81.0414 3.74613 80.2541 3.39513 79.3868 3.39513C78.5186 3.39513 77.7305 3.74613 77.1601 4.31651C76.5897 4.88688 76.2387 5.6741 76.2387 6.54232C76.2387 7.41054 76.5897 8.1986 77.1601 8.76813C77.7305 9.3326 78.5177 9.68951 79.3868 9.68951C80.2533 9.68951 81.0414 9.3326 81.6117 8.76813C82.1771 8.19776 82.5331 7.41054 82.5331 6.54232C82.5323 5.66904 82.1771 4.88604 81.6117 4.31651Z" fill="#0B132B"/>
<path d="M96.212 75.55C98.0117 75.55 99.641 76.2799 100.823 77.4569C102 78.6382 102.73 80.2683 102.73 82.068C102.73 83.8745 102 85.5021 100.823 86.6791C99.6418 87.8621 98.0117 88.5911 96.212 88.5911C94.4055 88.5911 92.7779 87.8629 91.5992 86.6791C90.418 85.5021 89.689 83.8745 89.689 82.068C89.689 80.2683 90.4171 78.639 91.5992 77.4569C92.7779 76.2799 94.4064 75.55 96.212 75.55ZM98.4319 79.8481C97.8683 79.2777 97.0785 78.9267 96.212 78.9267C95.3387 78.9267 94.5557 79.2777 93.9853 79.8481C93.415 80.4117 93.064 81.1998 93.064 82.068C93.064 82.9413 93.415 83.7243 93.9853 84.2947C94.5557 84.8634 95.3387 85.2161 96.212 85.2161C97.0785 85.2161 97.8683 84.8634 98.4319 84.2947C99.0023 83.7243 99.3533 82.9413 99.3533 82.068C99.3533 81.199 99.0023 80.4117 98.4319 79.8481Z" fill="#0B132B"/>
<path d="M105.21 21.4404C105.87 20.7806 106.935 20.7806 107.596 21.4404C108.255 22.0952 108.255 23.1659 107.596 23.8257L98.809 32.6117C98.15 33.2715 97.0785 33.2715 96.4246 32.6117C95.7639 31.9519 95.7639 30.8862 96.4246 30.2264L105.21 21.4404Z" fill="#0B132B"/>
<path d="M107.596 30.2264C108.255 30.8862 108.255 31.9519 107.596 32.6117C106.935 33.2715 105.87 33.2715 105.21 32.6117L96.4246 23.8257C95.7639 23.1659 95.7639 22.0952 96.4246 21.4404C97.0785 20.7806 98.15 20.7806 98.809 21.4404L107.596 30.2264Z" fill="#0B132B"/>
<path d="M58.7149 6.04198C59.3755 5.38217 60.4404 5.38217 61.101 6.04198C61.76 6.69673 61.76 7.76745 61.101 8.42726L52.3142 17.2124C51.6552 17.8722 50.5837 17.8722 49.9298 17.2124C49.2691 16.5526 49.2691 15.4869 49.9298 14.8271L58.7149 6.04198Z" fill="#0B132B"/>
<path d="M61.101 14.8271C61.7616 15.4869 61.7616 16.5526 61.101 17.2124C60.4403 17.8722 59.3755 17.8722 58.7149 17.2124L49.9297 8.42726C49.2699 7.76745 49.2699 6.69588 49.9297 6.04198C50.5845 5.38217 51.6552 5.38217 52.315 6.04198L61.101 14.8271Z" fill="#0B132B"/>
<path d="M39.7702 28.57C38.918 28.1979 38.529 27.2074 38.8969 26.3552C39.269 25.503 40.2595 25.114 41.1117 25.4819C46.0207 27.6174 51.3304 32.4471 55.0252 39.9489C57.9589 45.9125 59.8919 53.5855 59.8076 62.9579C59.8008 63.8843 59.0397 64.6353 58.1133 64.6243C57.1818 64.6193 56.4359 63.8582 56.4469 62.9301C56.5262 54.1399 54.7265 46.9781 52.0054 41.4398C48.6886 34.71 44.0345 30.4238 39.7702 28.57Z" fill="#0B132B"/>
</g>
<defs>
<clipPath id="clip0_24_233">
<rect width="108" height="108" fill="white"/>
</clipPath>
</defs>
</svg>
