<svg width="108" height="108" viewBox="0 0 108 108" fill="none" xmlns="http://www.w3.org/2000/svg">
<g clip-path="url(#clip0_24_178)">
<path d="M38.3316 77.3749C38.1791 77.3314 38.023 77.307 37.8658 77.2985C40.1764 74.87 41.5994 71.5893 41.5994 67.9806V56.8829C41.5994 56.7815 41.5897 56.6825 41.576 56.5851C41.5899 56.3847 41.5994 56.183 41.5994 55.9793V48.958C41.5994 47.793 40.655 46.8486 39.49 46.8486H25.3418C19.3839 46.8486 14.537 51.6958 14.537 57.6535V67.9806C14.537 71.5893 15.9597 74.87 18.2706 77.2985C18.1136 77.307 17.9575 77.3314 17.8052 77.3749C7.83696 78.2775 0 86.6793 0 96.8786V105.891C0 107.056 0.944367 108 2.10938 108H54.0268C55.1918 108 56.1362 107.056 56.1362 105.891V96.8786C56.1362 86.6795 48.2996 78.2777 38.3316 77.3749ZM18.7557 60.3284V57.6533C18.7557 54.0218 21.7103 51.0672 25.3418 51.0672H37.3807V55.9791C37.3807 58.4519 35.3689 60.4636 32.8961 60.4636H18.7557V60.3284ZM18.7557 64.6823H32.8961C34.5355 64.6823 36.0701 64.2263 37.3807 63.4349V67.9804C37.3807 73.1152 33.203 77.2928 28.0682 77.2928C22.9333 77.2928 18.7557 73.1152 18.7557 67.9804V64.6823ZM32.6592 81.5118L28.0682 86.103L23.4771 81.5118H32.6592ZM51.9176 103.781H4.21875V99.5625H12.9727C14.1377 99.5625 15.082 98.6182 15.082 97.4532C15.082 96.2882 14.1377 95.3438 12.9727 95.3438H4.29574C5.00428 88.2318 10.5829 82.5363 17.6386 81.6394L26.5766 90.5774C26.9722 90.973 27.5088 91.1953 28.0682 91.1953C28.6276 91.1953 29.1642 90.973 29.5597 90.5774L38.4978 81.6394C46.0544 82.5998 51.9176 89.0652 51.9176 96.8786V103.781Z" fill="#0B132B"/>
<path d="M90.1958 30.5265C90.0433 30.483 89.887 30.4585 89.7297 30.4501C92.0403 28.0216 93.4631 24.7409 93.4631 21.1321V10.0343C93.4631 9.93284 93.4534 9.83391 93.4396 9.73645C93.4536 9.53606 93.4631 9.33441 93.4631 9.13064V2.10938C93.4631 0.944367 92.5187 0 91.3537 0H77.2055C71.2475 0 66.4006 4.84713 66.4006 10.8049V21.1319C66.4006 24.7406 67.8234 28.0214 70.134 30.4499C69.9769 30.4583 69.8203 30.4828 69.6678 30.5262C59.7 31.4293 51.8636 39.8311 51.8636 50.0299V59.0418C51.8636 60.2068 52.808 61.1512 53.973 61.1512H70.9451C72.1101 61.1512 73.0544 60.2068 73.0544 59.0418C73.0544 57.8768 72.1101 56.9325 70.9451 56.9325H56.0824V50.0302C56.0824 42.2168 61.9454 35.7514 69.502 34.791L78.4401 43.729C78.8521 44.141 79.3918 44.3469 79.9316 44.3469C80.4714 44.3469 81.0114 44.141 81.4232 43.729L90.3612 34.791C97.9183 35.7516 103.781 42.2168 103.781 50.0302V56.9327H88.2421C87.0771 56.9327 86.1328 57.877 86.1328 59.042C86.1328 60.2071 87.0771 61.1514 88.2421 61.1514H105.891C107.056 61.1514 108 60.2071 108 59.042V50.0302C108 39.8313 100.163 31.4295 90.1958 30.5265ZM79.932 39.2544L75.341 34.6634H84.5231L79.932 39.2544ZM89.2445 21.1319C89.2445 26.2668 85.0669 30.4444 79.932 30.4444C74.7972 30.4444 70.6196 26.267 70.6196 21.1321V17.8339H84.76C86.3994 17.8339 87.934 17.3777 89.2445 16.5864V21.1319ZM89.2445 9.13064C89.2445 11.6035 87.2328 13.6152 84.76 13.6152H70.6196V13.48V10.8049C70.6196 7.17335 73.5742 4.21875 77.2057 4.21875H89.2445V9.13064Z" fill="#0B132B"/>
<path d="M81.424 57.5502C81.0317 57.1578 80.4874 56.9321 79.9327 56.9321C79.3758 56.9321 78.8337 57.1578 78.4413 57.5502C78.0469 57.9425 77.8233 58.4867 77.8233 59.0415C77.8233 59.5984 78.0469 60.1405 78.4413 60.5328C78.8337 60.9273 79.3758 61.1509 79.9327 61.1509C80.4874 61.1509 81.0317 60.9273 81.424 60.5328C81.8164 60.1405 82.0421 59.5984 82.0421 59.0415C82.0421 58.4867 81.8164 57.9425 81.424 57.5502Z" fill="#0B132B"/>
<path d="M56.4057 29.5163L47.5841 20.6947V10.5469C47.5841 4.73133 42.8528 0 37.0373 0H10.5469C4.73133 0 0 4.73133 0 10.5469V29.1094C0 34.9249 4.73133 39.6562 10.5469 39.6562H37.037C41.398 39.6562 45.2007 37.0392 46.7963 33.1172H54.914C55.767 33.1172 56.5363 32.6031 56.8628 31.8151C57.1894 31.027 57.0088 30.1196 56.4057 29.5163ZM45.2575 28.8984C44.2747 28.8984 43.4221 29.577 43.2017 30.5349C42.5377 33.4214 40.0028 35.4375 37.037 35.4375H10.5469C7.05755 35.4375 4.21875 32.5987 4.21875 29.1094V10.5469C4.21875 7.05755 7.05755 4.21875 10.5469 4.21875H37.037C40.5264 4.21875 43.3652 7.05755 43.3652 10.5469V21.5684C43.3652 22.1278 43.5875 22.6644 43.983 23.0599L49.8215 28.8984H45.2575Z" fill="#0B132B"/>
<path d="M97.4531 68.3438H70.9629C66.602 68.3438 62.7992 70.9609 61.2037 74.8828H53.086C52.233 74.8828 51.4637 75.3969 51.1371 76.1849C50.8106 76.973 50.9912 77.8804 51.5942 78.4837L60.4159 87.3053V97.4531C60.4159 103.269 65.1472 108 70.9627 108H97.4531C103.269 108 108 103.269 108 97.4531V78.8906C108 73.0751 103.269 68.3438 97.4531 68.3438ZM103.781 97.4531C103.781 100.942 100.942 103.781 97.4531 103.781H70.9629C67.4736 103.781 64.6348 100.942 64.6348 97.4531V86.4316C64.6348 85.8722 64.4125 85.3356 64.017 84.9401L58.1784 79.1016H62.7425C63.7253 79.1016 64.5779 78.423 64.7983 77.4651C65.4623 74.5786 67.9972 72.5625 70.9629 72.5625H97.4531C100.942 72.5625 103.781 75.4013 103.781 78.8906V97.4531Z" fill="#0B132B"/>
<path d="M93.6892 82.5592C92.8657 81.7355 91.53 81.7355 90.7063 82.5592L85.099 88.1665L82.4916 85.5591C81.6679 84.7354 80.3322 84.7354 79.5083 85.5591C78.6846 86.3829 78.6846 87.7185 79.5083 88.5424L83.6072 92.6414C84.0192 93.0533 84.559 93.2592 85.0988 93.2592C85.6385 93.2592 86.1786 93.0533 86.5903 92.6414L93.6892 85.5425C94.5129 84.7188 94.5129 83.3831 93.6892 82.5592Z" fill="#0B132B"/>
<path d="M33.3815 13.9783C33.1321 10.3614 30.2166 7.4458 26.5996 7.19647C24.5487 7.05536 22.5937 7.74723 21.0961 9.14533C19.6193 10.5238 18.7722 12.4729 18.7722 14.4924C18.7724 15.6576 19.7167 16.602 20.8817 16.602C22.0467 16.602 22.9911 15.6576 22.9911 14.4926C22.9911 13.6254 23.3404 12.8218 23.9749 12.2294C24.6084 11.638 25.4384 11.3443 26.3098 11.4055C27.8368 11.5108 29.0676 12.7416 29.1728 14.2686C29.2794 15.8124 28.2673 17.1768 26.7665 17.5126C25.1237 17.88 23.9764 19.3083 23.9764 20.9857V22.111C23.9764 23.276 24.9208 24.2204 26.0858 24.2204C27.2508 24.2204 28.1952 23.276 28.1952 22.111V21.4972C31.4634 20.5222 33.6203 17.4411 33.3815 13.9783Z" fill="#0B132B"/>
<path d="M27.578 28.6918C27.1857 28.2994 26.6414 28.0737 26.0867 28.0737C25.5298 28.0737 24.9877 28.2994 24.5953 28.6918C24.2009 29.0841 23.9773 29.6283 23.9773 30.1831C23.9773 30.7379 24.2009 31.2821 24.5953 31.6744C24.9877 32.0668 25.5298 32.2925 26.0867 32.2925C26.6414 32.2925 27.1857 32.0668 27.578 31.6744C27.9703 31.2821 28.196 30.7379 28.196 30.1831C28.196 29.6283 27.9703 29.0841 27.578 28.6918Z" fill="#0B132B"/>
<path d="M22.9015 95.9618C22.5091 95.5695 21.9649 95.3438 21.4102 95.3438C20.8554 95.3438 20.3112 95.5695 19.9188 95.9618C19.5265 96.3541 19.3008 96.8984 19.3008 97.4531C19.3008 98.0079 19.5265 98.5521 19.9188 98.9445C20.3112 99.3368 20.8554 99.5625 21.4102 99.5625C21.9649 99.5625 22.5091 99.3368 22.9015 98.9445C23.2938 98.5521 23.5195 98.0079 23.5195 97.4531C23.5195 96.8984 23.2938 96.3541 22.9015 95.9618Z" fill="#0B132B"/>
</g>
<defs>
<clipPath id="clip0_24_178">
<rect width="108" height="108" fill="white"/>
</clipPath>
</defs>
</svg>
