<svg width="108" height="108" viewBox="0 0 108 108" fill="none" xmlns="http://www.w3.org/2000/svg">
<path d="M107.805 84.6931C107.298 82.2541 105.864 80.1703 103.767 78.8248C101.67 77.48 99.1793 77.0458 96.7502 77.6012L85.4931 80.1785V75.5766C87.7508 73.45 90.1016 70.6732 91.7734 68.1353C94.7051 63.685 96.7799 58.7981 97.9401 53.6128C99.3194 47.4437 99.3491 40.9129 98.0249 34.724C97.781 33.5853 96.6596 32.8585 95.5209 33.1032C94.3813 33.3463 93.6562 34.4677 93.8993 35.6073C95.0974 41.2046 95.071 47.1124 93.8227 52.6916C92.7746 57.3767 90.8992 61.7924 88.2501 65.8142C87.4649 67.0065 86.5124 68.2573 85.4931 69.452V46.0709C85.4931 44.9058 84.5488 43.9616 83.3837 43.9616H66.6974V21.4358C66.6974 20.274 65.7573 19.3305 64.5955 19.3264L45.7998 19.2629C45.7973 19.2629 45.7957 19.2629 45.7932 19.2629C45.2345 19.2629 44.699 19.4838 44.3043 19.8784C43.9071 20.274 43.6838 20.8112 43.6838 21.3723V33.0901H26.995C25.8308 33.0901 24.8857 34.0343 24.8857 35.1994V56.088H20.1857V53.223C20.1857 52.0588 19.2414 51.1145 18.0763 51.1145H15.9126C15.5443 49.0867 15.3309 47.0268 15.2806 44.9701C15.157 39.9694 15.9497 35.0767 17.6355 30.4261C18.0286 29.3418 18.4752 28.2607 18.9621 27.2143C19.454 26.158 18.9959 24.903 17.9404 24.4111C16.8841 23.9209 15.6291 24.3773 15.1381 25.4337C14.5984 26.5922 14.104 27.7886 13.6697 28.9883C11.8043 34.134 10.9275 39.5467 11.0627 45.0739C11.1129 47.0943 11.3058 49.1164 11.6329 51.1145H2.10937C0.944275 51.1145 0 52.0588 0 53.2239V90.3011C0 91.4662 0.944275 92.4104 2.10937 92.4104H18.0763C19.2414 92.4104 20.1857 91.4662 20.1857 90.3011V88.2955H28.1206L60.263 100.902C63.2639 102.08 66.4074 102.672 69.5673 102.672C71.6742 102.672 73.7902 102.409 75.874 101.879L101.067 95.4756C105.849 94.2603 108.808 89.5241 107.805 84.6931ZM81.2752 48.1803V81.1442L75.6359 82.4354C75.0295 82.5738 74.4164 82.6834 73.8001 82.7691C71.4501 83.0929 69.0523 83.0245 66.7271 82.5639C66.7172 82.5615 66.7073 82.5598 66.6974 82.5574V79.3587C68.3058 76.9593 68.8389 73.9172 67.996 71.1404C67.7612 70.3658 67.4275 69.6185 67.0031 68.9288C66.9067 68.7723 66.8062 68.619 66.7016 68.469C66.7007 68.4666 66.6991 68.4649 66.6974 68.4624V48.1795H81.2752V48.1803ZM47.9026 23.4891L62.4795 23.5377V65.1122L54.3329 61.7405L47.9026 59.0782V23.4891ZM29.1044 37.3088H43.6814V57.3306L41.0652 56.2479C40.809 56.1416 40.5346 56.0872 40.2586 56.0872H29.1044V37.3088ZM15.967 88.1917H4.21875V55.3324H14.1707C14.1748 55.3324 14.1798 55.3332 14.1847 55.3332C14.1888 55.3332 14.1921 55.3324 14.1963 55.3324H15.967V88.1917ZM100.028 91.3871L74.835 97.7902C70.4861 98.8951 65.9798 98.6125 61.803 96.9753L29.2898 84.2226C29.0443 84.1262 28.7831 84.0776 28.5194 84.0776H20.1857V60.3068H39.8383L53.4866 65.9559L60.9552 69.0475C63.5976 70.1434 64.8624 73.2431 63.7789 75.8823C63.5614 76.4122 63.2919 76.9156 62.9343 77.3647C61.6135 79.0316 59.439 79.7666 57.4055 79.2722C57.389 79.2681 57.3725 79.2639 57.356 79.2598C57.2341 79.2293 57.113 79.1939 56.9927 79.1543L42.7997 73.698C42.6843 73.6535 42.6234 73.6304 42.6234 73.6304C41.5365 73.2118 40.3162 73.7548 39.8977 74.8425C39.4799 75.9293 40.0221 77.1504 41.1097 77.5682C41.1097 77.5682 49.1122 80.6449 55.2145 82.9982C55.3373 83.046 55.4592 83.0905 55.582 83.1317L60.268 84.9337C61.6844 85.4783 63.0942 86.0205 64.5683 86.3971C67.0715 87.0365 69.6695 87.2936 72.2502 87.1527C73.7053 87.0736 75.158 86.8725 76.5785 86.5479L83.855 84.8826C83.8625 84.881 83.8699 84.8777 83.8773 84.876L97.692 81.7136C99.0063 81.4129 100.355 81.6477 101.489 82.3753C102.624 83.1036 103.4 84.2317 103.674 85.5517C104.218 88.1661 102.616 90.7295 100.028 91.3871Z" fill="#0B132B"/>
<path d="M26.9745 15.0029C27.4787 15.0029 27.9847 14.8233 28.3876 14.4591C32.1515 11.0594 36.6463 8.34768 41.3883 6.61651C46.5257 4.74114 52.1576 3.94106 57.6758 4.30361C61.6251 4.56317 65.4944 5.40609 69.176 6.8085C70.2636 7.22295 71.4831 6.67748 71.8975 5.58819C72.3128 4.49972 71.7665 3.28106 70.6772 2.8666C66.6035 1.31423 62.3221 0.381495 57.9526 0.0939283C51.8535 -0.306523 45.6251 0.578426 39.9414 2.65402C34.6951 4.56893 29.7224 7.56902 25.5605 11.328C24.6954 12.1091 24.6278 13.4431 25.4089 14.3075C25.825 14.7689 26.3985 15.0029 26.9745 15.0029Z" fill="#0B132B"/>
<path d="M74.8589 30.0568C75.2585 30.4037 75.7512 30.5735 76.2415 30.5735C76.8306 30.5735 77.4173 30.3279 77.8351 29.8484L95.1896 9.87111C95.9543 8.99193 95.8603 7.65956 94.9812 6.89574C94.1011 6.13191 92.7696 6.22502 92.0058 7.1042L74.6504 27.0815C73.8858 27.9606 73.9797 29.293 74.8589 30.0568Z" fill="#0B132B"/>
<path d="M90.4114 21.0386C87.4912 21.0386 85.1157 23.4141 85.1157 26.3343C85.1157 29.2544 87.4912 31.6299 90.4114 31.6299C93.3316 31.6299 95.7071 29.2536 95.7071 26.3343C95.7071 23.4141 93.3316 21.0386 90.4114 21.0386ZM90.4114 27.4112C89.8173 27.4112 89.3345 26.9283 89.3345 26.3343C89.3345 25.741 89.8173 25.2573 90.4114 25.2573C91.0047 25.2573 91.4883 25.741 91.4883 26.3343C91.4883 26.9283 91.0047 27.4112 90.4114 27.4112Z" fill="#0B132B"/>
<path d="M78.6978 16.3426C81.6179 16.3426 83.9935 13.9671 83.9935 11.0469C83.9935 8.12674 81.6179 5.75122 78.6978 5.75122C75.7776 5.75122 73.4021 8.12674 73.4021 11.0469C73.4021 13.9671 75.7776 16.3426 78.6978 16.3426ZM78.6978 9.96915C79.2919 9.96915 79.7747 10.4528 79.7747 11.0469C79.7747 11.6402 79.2919 12.1238 78.6978 12.1238C78.1037 12.1238 77.6208 11.6402 77.6208 11.0469C77.6208 10.4528 78.1037 9.96915 78.6978 9.96915Z" fill="#0B132B"/>
<path d="M19.4755 19.9601C19.8133 20.7708 20.6447 21.3064 21.5255 21.2603C22.3965 21.215 23.1595 20.6258 23.4289 19.7986C23.7008 18.9639 23.4042 18.013 22.7063 17.4799C21.9952 16.9377 20.9965 16.9039 20.2517 17.3991C19.4252 17.9487 19.094 19.0446 19.4755 19.9601Z" fill="#0B132B"/>
</svg>
