<svg width="108" height="108" viewBox="0 0 108 108" fill="none" xmlns="http://www.w3.org/2000/svg">
<g clip-path="url(#clip0_12_212)">
<path d="M66.1422 30.0387C68.2271 30.0387 69.9233 28.3425 69.9233 26.2576V10.1671C69.9233 8.08217 68.2271 6.38623 66.1422 6.38623H41.8576C39.7729 6.38623 38.0768 8.08238 38.0768 10.1671V26.2576C38.0768 28.3425 39.7729 30.0387 41.8576 30.0387H66.1422ZM41.2408 26.2576V10.1671C41.2408 9.82683 41.5176 9.55029 41.8576 9.55029H66.1424C66.4824 9.55029 66.7594 9.82704 66.7594 10.1671V26.2576C66.7594 26.5978 66.4827 26.8746 66.1424 26.8746H41.8576C41.5174 26.8746 41.2408 26.5978 41.2408 26.2576Z" fill="#0B132B"/>
<path d="M34.3938 94.9203C36.4787 94.9203 38.1748 93.2241 38.1748 91.1394V75.0489C38.1748 72.964 36.4787 71.2681 34.3938 71.2681H10.1092C8.02427 71.2681 6.32812 72.9642 6.32812 75.0489V91.1394C6.32812 93.2243 8.02427 94.9203 10.1092 94.9203H34.3938ZM9.49219 91.1392V75.0487C9.49219 74.7085 9.76894 74.4319 10.1092 74.4319H34.3938C34.7338 74.4319 35.0108 74.7087 35.0108 75.0487V91.1392C35.0108 91.4795 34.734 91.756 34.3938 91.756H10.1092C9.76894 91.7562 9.49219 91.4795 9.49219 91.1392Z" fill="#0B132B"/>
<path d="M100.257 64.9398H87.3302V57.4072C87.3302 55.2698 85.5913 53.5308 83.4538 53.5308H63.0851V53.2068C63.0851 51.1489 61.4109 49.4747 59.3532 49.4747H56.2402V43.0595H60.554H65.5568C66.4308 43.0595 67.1389 42.3511 67.1389 41.4774C67.1389 40.6037 66.4308 39.8954 65.5568 39.8954H61.7861L60.8949 36.3673H68.5083C72.7781 36.3673 76.2518 32.8935 76.2518 28.6237V7.80211C76.2518 3.53231 72.7781 0.0585938 68.5083 0.0585938H39.4917C35.2219 0.0585938 31.7482 3.53231 31.7482 7.80211V10.1794C31.7482 11.0531 32.4563 11.7614 33.3302 11.7614C34.2041 11.7614 34.9123 11.0531 34.9123 10.1794V7.80211C34.9123 5.27698 36.9666 3.22266 39.4917 3.22266H68.5083C71.0334 3.22266 73.0877 5.27698 73.0877 7.80211V28.6237C73.0877 31.1489 71.0334 33.2032 68.5083 33.2032H39.4917C36.9666 33.2032 34.9123 31.1489 34.9123 28.6237V17.5622C34.9123 16.6885 34.2041 15.9802 33.3302 15.9802C32.4563 15.9802 31.7482 16.6885 31.7482 17.5622V28.6237C31.7482 32.8935 35.2219 36.3673 39.4917 36.3673H48.4205L47.5293 39.8954H43.7584C42.8844 39.8954 42.1763 40.6037 42.1763 41.4774C42.1763 42.3511 42.8844 43.0595 43.7584 43.0595H48.7614H53.0761V49.4747H49.9622C47.9043 49.4747 46.2301 51.1489 46.2301 53.2068V53.5308H25.8603C23.7229 53.5308 21.9839 55.2698 21.9839 57.4072V64.939H7.74352C3.47372 64.939 0 68.4127 0 72.6825V93.5062C0 96.0383 1.24116 98.4126 3.31995 99.8573C4.03798 100.356 5.02348 100.178 5.52192 99.461C6.02037 98.7434 5.84297 97.7577 5.12557 97.259C3.89728 96.4056 3.16385 95.0026 3.16385 93.5062V72.6825C3.16385 70.1573 5.21817 68.103 7.7433 68.103H36.7599C39.2852 68.103 41.3395 70.1573 41.3395 72.6825V93.5062C41.3395 96.0301 39.2852 98.0836 36.7599 98.0836H11.4349C10.561 98.0836 9.85289 98.7919 9.85289 99.6656C9.85289 100.539 10.561 101.248 11.4349 101.248H16.6723L15.7807 104.777H12.0099C11.136 104.777 10.4279 105.486 10.4279 106.359C10.4279 107.233 11.136 107.941 12.0099 107.941H33.8084C34.6823 107.941 35.3905 107.233 35.3905 106.359C35.3905 105.486 34.6823 104.777 33.8084 104.777H30.0377L29.1461 101.248H36.7601C41.0299 101.248 44.5038 97.7748 44.5038 93.5062V72.6825C44.5038 68.4127 41.0299 64.939 36.7601 64.939H25.148V57.4072C25.148 57.0145 25.4675 56.6949 25.8603 56.6949H46.2301V57.0189C46.2301 59.0768 47.9045 60.751 49.9622 60.751H59.3532C61.4111 60.751 63.0851 59.0768 63.0851 57.0189V56.6949H83.4536C83.8464 56.6949 84.166 57.0145 84.166 57.4072V64.9398H71.2401C66.9705 64.9398 63.497 68.4133 63.497 72.6829V93.5052C63.497 97.7748 66.9705 101.248 71.2401 101.248H80.1691L79.2777 104.777H75.5068C74.6329 104.777 73.9247 105.485 73.9247 106.359C73.9247 107.233 74.6329 107.941 75.5068 107.941H97.3055C98.1794 107.941 98.8875 107.233 98.8875 106.359C98.8875 105.485 98.1794 104.777 97.3055 104.777H93.5345L92.6433 101.248H100.257C104.526 101.248 108 97.7748 108 93.5052V72.6829C108 68.4133 104.526 64.9398 100.257 64.9398ZM51.6839 36.3675H57.6317L58.5229 39.8956H50.7929L51.6839 36.3675ZM19.0441 104.777L19.9355 101.248H25.8829L26.7743 104.777H19.0441ZM59.921 57.0189C59.921 57.3321 59.6662 57.5869 59.3532 57.5869H49.9622C49.649 57.5869 49.3942 57.3321 49.3942 57.0189V55.1333C49.3942 55.1264 49.3952 55.1198 49.3952 55.1129C49.3952 55.1059 49.3944 55.0994 49.3942 55.0924V53.2068C49.3942 52.8936 49.649 52.6388 49.9622 52.6388H59.3532C59.6662 52.6388 59.921 52.8936 59.921 53.2068V57.0189ZM90.2711 104.777H82.5411L83.4325 101.248H89.3799L90.2711 104.777ZM104.836 93.5054C104.836 96.0303 102.782 98.0844 100.257 98.0844H71.2401C68.7152 98.0844 66.6611 96.0303 66.6611 93.5054V72.6831C66.6611 70.1582 68.7152 68.1041 71.2401 68.1041H100.257C102.782 68.1041 104.836 70.1582 104.836 72.6831V93.5054Z" fill="#0B132B"/>
<path d="M97.8919 71.2671H95.9934C95.1195 71.2671 94.4114 71.9754 94.4114 72.8491C94.4114 73.7228 95.1195 74.4312 95.9934 74.4312H97.8919C98.2315 74.4312 98.5078 74.7083 98.5078 75.0492V91.1395C98.5078 91.4791 98.2315 91.7555 97.8919 91.7555H73.6066C73.2658 91.7555 72.9884 91.4791 72.9884 91.1395V75.0492C72.9884 74.7085 73.2656 74.4312 73.6066 74.4312H88.6106C89.4845 74.4312 90.1927 73.7228 90.1927 72.8491C90.1927 71.9754 89.4845 71.2671 88.6106 71.2671H73.6066C71.5211 71.2671 69.8243 72.9637 69.8243 75.0492V91.1395C69.8243 93.2238 71.5211 94.9195 73.6066 94.9195H97.8919C99.9761 94.9195 101.672 93.2238 101.672 91.1395V75.0492C101.672 72.9637 99.9761 71.2671 97.8919 71.2671Z" fill="#0B132B"/>
</g>
<defs>
<clipPath id="clip0_12_212">
<rect width="108" height="108" fill="white"/>
</clipPath>
</defs>
</svg>
