<svg width="108" height="108" viewBox="0 0 108 108" fill="none" xmlns="http://www.w3.org/2000/svg">
<g clip-path="url(#clip0_12_130)">
<path d="M95.5125 20.7563H92.4324V17.6764C92.4324 13.6522 89.1585 10.378 85.1338 10.378H38.9305L18.6198 0.222687C17.9659 -0.104476 17.1894 -0.0690387 16.5676 0.315077C15.9457 0.699193 15.5671 1.3782 15.5671 2.1093V10.378H12.4874C8.46318 10.378 5.18903 13.652 5.18903 17.6764V79.9449C5.18903 83.9692 8.46297 87.2433 12.4874 87.2433H15.5675V90.3237C15.5675 94.3479 18.8415 97.6221 22.8662 97.6221H69.0697L89.3804 107.778C90.0328 108.104 90.8099 108.07 91.4326 107.685C92.0544 107.301 92.4331 106.622 92.4331 105.891V97.6221H95.5129C99.5372 97.6221 102.811 94.3481 102.811 90.3237V28.0547C102.811 24.0305 99.5368 20.7563 95.5125 20.7563ZM12.4874 83.0246C10.7894 83.0246 9.40776 81.643 9.40776 79.9449V17.6764C9.40776 15.9784 10.7894 14.5968 12.4874 14.5968H17.6765C18.8413 14.5968 19.7858 13.6522 19.7858 12.4874V5.52226L37.4891 14.374C37.7821 14.5204 38.1051 14.5968 38.4326 14.5968H85.134C86.8323 14.5968 88.2139 15.9784 88.2139 17.6764V20.7565H63.5303C60.7346 20.8603 60.7367 24.8723 63.5303 24.9753H88.2139V79.9449C88.2139 81.643 86.8323 83.0246 85.134 83.0246H19.7861V28.0547C19.7861 26.3567 21.1677 24.9751 22.8659 24.9751H44.546C47.3418 24.8713 47.3397 20.8593 44.546 20.7563H22.8659C18.8415 20.7563 15.5673 24.0303 15.5673 28.0547V83.0246H12.4874ZM98.5922 90.3234C98.5922 92.0215 97.2106 93.4031 95.5125 93.4031H90.3233C89.1585 93.4031 88.2139 94.3477 88.2139 95.5125V102.478L70.5104 93.6259C70.2176 93.4795 69.8947 93.4031 69.5671 93.4031H22.8657C21.1675 93.4031 19.7858 92.0215 19.7858 90.3234V87.2433H85.134C89.1585 87.2433 92.4326 83.9694 92.4326 79.9449V24.9751H95.5127C97.2108 24.9751 98.5924 26.3567 98.5924 28.0547V90.3234H98.5922Z" fill="#0B132B"/>
<path d="M38.8252 52.5455L36.4368 51.5562C35.2627 51.07 34.7031 49.7192 35.1895 48.5451C35.6755 47.3714 37.0263 46.8114 38.2006 47.2976L39.3949 47.7925C40.4711 48.2384 41.7053 47.7273 42.1508 46.6511C42.5967 45.5747 42.0856 44.3409 41.0094 43.8952L39.8149 43.4001C36.4912 42.0242 32.6677 43.6077 31.2916 46.9308C29.9152 50.2541 31.4989 54.0775 34.822 55.4539L37.2109 56.4432C38.3848 56.9298 38.9444 58.2807 38.458 59.4547C38.2244 60.019 37.7806 60.4603 37.2088 60.6972C36.6367 60.9338 36.0109 60.9357 35.4466 60.7018L34.2523 60.2072C33.1759 59.7614 31.9421 60.2725 31.4964 61.349C31.0507 62.4254 31.562 63.6591 32.6382 64.1048L33.8325 64.5995C35.4409 65.2656 37.2134 65.2616 38.8231 64.5946C40.4363 63.9266 41.691 62.6743 42.3558 61.0688C43.7322 57.7459 42.1487 53.9225 38.8252 52.5455Z" fill="#0B132B"/>
<path d="M67.3367 64.9744H75.0934C77.8892 64.8707 77.8871 60.8586 75.0934 60.7557H69.446V56.1094H72.794C75.5898 56.0056 75.5877 51.9936 72.794 51.8907H69.446V47.2444H75.0934C77.8892 47.1406 77.8871 43.1286 75.0934 43.0256H67.3367C66.1719 43.0256 65.2273 43.9702 65.2273 45.135V62.8653C65.2273 64.0301 66.1719 64.9744 67.3367 64.9744Z" fill="#0B132B"/>
<path d="M46.3888 62.8649C46.4925 65.6607 50.5046 65.6585 50.6075 62.8649V50.9609L52.4182 53.1338C53.213 54.1359 54.8644 54.1357 55.6592 53.134L57.4701 50.9607V62.8649C57.5739 65.6607 61.5859 65.6585 61.6888 62.8649V45.1346C61.6888 44.2466 61.1326 43.4534 60.2975 43.1514C59.4624 42.8489 58.5273 43.1022 57.9588 43.7842L54.0386 48.4887L50.1185 43.7844C49.5501 43.1022 48.6154 42.8487 47.7799 43.1514C46.9448 43.4537 46.3885 44.2466 46.3885 45.1346V62.8649H46.3888Z" fill="#0B132B"/>
<path d="M54.0388 24.9751C56.8346 24.8713 56.8325 20.8593 54.0388 20.7563H54.0371C51.2414 20.8608 51.2454 24.8728 54.0388 24.9751Z" fill="#0B132B"/>
</g>
<defs>
<clipPath id="clip0_12_130">
<rect width="108" height="108" fill="white"/>
</clipPath>
</defs>
</svg>
