<svg width="641" height="480" viewBox="0 0 641 480" fill="none" xmlns="http://www.w3.org/2000/svg">
<g clip-path="url(#clip0_19_10)">
<path d="M120.254 0.281555H16.1307V93.336H120.254V0.281555Z" fill="#FAFAFA"/>
<path d="M120.308 93.3144C120.308 93.3144 120.308 92.7188 120.308 91.5817C120.308 90.4447 120.308 88.777 120.308 86.6003C120.308 82.2687 120.308 75.847 120.243 67.7144C120.243 51.4707 120.178 28.2206 120.124 0.24906L120.362 0.487298H16.2933L16.5643 0.205743C16.5643 34.0684 16.5643 65.9276 16.5643 93.2711L16.3258 93.022L91.6349 93.1519L112.72 93.3144H118.346H119.799H118.357H112.785L91.5916 93.3794L16.1307 93.4985H15.8814V93.3144C15.8814 65.9709 15.8814 34.1117 15.8814 0.24906V-0.0216675H16.1741H120.243H120.482V0.205743C120.482 28.2315 120.384 51.5249 120.362 67.8118C120.362 75.9228 120.308 82.2903 120.297 86.6545C120.297 88.8203 120.297 90.4663 120.297 91.5926C120.297 92.7188 120.308 93.3144 120.308 93.3144Z" fill="#E0E0E0"/>
<path d="M56.0563 16.8067C56.0563 16.9692 50.571 17.0883 43.8174 17.0883C37.0637 17.0883 31.5676 16.9692 31.5676 16.8067C31.5676 16.6443 37.0529 16.536 43.8174 16.536C50.5819 16.536 56.0563 16.6551 56.0563 16.8067Z" fill="#E0E0E0"/>
<path d="M100.177 23.8024C100.177 23.954 85.1198 24.0731 66.5716 24.0731C48.0235 24.0731 32.966 23.954 32.966 23.8024C32.966 23.6508 48.0127 23.5208 66.5716 23.5208C85.1306 23.5208 100.177 23.6399 100.177 23.8024Z" fill="#E0E0E0"/>
<path d="M36.1423 35.6385H31.7519V40.0243H36.1423V35.6385Z" fill="#E0E0E0"/>
<path d="M46.9395 35.6385H42.549V40.0243H46.9395V35.6385Z" fill="#E0E0E0"/>
<path d="M57.9426 35.4328H53.5522V39.8186H57.9426V35.4328Z" fill="#E0E0E0"/>
<path d="M68.5338 35.6385H64.1434V40.0243H68.5338V35.6385Z" fill="#E0E0E0"/>
<path d="M79.3309 35.6385H74.9405V40.0243H79.3309V35.6385Z" fill="#E0E0E0"/>
<path d="M90.1389 35.6385H85.7485V40.0243H90.1389V35.6385Z" fill="#E0E0E0"/>
<path d="M100.936 35.6385H96.5457V40.0243H100.936V35.6385Z" fill="#EBEBEB"/>
<path d="M36.1423 44.9516H31.7519V49.3374H36.1423V44.9516Z" fill="#EBEBEB"/>
<path d="M46.9395 44.9516H42.549V49.3374H46.9395V44.9516Z" fill="#E0E0E0"/>
<path d="M57.7366 44.9516H53.3462V49.3374H57.7366V44.9516Z" fill="#EBEBEB"/>
<path d="M68.5338 44.9516H64.1434V49.3374H68.5338V44.9516Z" fill="#E0E0E0"/>
<path d="M79.3309 44.9516H74.9405V49.3374H79.3309V44.9516Z" fill="#E0E0E0"/>
<path d="M90.3341 44.7567H85.9436V49.1425H90.3341V44.7567Z" fill="#E0E0E0"/>
<path d="M100.936 44.9516H96.5457V49.3374H100.936V44.9516Z" fill="#E0E0E0"/>
<path d="M36.1423 54.2646H31.7519V58.6504H36.1423V54.2646Z" fill="#E0E0E0"/>
<path d="M47.1454 54.0697H42.755V58.4555H47.1454V54.0697Z" fill="#E0E0E0"/>
<path d="M57.7366 54.2646H53.3462V58.6504H57.7366V54.2646Z" fill="#E0E0E0"/>
<path d="M68.5338 54.2646H64.1434V58.6504H68.5338V54.2646Z" fill="#EBEBEB"/>
<path d="M79.3309 54.2646H74.9405V58.6504H79.3309V54.2646Z" fill="#E0E0E0"/>
<path d="M90.1389 54.2646H85.7485V58.6504H90.1389V54.2646Z" fill="#E0E0E0"/>
<path d="M100.936 54.2646H96.5457V58.6504H100.936V54.2646Z" fill="#E0E0E0"/>
<path d="M36.1423 63.5885H31.7519V67.9743H36.1423V63.5885Z" fill="#E0E0E0"/>
<path d="M46.9395 63.5885H42.549V67.9743H46.9395V63.5885Z" fill="#E0E0E0"/>
<path d="M57.7366 63.5885H53.3462V67.9743H57.7366V63.5885Z" fill="#E0E0E0"/>
<path d="M68.7397 63.3828H64.3493V67.7685H68.7397V63.3828Z" fill="#E0E0E0"/>
<path d="M79.3309 63.5885H74.9405V67.9743H79.3309V63.5885Z" fill="#E0E0E0"/>
<path d="M90.1389 63.5885H85.7485V67.9743H90.1389V63.5885Z" fill="#EBEBEB"/>
<path d="M100.936 63.5885H96.5457V67.9743H100.936V63.5885Z" fill="#E0E0E0"/>
<path d="M36.1423 72.9015H31.7519V77.2873H36.1423V72.9015Z" fill="#E0E0E0"/>
<path d="M46.9395 72.9015H42.549V77.2873H46.9395V72.9015Z" fill="#EBEBEB"/>
<path d="M57.7366 72.9015H53.3462V77.2873H57.7366V72.9015Z" fill="#E0E0E0"/>
<path d="M68.5338 72.9015H64.1434V77.2873H68.5338V72.9015Z" fill="#E0E0E0"/>
<path d="M79.3309 72.9015H74.9405V77.2873H79.3309V72.9015Z" fill="#E0E0E0"/>
<path d="M90.3341 72.7066H85.9436V77.0924H90.3341V72.7066Z" fill="#E0E0E0"/>
<path d="M100.936 72.9015H96.5457V77.2873H100.936V72.9015Z" fill="#E0E0E0"/>
<path d="M628.761 2.17664H555.002V75.8579H628.761V2.17664Z" fill="white"/>
<path d="M628.729 75.8578C628.729 75.8578 628.729 75.7279 628.729 75.5005C628.729 75.2731 628.729 74.9157 628.729 74.4176C628.729 73.5079 628.729 72.176 628.729 70.4541C628.729 66.9672 628.729 61.8991 628.664 55.4558C628.664 42.5584 628.588 24.1705 628.544 2.11166L628.783 2.36073H555.067L555.349 2.07917C555.349 29.0653 555.349 54.3512 555.349 75.7712L555.111 75.5222L608.5 75.6521L623.514 75.7171H627.493H628.512H628.87H627.547H623.623L608.663 75.782L555.111 75.9012H554.861V75.6629C554.861 54.243 554.861 28.957 554.861 2.02503V1.74347H555.013H628.729H628.978V1.98171C628.978 24.1056 628.88 42.5475 628.848 55.4775C628.848 61.8991 628.848 66.9563 628.783 70.4216C628.783 72.1326 628.783 73.443 628.783 74.3418C628.783 74.7749 628.783 75.0998 628.783 75.3381C628.783 75.5763 628.729 75.8578 628.729 75.8578Z" fill="#E0E0E0"/>
<path d="M628.447 21.0301C628.447 21.1817 612.002 21.3117 591.719 21.3117C571.436 21.3117 555.013 21.1817 555.013 21.0301C555.013 20.8785 571.436 20.7594 591.719 20.7594C612.002 20.7594 628.447 20.8785 628.447 21.0301Z" fill="#E0E0E0"/>
<path d="M562.179 13.3089C563.334 13.3089 564.271 12.3732 564.271 11.2189C564.271 10.0646 563.334 9.12891 562.179 9.12891C561.023 9.12891 560.086 10.0646 560.086 11.2189C560.086 12.3732 561.023 13.3089 562.179 13.3089Z" fill="#E0E0E0"/>
<path d="M568.553 13.3089C569.708 13.3089 570.645 12.3732 570.645 11.2189C570.645 10.0646 569.708 9.12891 568.553 9.12891C567.397 9.12891 566.461 10.0646 566.461 11.2189C566.461 12.3732 567.397 13.3089 568.553 13.3089Z" fill="#E0E0E0"/>
<path d="M577.019 11.219C577.019 11.6328 576.896 12.0373 576.666 12.3812C576.435 12.7252 576.108 12.993 575.725 13.1509C575.342 13.3088 574.921 13.3495 574.515 13.268C574.109 13.1865 573.736 12.9863 573.444 12.6929C573.152 12.3996 572.953 12.0261 572.874 11.62C572.794 11.2139 572.837 10.7933 572.997 10.4116C573.157 10.0299 573.427 9.70424 573.773 9.47589C574.118 9.24754 574.524 9.12679 574.938 9.12893C575.212 9.12893 575.484 9.18307 575.737 9.28823C575.99 9.3934 576.22 9.54752 576.413 9.74174C576.607 9.93596 576.76 10.1664 576.864 10.42C576.968 10.6735 577.021 10.945 577.019 11.219Z" fill="#E0E0E0"/>
<path d="M569.94 42.6992C573.251 42.6992 575.935 40.018 575.935 36.7107C575.935 33.4033 573.251 30.7222 569.94 30.7222C566.63 30.7222 563.946 33.4033 563.946 36.7107C563.946 40.018 566.63 42.6992 569.94 42.6992Z" fill="#EBEBEB"/>
<path d="M575.935 58.6612C575.935 59.8456 575.584 61.0034 574.925 61.9883C574.266 62.9731 573.33 63.7406 572.234 64.1939C571.139 64.6471 569.934 64.7657 568.771 64.5347C567.608 64.3036 566.54 63.7332 565.701 62.8957C564.863 62.0582 564.292 60.9912 564.061 59.8295C563.829 58.6679 563.948 57.4638 564.402 56.3695C564.856 55.2753 565.624 54.34 566.61 53.682C567.596 53.0239 568.755 52.6727 569.94 52.6727C571.53 52.6727 573.055 53.3037 574.179 54.4267C575.304 55.5498 575.935 57.073 575.935 58.6612Z" fill="#EBEBEB"/>
<path d="M617.747 36.2234C617.747 36.375 609.552 36.5049 599.437 36.5049C589.323 36.5049 581.128 36.375 581.128 36.2234C581.128 36.0718 589.323 35.9202 599.459 35.9202C609.595 35.9202 617.747 36.0609 617.747 36.2234Z" fill="#E0E0E0"/>
<path d="M594.321 58.5855C589.993 58.9602 585.64 58.9602 581.312 58.5855C585.64 58.2107 589.993 58.2107 594.321 58.5855Z" fill="#E0E0E0"/>
<path d="M617.758 87.0552C630.6 87.0552 641.011 76.6555 641.011 63.8267C641.011 50.998 630.6 40.5983 617.758 40.5983C604.916 40.5983 594.505 50.998 594.505 63.8267C594.505 76.6555 604.916 87.0552 617.758 87.0552Z" fill="#E0E0E0"/>
<path d="M619.937 55.0118H617.769V72.2518H619.937V55.0118Z" fill="white"/>
<path d="M627.482 62.5598H610.224V64.7256H627.482V62.5598Z" fill="white"/>
<path d="M44.0907 259.075C55.9172 254.075 61.4468 240.444 56.4414 228.63C51.4359 216.816 37.7908 211.292 25.9642 216.292C14.1376 221.292 8.60802 234.923 13.6135 246.737C18.619 258.551 32.2641 264.075 44.0907 259.075Z" fill="#E0E0E0"/>
<path d="M37.2155 228.873H35.0474V246.113H37.2155V228.873Z" fill="white"/>
<path d="M44.7605 236.41H27.5024V238.576H44.7605V236.41Z" fill="white"/>
<path d="M372.242 340.792H214.317V413.542H372.242V340.792Z" fill="#F5F5F5"/>
<path d="M368.469 410.12H217.927V344.615H368.469V410.12ZM218.87 409.134H367.472V345.633H218.957L218.87 409.134Z" fill="#E0E0E0"/>
<path d="M410.812 340.792H372.231V413.542H410.812V340.792Z" fill="#E0E0E0"/>
<path d="M218.415 364.887H368.014C368.066 364.887 368.115 364.866 368.152 364.83C368.189 364.793 368.209 364.743 368.209 364.692C368.209 364.64 368.189 364.59 368.152 364.554C368.115 364.517 368.066 364.497 368.014 364.497H218.415C218.363 364.497 218.313 364.517 218.277 364.554C218.24 364.59 218.22 364.64 218.22 364.692C218.22 364.743 218.24 364.793 218.277 364.83C218.313 364.866 218.363 364.887 218.415 364.887Z" fill="#E0E0E0"/>
<path d="M293.691 364.692C294.105 358.111 294.123 351.512 293.746 344.929C293.746 344.874 293.724 344.822 293.685 344.783C293.647 344.745 293.594 344.723 293.54 344.723C293.485 344.723 293.433 344.745 293.394 344.783C293.355 344.822 293.334 344.874 293.334 344.929C292.956 351.512 292.974 358.111 293.388 364.692C293.388 364.732 293.404 364.771 293.432 364.799C293.461 364.827 293.499 364.843 293.54 364.843C293.58 364.843 293.618 364.827 293.647 364.799C293.675 364.771 293.691 364.732 293.691 364.692Z" fill="#E0E0E0"/>
<path d="M333.942 354.805C333.942 355.208 333.822 355.602 333.598 355.937C333.374 356.272 333.055 356.533 332.682 356.687C332.309 356.84 331.898 356.88 331.503 356.801C331.107 356.721 330.744 356.526 330.459 356.24C330.175 355.955 329.981 355.591 329.904 355.195C329.827 354.8 329.869 354.39 330.024 354.018C330.18 353.646 330.443 353.329 330.78 353.107C331.116 352.884 331.512 352.767 331.915 352.769C332.454 352.772 332.969 352.988 333.349 353.369C333.729 353.75 333.942 354.267 333.942 354.805Z" fill="#E0E0E0"/>
<path d="M255.457 354.805C255.457 355.207 255.337 355.601 255.113 355.936C254.889 356.271 254.571 356.532 254.199 356.686C253.826 356.84 253.417 356.88 253.021 356.802C252.626 356.723 252.263 356.529 251.978 356.244C251.693 355.96 251.499 355.597 251.42 355.202C251.341 354.807 251.382 354.398 251.536 354.026C251.69 353.654 251.951 353.336 252.287 353.112C252.622 352.888 253.016 352.769 253.419 352.769C253.959 352.769 254.478 352.983 254.86 353.365C255.242 353.747 255.457 354.265 255.457 354.805Z" fill="#E0E0E0"/>
<path d="M295.242 377.373C295.242 377.775 295.122 378.169 294.898 378.504C294.674 378.838 294.356 379.099 293.983 379.253C293.611 379.408 293.201 379.448 292.806 379.369C292.411 379.291 292.048 379.097 291.762 378.812C291.477 378.527 291.283 378.165 291.205 377.77C291.126 377.375 291.166 376.965 291.321 376.593C291.475 376.221 291.736 375.903 292.071 375.68C292.406 375.456 292.8 375.337 293.204 375.337C293.744 375.337 294.262 375.551 294.645 375.933C295.027 376.315 295.242 376.833 295.242 377.373Z" fill="#E0E0E0"/>
<path d="M233.19 413.542L225.06 459.219H229.635L244.627 413.542H233.19Z" fill="#E0E0E0"/>
<path d="M361.065 413.542L367.862 459.306H363.288L349.628 413.542H361.065Z" fill="#E0E0E0"/>
<path d="M391.592 413.542L399.289 459.306H394.725L380.155 413.542H391.592Z" fill="#E0E0E0"/>
<path d="M295.101 397.959C295.101 398.361 294.981 398.755 294.757 399.09C294.533 399.425 294.215 399.686 293.843 399.84C293.47 399.994 293.06 400.034 292.665 399.955C292.27 399.877 291.907 399.683 291.622 399.398C291.337 399.114 291.142 398.751 291.064 398.356C290.985 397.961 291.026 397.552 291.18 397.18C291.334 396.808 291.595 396.49 291.93 396.266C292.266 396.042 292.66 395.923 293.063 395.923C293.603 395.923 294.122 396.137 294.504 396.519C294.886 396.901 295.101 397.419 295.101 397.959Z" fill="#E0E0E0"/>
<path d="M218.415 387.422H368.014C368.059 387.411 368.1 387.386 368.128 387.35C368.157 387.313 368.173 387.268 368.173 387.222C368.173 387.175 368.157 387.13 368.128 387.094C368.1 387.057 368.059 387.032 368.014 387.021H218.415C218.37 387.032 218.329 387.057 218.3 387.094C218.271 387.13 218.256 387.175 218.256 387.222C218.256 387.268 218.271 387.313 218.3 387.35C218.329 387.386 218.37 387.411 218.415 387.422Z" fill="#E0E0E0"/>
<path d="M641 459.425C641 459.63 498.848 459.804 323.524 459.804C148.201 459.804 6.01649 459.63 6.01649 459.425C6.01649 459.219 148.147 459.046 323.524 459.046C498.902 459.046 641 459.219 641 459.425Z" fill="#263238"/>
<path d="M521.104 37.7936H73.1085V323.92H521.104V37.7936Z" fill="white"/>
<path d="M521.104 212.001H73.1085V260.342H521.104V212.001Z" fill="white"/>
<path d="M521.104 156.686H73.1085V212.001H521.104V156.686Z" fill="#F9F8FB"/>
<path d="M521.104 268.237H73.1085V323.552H521.104V268.237Z" fill="#F9F8FB"/>
<path d="M269.398 173.905C269.398 174.067 231.055 174.197 183.758 174.197C136.46 174.197 98.1176 174.067 98.1176 173.905C98.1176 173.742 136.45 173.623 183.758 173.623C231.066 173.623 269.398 173.753 269.398 173.905Z" fill="#2D248A"/>
<path d="M170.435 189.304C170.435 189.455 154.174 189.585 134.043 189.585C113.912 189.585 97.6514 189.455 97.6514 189.304C97.6514 189.152 113.912 189.022 134.043 189.022C154.174 189.022 170.435 189.152 170.435 189.304Z" fill="#2D248A"/>
<path d="M269.398 228.472C269.398 228.624 231.055 228.754 183.758 228.754C136.46 228.754 98.1176 228.624 98.1176 228.472C98.1176 228.321 136.45 228.191 183.758 228.191C231.066 228.191 269.398 228.31 269.398 228.472Z" fill="#2D248A"/>
<path d="M170.435 243.839C170.435 244.001 154.174 244.121 134.043 244.121C113.912 244.121 97.6514 244.001 97.6514 243.839C97.6514 243.677 113.912 243.557 134.043 243.557C154.174 243.557 170.435 243.709 170.435 243.839Z" fill="#2D248A"/>
<path d="M269.398 283.029C269.398 283.181 231.055 283.311 183.758 283.311C136.46 283.311 98.1176 283.181 98.1176 283.029C98.1176 282.878 136.45 282.748 183.758 282.748C231.066 282.748 269.398 282.824 269.398 283.029Z" fill="#2D248A"/>
<path d="M170.435 298.418C170.435 298.58 154.174 298.699 134.043 298.699C113.912 298.699 97.6514 298.58 97.6514 298.418C97.6514 298.255 113.912 298.136 134.043 298.136C154.174 298.136 170.435 298.266 170.435 298.418Z" fill="#2D248A"/>
<path d="M521.104 37.4254H73.1085V64.7256H521.104V37.4254Z" fill="#614AD3"/>
<path d="M521 62H73V93H521V62Z" fill="#F9F8FB"/>
<path d="M92.6756 50.2145C92.6692 50.8925 92.4619 51.5534 92.08 52.1139C91.698 52.6744 91.1584 53.1093 90.5293 53.3638C89.9002 53.6183 89.2098 53.681 88.545 53.5441C87.8803 53.4071 87.2711 53.0765 86.7942 52.5941C86.3172 52.1117 85.994 51.4989 85.8653 50.8332C85.7365 50.1675 85.808 49.4786 86.0707 48.8535C86.3334 48.2283 86.7755 47.6948 87.3413 47.3203C87.9071 46.9458 88.5713 46.7471 89.25 46.7492C89.7035 46.7492 90.1526 46.8391 90.571 47.0138C90.9895 47.1885 91.3691 47.4444 91.6877 47.7668C92.0064 48.0891 92.2578 48.4715 92.4274 48.8917C92.597 49.3119 92.6814 49.7615 92.6756 50.2145Z" fill="#F5F5F5"/>
<path d="M105.272 50.2145C105.266 50.8939 105.058 51.5561 104.674 52.1172C104.291 52.6783 103.749 53.1132 103.118 53.3667C102.487 53.6202 101.795 53.681 101.13 53.5413C100.464 53.4017 99.8549 53.0679 99.3794 52.5822C98.9038 52.0965 98.5832 51.4808 98.4581 50.8129C98.3331 50.1451 98.4092 49.4553 98.6769 48.8307C98.9446 48.2062 99.3917 47.675 99.9618 47.3045C100.532 46.9339 101.199 46.7407 101.879 46.7492C102.789 46.7607 103.657 47.1318 104.293 47.7814C104.929 48.431 105.281 49.3059 105.272 50.2145Z" fill="#F5F5F5"/>
<path d="M117.858 50.2146C117.852 50.8921 117.645 51.5526 117.263 52.1128C116.882 52.6731 116.343 53.108 115.714 53.3628C115.086 53.6177 114.396 53.6811 113.732 53.545C113.067 53.4089 112.458 53.0794 111.981 52.598C111.503 52.1167 111.179 51.505 111.049 50.8399C110.919 50.1749 110.989 49.4864 111.25 48.861C111.511 48.2356 111.952 47.7014 112.516 47.3256C113.08 46.9498 113.743 46.7493 114.422 46.7493C114.876 46.7492 115.325 46.8391 115.744 47.0136C116.163 47.1882 116.544 47.444 116.863 47.7662C117.183 48.0884 117.435 48.4707 117.606 48.8909C117.777 49.3112 117.862 49.761 117.858 50.2146Z" fill="#F5F5F5"/>
<path d="M521.18 323.974C521.18 322.155 521.093 212.435 520.963 37.4796L521.18 37.6961L73.4662 37.7611L73.7481 37.4796C73.6939 139.122 73.6939 235.977 73.6939 323.974L73.4337 323.714L521.223 323.974L73.4337 324.234H73.1735V323.974C73.1735 236.031 73.1735 139.176 73.1735 37.4796V37.198H73.4879L521.201 37.2521H521.407V37.4796C521.266 212.435 521.18 322.101 521.18 323.974Z" fill="#263238"/>
<path d="M369.651 177.879H322.159C316.86 177.879 312.565 182.17 312.565 187.463V187.473C312.565 192.766 316.86 197.057 322.159 197.057H369.651C374.949 197.057 379.245 192.766 379.245 187.473V187.463C379.245 182.17 374.949 177.879 369.651 177.879Z" fill="#D5D3E8"/>
<path d="M369.64 252.426H322.159C320.899 252.426 319.651 252.178 318.487 251.697C317.323 251.215 316.266 250.509 315.375 249.619C314.484 248.729 313.777 247.673 313.295 246.51C312.813 245.347 312.565 244.101 312.565 242.843C312.565 240.301 313.576 237.863 315.375 236.066C317.174 234.269 319.614 233.259 322.159 233.259H369.64C370.9 233.259 372.148 233.507 373.312 233.988C374.476 234.47 375.533 235.176 376.424 236.066C377.315 236.956 378.022 238.012 378.504 239.175C378.986 240.338 379.234 241.584 379.234 242.843C379.234 244.101 378.986 245.347 378.504 246.51C378.022 247.673 377.315 248.729 376.424 249.619C375.533 250.509 374.476 251.215 373.312 251.697C372.148 252.178 370.9 252.426 369.64 252.426Z" fill="#D5D3E8"/>
<path d="M369.651 287.513H322.159C316.86 287.513 312.565 291.803 312.565 297.096V297.107C312.565 302.4 316.86 306.691 322.159 306.691H369.651C374.949 306.691 379.245 302.4 379.245 297.107V297.096C379.245 291.803 374.949 287.513 369.651 287.513Z" fill="#D5D3E8"/>
<path d="M108.286 117.474V126.43H106.346V117.474H108.286Z" fill="#263238"/>
<path d="M111.636 123.809C111.842 124.708 112.481 125.098 113.522 125.098C114.563 125.098 114.996 124.697 114.996 124.015C114.996 123.333 114.563 122.932 113.034 122.618C110.595 122.044 109.988 121.156 109.988 119.943C109.988 118.384 111.159 117.323 113.24 117.323C115.614 117.323 116.568 118.6 116.698 119.911H114.736C114.649 119.358 114.346 118.763 113.186 118.763C112.395 118.763 111.928 119.088 111.928 119.727C111.928 120.365 112.308 120.604 113.75 120.939C116.362 121.546 116.937 122.52 116.937 123.777C116.937 125.412 115.69 126.538 113.327 126.538C110.964 126.538 109.847 125.455 109.63 123.787L111.636 123.809Z" fill="#263238"/>
<path d="M118.454 117.474H122.162C124.07 117.474 125.36 118.557 125.36 120.246C125.36 122.196 123.885 123.084 122.108 123.084H120.384V126.43H118.444L118.454 117.474ZM120.395 121.546H121.869C122.769 121.546 123.409 121.199 123.409 120.29C123.409 119.38 122.736 119.023 121.913 119.023H120.395V121.546Z" fill="#263238"/>
<path d="M130.065 126.43V117.474H132.471C133.555 119.488 135.658 123.116 136.07 124.091C135.973 123.159 135.973 121.6 135.973 120.127V117.474H137.729V126.43H135.485C134.52 124.686 132.233 120.517 131.777 119.478C131.842 120.268 131.864 122.109 131.864 123.712V126.43H130.065Z" fill="#263238"/>
<path d="M144.992 124.719C144.988 125.298 145.021 125.877 145.09 126.451H143.301C143.248 126.235 143.219 126.014 143.214 125.791C143.003 126.088 142.715 126.322 142.381 126.467C142.046 126.612 141.678 126.663 141.317 126.614C141.023 126.645 140.725 126.613 140.444 126.52C140.163 126.427 139.905 126.276 139.687 126.077C139.469 125.877 139.296 125.634 139.179 125.362C139.061 125.091 139.003 124.798 139.008 124.502C139.008 122.964 140.244 122.261 142.26 122.261H143.225V121.849C143.225 121.373 143.052 120.907 142.141 120.907C141.23 120.907 141.187 121.243 141.057 121.73H139.279C139.387 120.528 140.125 119.564 142.173 119.564C143.973 119.564 144.949 120.279 144.949 121.882L144.992 124.719ZM143.182 123.398H142.423C141.339 123.398 140.883 123.733 140.883 124.383C140.876 124.509 140.896 124.634 140.943 124.751C140.99 124.868 141.062 124.973 141.154 125.059C141.246 125.145 141.356 125.209 141.476 125.248C141.596 125.286 141.723 125.298 141.848 125.282C143.03 125.282 143.182 124.459 143.182 123.571V123.398Z" fill="#263238"/>
<path d="M146.683 121.47C146.683 120.896 146.683 120.322 146.683 119.737H148.493C148.534 120.003 148.559 120.27 148.569 120.539C148.771 120.229 149.05 119.978 149.379 119.811C149.708 119.644 150.076 119.566 150.445 119.586C150.803 119.561 151.16 119.644 151.47 119.826C151.78 120.008 152.027 120.279 152.179 120.604C152.407 120.27 152.717 120.001 153.08 119.822C153.443 119.644 153.846 119.562 154.25 119.586C155.421 119.586 156.418 120.301 156.418 122.055V126.462H154.597V122.282C154.597 121.676 154.38 121.08 153.61 121.08C152.841 121.08 152.526 121.589 152.526 122.618V126.462H150.662V122.347C150.662 121.654 150.488 121.091 149.697 121.091C148.905 121.091 148.613 121.557 148.613 122.705V126.462H146.77L146.683 121.47Z" fill="#263238"/>
<path d="M159.497 123.473C159.497 124.307 159.919 125.13 160.852 125.13C161.099 125.164 161.351 125.112 161.565 124.982C161.778 124.851 161.94 124.651 162.022 124.416H163.887C163.707 125.081 163.299 125.661 162.735 126.057C162.17 126.453 161.485 126.638 160.797 126.581C160.355 126.595 159.915 126.513 159.507 126.342C159.099 126.172 158.732 125.916 158.431 125.591C158.13 125.267 157.902 124.883 157.762 124.463C157.623 124.044 157.575 123.599 157.621 123.159C157.621 121.048 158.705 119.542 160.873 119.542C163.193 119.542 163.974 121.21 163.974 122.889C163.985 123.08 163.985 123.271 163.974 123.463L159.497 123.473ZM162.098 122.326C162.098 121.546 161.773 120.885 160.863 120.885C159.952 120.885 159.616 121.503 159.54 122.326H162.098Z" fill="#263238"/>
<path d="M478.284 106H377.825C374.37 106 371.57 108.797 371.57 112.248V129.976C371.57 133.427 374.37 136.224 377.825 136.224H478.284C481.738 136.224 484.539 133.427 484.539 129.976V112.248C484.539 108.797 481.738 106 478.284 106Z" fill="#614AD3"/>
<path d="M388.958 119.889H378.8V121.069H388.958V119.889Z" fill="white"/>
<path d="M384.47 115.406H383.288V125.553H384.47V115.406Z" fill="white"/>
<path d="M65.0214 380.459C56.349 383.502 44.9231 380.784 37.4648 375.337C30.0066 369.89 24.6405 362.104 19.8924 354.198C17.8543 350.82 15.8814 347.311 15.2309 343.369C14.5805 339.427 15.5345 335.117 18.5481 332.54C23.2421 328.598 30.4727 330.591 35.7412 333.623C44.0462 338.461 51.0496 345.243 56.1484 353.385C61.2472 361.527 64.2886 370.785 65.0106 380.361" fill="#614AD3"/>
<path d="M55.6443 401.305C50.4084 408.203 41.4107 411.279 32.76 411.679C24.1093 412.08 15.5453 409.687 7.44739 406.579C4.5096 405.496 1.30081 403.915 0.292643 400.937C-0.025079 399.786 -0.0507146 398.575 0.218058 397.412C0.486831 396.249 1.04153 395.172 1.83199 394.277C3.43417 392.505 5.4377 391.142 7.67504 390.303C15.632 386.913 24.7597 386.751 33.1394 388.927C41.5191 391.104 48.8473 395.945 55.6443 401.305Z" fill="#614AD3"/>
<path d="M65.1298 343.142C57.9209 343.293 52.4573 336.98 49.1834 330.548C44.6372 321.561 43.1164 311.348 44.8472 301.428C45.5085 297.735 46.8961 293.772 50.2025 291.996C53.5088 290.22 57.9209 291.379 60.7286 293.945C63.5363 296.512 65.0648 300.172 66.1489 303.8C70.0298 316.329 69.195 330.721 65.0648 343.142" fill="#614AD3"/>
<path d="M88.8706 383.025C76.5666 362.104 74.5177 336.46 81.7809 313.351C82.9625 309.604 85.1848 305.305 89.1199 305.056C93.4561 304.774 96.2096 309.626 97.4129 313.817C101.63 328.523 100.73 344.138 99.7978 359.396C99.2233 368.807 95.9928 376.842 88.8706 383.025Z" fill="#614AD3"/>
<path d="M101.641 391.624C103.929 384.455 107.8 377.891 112.967 372.416C118.134 366.941 124.466 362.696 131.496 359.992C134.748 358.768 138.921 358.064 141.35 360.566C143.778 363.067 143.008 367.063 141.48 370.171C138.997 375.109 134.975 379.073 130.964 382.885C127.322 386.35 123.539 389.826 118.931 391.84C114.324 393.854 105.847 394.374 101.641 391.624Z" fill="#614AD3"/>
<path d="M25.3451 337.879C25.4083 337.953 25.4812 338.019 25.5619 338.074L26.2232 338.583L28.8033 340.51L30.6787 341.896C31.3508 342.416 32.0554 342.979 32.8468 343.64C34.3644 344.907 36.164 346.282 37.9743 347.972L40.8796 350.614C41.8769 351.534 42.8526 352.574 43.8933 353.603C46.0072 355.639 48.056 358.01 50.2675 360.458C54.9081 365.92 59.147 371.711 62.9509 377.784C66.674 383.898 69.9526 390.271 72.7616 396.854C73.9649 399.919 75.179 402.81 76.0137 405.615C76.469 407.012 76.9677 408.333 77.3471 409.643L78.4312 413.412C79.1575 415.805 79.5803 418.025 80.0356 419.909C80.2524 420.873 80.48 421.772 80.6426 422.606C80.8052 423.44 80.9245 424.208 81.0437 424.891C81.2822 426.233 81.4774 427.295 81.6183 428.064L81.7809 428.887C81.7877 428.981 81.8135 429.073 81.8568 429.157C81.869 429.064 81.869 428.969 81.8568 428.876C81.8568 428.659 81.7917 428.378 81.7484 428.042C81.64 427.273 81.4882 426.201 81.2822 424.858C81.1847 424.165 81.0654 423.396 80.9353 422.552C80.8052 421.707 80.5776 420.819 80.3825 419.844C79.9488 417.906 79.5586 415.664 78.854 413.271C78.5179 412.058 78.1818 410.791 77.7699 409.47C77.358 408.149 76.9135 406.817 76.4582 405.42C75.6018 402.604 74.4093 399.691 73.206 396.605C70.4361 389.982 67.1749 383.575 63.4496 377.438C59.6296 371.35 55.3572 365.559 50.6686 360.111C48.5005 357.664 46.3324 355.292 44.2293 353.267C43.1453 352.238 42.2021 351.199 41.1831 350.289L38.2454 347.668C36.4133 345.968 34.5921 344.615 33.0419 343.337C32.2614 342.73 31.5459 342.135 30.8738 341.626L28.9659 340.283L26.3208 338.442L25.627 337.976C25.4319 337.922 25.356 337.868 25.3451 337.879Z" fill="#263238"/>
<path d="M9.05184 395.869C9.33815 395.854 9.62185 395.807 9.8974 395.728C10.4503 395.631 11.2416 395.425 12.2932 395.252C15.2361 394.694 18.213 394.332 21.2041 394.169C31.0909 393.612 40.9772 395.273 50.1374 399.031C59.2651 402.871 67.4147 408.707 73.9866 416.108C75.9757 418.346 77.8153 420.712 79.4935 423.191C80.1006 424.057 80.5125 424.772 80.8378 425.226C80.987 425.47 81.1498 425.705 81.3256 425.93C81.2208 425.665 81.09 425.412 80.9353 425.172C80.6426 424.685 80.2632 423.949 79.6778 423.061C78.0507 420.524 76.2391 418.109 74.2576 415.838C67.7425 408.272 59.5452 402.334 50.3215 398.5C41.0978 394.666 31.1037 393.042 21.139 393.757C18.1375 393.962 15.1554 394.389 12.2173 395.035C11.1332 395.241 10.3852 395.49 9.83235 395.631C9.27949 395.771 9.05184 395.858 9.05184 395.869Z" fill="#263238"/>
<path d="M54.4953 300.345C54.4828 300.453 54.4828 300.562 54.4953 300.67L54.6904 301.612C54.8747 302.479 55.1457 303.681 55.4926 305.218C56.2081 308.337 57.2813 312.853 58.6472 318.419C61.3574 329.551 65.2925 344.885 69.401 361.876C71.439 370.388 73.2819 378.51 74.8213 385.906C76.3606 393.302 77.7157 399.984 78.7022 405.658C79.2334 408.463 79.6345 411.073 80.0139 413.239C80.3933 415.404 80.6968 417.419 80.9245 419C81.1521 420.581 81.3581 421.772 81.499 422.649C81.5641 423.039 81.6183 423.353 81.6616 423.591C81.6689 423.703 81.6945 423.813 81.7375 423.916C81.7496 423.808 81.7496 423.699 81.7375 423.591C81.7375 423.342 81.6725 423.028 81.6291 422.627L81.2822 419C81.0871 417.408 80.8161 415.469 80.4583 413.217C80.1006 410.965 79.7429 408.409 79.2334 405.582C78.3011 399.93 77.0653 393.226 75.4717 385.798C73.8782 378.369 72.0786 370.258 70.0514 361.746C65.9429 344.745 61.9427 329.432 59.1242 318.322C57.7258 312.799 56.5984 308.305 55.7962 305.164C55.4167 303.637 55.1024 302.446 54.8856 301.591C54.788 301.201 54.7013 300.898 54.6362 300.659C54.5995 300.55 54.5523 300.445 54.4953 300.345Z" fill="#263238"/>
<path d="M82.7565 422.259C82.7901 422.179 82.8155 422.095 82.8324 422.01C82.8324 421.804 82.93 421.555 83.0059 421.252C83.1468 420.548 83.3528 419.574 83.6129 418.339C84.1333 415.816 84.8162 412.145 85.6076 407.586C87.1903 398.489 89.0549 385.841 90.204 371.785C90.7677 364.757 91.0712 358.043 91.2122 351.935C91.3531 345.827 91.2121 340.315 91.0712 335.691C91.0712 333.385 90.8544 331.295 90.7568 329.465C90.6593 327.635 90.54 326.053 90.4208 324.765C90.3015 323.476 90.2148 322.534 90.1389 321.808C90.1389 321.494 90.1389 321.245 90.0522 321.04C90.0636 320.953 90.0636 320.866 90.0522 320.78C90.0402 320.866 90.0402 320.953 90.0522 321.04C90.0522 321.256 90.0522 321.505 90.0522 321.819C90.0522 322.545 90.1389 323.53 90.2148 324.786C90.2907 326.043 90.3883 327.645 90.4533 329.486C90.5184 331.327 90.6484 333.396 90.681 335.702C90.8219 340.315 90.8327 345.817 90.681 351.946C90.5292 358.075 90.1823 364.746 89.5969 371.763C88.4478 385.841 86.6483 398.435 85.174 407.499C84.4368 412.058 83.8081 415.74 83.3528 418.328C83.1468 419.563 82.9733 420.494 82.8541 421.252C82.8541 421.566 82.7674 421.815 82.7349 422.021C82.7277 422.101 82.7351 422.182 82.7565 422.259Z" fill="#263238"/>
<path d="M81.8459 424.923C81.9686 424.689 82.0737 424.447 82.1603 424.198L82.9733 422.097L83.5479 420.57C83.7972 420.028 84.0574 419.433 84.3393 418.805C84.6211 418.177 84.9246 417.494 85.239 416.769C85.5534 416.043 85.9762 415.329 86.3231 414.549L87.5806 412.101L89.0766 409.535C90.0631 407.737 91.3422 405.94 92.5672 403.991C95.447 399.888 98.5559 395.951 101.879 392.198C105.24 388.474 108.789 384.924 112.514 381.563C114.292 380.069 115.907 378.585 117.544 377.329L119.874 375.477L122.043 373.853C123.43 372.77 124.753 371.904 125.902 371.135C127.051 370.366 128.07 369.684 128.883 369.186L130.791 367.973C131.023 367.844 131.241 367.692 131.441 367.518C131.195 367.613 130.959 367.733 130.737 367.875L128.775 368.958C127.907 369.435 126.888 370.041 125.728 370.832C124.568 371.622 123.213 372.445 121.804 373.485L119.56 375.088L117.197 376.929C115.549 378.163 113.945 379.647 112.124 381.13C108.36 384.482 104.781 388.036 101.402 391.775C98.0754 395.556 94.9802 399.534 92.1336 403.687C90.8978 405.658 89.6294 407.467 88.6538 409.297L87.1795 411.896L85.9545 414.365C85.5751 415.155 85.174 415.892 84.8704 416.617C84.5669 417.343 84.2742 418.036 84.0032 418.675C83.7322 419.314 83.4829 419.92 83.2552 420.472C83.0276 421.025 82.8758 421.555 82.7132 422.021C82.4205 422.898 82.1928 423.613 82.0085 424.187C81.9296 424.426 81.8751 424.673 81.8459 424.923Z" fill="#263238"/>
<path d="M29.909 362.147C29.909 362.233 31.405 362.233 33.8007 362.374C36.9174 362.537 40.0205 362.899 43.0911 363.457C46.1556 364.051 49.179 364.839 52.1429 365.818C53.3539 366.284 54.5877 366.689 55.8395 367.031C55.5588 366.82 55.2482 366.652 54.9181 366.533C54.311 366.24 53.4112 365.861 52.273 365.45C49.3239 364.366 46.2886 363.533 43.1995 362.959C40.1035 362.37 36.9627 362.048 33.8116 361.995C32.6083 361.995 31.6435 361.995 30.9497 362.049C30.5998 362.029 30.2489 362.061 29.909 362.147Z" fill="#263238"/>
<path d="M20.6295 407.434C21.9767 404.673 23.6786 402.099 25.692 399.778C29.1393 396.02 33.0419 394.364 32.9335 394.169C32.0532 394.404 31.2128 394.769 30.4402 395.251C28.522 396.36 26.7793 397.747 25.2693 399.367C23.7642 400.974 22.5106 402.8 21.551 404.781C21.0955 405.607 20.7839 406.504 20.6295 407.434Z" fill="#263238"/>
<path d="M52.2838 317.336C52.1646 317.455 54.4519 319.697 56.9019 322.751C59.3519 325.804 61.1297 328.447 61.2381 328.36C60.2246 326.189 58.9029 324.176 57.3138 322.382C55.8892 320.467 54.195 318.767 52.2838 317.336Z" fill="#263238"/>
<path d="M59.7204 304.482C58.7759 307.671 58.2154 310.961 58.051 314.282C58.5919 312.71 58.9555 311.083 59.135 309.431C59.5191 307.809 59.7155 306.149 59.7204 304.482Z" fill="#263238"/>
<path d="M82.7349 344.755C83.7629 347.36 84.9653 349.892 86.3339 352.336C87.5387 354.86 88.915 357.298 90.4533 359.635C89.4283 357.029 88.2258 354.496 86.8543 352.054C85.6495 349.53 84.2732 347.092 82.7349 344.755Z" fill="#263238"/>
<path d="M96.459 331.089C95.2762 332.819 94.253 334.653 93.4019 336.569C92.3829 338.395 91.5372 340.313 90.8761 342.297C92.0591 340.573 93.0789 338.742 93.9223 336.828C94.9453 334.999 95.7946 333.077 96.459 331.089Z" fill="#263238"/>
<path d="M116.568 377.817C116.568 377.979 119.051 377.513 122.097 377.297C125.143 377.08 127.636 377.199 127.647 377.037C125.82 376.599 123.929 376.493 122.064 376.723C120.183 376.767 118.323 377.137 116.568 377.817Z" fill="#263238"/>
<path d="M102.822 419.13L95.9711 455.115C95.7515 456.269 95.1353 457.311 94.2289 458.06C93.3225 458.81 92.1827 459.219 91.0062 459.219H70.7778C69.5819 459.22 68.4245 458.797 67.5114 458.026C66.5983 457.255 65.9887 456.185 65.7911 455.006L59.8397 419.13H102.822Z" fill="#263238"/>
<path d="M100.6 430.825H61.8885L59.8397 419.13H102.822L100.6 430.825Z" fill="#455A64"/>
<path d="M100.6 430.825L99.787 435.092H62.4848L61.8885 430.825H100.6Z" fill="#FAFAFA"/>
<path d="M538.427 426.656L539.283 447.621C539.283 447.621 518.231 455.537 518.014 459.425L558.775 459.23V426.504L538.427 426.656Z" fill="#263238"/>
<path d="M551.88 445.802C552.273 445.92 552.608 446.179 552.822 446.528C553.036 446.878 553.113 447.294 553.04 447.697C552.935 448.091 552.684 448.43 552.337 448.645C551.991 448.86 551.576 448.935 551.175 448.856C550.76 448.732 550.404 448.459 550.178 448.089C549.952 447.719 549.871 447.278 549.951 446.852C550.098 446.447 550.398 446.116 550.787 445.929C551.177 445.743 551.623 445.717 552.032 445.856" fill="#E0E0E0"/>
<path d="M558.775 459.23L558.645 455.981L519.619 457.4C519.619 457.4 517.808 458.201 518.014 459.479L558.775 459.23Z" fill="#455A64"/>
<path d="M538.622 447.426C538.622 447.621 539.63 447.708 540.606 448.336C541.582 448.964 542.113 449.809 542.297 449.733C542.481 449.657 542.178 448.498 540.975 447.751C539.771 447.004 538.579 447.242 538.622 447.426Z" fill="white"/>
<path d="M534.351 449.202C534.351 449.397 535.175 449.733 535.858 450.566C536.541 451.4 536.736 452.299 536.942 452.288C537.148 452.277 537.267 451.151 536.4 450.122C535.533 449.094 534.416 449.018 534.351 449.202Z" fill="white"/>
<path d="M531.955 454.324C532.129 454.324 532.411 453.371 531.89 452.288C531.37 451.205 530.438 450.772 530.362 450.945C530.286 451.119 530.849 451.682 531.261 452.581C531.673 453.479 531.749 454.313 531.955 454.324Z" fill="white"/>
<path d="M538.958 442.618C539.045 442.802 539.955 442.52 541.126 442.618C542.297 442.715 543.132 443.04 543.229 442.867C543.327 442.694 542.481 441.99 541.159 441.925C539.836 441.86 538.861 442.466 538.958 442.618Z" fill="white"/>
<path d="M601.107 431.54L606.397 456.371L604.879 477.217C604.854 477.572 604.902 477.929 605.021 478.266C605.14 478.602 605.326 478.91 605.569 479.171C605.812 479.432 606.107 479.64 606.434 479.783C606.761 479.925 607.113 479.999 607.47 480C607.893 480.011 608.312 479.918 608.69 479.729C609.068 479.54 609.393 479.261 609.638 478.917C612.76 474.585 624.165 458.418 623.731 456.62C623.167 454.541 619.894 430.056 619.894 430.056L601.107 431.54Z" fill="#263238"/>
<path d="M607.503 480L623.308 454.931L623.514 456.014C623.69 456.926 623.533 457.871 623.07 458.678C621.834 460.843 618.3 466.734 609.671 478.928C609.425 479.271 609.099 479.548 608.721 479.737C608.343 479.926 607.925 480.02 607.503 480.011V480Z" fill="#455A64"/>
<g opacity="0.6">
<path opacity="0.6" d="M616.685 447.848C616.427 448.138 616.285 448.512 616.285 448.899C616.285 449.286 616.427 449.66 616.685 449.949C616.958 450.226 617.328 450.388 617.718 450.4C618.107 450.412 618.487 450.274 618.777 450.014C619.053 449.708 619.205 449.311 619.205 448.899C619.205 448.487 619.053 448.09 618.777 447.783C618.461 447.531 618.059 447.41 617.656 447.444C617.253 447.479 616.878 447.666 616.609 447.968" fill="white"/>
</g>
<path d="M611.145 468.001C610.397 467.335 609.529 466.817 608.587 466.474C607.601 466.293 606.591 466.293 605.606 466.474C605.606 466.42 605.855 466.171 606.43 465.976C607.189 465.735 608.003 465.718 608.772 465.928C609.541 466.137 610.233 466.564 610.766 467.157C611.091 467.633 611.199 468.001 611.145 468.001Z" fill="white"/>
<path d="M609.996 471.694C609.206 471.434 608.403 471.217 607.589 471.044C606.753 471.048 605.917 471.095 605.085 471.185C605.821 470.646 606.731 470.399 607.639 470.493C608.547 470.587 609.387 471.015 609.996 471.694Z" fill="white"/>
<path d="M613.649 463.117C611.335 461.917 608.72 461.42 606.126 461.688C607.362 461.096 608.768 460.961 610.094 461.309C611.458 461.465 612.72 462.107 613.649 463.117Z" fill="white"/>
<path d="M612.674 455.429C612.674 455.591 611.145 455.277 609.335 455.559C607.524 455.84 606.191 456.523 606.083 456.382C606.991 455.648 608.081 455.173 609.236 455.005C610.392 454.837 611.572 454.984 612.652 455.429H612.674Z" fill="white"/>
<path d="M611.308 448.108C610.154 447.945 608.982 447.945 607.828 448.108C606.715 448.447 605.654 448.935 604.673 449.559C604.673 449.559 604.836 449.148 605.356 448.715C606.035 448.146 606.843 447.752 607.709 447.567C608.571 447.363 609.47 447.363 610.332 447.567C610.983 447.805 611.384 448.043 611.308 448.108Z" fill="white"/>
<path d="M607.611 446.733C607.47 446.443 607.396 446.124 607.394 445.802C607.321 444.918 607.417 444.029 607.676 443.181C607.822 442.551 608.168 441.985 608.663 441.568C608.841 441.449 609.05 441.385 609.264 441.385C609.478 441.385 609.688 441.449 609.866 441.568C610.2 441.837 610.418 442.225 610.473 442.651C610.578 443.499 610.381 444.357 609.918 445.075C609.454 445.794 608.753 446.327 607.936 446.581C607.127 446.824 606.263 446.819 605.456 446.568C604.648 446.318 603.935 445.832 603.405 445.174C603.271 445.007 603.175 444.813 603.123 444.606C603.07 444.398 603.063 444.182 603.101 443.972C603.172 443.769 603.302 443.591 603.473 443.462C603.645 443.333 603.852 443.258 604.066 443.246C604.704 443.261 605.326 443.448 605.866 443.788C606.645 444.201 607.345 444.747 607.936 445.401C608.172 445.625 608.36 445.894 608.489 446.192C607.659 445.377 606.718 444.684 605.692 444.134C605.206 443.869 604.664 443.72 604.11 443.701C603.99 443.701 603.873 443.74 603.777 443.812C603.681 443.885 603.611 443.986 603.578 444.102C603.564 444.24 603.579 444.38 603.622 444.512C603.665 444.645 603.735 444.767 603.828 444.87C604.302 445.426 604.926 445.833 605.626 446.042C606.326 446.252 607.072 446.255 607.774 446.051C608.45 445.814 609.029 445.361 609.421 444.762C609.814 444.163 609.996 443.451 609.942 442.737C609.903 442.448 609.761 442.182 609.541 441.99C609.445 441.919 609.329 441.88 609.21 441.88C609.091 441.88 608.975 441.919 608.879 441.99C608.461 442.342 608.162 442.815 608.023 443.344C607.692 444.441 607.553 445.588 607.611 446.733Z" fill="white"/>
<path d="M523.424 256.152C523.424 256.152 523.25 267.197 523.987 281.459C524.28 286.982 535.912 440.495 535.912 440.495L561.04 441.124L557.582 297.649L561.918 298.732C561.918 298.732 575.155 346.575 578.038 357.523C581.475 370.518 599.904 444.394 599.904 444.394L622.875 445.239L607.763 358.703L594.754 276.348L592.142 252.394L523.424 256.152Z" fill="#455A64"/>
<path d="M561.918 283.138C561.581 283.368 561.217 283.557 560.834 283.701C559.839 284.173 558.786 284.512 557.701 284.708C556.934 284.847 556.149 284.847 555.382 284.708C554.482 284.539 553.65 284.114 552.986 283.484C552.303 282.753 551.821 281.858 551.587 280.885C551.316 279.9 551.175 278.882 550.991 277.853C550.287 273.695 549.842 269.905 549.593 267.154C549.473 265.779 549.398 264.663 549.354 263.905C549.312 263.506 549.312 263.103 549.354 262.703C549.471 263.087 549.541 263.483 549.56 263.884C549.669 264.761 549.81 265.844 549.972 267.132C550.319 269.872 550.818 273.63 551.512 277.777C551.869 279.835 552.097 281.914 553.333 283.192C553.918 283.708 554.61 284.087 555.36 284.303C556.11 284.518 556.899 284.564 557.669 284.437C558.734 284.276 559.778 283.997 560.78 283.603C561.139 283.403 561.522 283.247 561.918 283.138Z" fill="#263238"/>
<path d="M554.84 263.505C554.84 263.505 555.002 263.385 555.36 263.364C555.863 263.371 556.35 263.542 556.747 263.851C557.056 264.08 557.309 264.377 557.485 264.719C557.662 265.06 557.758 265.438 557.766 265.822C557.737 266.302 557.561 266.761 557.262 267.139C556.964 267.516 556.558 267.793 556.097 267.934C555.65 268.113 555.159 268.148 554.69 268.036C554.222 267.923 553.801 267.668 553.485 267.306C553.251 267.002 553.091 266.649 553.015 266.273C552.94 265.898 552.952 265.51 553.051 265.14C553.163 264.643 553.447 264.202 553.853 263.894C554.135 263.678 554.341 263.656 554.341 263.678C553.88 264.081 553.558 264.619 553.419 265.216C553.358 265.525 553.365 265.845 553.44 266.151C553.514 266.458 553.656 266.745 553.853 266.992C554.114 267.264 554.451 267.452 554.82 267.531C555.189 267.61 555.574 267.577 555.924 267.436C556.286 267.332 556.608 267.121 556.848 266.832C557.088 266.542 557.234 266.186 557.268 265.811C557.271 265.495 557.205 265.181 557.074 264.893C556.942 264.605 556.75 264.349 556.509 264.143C556.034 263.759 555.45 263.535 554.84 263.505Z" fill="#263238"/>
<path d="M594.407 274.843C594.131 274.931 593.841 274.971 593.551 274.962C592.764 275.014 591.975 275.014 591.188 274.962C585.95 274.523 581.021 272.302 577.225 268.67C576.658 268.122 576.129 267.536 575.642 266.916C575.447 266.702 575.283 266.461 575.155 266.201C575.231 266.147 576.011 267.089 577.485 268.367C579.402 270.055 581.557 271.452 583.881 272.514C586.216 273.558 588.693 274.248 591.231 274.561C593.182 274.788 594.407 274.745 594.407 274.843Z" fill="#263238"/>
<path d="M533.56 263.44C533.313 264.309 532.979 265.15 532.562 265.952C531.675 267.827 530.585 269.599 529.31 271.236C528.147 272.761 526.791 274.13 525.277 275.308C524.716 275.8 524.079 276.199 523.391 276.489C523.944 275.957 524.526 275.458 525.137 274.994C526.574 273.744 527.888 272.358 529.061 270.858C530.287 269.248 531.375 267.539 532.313 265.746C533.093 264.328 533.505 263.396 533.56 263.44Z" fill="#263238"/>
<path d="M547.999 104.782C548.383 99.9022 550.591 95.345 554.184 92.0165C557.777 88.6879 562.493 86.8318 567.393 86.8169H568.401C579.242 87.4233 584.868 97.0071 583.968 107.869L581.637 141.655L562.222 161.819L557.257 149.766V141.742C557.257 141.742 546.785 140.139 546.622 129.689C546.568 124.61 547.262 114.193 547.999 104.782Z" fill="#FFBE9D"/>
<path d="M557.181 141.71C562.044 141.715 566.806 140.328 570.905 137.714C570.905 137.714 567.653 145.294 557.246 144.33L557.181 141.71Z" fill="#EB996E"/>
<path d="M550.796 113.5C550.796 113.887 550.946 114.259 551.215 114.538C551.484 114.817 551.851 114.98 552.238 114.994C552.428 115.009 552.618 114.986 552.799 114.926C552.98 114.866 553.147 114.771 553.29 114.646C553.433 114.521 553.55 114.368 553.634 114.198C553.718 114.027 553.766 113.841 553.777 113.651C553.783 113.262 553.635 112.885 553.365 112.604C553.096 112.322 552.726 112.158 552.335 112.146C552.145 112.132 551.953 112.155 551.772 112.216C551.591 112.276 551.423 112.372 551.28 112.498C551.136 112.625 551.02 112.778 550.936 112.95C550.853 113.122 550.806 113.309 550.796 113.5Z" fill="#263238"/>
<path d="M550.254 109.894C550.449 110.089 551.577 109.244 553.181 109.244C554.785 109.244 555.978 110.045 556.151 109.85C556.325 109.656 556.043 109.406 555.533 109.038C554.838 108.553 554.007 108.299 553.159 108.313C552.322 108.313 551.506 108.578 550.829 109.071C550.33 109.45 550.167 109.807 550.254 109.894Z" fill="#263238"/>
<path d="M565.355 113.89C565.349 114.28 565.497 114.656 565.767 114.938C566.037 115.219 566.406 115.384 566.797 115.395C566.987 115.408 567.178 115.384 567.359 115.322C567.539 115.261 567.706 115.165 567.849 115.039C567.992 114.913 568.109 114.76 568.193 114.589C568.276 114.418 568.325 114.232 568.336 114.041C568.336 113.653 568.186 113.28 567.918 112.999C567.649 112.719 567.282 112.553 566.894 112.536C566.703 112.52 566.511 112.542 566.329 112.602C566.147 112.662 565.979 112.758 565.835 112.885C565.692 113.011 565.575 113.165 565.492 113.338C565.41 113.511 565.363 113.698 565.355 113.89Z" fill="#263238"/>
<path d="M566.081 110.143C566.266 110.338 567.393 109.504 568.997 109.504C570.602 109.504 571.794 110.294 571.968 110.1C572.141 109.905 571.859 109.666 571.35 109.287C570.651 108.811 569.822 108.562 568.976 108.573C568.137 108.568 567.32 108.834 566.645 109.331C566.157 109.71 565.984 110.056 566.081 110.143Z" fill="#263238"/>
<path d="M560.271 122.087C559.425 121.815 558.546 121.658 557.658 121.622C557.246 121.622 556.856 121.492 556.78 121.221C556.748 120.795 556.842 120.37 557.051 119.997L558.265 116.868C559.935 112.417 561.149 108.757 560.964 108.692C560.78 108.627 559.284 112.179 557.604 116.629C557.203 117.712 556.823 118.795 556.455 119.781C556.197 120.277 556.124 120.849 556.249 121.394C556.308 121.538 556.399 121.667 556.516 121.77C556.632 121.873 556.771 121.948 556.921 121.99C557.151 122.05 557.388 122.083 557.626 122.087C558.504 122.197 559.392 122.197 560.271 122.087Z" fill="#263238"/>
<path d="M565.008 123.181C564.748 123.181 564.748 124.914 563.252 126.148C561.756 127.383 559.902 127.231 559.891 127.459C559.88 127.686 560.303 127.794 561.094 127.805C562.119 127.825 563.116 127.475 563.902 126.82C564.662 126.198 565.148 125.304 565.257 124.329C565.322 123.636 565.127 123.17 565.008 123.181Z" fill="#263238"/>
<path d="M565.648 103.851C565.799 104.284 567.404 104.068 569.301 104.295C571.198 104.523 572.716 105.031 572.965 104.631C573.073 104.447 572.813 104.035 572.195 103.613C571.371 103.096 570.44 102.774 569.473 102.67C568.505 102.567 567.527 102.686 566.612 103.017C565.919 103.299 565.572 103.645 565.648 103.851Z" fill="#263238"/>
<path d="M550.839 105.226C551.121 105.595 552.227 105.226 553.56 105.226C554.894 105.226 556.021 105.465 556.281 105.086C556.401 104.901 556.216 104.533 555.728 104.187C555.081 103.779 554.325 103.575 553.56 103.602C552.778 103.614 552.02 103.872 551.392 104.338C550.861 104.685 550.677 105.053 550.839 105.226Z" fill="#263238"/>
<path d="M544.172 95.6318C544.251 95.152 544.503 94.7175 544.881 94.4104C545.258 94.1032 545.735 93.9445 546.221 93.9641C545.694 93.827 545.198 93.5918 544.758 93.2711C544.541 93.1033 544.376 92.8787 544.28 92.6224C544.185 92.3661 544.162 92.0883 544.216 91.82C544.465 91.0078 545.495 90.8129 546.308 90.553C547.378 90.2187 548.315 89.5555 548.986 88.6579C549.95 87.38 550.287 85.734 551.154 84.3262C551.687 83.4324 552.414 82.6696 553.281 82.0942C554.149 81.5189 555.135 81.1456 556.166 81.0022C557.197 80.8587 558.248 80.9486 559.24 81.2653C560.232 81.582 561.14 82.1174 561.897 82.8318C562.676 81.9837 563.647 81.3338 564.729 80.9361C565.811 80.5384 566.972 80.4044 568.116 80.5453C569.26 80.6862 570.354 81.0978 571.307 81.746C572.259 82.3942 573.043 83.2602 573.594 84.2721C574.974 83.6619 576.493 83.4326 577.992 83.608C579.492 83.7834 580.917 84.357 582.119 85.2692C583.321 86.1814 584.256 87.3989 584.827 88.7947C585.399 90.1906 585.585 91.7139 585.366 93.2061L578.96 97.3753C578.891 96.8875 578.72 96.4197 578.459 96.002C578.197 95.5843 577.851 95.226 577.442 94.9504C577.034 94.6748 576.571 94.488 576.086 94.402C575.6 94.3161 575.102 94.3329 574.624 94.4514C572.672 95.0795 571.48 97.3861 569.442 97.6027C567.848 97.7651 566.461 96.5739 564.91 96.2057C562.976 95.9348 561.011 96.4196 559.425 97.5594C557.855 98.6955 556.142 99.6203 554.33 100.31C552.099 100.816 549.766 100.603 547.663 99.7036C546.736 99.4062 545.886 98.911 545.17 98.2524C544.805 97.9281 544.523 97.5204 544.35 97.0642C544.176 96.6079 544.115 96.1166 544.172 95.6318Z" fill="#263238"/>
<path d="M577.691 94.3973L547.847 95.0795C548.849 93.0535 550.339 91.3082 552.184 90.0007C556.062 87.0011 560.789 85.2997 565.691 85.1384C570.558 85.0518 580.477 90.9645 584.011 94.3106C586.83 96.9963 586.819 99.3245 586.819 99.3245C587.264 103.191 585.106 107.587 584.239 111.377C583.805 113.337 582.949 119.261 582.949 119.261C581.301 119.261 580.694 117.951 580.944 116.326L581.247 109.948C579.596 108.654 578.413 106.857 577.879 104.83C577.345 102.802 577.488 100.656 578.288 98.7181C578.765 98.0792 579.664 95.4802 577.691 94.3973Z" fill="#263238"/>
<path d="M581.735 109.461C583.112 104.133 584.337 98.4366 582.58 93.2169L583.458 93.152L583.838 93.4118C584.671 93.1024 585.582 93.0669 586.437 93.3107C587.292 93.5544 588.047 94.0646 588.592 94.7669C589.136 95.4692 589.442 96.3268 589.464 97.2148C589.487 98.1028 589.225 98.9748 588.716 99.7036C589.603 99.669 590.471 99.9609 591.157 100.524C591.842 101.087 592.297 101.882 592.434 102.757C592.47 103.984 592.17 105.197 591.567 106.266C590.947 107.328 590.576 108.516 590.483 109.742C590.462 110.354 590.656 110.954 591.033 111.437C591.409 111.92 591.944 112.255 592.543 112.384C592.269 113.011 591.788 113.525 591.18 113.841C590.572 114.156 589.875 114.254 589.204 114.117C589.675 115.145 590.426 116.02 591.372 116.64C589.464 118.016 586.787 117.647 584.64 116.64C583.319 116.152 582.223 115.197 581.561 113.955C581.138 112.476 581.199 110.902 581.735 109.461Z" fill="#263238"/>
<path d="M582.396 115.601C582.581 115.525 589.594 113.435 589.378 120.604C589.161 127.773 582.028 126.072 582.017 125.867C582.006 125.661 582.396 115.601 582.396 115.601Z" fill="#FFBE9D"/>
<path d="M583.654 123.224C583.654 123.224 583.784 123.311 583.99 123.419C584.289 123.539 584.623 123.539 584.922 123.419C585.391 123.136 585.777 122.735 586.041 122.256C586.306 121.777 586.439 121.237 586.429 120.69C586.458 120.081 586.359 119.472 586.136 118.904C586.076 118.678 585.961 118.47 585.803 118.298C585.644 118.127 585.446 117.996 585.226 117.918C585.084 117.876 584.932 117.884 584.795 117.941C584.659 117.999 584.547 118.101 584.478 118.232C584.369 118.438 584.413 118.579 584.38 118.59C584.347 118.6 584.228 118.46 584.293 118.167C584.336 117.993 584.44 117.839 584.586 117.734C584.684 117.661 584.796 117.608 584.916 117.58C585.035 117.552 585.159 117.549 585.28 117.572C585.573 117.636 585.844 117.776 586.067 117.977C586.289 118.178 586.455 118.434 586.548 118.719C586.839 119.345 586.97 120.034 586.927 120.723C586.942 121.359 586.769 121.986 586.43 122.525C586.09 123.064 585.6 123.492 585.02 123.755C584.834 123.798 584.641 123.801 584.454 123.763C584.267 123.726 584.09 123.649 583.935 123.538C583.664 123.398 583.632 123.235 583.654 123.224Z" fill="#EB996E"/>
<path d="M589.703 109.461C589.774 109.335 589.819 109.197 589.836 109.053C589.852 108.91 589.84 108.765 589.8 108.627C589.719 108.24 589.552 107.875 589.312 107.561C589.072 107.246 588.765 106.989 588.413 106.807C587.387 106.357 586.28 106.121 585.16 106.114C584.524 106.134 583.892 106.001 583.317 105.728C582.743 105.455 582.241 105.049 581.854 104.544C581.227 103.41 580.991 102.101 581.182 100.819C581.323 99.6169 581.605 98.5124 581.735 97.5702C581.994 96.5618 581.949 95.4992 581.605 94.5164C581.631 95.5188 581.547 96.521 581.355 97.5053C581.171 98.4257 580.846 99.487 580.672 100.754C580.437 102.16 580.69 103.604 581.388 104.847C581.804 105.486 582.417 105.972 583.133 106.233C583.773 106.454 584.441 106.582 585.117 106.613C586.196 106.591 587.27 106.771 588.283 107.143C588.599 107.295 588.882 107.508 589.114 107.77C589.347 108.032 589.525 108.338 589.638 108.67C589.703 109.157 589.605 109.461 589.703 109.461Z" fill="#455A64"/>
<path d="M591.285 106.309C591.285 106.309 591.448 106.104 591.491 105.66C591.548 105.026 591.408 104.391 591.09 103.84C590.866 103.45 590.563 103.111 590.201 102.844C589.786 102.547 589.314 102.34 588.814 102.238C588.33 102.152 587.866 101.976 587.448 101.718C587.259 101.562 587.108 101.365 587.009 101.141C586.909 100.917 586.863 100.674 586.873 100.429C586.873 99.8877 586.873 99.3462 586.873 98.7398C586.847 98.1954 586.767 97.6549 586.635 97.1262C586.43 96.2263 586.063 95.3712 585.551 94.6031C585.384 94.3223 585.15 94.0872 584.87 93.919C584.59 93.7508 584.273 93.6546 583.946 93.6393C583.469 93.6393 583.274 93.8775 583.296 93.8883C583.318 93.8992 583.534 93.8017 583.935 93.8883C584.21 93.9394 584.469 94.0529 584.693 94.22C584.917 94.3871 585.099 94.6034 585.226 94.8521C585.657 95.6043 585.967 96.4191 586.147 97.267C586.26 97.7685 586.321 98.2801 586.331 98.7939C586.331 99.3137 586.331 99.8768 586.331 100.494C586.333 100.819 586.406 101.139 586.544 101.433C586.683 101.726 586.884 101.986 587.133 102.194C587.619 102.486 588.157 102.68 588.716 102.768C589.131 102.827 589.528 102.973 589.881 103.197C590.235 103.421 590.536 103.718 590.765 104.068C591.163 104.744 591.345 105.527 591.285 106.309Z" fill="#455A64"/>
<path d="M548.931 88.6687C548.931 88.6687 549.484 89.0369 550.406 88.5713C550.921 88.2744 551.368 87.8722 551.717 87.3909C552.156 86.7819 552.708 86.2634 553.344 85.864C554.171 85.3734 555.123 85.1319 556.084 85.1683C557.046 85.2048 557.976 85.5178 558.764 86.0697C559.664 86.687 560.466 87.5642 561.517 88.2356C562.06 88.6186 562.676 88.8841 563.328 89.0153C564.018 89.1089 564.721 89.0192 565.366 88.7554C566.634 88.2572 567.631 87.445 568.726 87.0119C569.785 86.5689 570.918 86.3301 572.065 86.308C574.011 86.2687 575.916 86.8699 577.485 88.019C578.554 88.7996 579.45 89.7911 580.12 90.932C580.597 91.755 580.77 92.2532 580.813 92.2315C580.857 92.2098 580.813 92.1016 580.727 91.8525C580.617 91.5027 580.479 91.1622 580.315 90.8345C579.693 89.6131 578.808 88.5443 577.724 87.7049C576.09 86.443 574.076 85.7712 572.011 85.799C570.795 85.8032 569.591 86.0422 568.466 86.5029C567.284 86.9794 566.298 87.7916 565.105 88.2356C564.556 88.4702 563.952 88.5489 563.36 88.463C562.786 88.3527 562.242 88.12 561.767 87.7807C560.791 87.1202 559.967 86.2538 558.991 85.6149C558.073 84.9703 556.97 84.6398 555.848 84.6728C554.874 84.7034 553.925 84.987 553.094 85.4958C552.443 85.9407 551.883 86.5069 551.446 87.1635C551.136 87.6351 550.734 88.0401 550.265 88.3547C549.869 88.6067 549.399 88.7173 548.931 88.6687Z" fill="#455A64"/>
<path d="M506.979 183.445L469.937 154.206L464.657 148.673C464.657 148.673 452.028 136.902 450.944 135.613C449.708 134.129 448.689 134.368 448.18 134.855C447.367 135.624 447.638 137.183 448.657 138.483C449.014 138.937 454.857 145.836 454.857 145.836C453.907 145.521 452.936 145.271 451.952 145.088C449.838 144.644 446.803 145.911 444.364 148.045C441.925 150.178 441.469 151.001 442.261 151.976C442.42 152.152 442.616 152.292 442.835 152.384C443.054 152.475 443.292 152.517 443.529 152.506C444.303 152.51 445.052 152.228 445.632 151.716C449.535 148.337 452.375 149.55 452.375 149.55L453.069 150.275C453.069 150.275 449.22 150.568 447.898 152.896C447.708 153.231 447.583 153.598 447.529 153.979C446.985 154.438 446.57 155.032 446.329 155.702C446.087 156.372 446.027 157.093 446.153 157.794C446.279 158.494 446.588 159.149 447.049 159.692C447.509 160.236 448.105 160.648 448.776 160.888C449.081 161.041 449.426 161.098 449.765 161.052C450.103 161.006 450.42 160.858 450.673 160.628C450.872 160.323 450.992 159.973 451.02 159.61C451.047 159.423 451.09 159.238 451.15 159.058L453.372 160.812C453.372 160.812 458.565 164.494 460.646 166.357L491.618 200.014C492.638 201.12 493.869 202.013 495.238 202.64C496.607 203.266 498.088 203.615 499.593 203.664C501.099 203.713 502.599 203.463 504.006 202.927C505.414 202.392 506.701 201.582 507.792 200.544C508.968 199.424 509.889 198.064 510.493 196.557C511.097 195.05 511.37 193.431 511.293 191.809C511.216 190.188 510.791 188.602 510.046 187.158C509.302 185.715 508.256 184.449 506.979 183.445Z" fill="#FFBE9D"/>
<path d="M468.397 154.683C468.064 155.045 467.626 155.295 467.145 155.398C466.663 155.501 466.161 155.452 465.709 155.257C464.777 154.943 463.985 154.315 463.075 153.936C460.375 152.788 457.069 153.936 454.402 152.636C454.023 152.463 453.632 152.127 453.719 151.727C453.806 151.326 454.261 151.218 454.63 151.153L464.202 149.323" fill="#FFBE9D"/>
<path d="M464.224 149.322C463.86 149.301 463.495 149.33 463.14 149.409C462.467 149.507 461.503 149.658 460.31 149.864L456.104 150.611L454.901 150.828C454.65 150.835 454.404 150.891 454.175 150.993C453.946 151.095 453.74 151.241 453.567 151.423C453.474 151.559 453.424 151.719 453.424 151.884C453.424 152.048 453.474 152.208 453.567 152.344C453.729 152.557 453.936 152.731 454.175 152.853C454.608 153.058 455.063 153.218 455.53 153.329C457.265 153.564 459.014 153.679 460.766 153.676C461.508 153.718 462.239 153.875 462.934 154.141C463.534 154.407 464.12 154.703 464.69 155.029C465.113 155.296 465.589 155.467 466.085 155.531C466.582 155.594 467.086 155.549 467.563 155.398C468.245 155.105 468.386 154.672 468.365 154.683C468.105 154.898 467.812 155.07 467.497 155.192C467.049 155.294 466.584 155.302 466.132 155.214C465.68 155.126 465.252 154.945 464.874 154.683C464.308 154.328 463.722 154.006 463.118 153.719C462.394 153.414 461.625 153.227 460.841 153.167C459.115 153.144 457.392 153.017 455.681 152.788C455.259 152.69 454.849 152.548 454.456 152.365C454.099 152.181 453.871 151.878 454.012 151.716C454.153 151.553 454.576 151.423 454.988 151.348L456.191 151.109L460.364 150.254C461.557 149.994 462.533 149.788 463.172 149.626C463.533 149.567 463.887 149.465 464.224 149.322Z" fill="#EB996E"/>
<path d="M453.242 150.243C452.798 149.809 452.26 149.483 451.67 149.29C451.026 149.127 450.347 149.172 449.73 149.42C448.968 149.741 448.258 150.175 447.627 150.709C446.982 151.271 446.276 151.762 445.524 152.171C444.89 152.516 444.175 152.685 443.453 152.658C443.206 152.645 442.966 152.575 442.75 152.455C442.534 152.335 442.348 152.167 442.207 151.965C442.097 151.821 442.033 151.647 442.022 151.467C442.022 151.467 442.12 151.629 442.315 151.878C442.459 152.045 442.637 152.179 442.837 152.27C443.037 152.362 443.255 152.409 443.475 152.409C444.142 152.396 444.795 152.213 445.372 151.878C446.096 151.46 446.778 150.974 447.41 150.427C448.059 149.875 448.79 149.429 449.578 149.106C450.273 148.841 451.039 148.821 451.746 149.052C452.206 149.203 452.623 149.463 452.96 149.81C453.188 150.07 453.264 150.232 453.242 150.243Z" fill="#EB996E"/>
<path d="M448.31 137.974C448.74 138.393 449.132 138.849 449.481 139.338L452.212 142.695L454.998 146.009C455.4 146.445 455.763 146.917 456.082 147.417C455.602 147.053 455.162 146.64 454.771 146.182C454.001 145.37 452.982 144.233 451.898 142.933C450.814 141.634 449.882 140.41 449.231 139.501C448.866 139.029 448.557 138.517 448.31 137.974Z" fill="#EB996E"/>
<path d="M452.982 153.123C452.812 153.2 452.634 153.259 452.451 153.297C452.221 153.354 452.006 153.459 451.819 153.604C451.632 153.75 451.478 153.933 451.367 154.141C451.31 154.286 451.292 154.442 451.312 154.595C451.333 154.749 451.393 154.895 451.486 155.019C451.726 155.326 451.998 155.605 452.299 155.852C452.689 156.16 452.955 156.599 453.047 157.087C453.066 157.356 453.021 157.626 452.915 157.874C452.81 158.123 452.647 158.343 452.44 158.516C452.237 158.686 452.001 158.811 451.748 158.886C451.494 158.96 451.228 158.982 450.966 158.95C450.48 158.906 450.019 158.718 449.643 158.408C449.074 157.883 448.584 157.277 448.191 156.61C447.912 156.166 447.707 155.68 447.583 155.17C447.518 154.802 447.583 154.596 447.583 154.596C447.636 154.774 447.679 154.955 447.714 155.138C447.88 155.611 448.11 156.059 448.396 156.47C448.803 157.092 449.287 157.66 449.838 158.159C450.168 158.43 450.578 158.585 451.005 158.601C451.432 158.616 451.852 158.492 452.202 158.246C452.356 158.111 452.48 157.945 452.564 157.758C452.649 157.571 452.691 157.368 452.689 157.163C452.604 156.747 452.369 156.377 452.028 156.123C451.711 155.85 451.43 155.537 451.193 155.192C451.078 155.028 451.009 154.836 450.991 154.636C450.974 154.437 451.01 154.236 451.096 154.055C451.228 153.818 451.415 153.615 451.641 153.465C451.868 153.314 452.127 153.219 452.397 153.188C452.585 153.127 452.785 153.105 452.982 153.123Z" fill="#EB996E"/>
<path d="M450.868 158.646C450.868 158.646 451.042 158.744 451.161 159.069C451.233 159.301 451.251 159.547 451.214 159.787C451.176 160.027 451.084 160.256 450.944 160.455C450.721 160.742 450.426 160.966 450.09 161.105C449.753 161.243 449.386 161.292 449.025 161.245C448.169 161.116 447.394 160.667 446.857 159.989C446.303 159.323 445.97 158.502 445.903 157.639C445.866 157.056 445.958 156.472 446.174 155.929C446.389 155.386 446.723 154.898 447.15 154.499C447.399 154.282 447.562 154.196 447.573 154.217C447.165 154.666 446.822 155.169 446.554 155.712C446.285 156.305 446.176 156.958 446.239 157.607C446.304 158.405 446.619 159.163 447.139 159.773C447.623 160.394 448.323 160.812 449.101 160.942C449.409 160.987 449.723 160.955 450.015 160.847C450.307 160.739 450.567 160.559 450.771 160.325C450.903 160.158 450.997 159.963 451.046 159.755C451.095 159.548 451.097 159.332 451.052 159.123C450.944 158.809 450.846 158.657 450.868 158.646Z" fill="#EB996E"/>
<path d="M459.53 159.307C459.53 159.307 459.714 159.025 460.202 158.755C460.87 158.415 461.631 158.301 462.37 158.43L462.186 158.69C461.961 158.34 461.754 157.978 461.568 157.607C460.862 156.362 460.524 154.942 460.592 153.513C460.885 154.866 461.321 156.184 461.893 157.444C462.077 157.813 462.283 158.159 462.478 158.473L462.695 158.82L462.305 158.733C461.626 158.598 460.922 158.662 460.278 158.917C459.812 159.145 459.616 159.372 459.53 159.307Z" fill="#EB996E"/>
<path d="M449.546 147.59C449.638 147.829 449.672 148.086 449.643 148.341C449.615 148.595 449.526 148.839 449.383 149.052C449.004 149.831 448.299 150.135 448.299 150.048C448.299 149.961 448.733 149.572 449.069 148.889C449.405 148.207 449.437 147.59 449.546 147.59Z" fill="#EB996E"/>
<path d="M505.298 202.894L526.687 188.101C526.687 188.101 524.811 245.387 524.811 245.918C524.811 245.918 520.898 247.467 521.559 251.56L522.643 257.332C546.2 262.746 569.539 266.244 593.291 257.505L595.99 211.871L604.402 156.123L585.291 148.001L582.038 140.421L562.244 161.722L557.181 148.045L557.322 142.858L552.531 148.055L529.299 151.792L500.398 175.193L490.924 167.537L476.625 187.376L492.886 203.771C497.005 204.881 501.377 204.572 505.298 202.894Z" fill="#614AD3"/>
<path d="M559.349 159.199C558.729 159.549 558.242 160.093 557.962 160.747C557.666 161.498 557.522 162.301 557.539 163.108C557.592 164.21 557.438 165.312 557.083 166.357L556.845 166.92L556.606 166.357C555.965 164.748 555.457 163.089 555.089 161.397C554.276 157.888 553.755 154.672 553.409 152.344C553.164 151.094 553.026 149.826 552.997 148.554C553.343 149.777 553.611 151.021 553.799 152.279C554.243 154.585 554.829 157.78 555.642 161.267C556 162.929 556.481 164.561 557.083 166.151H556.606C556.941 165.179 557.11 164.158 557.105 163.13C557.117 162.275 557.313 161.433 557.68 160.661C557.903 160.146 558.282 159.714 558.764 159.426C559.089 159.188 559.349 159.177 559.349 159.199Z" fill="#263238"/>
<path d="M584.185 150.633C584.011 150.974 583.792 151.291 583.534 151.575C583.079 152.16 582.45 152.994 581.583 154.012C579.925 156.047 577.594 158.83 574.992 161.884L570.851 166.714L570.537 167.082L570.417 166.606C569.832 164.256 569.333 162.274 569.03 160.866C568.9 160.173 568.509 159.783 568.13 159.783C567.944 159.774 567.761 159.827 567.61 159.935C567.61 159.935 567.686 159.653 568.13 159.621C568.263 159.62 568.394 159.645 568.517 159.695C568.64 159.745 568.752 159.82 568.846 159.913C569.074 160.171 569.237 160.479 569.323 160.812C569.724 162.198 570.276 164.158 570.905 166.508L570.472 166.4L574.526 161.538C577.128 158.484 579.502 155.744 581.247 153.773C582.114 152.788 582.83 151.997 583.328 151.456C583.582 151.15 583.869 150.874 584.185 150.633Z" fill="#263238"/>
<path d="M555.598 240.309C555.569 240.064 555.569 239.817 555.598 239.572C555.598 239.042 555.598 238.349 555.598 237.493C555.598 235.685 555.598 233.064 555.598 229.826C555.674 223.329 555.978 214.416 556.682 204.573C557.387 194.729 558.449 185.827 559.338 179.417C559.783 176.168 560.173 173.623 560.477 171.836L560.834 169.79C560.863 169.546 560.918 169.307 560.997 169.075C560.999 169.318 560.981 169.56 560.943 169.8C560.878 170.331 560.791 171.024 560.693 171.869C560.455 173.731 560.13 176.309 559.729 179.449C558.948 185.871 557.983 194.751 557.246 204.594C556.509 214.438 556.162 223.35 555.967 229.815C555.891 232.999 555.826 235.598 555.783 237.471C555.783 238.327 555.783 239.02 555.718 239.551C555.702 239.807 555.662 240.06 555.598 240.309Z" fill="#263238"/>
<path d="M550.124 253.455C549.649 251.9 549.479 250.267 549.625 248.647C549.586 247.026 549.772 245.408 550.178 243.839C550.332 245.442 550.332 247.055 550.178 248.658C550.102 251.3 550.276 253.434 550.124 253.455Z" fill="#263238"/>
<path d="M577.659 237.699C577.106 237.968 576.529 238.186 575.935 238.349C574.851 238.738 573.171 239.258 571.122 239.854C565.797 241.388 560.394 242.643 554.937 243.611C549.476 244.574 543.969 245.257 538.438 245.658C536.27 245.799 534.589 245.886 533.397 245.907C532.784 245.958 532.167 245.958 531.554 245.907C532.158 245.788 532.771 245.72 533.386 245.701L538.405 245.279C542.633 244.889 548.454 244.196 554.829 243.113C561.203 242.03 566.938 240.59 571.014 239.507L575.87 238.186C576.454 237.983 577.052 237.82 577.659 237.699Z" fill="#263238"/>
<path d="M526.621 201.226C526.47 201.226 526.372 193.256 526.405 183.434C526.437 173.612 526.6 165.642 526.751 165.642C526.903 165.642 527 173.612 526.968 183.434C526.935 193.256 526.827 201.226 526.621 201.226Z" fill="#263238"/>
<g opacity="0.3">
<path opacity="0.3" d="M564.054 163.639C564.639 163.617 565.214 163.794 565.686 164.14C566.158 164.486 566.5 164.981 566.656 165.544C566.873 166.703 566.656 167.927 567.013 169.075C567.371 170.223 568.369 171.338 569.528 171.1C570.219 170.872 570.806 170.408 571.187 169.789C573.464 166.711 575.289 163.323 576.607 159.729C576.607 159.816 570.613 166.617 570.613 166.617C570.385 164.896 569.929 163.214 569.257 161.614C569.062 161.094 568.824 160.206 568.325 159.978C567.512 159.599 566.428 160.79 565.897 161.516C565.336 162.248 564.704 162.923 564.011 163.53" fill="black"/>
</g>
<g opacity="0.3">
<path opacity="0.3" d="M554.265 157.455C554.373 161.263 555.105 165.027 556.433 168.598C556.553 168.96 556.753 169.289 557.018 169.562C557.156 169.705 557.337 169.798 557.533 169.827C557.729 169.857 557.929 169.82 558.103 169.724C558.54 168.994 558.903 168.221 559.187 167.418C559.739 165.869 561.994 165.729 561.994 165.729C561.618 163.98 561.126 162.258 560.52 160.574C560.411 160.296 560.217 160.06 559.966 159.899C559.715 159.737 559.42 159.659 559.122 159.675C558.731 159.805 558.382 160.038 558.111 160.348C557.84 160.658 557.658 161.036 557.582 161.44C557.246 164.212 557.289 165.49 556.878 166.465C555.793 163.498 554.97 159.967 554.276 157.358" fill="black"/>
</g>
<g opacity="0.3">
<path opacity="0.3" d="M570.894 239.507C571.151 239.324 571.368 239.091 571.534 238.822C571.699 238.554 571.809 238.255 571.858 237.943C571.906 237.632 571.892 237.314 571.816 237.008C571.74 236.702 571.603 236.414 571.415 236.161C571.014 235.669 570.49 235.292 569.896 235.067C569.302 234.843 568.659 234.779 568.032 234.883C566.777 235.102 565.595 235.631 564.596 236.421C563.512 237.168 562.623 238.013 561.539 238.673C558.883 240.309 555.653 240.677 552.531 240.731C549.413 240.602 546.291 240.74 543.197 241.143C540.14 241.738 537.083 243.308 535.608 246.059C535.608 246.005 562.255 244.11 570.894 239.507Z" fill="black"/>
</g>
<path d="M604.402 156.123C604.402 156.123 612.468 161.863 614.419 167.061C616.37 172.259 623.579 207.962 624.75 214.059C626.235 221.726 626.279 231.212 615.232 234.818C611.123 236.15 585.963 234.104 585.963 234.104L586.776 216.246L600.359 216.755C600.359 216.755 599.546 215.553 601.443 214.102L597.107 190.874C597.107 190.874 598.7 166.205 598.895 165.62C599.091 165.036 604.402 156.123 604.402 156.123Z" fill="#614AD3"/>
<path d="M604.804 156.74C602.421 157.728 600.271 159.202 598.49 161.066C596.709 162.931 595.337 165.146 594.462 167.57C594.527 166.819 594.725 166.085 595.047 165.404C596.485 161.903 599.196 159.075 602.635 157.488C603.307 157.111 604.042 156.857 604.804 156.74Z" fill="#263238"/>
<path d="M609.216 220.372C609.129 220.372 608.945 219.777 608.403 218.943C607.683 217.862 606.745 216.944 605.649 216.246C604.564 215.523 603.337 215.04 602.05 214.828C601.064 214.687 600.435 214.828 600.424 214.709C600.937 214.443 601.522 214.348 602.093 214.438C603.474 214.539 604.804 214.998 605.953 215.77C607.121 216.506 608.084 217.527 608.749 218.737C609.069 219.222 609.231 219.792 609.216 220.372Z" fill="#263238"/>
<path d="M594.57 176.763C594.737 177.228 594.864 177.707 594.95 178.193C595.166 179.276 595.437 180.564 595.773 182.145C596.445 185.492 597.334 190.116 598.278 195.227C599.221 200.338 600.055 204.973 600.63 208.341C600.89 209.944 601.107 211.276 601.28 212.326C601.38 212.811 601.431 213.304 601.432 213.799C601.267 213.334 601.144 212.856 601.064 212.37C600.847 211.287 600.565 209.998 600.229 208.417C599.568 205.071 598.668 200.447 597.725 195.335C596.782 190.224 595.947 185.589 595.372 182.221C595.112 180.619 594.895 179.287 594.733 178.236C594.627 177.752 594.572 177.259 594.57 176.763Z" fill="#263238"/>
<path d="M585.963 234.093C585.909 233.632 585.909 233.167 585.963 232.707C585.963 231.721 585.963 230.454 586.049 228.927C586.147 225.679 586.31 221.249 586.537 216.214V215.943H586.819L589.052 216.03L600.391 216.517H600.467L600.521 216.571C602.209 217.945 603.494 219.748 604.24 221.791C604.44 222.356 604.596 222.935 604.706 223.524C604.758 223.729 604.776 223.941 604.76 224.152C604.695 224.152 604.565 223.296 603.99 221.888C603.182 219.941 601.887 218.233 600.229 216.929L600.37 216.983L589.031 216.593L586.797 216.495L587.09 216.236C586.852 221.26 586.613 225.733 586.418 228.927C586.31 230.454 586.223 231.721 586.158 232.707C586.133 233.173 586.068 233.637 585.963 234.093Z" fill="#263238"/>
<path d="M566.092 212.5L555.566 191.08C555.215 190.367 554.672 189.768 553.997 189.349C553.323 188.929 552.544 188.707 551.75 188.708H525.31C525.086 188.707 524.865 188.764 524.67 188.875C524.474 188.985 524.311 189.144 524.196 189.336C524.081 189.529 524.019 189.748 524.014 189.972C524.01 190.196 524.064 190.417 524.172 190.614L542.069 223.989C542.315 224.448 542.681 224.831 543.128 225.098C543.574 225.365 544.085 225.506 544.606 225.505H572.022L566.092 212.5Z" fill="#455A64"/>
<path d="M524.345 190.776H524.876H526.383H531.955L550.308 190.625C551.157 190.618 551.994 190.818 552.747 191.209C553.441 191.652 554.003 192.273 554.373 193.007C555.143 194.469 555.783 195.996 556.455 197.339L559.967 204.811L562.363 209.825L563.046 211.178C563.113 211.34 563.201 211.493 563.306 211.633C563.272 211.46 563.213 211.292 563.133 211.135C562.981 210.767 562.786 210.312 562.536 209.749C561.984 208.482 561.214 206.76 560.282 204.659C559.349 202.558 558.113 199.959 556.867 197.155C556.206 195.736 555.588 194.252 554.796 192.726C554.388 191.914 553.766 191.229 552.997 190.744C552.176 190.306 551.26 190.079 550.33 190.083C543.132 190.083 536.66 190.289 531.955 190.386L526.383 190.538L524.876 190.603C524.691 190.632 524.512 190.69 524.345 190.776Z" fill="#263238"/>
<path d="M540.639 195.465C540.513 195.512 540.4 195.586 540.308 195.684C540.216 195.781 540.148 195.898 540.11 196.026C540.071 196.154 540.062 196.29 540.084 196.421C540.106 196.553 540.159 196.678 540.237 196.786C540.383 197.013 540.597 197.187 540.849 197.282C541.101 197.378 541.377 197.39 541.636 197.317C541.81 197.278 541.971 197.192 542.099 197.068C542.227 196.944 542.318 196.786 542.362 196.613C542.381 196.351 542.313 196.09 542.168 195.87C542.023 195.651 541.809 195.486 541.56 195.4C541.252 195.347 540.936 195.369 540.639 195.465Z" fill="white"/>
<path d="M586.451 216.972L579.946 216.333C579.946 216.333 576.965 212.954 575.794 211.936C574.624 210.918 567.924 207.605 567.924 207.605C567.924 207.605 564.444 203.912 563.989 203.966C563.534 204.02 562.103 204.464 562.721 206.294C563.308 208.115 564.078 209.871 565.019 211.536L551.761 213.442C551.347 213.493 550.95 213.635 550.598 213.858C550.245 214.081 549.947 214.379 549.723 214.73C549.43 215.218 549.343 215.727 550.005 215.954C552.4 216.506 554.825 216.918 557.268 217.189L554.666 216.842C554.666 216.842 554.417 219.311 556.151 220.264C556.818 220.562 557.441 220.948 558.005 221.412C558.159 222.517 558.555 223.574 559.165 224.509C559.956 225.343 567.902 228.288 567.902 228.288C567.902 228.288 572.846 229.133 575.241 228.721L585.984 230.357L586.451 216.972Z" fill="#FFBE9D"/>
<path d="M563.685 211.774C564.945 211.861 566.209 211.861 567.469 211.774C568.736 211.85 570.008 211.759 571.252 211.503C569.999 211.289 568.726 211.22 567.458 211.297C566.182 211.23 564.904 211.391 563.685 211.774Z" fill="#EB996E"/>
<path d="M566.179 217.438C564.357 217.015 562.485 216.847 560.618 216.939C559.078 216.939 557.691 216.939 556.682 216.939C556.14 216.902 555.594 216.923 555.056 217.004C555.573 217.193 556.122 217.281 556.672 217.264C557.691 217.34 559.078 217.373 560.618 217.383C563.685 217.394 566.157 217.557 566.179 217.438Z" fill="#EB996E"/>
<path d="M566.699 221.78C566.699 221.639 564.748 221.78 562.363 221.683C559.978 221.585 558.027 221.206 558.027 221.347C559.409 221.883 560.88 222.159 562.363 222.159C563.819 222.307 565.29 222.178 566.699 221.78Z" fill="#EB996E"/>
<path d="M566.482 226.729C566.612 226.729 566.742 226.198 566.774 225.516C566.807 224.834 566.72 224.292 566.59 224.282C566.46 224.271 566.33 224.823 566.298 225.494C566.265 226.166 566.352 226.729 566.482 226.729Z" fill="#EB996E"/>
<path d="M566.938 220.773C567.068 220.773 567.089 220.307 567.263 219.82C567.436 219.333 567.686 218.986 567.599 218.878C567.512 218.77 567.024 219.051 566.818 219.668C566.612 220.286 566.851 220.805 566.938 220.773Z" fill="#EB996E"/>
<path d="M567.783 214.763C567.924 214.763 568.022 214.47 568.141 214.135C568.26 213.799 568.368 213.507 568.271 213.42C568.173 213.333 567.848 213.55 567.696 213.972C567.545 214.395 567.664 214.774 567.783 214.763Z" fill="#EB996E"/>
<path d="M399.888 115.873L396.914 124.5H395.116L398.862 114.547H400.011L399.888 115.873ZM402.376 124.5L399.396 115.873L399.266 114.547H400.421L404.181 124.5H402.376ZM402.232 120.809V122.169H396.818V120.809H402.232Z" fill="white"/>
<path d="M409.643 122.969V114H411.297V124.5H409.8L409.643 122.969ZM404.83 120.884V120.74C404.83 120.18 404.896 119.669 405.028 119.209C405.16 118.744 405.352 118.345 405.603 118.013C405.853 117.675 406.159 117.418 406.519 117.24C406.879 117.058 407.284 116.967 407.735 116.967C408.182 116.967 408.574 117.053 408.911 117.227C409.248 117.4 409.535 117.648 409.772 117.972C410.009 118.291 410.199 118.674 410.34 119.12C410.481 119.562 410.581 120.054 410.641 120.597V121.055C410.581 121.583 410.481 122.066 410.34 122.504C410.199 122.941 410.009 123.32 409.772 123.639C409.535 123.958 409.246 124.204 408.904 124.377C408.567 124.55 408.173 124.637 407.722 124.637C407.275 124.637 406.872 124.543 406.512 124.356C406.156 124.17 405.853 123.908 405.603 123.57C405.352 123.233 405.16 122.837 405.028 122.381C404.896 121.921 404.83 121.422 404.83 120.884ZM406.478 120.74V120.884C406.478 121.221 406.507 121.535 406.566 121.827C406.63 122.119 406.728 122.376 406.86 122.6C406.993 122.818 407.163 122.992 407.373 123.119C407.587 123.242 407.842 123.304 408.139 123.304C408.512 123.304 408.82 123.222 409.062 123.058C409.303 122.894 409.492 122.673 409.629 122.395C409.77 122.112 409.866 121.798 409.916 121.451V120.214C409.889 119.945 409.832 119.694 409.745 119.462C409.663 119.229 409.551 119.027 409.41 118.854C409.269 118.676 409.093 118.539 408.884 118.443C408.679 118.343 408.435 118.293 408.152 118.293C407.852 118.293 407.596 118.357 407.387 118.484C407.177 118.612 407.004 118.787 406.867 119.011C406.735 119.234 406.637 119.494 406.573 119.79C406.509 120.086 406.478 120.403 406.478 120.74Z" fill="white"/>
<path d="M417.531 122.969V114H419.186V124.5H417.688L417.531 122.969ZM412.719 120.884V120.74C412.719 120.18 412.785 119.669 412.917 119.209C413.049 118.744 413.241 118.345 413.491 118.013C413.742 117.675 414.047 117.418 414.407 117.24C414.767 117.058 415.173 116.967 415.624 116.967C416.071 116.967 416.463 117.053 416.8 117.227C417.137 117.4 417.424 117.648 417.661 117.972C417.898 118.291 418.087 118.674 418.229 119.12C418.37 119.562 418.47 120.054 418.529 120.597V121.055C418.47 121.583 418.37 122.066 418.229 122.504C418.087 122.941 417.898 123.32 417.661 123.639C417.424 123.958 417.135 124.204 416.793 124.377C416.456 124.55 416.062 124.637 415.61 124.637C415.164 124.637 414.76 124.543 414.4 124.356C414.045 124.17 413.742 123.908 413.491 123.57C413.241 123.233 413.049 122.837 412.917 122.381C412.785 121.921 412.719 121.422 412.719 120.884ZM414.366 120.74V120.884C414.366 121.221 414.396 121.535 414.455 121.827C414.519 122.119 414.617 122.376 414.749 122.6C414.881 122.818 415.052 122.992 415.262 123.119C415.476 123.242 415.731 123.304 416.027 123.304C416.401 123.304 416.709 123.222 416.95 123.058C417.192 122.894 417.381 122.673 417.518 122.395C417.659 122.112 417.755 121.798 417.805 121.451V120.214C417.777 119.945 417.72 119.694 417.634 119.462C417.552 119.229 417.44 119.027 417.299 118.854C417.158 118.676 416.982 118.539 416.772 118.443C416.567 118.343 416.324 118.293 416.041 118.293C415.74 118.293 415.485 118.357 415.275 118.484C415.066 118.612 414.893 118.787 414.756 119.011C414.624 119.234 414.526 119.494 414.462 119.79C414.398 120.086 414.366 120.403 414.366 120.74Z" fill="white"/>
<path d="M426.541 123.693L428.551 117.104H430.314L427.348 125.628C427.279 125.81 427.19 126.008 427.081 126.223C426.972 126.437 426.828 126.64 426.65 126.831C426.477 127.027 426.261 127.184 426.001 127.303C425.741 127.426 425.427 127.487 425.058 127.487C424.912 127.487 424.771 127.474 424.634 127.446C424.502 127.424 424.376 127.398 424.258 127.371L424.251 126.113C424.297 126.118 424.351 126.122 424.415 126.127C424.483 126.132 424.538 126.134 424.579 126.134C424.853 126.134 425.08 126.1 425.263 126.031C425.445 125.967 425.593 125.863 425.707 125.717C425.826 125.571 425.926 125.375 426.008 125.129L426.541 123.693ZM425.406 117.104L427.163 122.641L427.457 124.377L426.315 124.671L423.629 117.104H425.406Z" fill="white"/>
<path d="M430.834 120.884V120.727C430.834 120.193 430.911 119.699 431.066 119.243C431.221 118.783 431.445 118.384 431.736 118.047C432.033 117.705 432.393 117.441 432.816 117.254C433.245 117.062 433.728 116.967 434.266 116.967C434.808 116.967 435.291 117.062 435.715 117.254C436.143 117.441 436.506 117.705 436.802 118.047C437.098 118.384 437.324 118.783 437.479 119.243C437.633 119.699 437.711 120.193 437.711 120.727V120.884C437.711 121.417 437.633 121.911 437.479 122.367C437.324 122.823 437.098 123.222 436.802 123.563C436.506 123.901 436.146 124.165 435.722 124.356C435.298 124.543 434.817 124.637 434.279 124.637C433.737 124.637 433.252 124.543 432.823 124.356C432.399 124.165 432.039 123.901 431.743 123.563C431.447 123.222 431.221 122.823 431.066 122.367C430.911 121.911 430.834 121.417 430.834 120.884ZM432.481 120.727V120.884C432.481 121.216 432.516 121.531 432.584 121.827C432.652 122.123 432.759 122.383 432.905 122.606C433.051 122.83 433.238 123.005 433.466 123.133C433.694 123.26 433.965 123.324 434.279 123.324C434.585 123.324 434.849 123.26 435.072 123.133C435.3 123.005 435.487 122.83 435.633 122.606C435.779 122.383 435.886 122.123 435.954 121.827C436.027 121.531 436.063 121.216 436.063 120.884V120.727C436.063 120.398 436.027 120.089 435.954 119.797C435.886 119.501 435.776 119.239 435.626 119.011C435.48 118.783 435.293 118.605 435.065 118.478C434.842 118.345 434.576 118.279 434.266 118.279C433.956 118.279 433.687 118.345 433.459 118.478C433.236 118.605 433.051 118.783 432.905 119.011C432.759 119.239 432.652 119.501 432.584 119.797C432.516 120.089 432.481 120.398 432.481 120.727Z" fill="white"/>
<path d="M443.542 122.757V117.104H445.196V124.5H443.638L443.542 122.757ZM443.774 121.219L444.328 121.205C444.328 121.702 444.273 122.16 444.164 122.579C444.055 122.994 443.886 123.356 443.658 123.666C443.43 123.971 443.139 124.211 442.783 124.384C442.428 124.552 442.002 124.637 441.505 124.637C441.145 124.637 440.814 124.584 440.514 124.479C440.213 124.375 439.953 124.213 439.734 123.994C439.52 123.775 439.354 123.491 439.235 123.14C439.117 122.789 439.058 122.369 439.058 121.882V117.104H440.705V121.896C440.705 122.164 440.737 122.39 440.801 122.572C440.865 122.75 440.951 122.894 441.061 123.003C441.17 123.112 441.298 123.19 441.443 123.235C441.589 123.281 441.744 123.304 441.908 123.304C442.378 123.304 442.747 123.213 443.016 123.03C443.289 122.843 443.483 122.593 443.597 122.278C443.715 121.964 443.774 121.611 443.774 121.219Z" fill="white"/>
<path d="M448.539 118.512V124.5H446.892V117.104H448.464L448.539 118.512ZM450.802 117.056L450.788 118.587C450.688 118.569 450.578 118.555 450.46 118.546C450.346 118.537 450.232 118.532 450.118 118.532C449.836 118.532 449.587 118.573 449.373 118.655C449.159 118.733 448.979 118.847 448.833 118.997C448.692 119.143 448.582 119.321 448.505 119.53C448.427 119.74 448.382 119.975 448.368 120.234L447.992 120.262C447.992 119.797 448.038 119.366 448.129 118.97C448.22 118.573 448.357 118.225 448.539 117.924C448.726 117.623 448.958 117.388 449.236 117.22C449.519 117.051 449.845 116.967 450.214 116.967C450.314 116.967 450.421 116.976 450.535 116.994C450.654 117.012 450.743 117.033 450.802 117.056Z" fill="white"/>
<path d="M457.316 114.547V124.5H455.601V114.547H457.316Z" fill="white"/>
<path d="M464.686 121.937C464.686 121.731 464.654 121.549 464.59 121.39C464.531 121.23 464.424 121.084 464.269 120.952C464.114 120.82 463.895 120.692 463.612 120.569C463.334 120.442 462.979 120.312 462.546 120.18C462.072 120.034 461.634 119.872 461.233 119.694C460.837 119.512 460.491 119.302 460.194 119.065C459.898 118.824 459.668 118.548 459.504 118.238C459.34 117.924 459.258 117.562 459.258 117.151C459.258 116.746 459.342 116.377 459.511 116.044C459.684 115.711 459.928 115.424 460.242 115.183C460.561 114.937 460.937 114.747 461.37 114.615C461.803 114.479 462.282 114.41 462.806 114.41C463.544 114.41 464.18 114.547 464.713 114.82C465.251 115.094 465.663 115.461 465.95 115.921C466.242 116.381 466.388 116.889 466.388 117.445H464.686C464.686 117.117 464.615 116.828 464.474 116.577C464.337 116.322 464.127 116.121 463.845 115.976C463.567 115.83 463.214 115.757 462.785 115.757C462.38 115.757 462.042 115.818 461.773 115.941C461.505 116.064 461.304 116.231 461.172 116.44C461.04 116.65 460.974 116.887 460.974 117.151C460.974 117.338 461.017 117.509 461.104 117.664C461.19 117.814 461.322 117.956 461.5 118.088C461.678 118.215 461.901 118.336 462.17 118.45C462.439 118.564 462.756 118.674 463.12 118.778C463.672 118.942 464.152 119.125 464.562 119.325C464.973 119.521 465.314 119.744 465.588 119.995C465.861 120.246 466.066 120.531 466.203 120.85C466.34 121.164 466.408 121.522 466.408 121.923C466.408 122.342 466.324 122.72 466.155 123.058C465.987 123.39 465.745 123.675 465.431 123.912C465.121 124.145 464.747 124.325 464.31 124.452C463.877 124.575 463.394 124.637 462.86 124.637C462.382 124.637 461.91 124.573 461.445 124.445C460.985 124.318 460.566 124.124 460.188 123.864C459.809 123.6 459.508 123.272 459.285 122.88C459.062 122.483 458.95 122.021 458.95 121.492H460.666C460.666 121.816 460.721 122.091 460.83 122.319C460.944 122.547 461.101 122.734 461.302 122.88C461.502 123.021 461.735 123.126 461.999 123.194C462.268 123.263 462.555 123.297 462.86 123.297C463.261 123.297 463.596 123.24 463.865 123.126C464.139 123.012 464.344 122.853 464.48 122.647C464.617 122.442 464.686 122.205 464.686 121.937Z" fill="white"/>
<path d="M471.706 120.788H469.115V119.428H471.706C472.157 119.428 472.522 119.355 472.8 119.209C473.078 119.063 473.281 118.863 473.408 118.607C473.54 118.348 473.606 118.051 473.606 117.719C473.606 117.404 473.54 117.11 473.408 116.837C473.281 116.559 473.078 116.336 472.8 116.167C472.522 115.998 472.157 115.914 471.706 115.914H469.642V124.5H467.926V114.547H471.706C472.476 114.547 473.13 114.684 473.668 114.957C474.21 115.226 474.623 115.6 474.905 116.078C475.188 116.552 475.329 117.094 475.329 117.705C475.329 118.348 475.188 118.899 474.905 119.359C474.623 119.82 474.21 120.173 473.668 120.419C473.13 120.665 472.476 120.788 471.706 120.788Z" fill="white"/>
<path d="M263.17 74.8523C263.133 74.4356 262.964 74.1117 262.665 73.8807C262.369 73.6458 261.947 73.5284 261.398 73.5284C261.034 73.5284 260.731 73.5757 260.489 73.6704C260.246 73.7651 260.064 73.8958 259.943 74.0625C259.822 74.2254 259.759 74.4129 259.756 74.625C259.748 74.7992 259.782 74.9526 259.858 75.0852C259.937 75.2178 260.051 75.3352 260.199 75.4375C260.35 75.536 260.532 75.6231 260.744 75.6988C260.956 75.7746 261.195 75.8409 261.46 75.8977L262.46 76.125C263.036 76.25 263.544 76.4167 263.983 76.625C264.426 76.8333 264.797 77.0814 265.097 77.3693C265.4 77.6572 265.629 77.9886 265.784 78.3636C265.939 78.7386 266.019 79.1591 266.023 79.625C266.019 80.3598 265.833 80.9905 265.466 81.517C265.098 82.0435 264.57 82.447 263.881 82.7273C263.195 83.0076 262.367 83.1477 261.398 83.1477C260.424 83.1477 259.576 83.0019 258.852 82.7102C258.129 82.4185 257.566 81.9754 257.165 81.3807C256.763 80.786 256.557 80.0341 256.545 79.125H259.239C259.261 79.5 259.362 79.8125 259.54 80.0625C259.718 80.3125 259.962 80.5019 260.273 80.6307C260.587 80.7595 260.951 80.8238 261.364 80.8238C261.742 80.8238 262.064 80.7727 262.33 80.6704C262.598 80.5682 262.805 80.4261 262.949 80.2443C263.093 80.0625 263.167 79.8542 263.17 79.6193C263.167 79.3996 263.098 79.2121 262.966 79.0568C262.833 78.8977 262.629 78.7613 262.352 78.6477C262.08 78.5303 261.731 78.4223 261.307 78.3238L260.091 78.0398C259.083 77.8087 258.29 77.4356 257.71 76.9204C257.131 76.4015 256.843 75.7007 256.847 74.8182C256.843 74.0985 257.036 73.4678 257.426 72.9261C257.816 72.3845 258.356 71.9621 259.045 71.6591C259.735 71.356 260.521 71.2045 261.403 71.2045C262.305 71.2045 263.087 71.3579 263.75 71.6648C264.417 71.9678 264.934 72.3939 265.301 72.9432C265.669 73.4924 265.856 74.1288 265.864 74.8523H263.17Z" fill="#2D248A"/>
<path d="M278.426 77.1818C278.426 78.4621 278.18 79.5473 277.687 80.4375C277.195 81.3276 276.528 82.0038 275.687 82.4659C274.85 82.928 273.911 83.1591 272.869 83.1591C271.824 83.1591 270.883 82.9261 270.045 82.4602C269.208 81.9943 268.544 81.3182 268.051 80.4318C267.562 79.5417 267.318 78.4583 267.318 77.1818C267.318 75.9015 267.562 74.8163 268.051 73.9261C268.544 73.036 269.208 72.3598 270.045 71.8977C270.883 71.4356 271.824 71.2045 272.869 71.2045C273.911 71.2045 274.85 71.4356 275.687 71.8977C276.528 72.3598 277.195 73.036 277.687 73.9261C278.18 74.8163 278.426 75.9015 278.426 77.1818ZM275.551 77.1818C275.551 76.4242 275.443 75.7841 275.227 75.2613C275.015 74.7386 274.708 74.3428 274.307 74.0738C273.909 73.8049 273.43 73.6704 272.869 73.6704C272.312 73.6704 271.833 73.8049 271.432 74.0738C271.03 74.3428 270.722 74.7386 270.506 75.2613C270.294 75.7841 270.187 76.4242 270.187 77.1818C270.187 77.9394 270.294 78.5795 270.506 79.1023C270.722 79.625 271.03 80.0208 271.432 80.2898C271.833 80.5587 272.312 80.6932 272.869 80.6932C273.43 80.6932 273.909 80.5587 274.307 80.2898C274.708 80.0208 275.015 79.625 275.227 79.1023C275.443 78.5795 275.551 77.9394 275.551 77.1818Z" fill="#2D248A"/>
<path d="M289.972 71.3636V83H287.585L282.955 76.2841H282.881V83H280.068V71.3636H282.489L287.068 78.0682H287.165V71.3636H289.972Z" fill="#2D248A"/>
<path d="M299.376 75.1648C299.312 74.9261 299.217 74.7159 299.092 74.5341C298.967 74.3485 298.814 74.1913 298.632 74.0625C298.45 73.9337 298.242 73.8371 298.007 73.7727C297.772 73.7045 297.515 73.6704 297.234 73.6704C296.67 73.6704 296.181 73.8068 295.768 74.0795C295.359 74.3523 295.043 74.75 294.82 75.2727C294.596 75.7917 294.484 76.4223 294.484 77.1648C294.484 77.911 294.592 78.5473 294.808 79.0738C295.024 79.6004 295.337 80.0019 295.746 80.2784C296.155 80.5549 296.651 80.6932 297.234 80.6932C297.75 80.6932 298.185 80.6098 298.541 80.4432C298.901 80.2727 299.174 80.0322 299.359 79.7216C299.545 79.411 299.638 79.0454 299.638 78.625L300.16 78.6875H297.331V76.6363H302.348V78.1761C302.348 79.2178 302.126 80.1098 301.683 80.8523C301.244 81.5947 300.638 82.1648 299.865 82.5625C299.096 82.9602 298.212 83.1591 297.212 83.1591C296.102 83.1591 295.126 82.9185 294.285 82.4375C293.445 81.9564 292.789 81.2708 292.32 80.3807C291.85 79.4867 291.615 78.4261 291.615 77.1988C291.615 76.2443 291.757 75.3977 292.041 74.6591C292.325 73.9167 292.721 73.2879 293.229 72.7727C293.74 72.2576 294.331 71.8674 295.001 71.6023C295.676 71.3371 296.401 71.2045 297.178 71.2045C297.852 71.2045 298.479 71.3011 299.058 71.4943C299.642 71.6875 300.157 71.9602 300.604 72.3125C301.054 72.6648 301.42 73.0833 301.7 73.5682C301.981 74.053 302.155 74.5852 302.223 75.1648H299.376Z" fill="#2D248A"/>
<path d="M308.733 71.3636H311.506V79.4091C311.502 80.1629 311.322 80.822 310.966 81.3863C310.61 81.947 310.117 82.3826 309.489 82.6932C308.864 83.0038 308.14 83.1591 307.318 83.1591C306.591 83.1591 305.93 83.0322 305.335 82.7784C304.744 82.5246 304.273 82.1307 303.92 81.5966C303.572 81.0625 303.4 80.3788 303.403 79.5454H306.205C306.216 79.8447 306.273 80.1004 306.375 80.3125C306.481 80.5208 306.627 80.678 306.812 80.7841C306.998 80.8901 307.22 80.9432 307.477 80.9432C307.746 80.9432 307.973 80.8863 308.159 80.7727C308.345 80.6553 308.485 80.4829 308.58 80.2557C308.678 80.0284 308.729 79.7462 308.733 79.4091V71.3636Z" fill="#2D248A"/>
<path d="M324.254 77.1818C324.254 78.4621 324.008 79.5473 323.516 80.4375C323.023 81.3276 322.357 82.0038 321.516 82.4659C320.678 82.928 319.739 83.1591 318.697 83.1591C317.652 83.1591 316.711 82.9261 315.874 82.4602C315.036 81.9943 314.372 81.3182 313.879 80.4318C313.391 79.5417 313.146 78.4583 313.146 77.1818C313.146 75.9015 313.391 74.8163 313.879 73.9261C314.372 73.036 315.036 72.3598 315.874 71.8977C316.711 71.4356 317.652 71.2045 318.697 71.2045C319.739 71.2045 320.678 71.4356 321.516 71.8977C322.357 72.3598 323.023 73.036 323.516 73.9261C324.008 74.8163 324.254 75.9015 324.254 77.1818ZM321.379 77.1818C321.379 76.4242 321.271 75.7841 321.055 75.2613C320.843 74.7386 320.536 74.3428 320.135 74.0738C319.737 73.8049 319.258 73.6704 318.697 73.6704C318.141 73.6704 317.661 73.8049 317.26 74.0738C316.858 74.3428 316.55 74.7386 316.334 75.2613C316.122 75.7841 316.016 76.4242 316.016 77.1818C316.016 77.9394 316.122 78.5795 316.334 79.1023C316.55 79.625 316.858 80.0208 317.26 80.2898C317.661 80.5587 318.141 80.6932 318.697 80.6932C319.258 80.6932 319.737 80.5587 320.135 80.2898C320.536 80.0208 320.843 79.625 321.055 79.1023C321.271 78.5795 321.379 77.9394 321.379 77.1818Z" fill="#2D248A"/>
<path d="M333.533 75.1648C333.468 74.9261 333.374 74.7159 333.249 74.5341C333.124 74.3485 332.97 74.1913 332.788 74.0625C332.607 73.9337 332.398 73.8371 332.163 73.7727C331.928 73.7045 331.671 73.6704 331.391 73.6704C330.826 73.6704 330.338 73.8068 329.925 74.0795C329.516 74.3523 329.199 74.75 328.976 75.2727C328.752 75.7917 328.641 76.4223 328.641 77.1648C328.641 77.911 328.749 78.5473 328.964 79.0738C329.18 79.6004 329.493 80.0019 329.902 80.2784C330.311 80.5549 330.807 80.6932 331.391 80.6932C331.906 80.6932 332.341 80.6098 332.697 80.4432C333.057 80.2727 333.33 80.0322 333.516 79.7216C333.701 79.411 333.794 79.0454 333.794 78.625L334.317 78.6875H331.487V76.6363H336.504V78.1761C336.504 79.2178 336.283 80.1098 335.839 80.8523C335.4 81.5947 334.794 82.1648 334.021 82.5625C333.252 82.9602 332.368 83.1591 331.368 83.1591C330.258 83.1591 329.283 82.9185 328.442 82.4375C327.601 81.9564 326.946 81.2708 326.476 80.3807C326.006 79.4867 325.771 78.4261 325.771 77.1988C325.771 76.2443 325.913 75.3977 326.197 74.6591C326.482 73.9167 326.877 73.2879 327.385 72.7727C327.896 72.2576 328.487 71.8674 329.158 71.6023C329.832 71.3371 330.557 71.2045 331.334 71.2045C332.008 71.2045 332.635 71.3011 333.214 71.4943C333.798 71.6875 334.313 71.9602 334.76 72.3125C335.211 72.6648 335.576 73.0833 335.857 73.5682C336.137 74.053 336.311 74.5852 336.379 75.1648H333.533Z" fill="#2D248A"/>
</g>
<defs>
<clipPath id="clip0_19_10">
<rect width="641" height="480" fill="white"/>
</clipPath>
</defs>
</svg>
