<svg width="28" height="28" viewBox="0 0 28 28" fill="none" xmlns="http://www.w3.org/2000/svg">
<g clip-path="url(#clip0_324_942)">
<path d="M25.1488 21.8473L27.9111 26.9486C28.2472 27.5694 27.5697 28.2469 26.949 27.9108L21.8477 25.1484L25.1488 21.8473Z" fill="#2D248A"/>
<path d="M14 28C21.732 28 28 21.732 28 14C28 6.26801 21.732 0 14 0C6.26801 0 0 6.26801 0 14C0 21.732 6.26801 28 14 28Z" fill="#614AD3"/>
<path d="M22.3149 2.73672C24.0344 5.06198 25.0517 7.93805 25.0517 11.0521C25.0517 18.7841 18.7837 25.0521 11.0517 25.0521C7.93771 25.0521 5.06159 24.0348 2.73633 22.3153C5.28635 25.7637 9.38157 28 13.9996 28C21.7316 28 27.9996 21.732 27.9996 14C27.9996 9.38197 25.7633 5.28675 22.3149 2.73672Z" fill="#2D248A"/>
<path d="M7.00648 22.3696C7.66218 22.6155 8.39264 22.2833 8.63846 21.6279C8.68287 21.5095 9.20831 20.1082 9.91443 18.2254H18.0873C18.7926 20.1061 19.3176 21.5062 19.3633 21.6279C19.609 22.2833 20.3398 22.6155 20.9953 22.3696C21.6508 22.1238 21.9829 21.3931 21.7371 20.7377C21.4119 19.8706 15.396 3.82817 15.1877 3.27287C15.0022 2.77811 14.5292 2.45032 14.0008 2.45032C13.4725 2.45032 12.9995 2.77811 12.814 3.27287C12.7685 3.39411 6.41356 20.3406 6.26464 20.7377C6.01882 21.3932 6.35099 22.1238 7.00648 22.3696ZM10.8651 15.6901C12.3148 11.8241 13.9465 7.47282 14.0008 7.32811C14.1085 7.61528 15.7108 11.8881 17.1366 15.6902H10.8651V15.6901Z" fill="#FFF9EB"/>
<path d="M15.1876 3.27287C15.0269 2.84412 14.6501 2.54121 14.2087 2.46793C13.9311 2.80617 13.836 3.27883 14.0008 3.71803L18.5374 15.8158C18.7446 16.3684 18.3356 16.9578 17.7454 16.9576C9.33176 16.9543 9.71933 16.9206 9.38841 17.0721C9.23283 17.1432 9.09206 17.2457 8.97716 17.3719C8.75765 17.6114 8.8224 17.5266 7.45291 21.1834C7.45291 21.1834 7.45242 21.1832 7.45127 21.1828C7.01224 21.0182 6.53947 21.1133 6.20117 21.391C6.41413 22.6628 8.18365 22.8403 8.63832 21.628C8.68273 21.5096 9.20816 20.1083 9.91429 18.2255H18.0872C18.7925 20.1062 19.3175 21.5063 19.3631 21.628C19.6089 22.2834 20.3397 22.6156 20.9951 22.3697C21.6506 22.1239 21.9827 21.3932 21.7369 20.7378C21.4118 19.8706 15.3959 3.82817 15.1876 3.27287Z" fill="#D3CDBF"/>
</g>
<defs>
<clipPath id="clip0_324_942">
<rect width="28" height="28" fill="white"/>
</clipPath>
</defs>
</svg>
