<svg width="124" height="41" viewBox="0 0 124 41" fill="none" xmlns="http://www.w3.org/2000/svg">
<g clip-path="url(#clip0_21_79)">
<path d="M114.125 0.00013325H9.88016C9.50017 0.00013325 9.12475 0.00013325 8.74576 0.00218325C8.42852 0.00423325 8.11381 0.0101885 7.79352 0.0152007C7.0977 0.0233001 6.40352 0.0838514 5.71701 0.196328C5.03146 0.311254 4.36739 0.527922 3.74725 0.839003C3.12787 1.15272 2.56193 1.56035 2.06995 2.04713C1.57539 2.53254 1.16313 3.0936 0.849038 3.70875C0.534075 4.32267 0.315679 4.98055 0.201392 5.65965C0.0860188 6.3379 0.0239353 7.02397 0.0156989 7.7117C0.00608269 8.02596 0.00506719 8.34128 0 8.65558V32.3477C0.00506719 32.666 0.00608269 32.9743 0.0156989 33.2926C0.0239379 33.9803 0.0860213 34.6664 0.201392 35.3446C0.315363 36.0241 0.533773 36.6823 0.849038 37.2965C1.16299 37.9097 1.5753 38.4684 2.06995 38.9512C2.56006 39.4401 3.12637 39.848 3.74725 40.1593C4.36738 40.4712 5.03138 40.6892 5.71701 40.8059C6.40364 40.9175 7.09774 40.978 7.79352 40.9871C8.11381 40.9941 8.42852 40.9981 8.74576 40.9981C9.12474 41.0001 9.50019 41.0001 9.88016 41.0001H114.125C114.498 41.0001 114.876 41.0001 115.249 40.9981C115.564 40.9981 115.888 40.9941 116.204 40.9871C116.898 40.9785 117.591 40.9179 118.276 40.8059C118.964 40.6884 119.631 40.4705 120.254 40.1593C120.874 39.8478 121.44 39.4399 121.93 38.9512C122.423 38.4666 122.836 37.9082 123.154 37.2965C123.467 36.6819 123.683 36.0237 123.796 35.3446C123.911 34.6663 123.975 33.9804 123.988 33.2926C123.992 32.9743 123.992 32.666 123.992 32.3477C124 31.9753 124 31.605 124 31.2266V9.77467C124 9.3993 124 9.02694 123.992 8.65558C123.992 8.34128 123.992 8.02596 123.988 7.71166C123.975 7.02387 123.911 6.33795 123.796 5.65961C123.683 4.9809 123.467 4.32307 123.154 3.70871C122.514 2.47571 121.5 1.47206 120.254 0.838911C119.631 0.52859 118.964 0.31198 118.276 0.196236C117.591 0.0832636 116.898 0.0226912 116.204 0.0150572C115.888 0.0100552 115.564 0.00404875 115.249 0.00205C114.876 0 114.498 0 114.125 0V0.00013325Z" fill="#393E46"/>
<path d="M8.75086 40.1032C8.43514 40.1032 8.12704 40.0992 7.8138 40.0923C7.16489 40.0839 6.5175 40.028 5.87693 39.9251C5.27964 39.8233 4.70102 39.634 4.16016 39.3635C3.62427 39.0952 3.13549 38.7433 2.71254 38.3215C2.28348 37.9046 1.92627 37.421 1.65506 36.8901C1.38086 36.3556 1.1911 35.7827 1.09238 35.1914C0.985779 34.556 0.928102 33.9136 0.919849 33.2695C0.913279 33.0534 0.904678 32.3336 0.904678 32.3336V8.65555C0.904678 8.65555 0.913839 7.94685 0.919901 7.73864C0.927803 7.09564 0.985144 6.45417 1.09143 5.81977C1.19033 5.22683 1.38023 4.65231 1.65458 4.11612C1.92479 3.58549 2.28003 3.1016 2.7065 2.68322C3.1325 2.26086 3.62285 1.90722 4.15966 1.63519C4.69927 1.36549 5.27679 1.17755 5.87288 1.07765C6.51555 0.97368 7.16519 0.917469 7.81635 0.909488L8.75137 0.896973H115.244L116.19 0.90999C116.835 0.917574 117.479 0.973284 118.116 1.07664C118.718 1.1778 119.301 1.36705 119.847 1.63819C120.922 2.18641 121.798 3.05374 122.35 4.11862C122.62 4.65111 122.806 5.22094 122.904 5.80876C123.012 6.44836 123.072 7.09488 123.084 7.74315C123.087 8.03343 123.087 8.34524 123.087 8.65555C123.095 9.03992 123.095 9.40577 123.095 9.77463V31.2265C123.095 31.5989 123.095 31.9623 123.087 32.3286C123.087 32.6619 123.087 32.9673 123.083 33.2815C123.071 33.9182 123.012 34.5532 122.906 35.1814C122.809 35.777 122.621 36.3543 122.347 36.8931C122.073 37.4184 121.718 37.8977 121.294 38.3135C120.871 38.7376 120.381 39.0915 119.844 39.3615C119.3 39.6342 118.717 39.8242 118.116 39.9251C117.475 40.0286 116.828 40.0844 116.179 40.0923C115.875 40.0992 115.557 40.1032 115.249 40.1032L114.125 40.1053L8.75086 40.1032Z" fill="#393E46"/>
<path d="M25.6664 20.8084C25.6775 19.9528 25.9072 19.114 26.3342 18.3699C26.7611 17.6258 27.3714 17.0006 28.1083 16.5525C27.6402 15.8912 27.0227 15.347 26.3047 14.9631C25.5868 14.5792 24.7883 14.3661 23.9725 14.3409C22.2324 14.1602 20.5455 15.3708 19.6588 15.3708C18.7549 15.3708 17.3897 14.3588 15.9195 14.3887C14.9686 14.4191 14.0419 14.6927 13.2296 15.1827C12.4173 15.6727 11.7472 16.3625 11.2845 17.1848C9.28046 20.6169 10.7753 25.661 12.6951 28.4353C13.6555 29.7938 14.7781 31.3112 16.2469 31.2574C17.6842 31.1985 18.221 30.3508 19.956 30.3508C21.6748 30.3508 22.1785 31.2574 23.6771 31.2232C25.2194 31.1985 26.1911 29.8587 27.1179 28.4873C27.808 27.5194 28.3391 26.4496 28.6914 25.3175C27.7953 24.9427 27.0307 24.3152 26.4927 23.5133C25.9548 22.7115 25.6674 21.7707 25.6664 20.8084Z" fill="white"/>
<path d="M22.8358 12.5161C23.6767 11.5176 24.091 10.2341 23.9907 8.93823C22.7059 9.07171 21.5191 9.67908 20.6668 10.6393C20.2501 11.1084 19.931 11.6542 19.7276 12.2454C19.5243 12.8366 19.4407 13.4616 19.4817 14.0848C20.1243 14.0913 20.76 13.9535 21.341 13.6818C21.922 13.4101 22.4331 13.0115 22.8358 12.5161Z" fill="white"/>
<path d="M43.835 27.8181H38.9301L37.7522 31.2585H35.6747L40.3205 18.53H42.479L47.1249 31.2585H45.0119L43.835 27.8181ZM39.4381 26.2306H43.3261L41.4094 20.6471H41.3558L39.4381 26.2306Z" fill="white"/>
<path d="M57.1583 26.6192C57.1583 29.503 55.5979 31.3558 53.2431 31.3558C52.6466 31.3867 52.0533 31.2508 51.5313 30.9636C51.0092 30.6765 50.5795 30.2498 50.2913 29.7322H50.2467V34.3287H48.321V21.9787H50.185V23.5222H50.2204C50.5219 23.0072 50.9589 22.5826 51.4849 22.2937C52.011 22.0048 52.6063 21.8624 53.2077 21.8816C55.5887 21.8816 57.1583 23.7434 57.1583 26.6192ZM55.1789 26.6192C55.1789 24.7404 54.1974 23.5052 52.6997 23.5052C51.2283 23.5052 50.2386 24.7664 50.2386 26.6192C50.2386 28.4891 51.2283 29.7413 52.6997 29.7413C54.1974 29.7413 55.1789 28.5151 55.1789 26.6192Z" fill="white"/>
<path d="M67.4842 26.6192C67.4842 29.503 65.9238 31.3558 63.569 31.3558C62.9725 31.3867 62.3793 31.2508 61.8572 30.9636C61.3352 30.6765 60.9054 30.2497 60.6172 29.7322H60.5726V34.3287H58.6469V21.9787H60.5109V23.5222H60.5463C60.8478 23.0072 61.2848 22.5826 61.8108 22.2937C62.3368 22.0048 62.9322 21.8624 63.5336 21.8816C65.9147 21.8816 67.4842 23.7434 67.4842 26.6192ZM65.5049 26.6192C65.5049 24.7404 64.5233 23.5052 63.0256 23.5052C61.5542 23.5052 60.5645 24.7664 60.5645 26.6192C60.5645 28.489 61.5542 29.7413 63.0256 29.7413C64.5233 29.7413 65.5049 28.5151 65.5049 26.6192H65.5049Z" fill="white"/>
<path d="M74.3088 27.7121C74.4515 28.9743 75.6912 29.8031 77.3851 29.8031C79.0083 29.8031 80.1761 28.9743 80.1761 27.8362C80.1761 26.8482 79.4718 26.2566 77.8041 25.8512L76.1364 25.4538C73.7735 24.8893 72.6765 23.7962 72.6765 22.0225C72.6765 19.8263 74.6114 18.3179 77.3588 18.3179C80.0779 18.3179 81.9419 19.8263 82.0047 22.0225H80.0607C79.9443 20.7522 78.8828 19.9855 77.3315 19.9855C75.7802 19.9855 74.7186 20.7613 74.7186 21.8904C74.7186 22.7902 75.3966 23.3198 77.0552 23.7251L78.4729 24.0695C81.1131 24.6871 82.2101 25.7361 82.2101 27.5979C82.2101 29.9792 80.2924 31.4707 77.2424 31.4707C74.3887 31.4707 72.462 30.0142 72.3375 27.712L74.3088 27.7121Z" fill="white"/>
<path d="M86.3662 19.7825V21.9786H88.1502V23.4871H86.3662V28.6031C86.3662 29.3979 86.7234 29.7682 87.5076 29.7682C87.7194 29.7646 87.9309 29.7498 88.1411 29.7241V31.2236C87.7885 31.2888 87.4301 31.3183 87.0715 31.3117C85.1721 31.3117 84.4313 30.606 84.4313 28.8062V23.4871H83.0672V21.9786H84.4313V19.7825H86.3662Z" fill="white"/>
<path d="M89.1835 26.6191C89.1835 23.6993 90.922 21.8645 93.633 21.8645C96.3531 21.8645 98.0835 23.6993 98.0835 26.6191C98.0835 29.547 96.3622 31.3738 93.633 31.3738C90.9047 31.3738 89.1835 29.547 89.1835 26.6191ZM96.1214 26.6191C96.1214 24.6162 95.1934 23.434 93.633 23.434C92.0726 23.434 91.1456 24.6252 91.1456 26.6191C91.1456 28.6301 92.0726 29.8032 93.633 29.8032C95.1934 29.8032 96.1213 28.6301 96.1213 26.6191H96.1214Z" fill="white"/>
<path d="M99.6712 21.9786H101.508V23.5581H101.552C101.677 23.0648 101.969 22.6288 102.38 22.3235C102.791 22.0182 103.296 21.8621 103.809 21.8815C104.031 21.8807 104.252 21.9046 104.469 21.9526V23.7343C104.189 23.6496 103.896 23.6107 103.604 23.6192C103.324 23.608 103.045 23.6568 102.786 23.7622C102.527 23.8677 102.294 24.0273 102.104 24.2301C101.913 24.433 101.769 24.6742 101.682 24.9373C101.594 25.2004 101.565 25.4791 101.597 25.7543V31.2586H99.6712L99.6712 21.9786Z" fill="white"/>
<path d="M113.348 28.533C113.089 30.2176 111.43 31.3738 109.308 31.3738C106.579 31.3738 104.885 29.565 104.885 26.6632C104.885 23.7523 106.588 21.8645 109.227 21.8645C111.823 21.8645 113.455 23.6282 113.455 26.442V27.0946H106.829V27.2097C106.798 27.5512 106.841 27.8953 106.956 28.219C107.07 28.5428 107.252 28.8388 107.491 29.0874C107.73 29.336 108.019 29.5315 108.34 29.661C108.661 29.7905 109.006 29.8509 109.353 29.8383C109.808 29.8804 110.264 29.7762 110.655 29.541C111.045 29.3058 111.348 28.9523 111.519 28.533L113.348 28.533ZM106.838 25.7633H111.528C111.546 25.4562 111.498 25.1489 111.39 24.8607C111.282 24.5724 111.114 24.3095 110.898 24.0883C110.682 23.8672 110.422 23.6926 110.134 23.5755C109.847 23.4584 109.538 23.4014 109.227 23.408C108.913 23.4062 108.603 23.4658 108.312 23.5834C108.022 23.701 107.758 23.8743 107.536 24.0932C107.314 24.3122 107.138 24.5725 107.018 24.8592C106.898 25.1458 106.837 25.4531 106.838 25.7633V25.7633Z" fill="white"/>
<path d="M39.1968 8.94908C39.6005 8.92042 40.0056 8.98075 40.3829 9.12572C40.7602 9.27069 41.1003 9.49668 41.3786 9.7874C41.657 10.0781 41.8666 10.4263 41.9924 10.8069C42.1182 11.1874 42.157 11.5908 42.1061 11.988C42.1061 13.9419 41.0385 15.0651 39.1968 15.0651H36.9634V8.94908H39.1968ZM37.9237 14.2002H39.0895C39.378 14.2172 39.6667 14.1704 39.9346 14.0632C40.2025 13.956 40.4429 13.791 40.6382 13.5803C40.8335 13.3696 40.9789 13.1184 41.0637 12.8452C41.1485 12.5719 41.1707 12.2833 41.1286 12.0005C41.1676 11.7188 41.1432 11.432 41.0571 11.1608C40.971 10.8895 40.8253 10.6404 40.6304 10.4314C40.4355 10.2223 40.1963 10.0585 39.9299 9.95169C39.6635 9.84485 39.3765 9.79761 39.0895 9.81337H37.9237V14.2002Z" fill="white"/>
<path d="M43.1909 12.7554C43.1616 12.4521 43.1967 12.146 43.2939 11.8569C43.3911 11.5678 43.5484 11.302 43.7556 11.0765C43.9628 10.851 44.2153 10.6708 44.497 10.5476C44.7787 10.4243 45.0834 10.3606 45.3914 10.3606C45.6994 10.3606 46.0041 10.4243 46.2858 10.5476C46.5675 10.6708 46.82 10.851 47.0272 11.0765C47.2344 11.302 47.3917 11.5678 47.4889 11.8569C47.5861 12.146 47.6212 12.4521 47.5919 12.7554C47.6218 13.059 47.5871 13.3655 47.4901 13.6551C47.3931 13.9446 47.236 14.211 47.0287 14.4369C46.8215 14.6628 46.5688 14.8433 46.2868 14.9669C46.0048 15.0904 45.6998 15.1543 45.3914 15.1543C45.083 15.1543 44.778 15.0904 44.496 14.9669C44.214 14.8433 43.9613 14.6628 43.7541 14.4369C43.5468 14.211 43.3897 13.9446 43.2927 13.6551C43.1957 13.3655 43.161 13.059 43.1909 12.7554ZM46.6447 12.7554C46.6447 11.7549 46.1903 11.1698 45.3929 11.1698C44.5925 11.1698 44.1422 11.7549 44.1422 12.7554C44.1422 13.7639 44.5925 14.3444 45.3929 14.3444C46.1903 14.3444 46.6447 13.7599 46.6447 12.7554H46.6447Z" fill="white"/>
<path d="M53.442 15.0652H52.4867L51.5223 11.6659H51.4494L50.4891 15.0652H49.5429L48.2567 10.4497H49.1908L50.0266 13.9716H50.0955L51.0548 10.4497H51.9382L52.8975 13.9716H52.9704L53.8022 10.4497H54.7231L53.442 15.0652Z" fill="white"/>
<path d="M55.8049 10.4496H56.6913V11.1828H56.7601C56.8769 10.9195 57.0738 10.6987 57.3234 10.5513C57.573 10.4039 57.8628 10.3372 58.1526 10.3605C58.3796 10.3436 58.6076 10.3775 58.8196 10.4596C59.0316 10.5417 59.2222 10.6699 59.3773 10.8348C59.5324 10.9996 59.6481 11.1969 59.7156 11.412C59.7832 11.627 59.801 11.8544 59.7676 12.0772V15.065H58.8468V12.3059C58.8468 11.5642 58.5209 11.1953 57.8399 11.1953C57.6857 11.1882 57.5319 11.2142 57.3888 11.2714C57.2457 11.3286 57.1169 11.4158 57.0111 11.5269C56.9052 11.638 56.8249 11.7704 56.7757 11.915C56.7264 12.0597 56.7094 12.2132 56.7257 12.365V15.0651H55.8049L55.8049 10.4496Z" fill="white"/>
<path d="M61.235 8.64795H62.1558V15.0652H61.235V8.64795Z" fill="white"/>
<path d="M63.436 12.7555C63.4066 12.4521 63.4417 12.1461 63.539 11.857C63.6363 11.5678 63.7935 11.302 64.0008 11.0765C64.208 10.851 64.4605 10.6708 64.7422 10.5476C65.024 10.4243 65.3286 10.3606 65.6367 10.3606C65.9447 10.3606 66.2494 10.4243 66.5311 10.5476C66.8128 10.6708 67.0654 10.851 67.2726 11.0765C67.4798 11.302 67.6371 11.5678 67.7344 11.857C67.8316 12.1461 67.8667 12.4521 67.8374 12.7555C67.8673 13.0591 67.8326 13.3656 67.7356 13.6552C67.6386 13.9447 67.4814 14.2111 67.2741 14.437C67.0668 14.6629 66.8141 14.8434 66.5321 14.967C66.2501 15.0905 65.9451 15.1543 65.6367 15.1543C65.3283 15.1543 65.0233 15.0905 64.7413 14.967C64.4593 14.8434 64.2065 14.6629 63.9993 14.437C63.792 14.2111 63.6348 13.9447 63.5378 13.6552C63.4408 13.3656 63.4061 13.0591 63.436 12.7555ZM66.8897 12.7555C66.8897 11.755 66.4354 11.1699 65.6379 11.1699C64.8375 11.1699 64.3872 11.755 64.3872 12.7555C64.3872 13.764 64.8375 14.3445 65.6379 14.3445C66.4354 14.3445 66.8897 13.7599 66.8897 12.7555H66.8897Z" fill="white"/>
<path d="M68.8069 13.7599C68.8069 12.9291 69.4323 12.4501 70.5424 12.3821L71.8063 12.31V11.9116C71.8063 11.4241 71.4804 11.1489 70.851 11.1489C70.3369 11.1489 69.9807 11.3355 69.8785 11.6619H68.987C69.0811 10.8691 69.835 10.3606 70.8935 10.3606C72.0633 10.3606 72.7231 10.9366 72.7231 11.9116V15.0652H71.8366V14.4166H71.7638C71.6159 14.6492 71.4082 14.8389 71.162 14.9662C70.9158 15.0935 70.6398 15.1539 70.3622 15.1412C70.1664 15.1614 69.9684 15.1407 69.7811 15.0805C69.5937 15.0204 69.4213 14.9221 69.2747 14.7919C69.1282 14.6618 69.0108 14.5027 68.9303 14.3249C68.8497 14.1472 68.8076 13.9547 68.8069 13.7599ZM71.8063 13.3655V12.9796L70.6668 13.0517C70.0242 13.0943 69.7328 13.3105 69.7328 13.7174C69.7328 14.1328 70.0971 14.3745 70.598 14.3745C70.7448 14.3892 70.8931 14.3745 71.034 14.3314C71.175 14.2882 71.3057 14.2175 71.4184 14.1234C71.5311 14.0292 71.6236 13.9136 71.6902 13.7834C71.7568 13.6532 71.7963 13.5111 71.8063 13.3655Z" fill="white"/>
<path d="M73.9334 12.7555C73.9334 11.2971 74.6913 10.3731 75.8702 10.3731C76.1619 10.3599 76.4513 10.4289 76.7047 10.5723C76.958 10.7157 77.1649 10.9275 77.3011 11.1829H77.37V8.64795H78.2908V15.0652H77.4084V14.336H77.3356C77.1888 14.5897 76.9747 14.7988 76.7164 14.9407C76.4581 15.0827 76.1655 15.152 75.8703 15.1413C74.6832 15.1413 73.9334 14.2174 73.9334 12.7555ZM74.8846 12.7555C74.8846 13.7344 75.3512 14.3235 76.1314 14.3235C76.9075 14.3235 77.3872 13.7259 77.3872 12.7595C77.3872 11.7975 76.9025 11.1914 76.1314 11.1914C75.3562 11.1914 74.8846 11.7845 74.8846 12.7555H74.8846Z" fill="white"/>
<path d="M82.1008 12.7554C82.0715 12.4521 82.1066 12.146 82.2038 11.8569C82.301 11.5678 82.4583 11.302 82.6655 11.0765C82.8727 10.851 83.1252 10.6708 83.4069 10.5476C83.6886 10.4243 83.9933 10.3606 84.3013 10.3606C84.6093 10.3606 84.914 10.4243 85.1957 10.5476C85.4774 10.6708 85.7299 10.851 85.9371 11.0765C86.1443 11.302 86.3015 11.5678 86.3988 11.8569C86.496 12.146 86.5311 12.4521 86.5018 12.7554C86.5317 13.059 86.497 13.3655 86.4 13.6551C86.303 13.9446 86.1459 14.211 85.9386 14.4369C85.7314 14.6628 85.4787 14.8433 85.1967 14.9669C84.9147 15.0904 84.6097 15.1543 84.3013 15.1543C83.9929 15.1543 83.6879 15.0904 83.4059 14.9669C83.1239 14.8433 82.8712 14.6628 82.664 14.4369C82.4567 14.211 82.2995 13.9446 82.2026 13.6551C82.1056 13.3655 82.0709 13.059 82.1008 12.7554ZM85.5546 12.7554C85.5546 11.7549 85.1002 11.1698 84.3028 11.1698C83.5024 11.1698 83.0521 11.7549 83.0521 12.7554C83.0521 13.7639 83.5024 14.3444 84.3028 14.3444C85.1002 14.3444 85.5546 13.7599 85.5546 12.7554Z" fill="white"/>
<path d="M87.7374 10.4496H88.6238V11.1828H88.6927C88.8094 10.9195 89.0063 10.6987 89.2559 10.5513C89.5055 10.4039 89.7953 10.3372 90.0851 10.3605C90.3121 10.3436 90.5401 10.3775 90.7521 10.4596C90.9641 10.5417 91.1547 10.6699 91.3098 10.8348C91.465 10.9996 91.5806 11.1969 91.6481 11.412C91.7157 11.627 91.7335 11.8544 91.7002 12.0772V15.065H90.7793V12.3059C90.7793 11.5642 90.4534 11.1953 89.7724 11.1953C89.6183 11.1882 89.4644 11.2142 89.3213 11.2714C89.1782 11.3286 89.0494 11.4158 88.9436 11.5269C88.8377 11.638 88.7575 11.7704 88.7082 11.915C88.659 12.0597 88.6419 12.2132 88.6582 12.365V15.0651H87.7374V10.4496Z" fill="white"/>
<path d="M96.9036 9.30054V10.4707H97.9145V11.2379H96.9036V13.6112C96.9036 14.0947 97.105 14.3064 97.5634 14.3064C97.6807 14.306 97.798 14.299 97.9145 14.2854V15.0441C97.7492 15.0734 97.5816 15.089 97.4136 15.0907C96.3895 15.0907 95.9817 14.7343 95.9817 13.8445V11.2379H95.241V10.4706H95.9817V9.30054H96.9036Z" fill="white"/>
<path d="M99.1724 8.64795H100.085V11.1914H100.158C100.28 10.9256 100.483 10.7036 100.737 10.5557C100.992 10.4077 101.286 10.341 101.581 10.3646C101.807 10.3525 102.032 10.3898 102.242 10.4739C102.452 10.558 102.64 10.6868 102.793 10.8511C102.947 11.0155 103.062 11.2113 103.13 11.4246C103.198 11.638 103.218 11.8636 103.188 12.0853V15.0652H102.266V12.31C102.266 11.5728 101.919 11.1994 101.268 11.1994C101.11 11.1866 100.951 11.2081 100.802 11.2625C100.653 11.3169 100.518 11.4028 100.406 11.5143C100.294 11.6257 100.208 11.76 100.154 11.9077C100.1 12.0555 100.079 12.2131 100.093 12.3696V15.0652H99.1724L99.1724 8.64795Z" fill="white"/>
<path d="M108.557 13.819C108.432 14.2409 108.161 14.6058 107.791 14.8499C107.422 15.094 106.977 15.2017 106.535 15.1543C106.228 15.1624 105.922 15.1041 105.64 14.9837C105.358 14.8632 105.105 14.6834 104.9 14.4567C104.695 14.2301 104.542 13.962 104.452 13.671C104.363 13.3801 104.338 13.0734 104.38 12.772C104.339 12.4698 104.364 12.1623 104.454 11.8705C104.543 11.5788 104.695 11.3094 104.899 11.0808C105.103 10.8521 105.355 10.6695 105.636 10.5453C105.918 10.421 106.223 10.3581 106.531 10.3607C107.83 10.3607 108.613 11.2381 108.613 12.6874V13.0053H105.318V13.0563C105.304 13.2257 105.325 13.3962 105.381 13.5568C105.437 13.7175 105.527 13.8648 105.644 13.9893C105.761 14.1138 105.903 14.2127 106.061 14.2798C106.218 14.3468 106.389 14.3804 106.561 14.3786C106.781 14.4047 107.004 14.3655 107.202 14.2658C107.399 14.1662 107.563 14.0107 107.671 13.819L108.557 13.819ZM105.318 12.3316H107.675C107.686 12.1767 107.665 12.0211 107.612 11.8748C107.559 11.7285 107.476 11.5948 107.368 11.4822C107.26 11.3696 107.129 11.2806 106.984 11.221C106.839 11.1613 106.683 11.1324 106.526 11.1359C106.367 11.134 106.209 11.1635 106.061 11.2229C105.914 11.2823 105.78 11.3703 105.667 11.4818C105.555 11.5932 105.466 11.7258 105.406 11.8717C105.346 12.0177 105.316 12.1741 105.318 12.3316H105.318Z" fill="white"/>
</g>
<defs>
<clipPath id="clip0_21_79">
<rect width="124" height="41" fill="white"/>
</clipPath>
</defs>
</svg>
