<svg width="105" height="74" viewBox="0 0 105 74" fill="none" xmlns="http://www.w3.org/2000/svg">
<g clip-path="url(#clip0_24_7531)">
<path d="M92.18 5.7201C97.07 11.8701 98.18 19.6101 102.86 25.5601C102.97 25.7001 103.46 25.5601 104.31 25.5601C104.281 24.1883 104.103 22.8237 103.78 21.4901C101.67 15.7801 99.63 10.0301 97.13 4.4901C94.76 -0.759897 91.82 -1.2299 87.34 2.4301C83.24 5.7801 79.22 9.2201 75.19 12.6501C74.6212 13.3391 74.1221 14.0827 73.7 14.8701C80.58 14.2201 84.14 8.9201 89.98 6.3501C88.78 11.6601 87.98 16.3501 86.63 20.9401C82.11 36.3701 74.63 49.9401 61.63 59.9401C44.51 73.1601 23.2 73.9401 5.11999 62.0101C4.98794 61.9163 4.85109 61.8296 4.70999 61.7501C3.29 61.0201 1.70999 58.7501 0.329989 61.1201C-0.900015 63.2501 1.60999 64.0201 2.97999 64.9201C24.86 79.1001 50.41 76.5001 68.98 58.1601C80.9 46.3801 87.45 31.7901 90.63 15.5401C91.27 12.2901 91.67 8.9901 92.18 5.7201Z" fill="#614AD3"/>
</g>
<defs>
<clipPath id="clip0_24_7531">
<rect width="104.31" height="74" fill="white" transform="matrix(-1 -8.74228e-08 -8.74228e-08 1 104.31 0)"/>
</clipPath>
</defs>
</svg>
