<svg width="25" height="25" viewBox="0 0 25 25" fill="none" xmlns="http://www.w3.org/2000/svg">
<g clip-path="url(#clip0_356_400)">
<path d="M24.96 12.48C24.96 18.7093 20.396 23.8724 14.43 24.8084V16.0875H17.3379L17.8912 12.48H14.43V10.139C14.43 9.15184 14.9136 8.19 16.4639 8.19H18.0375V5.11875C18.0375 5.11875 16.6091 4.875 15.2436 4.875C12.3932 4.875 10.53 6.6027 10.53 9.7305V12.48H7.36125V16.0875H10.53V24.8084C4.56397 23.8724 0 18.7093 0 12.48C0 5.58772 5.58772 0 12.48 0C19.3723 0 24.96 5.58772 24.96 12.48Z" fill="#1877F2"/>
<path d="M17.3379 16.0875L17.8912 12.48H14.43V10.139C14.43 9.15203 14.9135 8.19 16.4638 8.19H18.0375V5.11875C18.0375 5.11875 16.6093 4.875 15.2439 4.875C12.3932 4.875 10.53 6.6027 10.53 9.7305V12.48H7.36124V16.0875H10.53V24.8083C11.1654 24.908 11.8166 24.96 12.48 24.96C13.1434 24.96 13.7946 24.908 14.43 24.8083V16.0875H17.3379Z" fill="white"/>
</g>
<defs>
<clipPath id="clip0_356_400">
<rect width="24.96" height="24.96" fill="white"/>
</clipPath>
</defs>
</svg>
