<svg width="1920" height="395" viewBox="0 0 1920 395" fill="none" xmlns="http://www.w3.org/2000/svg">
<path fill-rule="evenodd" clip-rule="evenodd" d="M0 0L46.4 28.7857C91.2 57.5714 182.4 115.143 273.6 124.738C366.4 134.333 457.6 95.9524 548.8 115.143C640 134.333 731.2 211.095 822.4 259.071C913.6 307.048 1006.4 326.238 1097.6 297.452C1188.8 268.667 1280 191.905 1371.2 182.31C1462.4 172.714 1553.6 230.286 1646.4 259.071C1737.6 287.857 1828.8 287.857 1873.6 287.857H1920V395H1873.6C1828.8 395 1737.6 395 1646.4 395C1553.6 395 1462.4 395 1371.2 395C1280 395 1188.8 395 1097.6 395C1006.4 395 913.6 395 822.4 395C731.2 395 640 395 548.8 395C457.6 395 366.4 395 273.6 395C182.4 395 91.2 395 46.4 395H0V0Z" fill="url(#paint0_linear_12_121)"/>
<defs>
<linearGradient id="paint0_linear_12_121" x1="960" y1="-8" x2="960" y2="480" gradientUnits="userSpaceOnUse">
<stop stop-color="#1C2541" stop-opacity="0.06"/>
<stop offset="1" stop-color="white" stop-opacity="0"/>
</linearGradient>
</defs>
</svg>
