<svg width="40" height="40" viewBox="0 0 40 40" fill="none" xmlns="http://www.w3.org/2000/svg">
<g clip-path="url(#clip0_442_4240)">
<path opacity="0.2" d="M39.644 7.09211C40.1316 8.3882 40.1261 9.82867 39.5792 11.1009C39.1304 12.1447 38.2772 13.2001 36.6736 13.7762C31.414 15.6657 31.4343 5.06641 31.4343 5.06641L39.5193 6.76086L39.644 7.09211Z" fill="#2D248A"/>
<path opacity="0.2" d="M0.603235 33.5855C0.115579 32.2894 0.121048 30.8489 0.668001 29.5767C1.11675 28.5329 1.97003 27.4775 3.57355 26.9014C8.83323 25.0119 8.81292 35.6112 8.81292 35.6112L0.727845 33.9167L0.603235 33.5855Z" fill="#2D248A"/>
<path d="M19.9492 39.9492C30.9669 39.9492 39.8984 31.0177 39.8984 20C39.8984 8.98235 30.9669 0.0507812 19.9492 0.0507812C8.93157 0.0507812 0 8.98235 0 20C0 31.0177 8.93157 39.9492 19.9492 39.9492Z" fill="#614AD3"/>
<path d="M39.8867 20.6716C39.8941 20.4485 39.8992 20.2248 39.8992 19.9999C39.8992 19.775 39.8941 19.5513 39.8867 19.3282H30.3727C30.328 16.5137 30.0041 13.7948 29.4265 11.3054C32.0616 10.9886 34.5858 10.5403 36.9327 9.9642C37.0087 9.94553 37.078 9.91404 37.1399 9.8735C36.9057 9.4767 36.6583 9.08873 36.398 8.71021C34.1113 9.26123 31.6562 9.69068 29.0923 9.99264C28.6514 8.40451 28.1022 6.92686 27.4523 5.59826C26.2288 3.09678 24.732 1.29646 23.0807 0.295605C22.0605 0.134746 21.0148 0.050293 19.9495 0.050293C18.8841 0.050293 17.8384 0.134746 16.8182 0.295605C15.167 1.29654 13.67 3.09686 12.4466 5.59826C11.7967 6.92686 11.2475 8.40451 10.8066 9.99264C8.24281 9.69068 5.78773 9.26115 3.50102 8.71014C3.23922 9.09076 2.99055 9.481 2.75516 9.88006C2.8125 9.91506 2.87602 9.94201 2.94469 9.95889C5.29789 10.5376 7.82945 10.9876 10.4726 11.3054C9.895 13.7948 9.57102 16.5137 9.52641 19.3282H0.0125C0.00507812 19.5513 0 19.775 0 19.9999C0 20.2248 0.00507812 20.4485 0.0125 20.6716H9.52656C9.57906 23.9839 10.0188 27.1633 10.8028 29.9926C8.33617 30.2777 5.96313 30.6772 3.74328 31.1878C3.65477 31.2082 3.57445 31.2454 3.50477 31.2949C3.77211 31.6834 4.05281 32.0621 4.34633 32.4301C6.50445 31.9467 8.80586 31.5682 11.1977 31.2997C11.5595 32.4019 11.9768 33.4408 12.4467 34.4015C13.6702 36.903 15.1671 38.7033 16.8184 39.7042C17.8386 39.8651 18.8841 39.9495 19.9496 39.9495C21.015 39.9495 22.0606 39.8651 23.0809 39.7042C24.7321 38.7033 26.229 36.903 27.4525 34.4015C27.9224 33.4407 28.3398 32.4019 28.7016 31.2997C31.0934 31.5681 33.3948 31.9467 35.5528 32.4301C35.8463 32.0621 36.127 31.6835 36.3944 31.295C36.3246 31.2454 36.2443 31.2081 36.1557 31.1877C33.9359 30.6772 31.563 30.2777 29.0965 29.9926C29.8805 27.1633 30.3202 23.9839 30.3727 20.6716H39.8867ZM19.2779 39.2237C17.1877 38.8887 15.2116 36.9969 13.6534 33.8112C13.2495 32.9855 12.8868 32.0973 12.5664 31.158C14.752 30.954 17.0022 30.8414 19.2779 30.8227V39.2237ZM19.2779 29.4794C16.8621 29.499 14.4739 29.6237 12.1573 29.8487C11.3678 27.0847 10.9235 23.9504 10.87 20.6716H19.2779V29.4794ZM19.2779 19.3282H10.87C10.9152 16.5547 11.2401 13.8848 11.817 11.4548C14.2365 11.7009 16.7388 11.8365 19.2779 11.8569V19.3282ZM19.2779 10.5136C16.8563 10.4938 14.4698 10.3685 12.1605 10.1402C12.5685 8.71396 13.0678 7.38592 13.6534 6.1885C15.2116 3.00279 17.1877 1.111 19.2779 0.776074V10.5136ZM20.6213 0.776152C22.7114 1.11107 24.6876 3.00295 26.2457 6.18857C26.8313 7.38592 27.3307 8.71396 27.7387 10.1402C25.4293 10.3685 23.0427 10.4939 20.6213 10.5137V0.776152ZM26.2457 33.8112C24.6876 36.9969 22.7114 38.8887 20.6213 39.2237V30.8227C22.897 30.8414 25.1472 30.954 27.3327 31.158C27.0124 32.0973 26.6496 32.9855 26.2457 33.8112ZM27.7418 29.8487C25.4252 29.6237 23.037 29.499 20.6213 29.4794V20.6716H29.0291C28.9757 23.9504 28.5313 27.0847 27.7418 29.8487ZM20.6213 19.3282V11.8569C23.1603 11.8365 25.6626 11.7009 28.0821 11.4548C28.659 13.8848 28.9839 16.5548 29.0291 19.3283H20.6213V19.3282Z" fill="#17365F"/>
<path d="M19.9496 0.050293C19.1094 0.050293 18.2816 0.102871 17.4686 0.20373C27.3156 1.42537 34.9372 9.82225 34.9372 19.9999C34.9372 30.1776 27.3156 38.5744 17.4686 39.7961C18.2815 39.8969 19.1094 39.9495 19.9496 39.9495C30.9675 39.9495 39.8993 31.0178 39.8993 19.9999C39.8993 8.98201 30.9675 0.050293 19.9496 0.050293Z" fill="#2D248A"/>
<path d="M36.1556 31.188C34.8277 30.8826 33.4441 30.6178 32.0194 30.3926C31.7613 30.8145 31.4875 31.2257 31.1998 31.6262C32.7009 31.8497 34.1572 32.1177 35.5528 32.4302C35.6227 32.3427 35.6916 32.2545 35.76 32.1657C35.7684 32.1548 35.7767 32.1438 35.7851 32.133C35.9952 31.8592 36.1984 31.5799 36.3943 31.2952C36.3246 31.2456 36.2443 31.2084 36.1556 31.188Z" fill="#614AD3"/>
<path d="M39.8867 19.3281H34.9247C34.9321 19.5512 34.9372 19.7749 34.9372 19.9998C34.9372 20.2248 34.9321 20.4484 34.9247 20.6716H39.8867C39.8897 20.5784 39.8921 20.4852 39.8942 20.3919C39.8967 20.2614 39.8991 20.1309 39.8991 19.9999C39.8991 19.8689 39.8967 19.7384 39.8942 19.608C39.8921 19.5145 39.8897 19.4212 39.8867 19.3281Z" fill="#614AD3"/>
<path d="M32.7088 10.831C34.1667 10.5845 35.5799 10.2964 36.9327 9.96436C37.0088 9.94568 37.0781 9.9142 37.14 9.87365C36.9651 9.5774 36.7828 9.286 36.5933 8.99982C36.592 8.99795 36.5909 8.99607 36.5896 8.99428C36.5266 8.89912 36.4627 8.80451 36.3981 8.71045C34.9934 9.04896 33.5246 9.34107 32.0067 9.58647C32.2552 9.99178 32.4891 10.4072 32.7088 10.831Z" fill="#614AD3"/>
<path d="M20.5021 26.2973L24.2064 27.6651C24.3222 27.7078 24.3498 27.8602 24.2558 27.9402C17.53 33.6585 8.72659 35.4226 0.321045 32.5715C0.380029 32.9099 0.470186 33.2442 0.592217 33.5695L0.716592 33.9009C2.51136 38.0977 7.04917 40.3793 11.5 39.3666C17.3988 38.0245 22.8305 34.9057 26.8305 30.5706C26.912 30.4823 27.0573 30.5098 27.1001 30.622L28.6078 34.5787C28.6642 34.7264 28.8772 34.7137 28.9156 34.5603L31.7485 23.2273C31.7784 23.1077 31.6689 23.0002 31.5499 23.032L20.5162 25.9897C20.3641 26.0305 20.3543 26.2427 20.5021 26.2973Z" fill="#DDDCEC"/>
<path d="M19.7451 14.3808L16.0409 13.0131C15.9251 12.9703 15.8975 12.8179 15.9915 12.738C22.7173 7.01962 31.5207 5.25555 39.9262 8.10665C39.8673 7.76829 39.7771 7.43391 39.6551 7.1086L39.5307 6.77727C37.7359 2.5804 33.1981 0.298834 28.7473 1.31149C22.8485 2.6536 17.4168 5.77243 13.4168 10.1074C13.3353 10.1957 13.19 10.1683 13.1472 10.056L11.6394 6.09946C11.5831 5.95172 11.3701 5.96438 11.3317 6.11782L8.49874 17.4509C8.4689 17.5704 8.57835 17.678 8.69734 17.6461L19.7311 14.6884C19.8832 14.6476 19.893 14.4353 19.7451 14.3808Z" fill="#DDDCEC"/>
</g>
<defs>
<clipPath id="clip0_442_4240">
<rect width="40" height="40" fill="white"/>
</clipPath>
</defs>
</svg>
