<svg width="25" height="25" viewBox="0 0 25 25" fill="none" xmlns="http://www.w3.org/2000/svg">
<g clip-path="url(#clip0_356_390)">
<path d="M5.53166 15.0838L4.66284 18.3272L1.48731 18.3944C0.538298 16.6342 0 14.6203 0 12.4802C0 10.4107 0.503295 8.45911 1.39542 6.74072H1.3961L4.22321 7.25903L5.46166 10.0692C5.20245 10.8249 5.06118 11.6361 5.06118 12.4802C5.06127 13.3963 5.22722 14.274 5.53166 15.0838Z" fill="#FBBB00"/>
<path d="M24.7419 10.1484C24.8853 10.9034 24.96 11.683 24.96 12.4799C24.96 13.3733 24.8661 14.2449 24.6871 15.0856C24.0796 17.9464 22.4921 20.4444 20.2931 22.2122L20.2924 22.2115L16.7315 22.0298L16.2275 18.8838C17.6867 18.028 18.8271 16.6888 19.4278 15.0856H12.7544V10.1484H19.5251H24.7419Z" fill="#518EF8"/>
<path d="M20.2923 22.2115L20.293 22.2122C18.1543 23.9312 15.4375 24.9598 12.48 24.9598C7.7273 24.9598 3.59521 22.3034 1.4873 18.3941L5.53165 15.0835C6.58558 17.8963 9.29895 19.8986 12.48 19.8986C13.8473 19.8986 15.1282 19.529 16.2274 18.8837L20.2923 22.2115Z" fill="#28B446"/>
<path d="M20.4459 2.87313L16.403 6.18306C15.2654 5.47199 13.9207 5.06122 12.48 5.06122C9.22696 5.06122 6.46283 7.15538 5.4617 10.069L1.3961 6.74056H1.39542C3.47246 2.736 7.65667 0 12.48 0C15.5081 0 18.2846 1.07864 20.4459 2.87313Z" fill="#F14336"/>
</g>
<defs>
<clipPath id="clip0_356_390">
<rect width="24.96" height="24.96" fill="white"/>
</clipPath>
</defs>
</svg>
