<svg width="140" height="41" viewBox="0 0 140 41" fill="none" xmlns="http://www.w3.org/2000/svg">
<path d="M134.815 41H5.18518C2.33333 41 0 38.6937 0 35.875V5.125C0 2.30625 2.33333 0 5.18518 0H134.815C137.667 0 140 2.30625 140 5.125V35.875C140 38.6937 137.667 41 134.815 41Z" fill="#393E46"/>
<path d="M49.1763 10.4962C49.1763 11.3572 48.917 12.044 48.3985 12.5462C47.8178 13.151 47.0503 13.4585 46.117 13.4585C45.2148 13.4585 44.4578 13.151 43.8252 12.536C43.1926 11.921 42.8815 11.1522 42.8815 10.2502C42.8815 9.33799 43.1926 8.57949 43.8252 7.96449C44.4578 7.34949 45.2148 7.04199 46.117 7.04199C46.5629 7.04199 46.9881 7.12399 47.3926 7.29824C47.797 7.47249 48.1185 7.69799 48.3674 7.98499L47.8178 8.52824C47.4029 8.04649 46.8429 7.80049 46.117 7.80049C45.4637 7.80049 44.8933 8.02599 44.4163 8.48724C43.9392 8.93824 43.7007 9.53274 43.7007 10.2605C43.7007 10.9882 43.9392 11.5827 44.4163 12.0337C44.8933 12.4847 45.4637 12.7205 46.117 12.7205C46.8118 12.7205 47.3926 12.495 47.8592 12.0337C48.16 11.7365 48.3363 11.3162 48.3778 10.7832H46.117V10.035H49.1348C49.1555 10.199 49.1763 10.3527 49.1763 10.4962Z" fill="white" stroke="white" stroke-width="0.2" stroke-miterlimit="10"/>
<path d="M53.9571 7.93355H51.126V9.88105H53.6771V10.619H51.126V12.5665H53.9571V13.325H50.3274V7.17505H53.9571V7.93355Z" fill="white" stroke="white" stroke-width="0.2" stroke-miterlimit="10"/>
<path d="M57.3274 13.325H56.5288V7.93355H54.7866V7.17505H59.0592V7.93355H57.317V13.325H57.3274Z" fill="white" stroke="white" stroke-width="0.2" stroke-miterlimit="10"/>
<path d="M62.1599 13.325V7.17505H62.9585V13.325H62.1599Z" fill="white" stroke="white" stroke-width="0.2" stroke-miterlimit="10"/>
<path d="M66.5051 13.325H65.7066V7.93355H63.9644V7.17505H68.237V7.93355H66.4947V13.325H66.5051Z" fill="white" stroke="white" stroke-width="0.2" stroke-miterlimit="10"/>
<path d="M76.3363 12.5257C75.7244 13.151 74.9674 13.4585 74.0548 13.4585C73.1422 13.4585 72.3852 13.151 71.7733 12.5257C71.1615 11.9005 70.8607 11.142 70.8607 10.2502C70.8607 9.35849 71.1615 8.58974 71.7733 7.97474C72.3852 7.34949 73.1422 7.04199 74.0548 7.04199C74.957 7.04199 75.714 7.34949 76.3363 7.97474C76.9481 8.59999 77.2592 9.35849 77.2592 10.2502C77.2489 11.1522 76.9481 11.9107 76.3363 12.5257ZM72.3644 12.0132C72.8207 12.4745 73.3911 12.7 74.0548 12.7C74.7185 12.7 75.2889 12.4745 75.7452 12.0132C76.2015 11.552 76.44 10.9677 76.44 10.2502C76.44 9.53274 76.2118 8.94849 75.7452 8.48724C75.2889 8.02599 74.7185 7.79024 74.0548 7.79024C73.3911 7.79024 72.8207 8.01574 72.3644 8.47699C71.9081 8.94849 71.6696 9.53274 71.6696 10.2502C71.6696 10.9677 71.9081 11.552 72.3644 12.0132Z" fill="white" stroke="white" stroke-width="0.2" stroke-miterlimit="10"/>
<path d="M78.3792 13.325V7.17505H79.354L82.3822 11.9618H82.4133L82.3822 10.7728V7.17505H83.1807V13.325H82.3511L79.1881 8.3128H79.157L79.1881 9.5018V13.325H78.3792Z" fill="white" stroke="white" stroke-width="0.2" stroke-miterlimit="10"/>
<path d="M70.6222 22.2425C68.1852 22.2425 66.1941 24.0773 66.1941 26.5988C66.1941 29.1101 68.1852 30.9551 70.6222 30.9551C73.0593 30.9551 75.0504 29.1101 75.0504 26.5988C75.0504 24.0773 73.0593 22.2425 70.6222 22.2425ZM70.6222 29.2433C69.2844 29.2433 68.1333 28.1568 68.1333 26.5988C68.1333 25.0306 69.2844 23.9543 70.6222 23.9543C71.96 23.9543 73.1111 25.0306 73.1111 26.5988C73.1111 28.1568 71.9496 29.2433 70.6222 29.2433ZM60.957 22.2425C58.52 22.2425 56.5289 24.0773 56.5289 26.5988C56.5289 29.1101 58.52 30.9551 60.957 30.9551C63.3941 30.9551 65.3852 29.1101 65.3852 26.5988C65.3852 24.0773 63.3941 22.2425 60.957 22.2425ZM60.957 29.2433C59.6193 29.2433 58.4681 28.1568 58.4681 26.5988C58.4681 25.0306 59.6193 23.9543 60.957 23.9543C62.2948 23.9543 63.4459 25.0306 63.4459 26.5988C63.4459 28.1568 62.2948 29.2433 60.957 29.2433ZM49.4667 23.5853V25.4303H53.9467C53.8119 26.4656 53.4593 27.2343 52.9304 27.757C52.277 28.4028 51.2607 29.1101 49.477 29.1101C46.7185 29.1101 44.5615 26.9166 44.5615 24.19C44.5615 21.4635 46.7185 19.2701 49.477 19.2701C50.96 19.2701 52.0489 19.844 52.8474 20.5923L54.1644 19.2906C53.0444 18.2348 51.5615 17.425 49.4667 17.425C45.6919 17.425 42.5185 20.459 42.5185 24.2003C42.5185 27.9313 45.6919 30.9756 49.4667 30.9756C51.5096 30.9756 53.0444 30.3196 54.2474 29.0793C55.4815 27.8596 55.8652 26.1376 55.8652 24.7538C55.8652 24.3233 55.8341 23.9236 55.7615 23.5956H49.4667V23.5853ZM96.4548 25.0203C96.0919 24.0465 94.9719 22.2425 92.68 22.2425C90.4089 22.2425 88.5215 24.0056 88.5215 26.5988C88.5215 29.0383 90.3881 30.9551 92.8978 30.9551C94.92 30.9551 96.0919 29.7353 96.5689 29.0281L95.0652 28.0338C94.5674 28.7615 93.883 29.2433 92.8978 29.2433C91.9126 29.2433 91.2074 28.7923 90.7615 27.9211L96.6622 25.5123L96.4548 25.0203ZM90.44 26.4758C90.3881 24.7948 91.757 23.9338 92.7422 23.9338C93.5096 23.9338 94.163 24.313 94.3807 24.8563L90.44 26.4758ZM85.6489 30.6988H87.5881V17.8863H85.6489V30.6988ZM82.4756 23.2163H82.403C81.9674 22.7038 81.1378 22.2425 80.08 22.2425C77.8711 22.2425 75.8489 24.1593 75.8489 26.6193C75.8489 29.0588 77.8711 30.9653 80.08 30.9653C81.1274 30.9653 81.9674 30.5041 82.403 29.9711H82.4652V30.5963C82.4652 32.2671 81.563 33.1588 80.1111 33.1588C78.9289 33.1588 78.1926 32.3183 77.8919 31.6111L76.2015 32.3081C76.6889 33.4663 77.9748 34.8808 80.1111 34.8808C82.3822 34.8808 84.3007 33.5585 84.3007 30.3401V22.5091H82.4652V23.2163H82.4756ZM80.2459 29.2433C78.9081 29.2433 77.7882 28.1363 77.7882 26.6193C77.7882 25.0818 78.9081 23.9646 80.2459 23.9646C81.563 23.9646 82.6 25.0921 82.6 26.6193C82.6104 28.1363 81.5733 29.2433 80.2459 29.2433ZM105.539 17.8863H100.904V30.6988H102.843V25.8403H105.55C107.696 25.8403 109.801 24.3028 109.801 21.8633C109.801 19.4238 107.676 17.8863 105.539 17.8863ZM105.581 24.0568H102.833V19.6595H105.581C107.033 19.6595 107.852 20.8486 107.852 21.8531C107.852 22.8576 107.033 24.0568 105.581 24.0568ZM117.548 22.222C116.148 22.222 114.696 22.837 114.095 24.1798L115.816 24.8871C116.179 24.1798 116.864 23.944 117.579 23.944C118.585 23.944 119.601 24.5386 119.612 25.5943V25.7275C119.259 25.5328 118.513 25.2356 117.59 25.2356C115.733 25.2356 113.856 26.2401 113.856 28.1158C113.856 29.8275 115.37 30.9346 117.071 30.9346C118.367 30.9346 119.093 30.3606 119.539 29.6841H119.601V30.6783H121.468V25.7686C121.479 23.4931 119.757 22.222 117.548 22.222ZM117.31 29.2433C116.677 29.2433 115.796 28.9256 115.796 28.1568C115.796 27.1728 116.895 26.7936 117.849 26.7936C118.699 26.7936 119.104 26.9781 119.612 27.2241C119.467 28.4028 118.43 29.2433 117.31 29.2433ZM128.281 22.4988L126.062 28.0543H126L123.698 22.4988H121.613L125.067 30.2683L123.096 34.5836H125.119L130.439 22.4988H128.281ZM110.859 30.6988H112.799V17.8863H110.859V30.6988Z" fill="white"/>
<path d="M10.8267 7.72873C10.5259 8.04648 10.3496 8.53848 10.3496 9.16373V31.8367C10.3496 32.4722 10.5259 32.9642 10.8267 33.2717L10.8993 33.3435L23.7482 20.654V20.5002V20.3465L10.8993 7.65698L10.8267 7.72873Z" fill="url(#paint0_linear_21_56)"/>
<path d="M28.0311 24.8873L23.7481 20.654V20.5003V20.3465L28.0311 16.1133L28.1244 16.1645L33.1955 19.014C34.6474 19.8238 34.6474 21.1563 33.1955 21.9763L28.1244 24.8258L28.0311 24.8873Z" fill="url(#paint1_linear_21_56)"/>
<path d="M28.1244 24.8357L23.7481 20.5L10.8267 33.2715C11.3037 33.7737 12.0919 33.8352 12.9837 33.333L28.1244 24.8357Z" fill="url(#paint2_linear_21_56)"/>
<path d="M28.1244 16.1744L12.9733 7.66693C12.0815 7.16468 11.2933 7.22618 10.8163 7.72843L23.7481 20.4999L28.1244 16.1744Z" fill="url(#paint3_linear_21_56)"/>
<path opacity="0.2" d="M28.0312 24.7332L12.9734 33.1894C12.1334 33.6609 11.3764 33.6302 10.8993 33.1997L10.8268 33.2714L10.8993 33.3432C11.3868 33.7737 12.1334 33.8044 12.9734 33.3329L28.1245 24.8254L28.0312 24.7332Z" fill="black"/>
<path opacity="0.12" d="M10.8267 33.1279C10.5259 32.8101 10.3496 32.3181 10.3496 31.6929V31.8466C10.3496 32.4821 10.5259 32.9741 10.8267 33.2816L10.8993 33.2099L10.8267 33.1279Z" fill="black"/>
<path opacity="0.12" d="M33.1956 21.8325L28.0207 24.7332L28.1141 24.8255L33.1852 21.976C33.9111 21.566 34.2741 21.033 34.2741 20.5C34.2222 20.9818 33.8593 21.4635 33.1956 21.8325Z" fill="black"/>
<path opacity="0.25" d="M12.9733 7.8105L33.1956 19.1675C33.8489 19.5365 34.2222 20.008 34.2844 20.5C34.2844 19.967 33.9215 19.4237 33.1956 19.024L12.9733 7.667C11.5215 6.85725 10.3393 7.53375 10.3393 9.17375V9.3275C10.3393 7.67725 11.5319 7.00075 12.9733 7.8105Z" fill="white"/>
<defs>
<linearGradient id="paint0_linear_21_56" x1="22.607" y1="8.92778" x2="5.40622" y2="26.3306" gradientUnits="userSpaceOnUse">
<stop stop-color="#00A0FF"/>
<stop offset="0.00657445" stop-color="#00A1FF"/>
<stop offset="0.2601" stop-color="#00BEFF"/>
<stop offset="0.5122" stop-color="#00D2FF"/>
<stop offset="0.7604" stop-color="#00DFFF"/>
<stop offset="1" stop-color="#00E3FF"/>
</linearGradient>
<linearGradient id="paint1_linear_21_56" x1="35.0874" y1="20.5018" x2="9.99434" y2="20.5018" gradientUnits="userSpaceOnUse">
<stop stop-color="#FFE000"/>
<stop offset="0.4087" stop-color="#FFBD00"/>
<stop offset="0.7754" stop-color="#FFA500"/>
<stop offset="1" stop-color="#FF9C00"/>
</linearGradient>
<linearGradient id="paint2_linear_21_56" x1="25.7464" y1="22.8536" x2="2.42075" y2="46.4532" gradientUnits="userSpaceOnUse">
<stop stop-color="#FF3A44"/>
<stop offset="1" stop-color="#C31162"/>
</linearGradient>
<linearGradient id="paint3_linear_21_56" x1="7.56747" y1="0.180633" x2="17.9834" y2="10.7188" gradientUnits="userSpaceOnUse">
<stop stop-color="#32A071"/>
<stop offset="0.0685" stop-color="#2DA771"/>
<stop offset="0.4762" stop-color="#15CF74"/>
<stop offset="0.8009" stop-color="#06E775"/>
<stop offset="1" stop-color="#00F076"/>
</linearGradient>
</defs>
</svg>
