<svg width="1920" height="518" viewBox="0 0 1920 518" fill="none" xmlns="http://www.w3.org/2000/svg">
<path fill-rule="evenodd" clip-rule="evenodd" d="M0 0L64 28.7778C128 57.5556 256 115.111 384 134.296C512 153.481 640 134.296 768 172.667C896 211.037 1024 306.963 1152 287.778C1280 268.593 1408 134.296 1536 86.3333C1664 38.3704 1792 76.7407 1856 95.9259L1920 115.111V518H1856C1792 518 1664 518 1536 518C1408 518 1280 518 1152 518C1024 518 896 518 768 518C640 518 512 518 384 518C256 518 128 518 64 518H0V0Z" fill="url(#paint0_linear_6_57)"/>
<defs>
<linearGradient id="paint0_linear_6_57" x1="960" y1="0" x2="960" y2="518" gradientUnits="userSpaceOnUse">
<stop stop-color="#1C2541" stop-opacity="0.06"/>
<stop offset="1" stop-color="white" stop-opacity="0"/>
</linearGradient>
</defs>
</svg>
