<svg width="48" height="48" viewBox="0 0 48 48" fill="none" xmlns="http://www.w3.org/2000/svg">
<g clip-path="url(#clip0_101_1022)">
<path d="M28.5 42H19.5C18.672 42 18 41.328 18 40.5C18 39.672 18.672 39 19.5 39H28.5C29.328 39 30 39.672 30 40.5C30 41.328 29.328 42 28.5 42Z" fill="#1C2541"/>
<path d="M24 6.914C23.172 6.914 22.5 6.242 22.5 5.414V1.5C22.5 0.672 23.172 0 24 0C24.828 0 25.5 0.672 25.5 1.5V5.414C25.5 6.242 24.828 6.914 24 6.914Z" fill="#1C2541"/>
<path d="M37.1421 12.358C36.7581 12.358 36.3741 12.212 36.0821 11.918C35.4961 11.332 35.4961 10.382 36.0821 9.796L38.8501 7.028C39.4361 6.442 40.3861 6.442 40.9721 7.028C41.5581 7.614 41.5581 8.564 40.9721 9.15L38.2041 11.918C37.9101 12.21 37.5261 12.358 37.1421 12.358Z" fill="#1C2541"/>
<path d="M46.4999 25.5H42.5859C41.7579 25.5 41.0859 24.828 41.0859 24C41.0859 23.172 41.7579 22.5 42.5859 22.5H46.4999C47.3279 22.5 47.9999 23.172 47.9999 24C47.9999 24.828 47.3279 25.5 46.4999 25.5Z" fill="#1C2541"/>
<path d="M39.9101 41.41C39.5261 41.41 39.1421 41.264 38.8501 40.97L36.0821 38.202C35.4961 37.616 35.4961 36.666 36.0821 36.08C36.6681 35.494 37.6181 35.494 38.2041 36.08L40.9721 38.848C41.5581 39.434 41.5581 40.384 40.9721 40.97C40.6781 41.264 40.2941 41.41 39.9101 41.41Z" fill="#1C2541"/>
<path d="M8.08983 41.41C7.70583 41.41 7.32183 41.264 7.02983 40.97C6.44383 40.384 6.44383 39.434 7.02983 38.848L9.79783 36.08C10.3838 35.494 11.3338 35.494 11.9198 36.08C12.5058 36.666 12.5058 37.616 11.9198 38.202L9.15183 40.97C8.85783 41.264 8.47383 41.41 8.08983 41.41Z" fill="#1C2541"/>
<path d="M5.414 25.5H1.5C0.672 25.5 0 24.828 0 24C0 23.172 0.672 22.5 1.5 22.5H5.414C6.242 22.5 6.914 23.172 6.914 24C6.914 24.828 6.242 25.5 5.414 25.5Z" fill="#1C2541"/>
<path d="M10.8578 12.358C10.4738 12.358 10.0898 12.212 9.79783 11.918L7.02983 9.15C6.44383 8.564 6.44383 7.614 7.02983 7.028C7.61583 6.442 8.56583 6.442 9.15183 7.028L11.9198 9.796C12.5058 10.382 12.5058 11.332 11.9198 11.918C11.6238 12.21 11.2418 12.358 10.8578 12.358Z" fill="#1C2541"/>
<path d="M31.5 25C30.672 25 30 24.328 30 23.5C30 20.466 27.534 18 24.5 18C23.672 18 23 17.328 23 16.5C23 15.672 23.672 15 24.5 15C29.186 15 33 18.814 33 23.5C33 24.328 32.328 25 31.5 25Z" fill="#1C2541"/>
<path d="M26.4998 47.9999H21.4998C19.8138 47.9999 17.9998 46.7199 17.9998 43.9119V40.3839C17.9998 38.2619 17.0958 36.3139 15.5818 35.1739C11.2118 31.8839 9.18981 26.4719 10.3038 21.0499C11.3938 15.7379 15.6918 11.4239 20.9978 10.3139C25.2158 9.42795 29.5338 10.4539 32.8258 13.1299C36.1138 15.8019 37.9998 19.7639 37.9998 23.9999C37.9998 28.3159 36.0498 32.3219 32.6498 34.9959C30.9658 36.3199 29.9998 38.1639 29.9998 40.0539V44.4999C29.9998 46.4299 28.4298 47.9999 26.4998 47.9999ZM23.9718 13.0039C23.1878 13.0039 22.3978 13.0859 21.6078 13.2499C17.4558 14.1179 14.0938 17.4939 13.2398 21.6519C12.3618 25.9259 13.9498 30.1899 17.3838 32.7759C19.6458 34.4799 20.9978 37.3239 20.9978 40.3839V43.9119C20.9978 44.0939 21.0218 44.9999 21.4978 44.9999H26.4978C26.7738 44.9999 26.9978 44.7759 26.9978 44.4999V40.0539C26.9978 37.2359 28.3818 34.5339 30.7938 32.6359C33.4678 30.5359 34.9998 27.3879 34.9998 23.9999C34.9998 20.6719 33.5158 17.5579 30.9318 15.4579C28.9558 13.8539 26.5058 13.0039 23.9718 13.0039Z" fill="#1C2541"/>
</g>
<defs>
<clipPath id="clip0_101_1022">
<rect width="48" height="48" fill="white"/>
</clipPath>
</defs>
</svg>
