<svg width="720" height="487" viewBox="0 0 720 487" fill="none" xmlns="http://www.w3.org/2000/svg">
<g opacity="0.04">
<path d="M258.023 130.943C258.023 134.466 256.98 137.911 255.026 140.841C253.073 143.771 250.296 146.055 247.048 147.403C243.799 148.752 240.224 149.104 236.776 148.417C233.327 147.729 230.159 146.033 227.673 143.541C225.186 141.049 223.493 137.875 222.807 134.418C222.121 130.962 222.473 127.38 223.819 124.124C225.164 120.869 227.443 118.086 230.367 116.129C233.29 114.171 236.728 113.126 240.244 113.126C244.957 113.132 249.475 115.012 252.808 118.351C256.141 121.691 258.016 126.219 258.023 130.943Z" fill="url(#paint0_linear_52_148)"/>
<path d="M644.494 0.925785C634.557 0.922593 624.718 2.88117 615.536 6.68964C606.355 10.4981 598.013 16.0819 590.986 23.122C583.958 30.1621 578.384 38.5206 574.581 47.7201C570.777 56.9196 568.82 66.7799 568.82 76.7377C568.838 86.9145 570.874 96.9862 574.811 106.367L472.335 181.717C463.713 174.262 452.702 170.164 441.314 170.172C434.326 170.157 427.419 171.671 421.076 174.61C414.733 177.549 409.107 181.841 404.592 187.186L308.229 143.362C308.886 139.433 309.235 135.459 309.272 131.476C309.278 120.043 306.472 108.786 301.102 98.6988C295.733 88.6118 287.966 80.0064 278.488 73.6439C269.01 67.2813 258.113 63.3578 246.762 62.2204C235.41 61.083 223.954 62.7667 213.407 67.1227C202.859 71.4786 193.545 78.3725 186.289 87.1944C179.034 96.0164 174.059 106.494 171.806 117.702C169.553 128.909 170.091 140.5 173.372 151.449C176.653 162.399 182.577 172.369 190.619 180.478L110.579 293.527C108.396 293.527 106.358 293.333 104.175 293.333C90.876 293.15 77.6337 295.111 64.9558 299.142C51.618 303.436 39.3758 310.594 29.0833 320.118C16.0681 331.868 6.92413 347.304 2.86414 364.381C0.909889 372.597 -0.0510453 381.019 0.00208839 389.465C0.00208839 417.855 9.70391 441.059 29.1075 459.079C48.5112 477.098 73.5742 486.156 104.297 486.253C134.857 486.253 159.751 477.195 178.976 459.079C198.202 440.962 207.799 417.758 207.767 389.465C207.806 381.023 206.87 372.606 204.977 364.381C200.904 347.321 191.781 331.893 178.807 320.118C168.955 310.964 157.284 303.998 144.559 299.677L217.129 197.128C224.41 199.724 232.079 201.055 239.807 201.065C250.758 201.063 261.552 198.455 271.301 193.456C281.05 188.457 289.475 181.21 295.883 172.311L393.29 216.889C393.29 217.326 393.29 217.764 393.29 218.274C393.284 224.972 394.678 231.596 397.38 237.722C400.083 243.847 404.034 249.338 408.981 253.842C413.927 258.346 419.759 261.762 426.102 263.872C432.445 265.982 439.158 266.738 445.81 266.092C452.462 265.447 458.906 263.413 464.727 260.123C470.548 256.832 475.617 252.358 479.61 246.986C483.602 241.615 486.428 235.466 487.907 228.935C489.386 222.403 489.485 215.634 488.198 209.062L592.856 132.035C601.859 140.456 612.78 146.544 624.667 149.77C636.555 152.997 649.049 153.263 661.062 150.545C673.075 147.828 684.244 142.21 693.596 134.18C702.948 126.15 710.201 115.951 714.722 104.471C719.244 92.9912 720.897 80.5778 719.539 68.3112C718.181 56.0446 713.852 44.2965 706.929 34.0893C700.006 23.882 690.698 15.5247 679.817 9.74481C668.935 3.96489 656.809 0.937398 644.494 0.925785ZM129.182 416.858C123.361 423.883 115.041 427.359 104.224 427.359C93.4064 427.359 84.8202 423.883 78.8536 416.858C72.887 409.834 69.8794 400.694 69.8794 389.465C69.5594 380.573 72.0185 371.804 76.9133 364.381C77.5196 363.505 78.1502 362.655 78.8536 361.804C84.8687 354.512 93.4064 351.012 104.224 351.012C115.041 351.012 123.361 354.585 129.182 361.804C129.857 362.629 130.489 363.489 131.074 364.381C135.838 371.854 138.223 380.602 137.913 389.465C137.913 400.694 134.979 409.907 129.182 416.858ZM240.243 177.342C231.086 177.342 222.134 174.621 214.519 169.522C206.905 164.424 200.97 157.177 197.466 148.698C193.962 140.219 193.045 130.89 194.831 121.889C196.618 112.888 201.028 104.62 207.503 98.1306C213.978 91.6413 222.229 87.222 231.21 85.4316C240.192 83.6413 249.502 84.5602 257.962 88.0721C266.423 91.5841 273.654 97.5315 278.742 105.162C283.83 112.793 286.545 121.764 286.545 130.941C286.549 137.035 285.353 143.071 283.027 148.702C280.702 154.333 277.291 159.449 272.991 163.759C268.691 168.068 263.585 171.486 257.966 173.817C252.347 176.147 246.325 177.345 240.243 177.342ZM643.863 130.382C633.705 130.382 623.775 127.364 615.328 121.709C606.881 116.055 600.297 108.017 596.407 98.6131C592.518 89.209 591.497 78.8604 593.476 68.8754C595.454 58.8903 600.342 49.7172 607.521 42.5155C614.701 35.3138 623.85 30.4069 633.812 28.415C643.773 26.4231 654.101 27.4356 663.489 31.3247C672.876 35.2137 680.903 41.8046 686.553 50.2642C692.204 58.7239 695.225 68.6724 695.234 78.8523C695.247 85.6188 693.928 92.3213 691.351 98.5758C688.774 104.83 684.992 110.514 680.22 115.301C675.447 120.088 669.78 123.884 663.541 126.472C657.302 129.06 650.615 130.388 643.863 130.382ZM643.863 56.0286C639.341 56.0286 634.921 57.3733 631.162 59.8925C627.403 62.4116 624.475 65.9919 622.748 70.18C621.021 74.3681 620.573 78.9756 621.46 83.4191C622.348 87.8626 624.531 91.9422 627.733 95.1415C630.936 98.3407 635.014 100.516 639.451 101.391C643.888 102.266 648.484 101.802 652.657 100.058C656.831 98.3139 660.394 95.3678 662.896 91.5929C665.398 87.818 666.726 83.384 666.711 78.8523C666.692 72.7924 664.276 66.9873 659.993 62.7091C655.711 58.4309 649.91 56.0285 643.863 56.0286Z" fill="#614AD3"/>
<path d="M258.023 130.943C258.023 134.466 256.98 137.911 255.026 140.841C253.073 143.771 250.296 146.055 247.048 147.403C243.799 148.752 240.224 149.104 236.776 148.417C233.327 147.729 230.159 146.033 227.673 143.541C225.186 141.049 223.493 137.875 222.807 134.418C222.121 130.962 222.473 127.38 223.819 124.124C225.164 120.869 227.443 118.086 230.367 116.129C233.29 114.171 236.728 113.126 240.244 113.126C244.957 113.132 249.475 115.012 252.808 118.351C256.141 121.691 258.016 126.219 258.023 130.943Z" fill="#17365F"/>
<path d="M660.018 95.1088C668.931 86.1766 668.931 71.6945 660.018 62.7623C651.105 53.8301 636.654 53.8301 627.741 62.7623C618.827 71.6945 618.827 86.1765 627.741 95.1088C636.654 104.041 651.105 104.041 660.018 95.1088Z" fill="#17365F"/>
</g>
<defs>
<linearGradient id="paint0_linear_52_148" x1="241.287" y1="130.384" x2="211.353" y2="146.227" gradientUnits="userSpaceOnUse">
<stop stop-color="#40BFB4"/>
<stop offset="0.23" stop-color="#00B7AA"/>
<stop offset="1" stop-color="#27004B"/>
</linearGradient>
</defs>
</svg>
