<svg width="113" height="48" viewBox="0 0 113 48" fill="none" xmlns="http://www.w3.org/2000/svg">
<g clip-path="url(#clip0_16_19)">
<path d="M-1.11395 20.6017V25.1082H1.21826V29.3376C2.98417 29.3376 4.43622 29.7938 5.5744 30.706C6.71258 31.6183 7.44196 32.9716 7.76253 34.7659C7.59498 34.9792 7.29675 35.4375 6.83936 36.1091C6.38196 36.7808 6.04185 37.271 5.81566 37.543C5.51106 37.8695 5.15851 38.1475 4.77019 38.3674C4.33071 38.6425 3.82399 38.7907 3.30586 38.7956C2.51758 38.8011 1.73263 38.6925 0.97532 38.4732V43.104C1.98811 43.4278 3.04531 43.5904 4.10839 43.5858C5.21782 43.6134 6.31813 43.3787 7.32021 42.9008C8.15493 42.5063 8.89065 41.9291 9.47315 41.2117C9.99365 40.5401 10.4622 39.8758 10.8788 39.2187C11.2517 38.6112 11.6961 38.0509 12.2024 37.5497C12.6716 37.0914 13.1759 36.8613 13.7103 36.8613C15.3456 36.8613 16.1626 38.1771 16.1615 40.8087V47.6122H21.7876V25.1132H24.0629C24.0947 24.9453 24.1282 24.7942 24.1668 24.6397C24.5393 23.0873 25.3695 21.6832 26.5492 20.61L-1.11395 20.6017ZM16.1615 33.688C15.4109 32.6369 14.1761 32.1181 12.4655 32.1181H12.2979C11.4647 28.7891 9.49605 26.4525 6.39202 25.1082H16.1548L16.1615 33.688Z" fill="#17365F"/>
<path d="M86.8265 20.6017V17.3796H81.4031V18.1033C81.4205 19.4 81.5546 20.6924 81.8035 21.965C81.3478 21.055 80.6776 20.5994 79.793 20.5983H39.569C40.7474 21.6777 41.5741 23.0878 41.9415 24.6448C41.98 24.7959 42.0101 24.947 42.037 25.1048H46.7734C45.1672 27.0682 44.3636 30.8544 44.3625 36.4634C44.3767 37.9277 44.5514 39.386 44.8835 40.8121C45.1834 42.1004 45.6778 43.3353 46.3495 44.4741C46.985 45.5564 47.8933 46.4522 48.9833 47.0715C50.0791 47.7017 51.3636 48.0168 52.8368 48.0168C53.3477 48.0241 53.8581 47.9836 54.3615 47.8959V43.0267C54.0555 43.0604 53.7477 43.0744 53.44 43.0687C51.0028 43.0687 49.7847 40.8675 49.7859 36.4651C49.7859 34.7475 49.8361 33.2968 49.9534 32.1181C50.0576 30.9345 50.2582 29.7614 50.5532 28.6106C50.8481 27.4599 51.3234 26.5885 51.979 25.9964C52.6607 25.3974 53.5441 25.0805 54.4503 25.1098H56.5379V29.3074L62.2025 32.6453L56.4189 36.5524V41.8665L56.377 41.9085L70.3569 47.6172H75.9763V25.1182H79.0725C79.9315 25.1182 80.5006 25.2733 80.7798 25.5833C81.0596 25.8923 81.2037 26.5689 81.2037 27.6166V47.6155H86.8265V25.1166H90.241V20.6017H86.8265ZM70.3536 42.2208L62.2813 38.7167L67.5489 35.0547V30.2661L59.7145 25.1082H70.3586L70.3536 42.2208Z" fill="#17365F"/>
<path d="M26.4839 34.1665V39.6855L41.3484 47.6944V42.3014L26.4839 34.1665Z" fill="#17365F"/>
<path d="M43.7007 8.98109C43.7007 9.22451 43.6287 9.46246 43.4937 9.66485C43.3588 9.86724 43.167 10.025 42.9426 10.1181C42.7182 10.2113 42.4712 10.2357 42.233 10.1882C41.9948 10.1407 41.776 10.0235 41.6042 9.85135C41.4325 9.67923 41.3155 9.45993 41.2681 9.2212C41.2207 8.98246 41.245 8.735 41.338 8.51011C41.4309 8.28523 41.5884 8.09302 41.7903 7.95778C41.9923 7.82255 42.2297 7.75037 42.4726 7.75037C42.7982 7.75081 43.1103 7.88062 43.3405 8.11133C43.5707 8.34204 43.7003 8.65482 43.7007 8.98109Z" fill="url(#paint0_linear_16_19)"/>
<path d="M70.3971 2.69186e-07C69.7107 -0.000220269 69.031 0.135073 68.3968 0.398152C67.7626 0.661232 67.1863 1.04694 66.7009 1.53325C66.2155 2.01957 65.8304 2.59695 65.5677 3.23243C65.305 3.8679 65.1697 4.54903 65.1697 5.23688C65.171 5.93987 65.3116 6.6356 65.5836 7.28362L58.5048 12.4886C57.9092 11.9736 57.1486 11.6905 56.362 11.6911C55.8792 11.69 55.4021 11.7947 54.964 11.9977C54.5258 12.2007 54.1372 12.4972 53.8253 12.8664L47.1688 9.8391C47.2142 9.56772 47.2383 9.2932 47.2409 9.01805C47.2413 8.22833 47.0474 7.45068 46.6765 6.7539C46.3057 6.05711 45.7691 5.46268 45.1144 5.02317C44.4597 4.58366 43.707 4.31264 42.9228 4.23407C42.1387 4.1555 41.3473 4.27181 40.6187 4.5727C39.8902 4.8736 39.2468 5.34981 38.7456 5.95921C38.2444 6.5686 37.9007 7.2924 37.7451 8.06657C37.5895 8.84074 37.6266 9.64141 37.8533 10.3978C38.0799 11.1541 38.4891 11.8428 39.0446 12.403L33.5157 20.2121C33.3649 20.2121 33.2241 20.1987 33.0734 20.1987C32.1547 20.186 31.2399 20.3215 30.3642 20.6C29.4428 20.8966 28.5972 21.3911 27.8862 22.049C26.9871 22.8606 26.3555 23.9269 26.075 25.1065C25.94 25.674 25.8737 26.2558 25.8773 26.8392C25.8773 28.8003 26.5475 30.4032 27.8879 31.648C29.2282 32.8927 30.9595 33.5184 33.0817 33.5251C35.1928 33.5251 36.9123 32.8994 38.2404 31.648C39.5685 30.3965 40.2314 28.7936 40.2292 26.8392C40.2319 26.2561 40.1672 25.6747 40.0365 25.1065C39.7551 23.928 39.1249 22.8623 38.2287 22.049C37.5481 21.4166 36.742 20.9354 35.863 20.6369L40.8759 13.5531C41.3788 13.7324 41.9086 13.8244 42.4424 13.8251C43.1989 13.8249 43.9445 13.6448 44.6179 13.2995C45.2913 12.9541 45.8733 12.4535 46.316 11.8388L53.0446 14.9181C53.0446 14.9484 53.0446 14.9786 53.0446 15.0139C53.0442 15.4765 53.1405 15.9341 53.3272 16.3572C53.5138 16.7804 53.7868 17.1597 54.1285 17.4708C54.4702 17.7819 54.8731 18.0179 55.3112 18.1636C55.7494 18.3094 56.2131 18.3616 56.6726 18.317C57.1321 18.2724 57.5772 18.1319 57.9793 17.9046C58.3814 17.6773 58.7316 17.3682 59.0073 16.9972C59.2831 16.6262 59.4784 16.2014 59.5805 15.7503C59.6827 15.2991 59.6895 14.8315 59.6006 14.3775L66.8301 9.05667C67.452 9.63836 68.2064 10.0589 69.0275 10.2818C69.8487 10.5046 70.7117 10.523 71.5416 10.3353C72.3714 10.1476 73.1429 9.75954 73.789 9.20485C74.435 8.65015 74.936 7.94565 75.2483 7.15264C75.5606 6.35963 75.6748 5.50215 75.581 4.65481C75.4872 3.80746 75.1882 2.99594 74.7099 2.29084C74.2317 1.58575 73.5888 1.00846 72.8371 0.609195C72.0855 0.209933 71.2478 0.000802433 70.3971 2.69186e-07ZM34.8007 28.7315C34.3986 29.2167 33.824 29.4568 33.0767 29.4568C32.3295 29.4568 31.7364 29.2167 31.3242 28.7315C30.912 28.2463 30.7043 27.6149 30.7043 26.8392C30.6822 26.225 30.852 25.6192 31.1902 25.1065C31.232 25.046 31.2756 24.9873 31.3242 24.9285C31.7397 24.4248 32.3295 24.183 33.0767 24.183C33.824 24.183 34.3986 24.4298 34.8007 24.9285C34.8474 24.9855 34.891 25.0449 34.9314 25.1065C35.2605 25.6227 35.4253 26.227 35.4039 26.8392C35.4039 27.6149 35.2012 28.2513 34.8007 28.7315ZM42.4726 12.1864C41.84 12.1864 41.2216 11.9984 40.6956 11.6462C40.1696 11.294 39.7597 10.7934 39.5176 10.2077C39.2755 9.62203 39.2122 8.97756 39.3356 8.3558C39.459 7.73404 39.7636 7.16291 40.2109 6.71465C40.6583 6.26639 41.2282 5.96111 41.8486 5.83744C42.469 5.71376 43.1121 5.77724 43.6966 6.01984C44.281 6.26244 44.7805 6.67326 45.132 7.20036C45.4834 7.72747 45.671 8.34717 45.671 8.98111C45.6712 9.40209 45.5886 9.81899 45.428 10.208C45.2673 10.597 45.0317 10.9504 44.7347 11.2481C44.4376 11.5457 44.085 11.7818 43.6968 11.9428C43.3087 12.1038 42.8927 12.1866 42.4726 12.1864ZM70.3535 8.94249C69.6519 8.94249 68.9659 8.73401 68.3824 8.3434C67.7989 7.95279 67.3441 7.39759 67.0754 6.74798C66.8067 6.09837 66.7363 5.38351 66.8729 4.69377C67.0096 4.00404 67.3472 3.37038 67.8431 2.87291C68.3391 2.37543 68.9711 2.03647 69.6592 1.89888C70.3473 1.76128 71.0607 1.83123 71.7092 2.09987C72.3577 2.36852 72.9121 2.8238 73.3025 3.40817C73.6928 3.99254 73.9015 4.67976 73.9021 5.38296C73.903 5.85037 73.8119 6.31336 73.6339 6.7454C73.4559 7.17744 73.1946 7.57005 72.8649 7.90071C72.5353 8.23138 72.1438 8.49361 71.7128 8.67238C71.2819 8.85114 70.82 8.94294 70.3535 8.94249ZM70.3535 3.80635C70.0412 3.80635 69.7358 3.89925 69.4762 4.07326C69.2165 4.24728 69.0143 4.4946 68.895 4.7839C68.7756 5.0732 68.7447 5.39147 68.806 5.69842C68.8673 6.00536 69.0181 6.28717 69.2393 6.50817C69.4606 6.72916 69.7423 6.8794 70.0487 6.93986C70.3552 7.00032 70.6727 6.96828 70.961 6.84779C71.2493 6.72731 71.4955 6.5238 71.6683 6.26304C71.8411 6.00228 71.9328 5.69599 71.9318 5.38296C71.9305 4.96435 71.7636 4.56335 71.4678 4.26782C71.1719 3.9723 70.7713 3.80635 70.3535 3.80635Z" fill="#614AD3"/>
<path d="M43.7007 8.98109C43.7007 9.22451 43.6287 9.46246 43.4937 9.66485C43.3588 9.86724 43.167 10.025 42.9426 10.1181C42.7182 10.2113 42.4712 10.2357 42.233 10.1882C41.9948 10.1407 41.776 10.0235 41.6042 9.85135C41.4325 9.67923 41.3155 9.45993 41.2681 9.2212C41.2207 8.98246 41.245 8.735 41.338 8.51011C41.4309 8.28523 41.5884 8.09302 41.7903 7.95778C41.9923 7.82255 42.2297 7.75037 42.4726 7.75037C42.7982 7.75081 43.1103 7.88062 43.3405 8.11133C43.5707 8.34204 43.7003 8.65482 43.7007 8.98109Z" fill="#2D248A"/>
<path d="M71.4695 6.50597C72.0852 5.88895 72.0852 4.88857 71.4695 4.27156C70.8538 3.65455 69.8556 3.65455 69.2399 4.27156C68.6242 4.88857 68.6242 5.88895 69.2399 6.50597C69.8556 7.12298 70.8538 7.12298 71.4695 6.50597Z" fill="#2D248A"/>
<path d="M114.061 20.6017H111.781V17.3779H106.149V22.8163C104.999 21.0701 103.057 20.1976 100.324 20.1987C97.5125 20.1987 95.2825 21.1373 93.6338 23.0144C91.9852 24.8916 91.1648 27.2277 91.1726 30.0227V32.7595H94.5068C97.0512 32.7595 98.3234 33.6052 98.3234 35.2965C98.3234 36.9878 97.0512 37.8324 94.5068 37.8301C93.3532 37.8392 92.2 37.7865 91.052 37.6723V42.3014C92.1859 42.5359 93.3406 42.6552 94.4984 42.6574C97.3656 42.6574 99.6487 42.0328 101.348 40.7836C103.046 39.5344 103.91 37.6874 103.939 35.2428C103.914 33.0959 103.238 31.4515 101.912 30.3098C100.586 29.1681 98.8495 28.5491 96.7016 28.4528C97.1294 26.1693 98.6429 25.0276 101.242 25.0276C102.982 25.0276 104.234 25.5447 104.997 26.579C105.76 27.6133 106.142 29.1367 106.143 31.1493V47.6138H111.781V25.1149H114.068L114.061 20.6017Z" fill="#17365F"/>
</g>
<defs>
<linearGradient id="paint0_linear_16_19" x1="42.5446" y1="8.94248" x2="40.4769" y2="10.0369" gradientUnits="userSpaceOnUse">
<stop stop-color="#40BFB4"/>
<stop offset="0.23" stop-color="#00B7AA"/>
<stop offset="1" stop-color="#27004B"/>
</linearGradient>
<clipPath id="clip0_16_19">
<rect width="113" height="48" fill="white"/>
</clipPath>
</defs>
</svg>
