<svg width="60" height="60" viewBox="0 0 60 60" fill="none" xmlns="http://www.w3.org/2000/svg">
<g clip-path="url(#clip0_16_31)">
<path d="M24.1521 55.8955L19.5003 54.942L16.8086 57.7297L7.63321 50.4879L13.7526 46.3117L20.2592 39.1912C21.3496 37.9978 23.2773 38.17 24.1388 39.5382L31.8475 48.379C33.0125 49.7152 32.6829 51.7806 31.1595 52.6879L26.618 55.3924C25.8252 55.8717 25.0703 55.9124 24.1521 55.8955Z" fill="#FFE7CF"/>
<path d="M31.8475 48.379L29.9666 46.2216L22.1223 50.8962C21.3295 51.3755 20.5746 51.4163 19.6559 51.3993L15.5818 50.9608L12.0625 53.9834L16.8091 57.7297L19.5003 54.9415L24.1521 55.8955C25.0703 55.912 25.8257 55.8717 26.618 55.3924L31.1595 52.6879C32.683 51.7806 33.0125 49.7152 31.8475 48.379Z" fill="#EFD5BD"/>
<path d="M31.6209 48.5676C30.7127 47.1591 29.6063 47.8718 28.6981 46.4628C27.7899 45.0543 28.8963 44.3411 27.9881 42.9325C27.0795 41.5235 25.9735 42.2367 25.0653 40.8277C24.1566 39.4183 25.2631 38.7051 24.3544 37.2961C23.7991 36.435 22.7934 34.6571 22.1809 34.4126L17.2787 36.8347L25.8096 50.2892C26.6418 51.5806 28.3635 51.9528 29.6548 51.1201L31.2872 50.0681C31.7857 49.7463 31.9478 49.0798 31.6283 48.5795C31.626 48.5754 31.6237 48.5717 31.6209 48.5676Z" fill="#344A5D"/>
<path d="M17.5195 38.9175L13.6684 41.2937C12.9378 41.7446 11.9797 41.5176 11.5288 40.787L9.35165 37.2585C8.90076 36.5279 9.12781 35.5698 9.8584 35.119L13.7096 32.7427C14.1618 32.4639 14.7546 32.604 15.0339 33.0563L17.8331 37.5932C18.1123 38.0454 17.9718 38.6382 17.5195 38.9175Z" fill="#344A5D"/>
<path d="M19.8825 26.312L12.0657 31.1355C11.0367 31.77 10.7176 33.1185 11.3521 34.1471L15.2069 40.3947C15.8418 41.4233 17.1899 41.7428 18.219 41.1079L26.0358 36.2849L50.76 30.903L35.7825 6.62866L19.8825 26.312Z" fill="#FED066"/>
<path d="M47.2311 25.1837L22.6341 30.7725C22.6341 30.7725 14.1655 35.9974 12.9547 36.7449L15.2069 40.3947C15.8414 41.4233 17.1899 41.7428 18.2185 41.1079L26.0358 36.2849L50.76 30.903L47.2311 25.1837Z" fill="#F5B556"/>
<path d="M26.0358 36.2849L18.2185 41.1079C17.1899 41.7428 15.8414 41.4233 15.2069 40.3947L11.3521 34.1471C10.7172 33.1185 11.0367 31.77 12.0653 31.1355L19.8825 26.312L26.0358 36.2849Z" fill="#FD715C"/>
<path d="M22.6341 30.7725C22.6341 30.7725 14.1655 35.9974 12.9547 36.7449L15.2069 40.3947C15.8414 41.4233 17.1899 41.7428 18.2185 41.1079L22.1269 38.6964L26.0358 36.2849L22.6341 30.7725Z" fill="#D83E3A"/>
<path d="M52.2432 32.6278L51.1761 33.2861C50.6232 33.6271 49.8981 33.4554 49.557 32.9025L33.4556 6.80718C33.1142 6.25374 33.2858 5.5291 33.8393 5.18761L34.9063 4.52935C35.4593 4.18786 36.1844 4.35952 36.5254 4.91295L52.6268 31.0082C52.9683 31.5612 52.7962 32.2863 52.2432 32.6278Z" fill="#FD715C"/>
<path d="M52.6268 31.0082L49.9782 26.7149L46.9079 28.6096L49.557 32.9025C49.8981 33.4554 50.6232 33.6271 51.1761 33.2861L52.2432 32.6278C52.7962 32.2863 52.9683 31.5612 52.6268 31.0082Z" fill="#D83E3A"/>
<path d="M29.1948 52.1203C29.7766 53.0729 31.0208 53.3737 31.9734 52.7914L34.9191 50.9905C35.8713 50.4087 36.1716 49.1654 35.5897 48.2133C35.0079 47.2607 33.7637 46.9604 32.8116 47.5422L29.8654 49.3431C28.9137 49.9249 28.6134 51.1682 29.1948 52.1203Z" fill="#FFE7CF"/>
<path d="M35.5898 48.2133C35.3513 47.8228 35.0006 47.544 34.6056 47.3889C34.709 48.1584 34.3629 48.9526 33.6575 49.3838L30.7114 51.1846C30.1492 51.528 29.4868 51.5618 28.9178 51.3384C28.954 51.6076 29.0442 51.874 29.1948 52.1208C29.7766 53.0734 31.0208 53.3737 31.9734 52.7914L34.9191 50.9905C35.8713 50.4087 36.1711 49.1654 35.5898 48.2133Z" fill="#EFD5BD"/>
<path d="M27.9332 48.1437C28.5237 49.1109 29.7867 49.4158 30.7535 48.8248L33.647 47.056C34.6133 46.4655 34.9182 45.2035 34.3282 44.2367C33.7376 43.2699 32.4747 42.965 31.5079 43.556L28.6139 45.3248C27.6476 45.9153 27.3427 47.1774 27.9332 48.1437Z" fill="#FFE7CF"/>
<path d="M34.3282 44.2367C34.0929 43.8517 33.7505 43.5739 33.3627 43.4132C33.4612 44.1895 33.11 44.9874 32.3991 45.4218L29.5052 47.1906C28.9233 47.5463 28.2353 47.5756 27.6498 47.3335C27.6851 47.6122 27.7771 47.8883 27.9332 48.1437C28.5237 49.111 29.7867 49.4158 30.7535 48.8249L33.647 47.0561C34.6133 46.4655 34.9182 45.2035 34.3282 44.2367Z" fill="#EFD5BD"/>
<path d="M25.7762 44.6661C26.3667 45.6329 27.6297 45.9382 28.5965 45.3472L31.4905 43.578C32.4568 42.9875 32.7612 41.7254 32.1712 40.7591C31.5807 39.7918 30.3177 39.4869 29.3509 40.0779L26.4569 41.8467C25.4906 42.4372 25.1857 43.6993 25.7762 44.6661Z" fill="#FFE7CF"/>
<path d="M32.1712 40.7591C31.9409 40.3819 31.6077 40.1068 31.23 39.9447C31.3152 40.7115 30.9645 41.4942 30.2628 41.9232L27.3692 43.692C26.7792 44.0527 26.0802 44.0778 25.4901 43.8252C25.5222 44.114 25.6142 44.401 25.7758 44.6656C26.3667 45.6329 27.6292 45.9377 28.5965 45.3468L31.4905 43.578C32.4568 42.9875 32.7612 41.7254 32.1712 40.7591Z" fill="#EFD5BD"/>
<path d="M23.7428 41.0992C24.3333 42.066 25.5963 42.3708 26.5631 41.7799L29.4571 40.0111C30.4234 39.4206 30.7283 38.1585 30.1378 37.1917C29.5473 36.2249 28.2843 35.92 27.3175 36.511L24.4235 38.2798C23.4572 38.8703 23.1528 40.1324 23.7428 41.0992Z" fill="#FFE7CF"/>
<path d="M30.1378 37.1917C29.8663 36.7468 29.4516 36.4442 28.9893 36.3023C29.166 37.1299 28.8176 38.0139 28.055 38.4803L25.161 40.2491C24.6391 40.5682 24.0312 40.624 23.4892 40.4574C23.5364 40.6785 23.6188 40.8955 23.7428 41.0992C24.3333 42.066 25.5963 42.3708 26.5631 41.7799L29.4571 40.0111C30.4234 39.4206 30.7283 38.1585 30.1378 37.1917Z" fill="#EFD5BD"/>
<path d="M28.0843 43.5807L27.5478 43.9085C26.7032 44.4248 25.6119 44.1772 25.1093 43.356L24.2203 41.9021C23.7849 41.1907 22.8378 40.9793 22.1095 41.4311C21.3785 46.797 13.7526 46.3117 13.7526 46.3117L18.4781 39.1944C18.7898 38.6552 19.2325 38.1993 19.7653 37.8688L22.4322 36.2149C23.7286 35.411 25.4141 35.7864 26.19 37.0526L28.7036 41.1546C29.2071 41.9772 28.9297 43.0639 28.0843 43.5807Z" fill="#FFE7CF"/>
<path d="M28.7032 41.155L28.6826 41.1212C28.537 41.3551 28.3365 41.5606 28.0843 41.7149L27.5473 42.0431C26.7032 42.559 25.6119 42.3118 25.1093 41.4901L24.2203 40.0367C23.7849 39.3249 22.8378 39.1139 22.1095 39.5652C21.8028 41.8156 20.4268 43.9721 18.891 45.4493C20.4446 44.7668 21.8193 43.5592 22.1095 41.4311C22.8378 40.9793 23.7849 41.1907 24.2203 41.9021L25.1093 43.356C25.6119 44.1772 26.7032 44.4248 27.5473 43.9089L28.0843 43.5807C28.9297 43.0639 29.2072 41.9772 28.7032 41.155Z" fill="#EFD5BD"/>
<path d="M16.9565 57.9051L9.44 48.9732L11.9151 46.8903C11.9929 46.8249 12.1097 46.835 12.1756 46.9128L19.454 55.5622C19.5195 55.64 19.5094 55.7568 19.4316 55.8227L16.9565 57.9051Z" fill="#CDD6DF"/>
<path d="M19.4536 55.5622L15.5818 50.9608L12.9652 53.1626L16.9565 57.9055L19.4312 55.8227C19.5094 55.7568 19.5195 55.64 19.4536 55.5622Z" fill="#96A4AA"/>
<path d="M47.9649 16.0147C47.6651 16.0147 47.3726 15.8636 47.2041 15.5899C46.9459 15.1701 47.0769 14.6208 47.4966 14.3626L52.3315 11.3885C52.7513 11.1303 53.3006 11.2612 53.5583 11.681C53.8165 12.1003 53.6856 12.6496 53.2663 12.9078L48.4314 15.8819C48.2854 15.9721 48.1242 16.0147 47.9649 16.0147Z" fill="#DBD9D1"/>
<path d="M59.1092 23.2963C59.0803 23.2963 59.0511 23.2949 59.0218 23.2922L51.9333 22.6032C51.443 22.5556 51.0841 22.1198 51.1317 21.6291C51.1793 21.1393 51.6156 20.7795 52.1059 20.828L59.1943 21.5165C59.6846 21.5641 60.0435 22.0004 59.9959 22.4906C59.951 22.9516 59.5628 23.2963 59.1092 23.2963Z" fill="#DBD9D1"/>
<path d="M43.9078 9.42146C43.8002 9.42146 43.6908 9.40178 43.5846 9.36058C43.1254 9.18205 42.8984 8.66478 43.0769 8.2061L45.6587 1.56853C45.8372 1.10939 46.3545 0.882797 46.8132 1.06087C47.2723 1.23939 47.4998 1.75621 47.3213 2.21535L44.7395 8.85246C44.6022 9.2054 44.2648 9.42146 43.9078 9.42146Z" fill="#DBD9D1"/>
<path d="M17.493 57.8218L9.36905 48.292C9.3045 48.216 9.19281 48.2009 9.10995 48.2572L0.457764 55.0871C0.168915 55.315 0 55.6634 0 56.0319V58.8105C0 59.4752 0.538788 60.014 1.20392 60.014H15.3575C15.7219 60.014 16.067 59.8487 16.2959 59.5645L17.4847 58.0845C17.5548 58.0122 17.558 57.8982 17.493 57.8218Z" fill="#3C5666"/>
<path d="M17.493 57.8217L13.6409 53.3027L7.96967 60.014H15.3575C15.7219 60.014 16.067 59.8487 16.2959 59.5645L17.4847 58.0845C17.5548 58.0122 17.558 57.8982 17.493 57.8217Z" fill="#194451"/>
</g>
<defs>
<clipPath id="clip0_16_31">
<rect width="60" height="60" fill="white"/>
</clipPath>
</defs>
</svg>
