<svg width="1106" height="1226" viewBox="0 0 1106 1226" fill="none" xmlns="http://www.w3.org/2000/svg">
<g clip-path="url(#clip0_42_463)">
<path d="M282.035 1016.54H553.9L733.663 1196.1C743.323 1205.81 754.809 1213.52 767.46 1218.78C780.11 1224.04 793.675 1226.75 807.376 1226.75C816.39 1226.73 825.366 1225.58 834.092 1223.32C851.728 1218.87 867.88 1209.85 880.919 1197.17C893.959 1184.49 903.426 1168.6 908.367 1151.09L1225.44 72.7744L282.035 1016.54Z" fill="#0B132B"/>
<path d="M209.273 941.025H208.773V932.98H209.273V924.934H208.773V916.888H209.273V908.843H208.773V900.797H209.273V892.751H208.773V884.706H209.273V876.66H208.773V868.615H209.273V860.569H208.773V852.523H209.273V844.478H208.773V836.432H209.273V828.386H208.773V820.341H209.273V812.295H208.773V804.25H209.273V796.204H208.773V788.158H209.273V780.113H208.773V772.067H209.273V764.021H208.773V755.976H209.273V747.93H208.773V739.885H209.273V731.839H208.773V723.793H209.273V715.748H208.773V707.702H209.273V699.656H208.773V691.611H209.273V683.565H208.773V675.52H209.273V671.497V671.289L209.127 671.143L206.337 668.356L205.984 668.709L200.404 663.135L200.758 662.781L195.179 657.207L194.825 657.56L189.246 651.986L189.599 651.632L184.02 646.058L183.667 646.412L178.087 640.837L178.441 640.483L172.862 634.909L172.508 635.263L166.929 629.688L167.282 629.334L161.703 623.76L161.35 624.114L155.77 618.539L156.124 618.185L150.544 612.611L150.191 612.965L144.612 607.39L144.965 607.037L139.386 601.462L139.033 601.816L133.453 596.241L133.807 595.888L128.227 590.313L127.874 590.667L122.295 585.092L122.648 584.739L117.069 579.164L116.716 579.518L111.136 573.943L111.49 573.59L105.91 568.015L105.557 568.369L99.9778 562.794L100.331 562.441L94.7519 556.866L94.3985 557.22L88.8193 551.646L89.1727 551.292L83.5934 545.717L83.24 546.071L77.6608 540.497L78.0142 540.143L72.4349 534.568L72.0815 534.922L66.5023 529.348L66.8556 528.994L61.2764 523.42L60.923 523.773L55.3438 518.199L55.6971 517.845L50.1179 512.271L49.7645 512.624L44.1852 507.05L44.5386 506.696L38.9594 501.122L38.606 501.475L33.0267 495.901L33.3801 495.547L30.5904 492.76L30.5901 492.76C29.5235 491.696 28.4815 490.611 27.4647 489.504L27.0966 489.843C25.0465 487.613 23.0981 485.299 21.2557 482.909L21.6517 482.604C19.8129 480.219 18.0802 477.757 16.4578 475.226L16.0369 475.496C14.4053 472.95 12.8847 470.335 11.4796 467.658L11.9223 467.426C10.5252 464.764 9.24268 462.04 8.0791 459.262L7.61792 459.455C6.45203 456.672 5.40497 453.834 4.481 450.949L4.95717 450.797C4.49889 449.366 4.07104 447.924 3.67414 446.47C3.27724 445.017 2.91244 443.558 2.57974 442.093L2.09215 442.203C1.42139 439.249 0.880517 436.273 0.46958 433.284L0.964924 433.216C0.5548 430.232 0.274723 427.234 0.124747 424.232L-0.37463 424.257C-0.525463 421.237 -0.545331 418.212 -0.434177 415.191L0.0654843 415.209C0.176006 412.205 0.416686 409.204 0.78758 406.215L0.291386 406.154C0.663017 403.159 1.16475 400.176 1.79665 397.214L2.28565 397.318C2.59907 395.848 2.94467 394.384 3.32244 392.926C3.70022 391.468 4.10909 390.02 4.54854 388.583L4.0704 388.437C4.9564 385.54 5.96609 382.689 7.09532 379.89L7.559 380.077C8.68598 377.284 9.9326 374.544 11.2947 371.864L10.8489 371.638C12.2188 368.942 13.7048 366.308 15.3029 363.741L15.7273 364.005C17.3163 361.453 19.0165 358.969 20.8238 356.559L20.4238 356.259C22.2347 353.845 24.1525 351.506 26.1731 349.25L26.5456 349.583C27.5479 348.464 28.5755 347.365 29.628 346.287C30.6806 345.21 31.755 344.156 32.8504 343.128L32.5081 342.763C34.7166 340.69 37.0098 338.718 39.3805 336.85L39.6899 337.243C42.0559 335.38 44.4995 333.621 47.0134 331.973L46.7392 331.555C49.2674 329.896 51.8664 328.349 54.5287 326.916L54.7656 327.356C57.4128 325.931 60.1229 324.62 62.8885 323.428L62.6906 322.969C65.4617 321.774 68.2884 320.697 71.1634 319.743L71.3209 320.218C72.7468 319.744 74.1847 319.302 75.6337 318.89L75.6383 318.888L79.4867 317.753L79.3453 317.274L87.0421 315.004L87.1835 315.483L94.8803 313.213L94.7389 312.734L102.436 310.464L102.577 310.943L110.274 308.673L110.132 308.194L117.829 305.924L117.971 306.404L125.668 304.134L125.526 303.654L133.223 301.384L133.364 301.864L141.061 299.594L140.92 299.114L148.616 296.844L148.758 297.324L156.455 295.054L156.313 294.574L164.01 292.304L164.151 292.784L171.848 290.514L171.707 290.035L179.404 287.765L179.545 288.244L187.242 285.974L187.1 285.495L194.797 283.225L194.939 283.704L202.636 281.434L202.494 280.955L210.191 278.685L210.332 279.164L218.029 276.895L217.888 276.415L225.584 274.145L225.726 274.625L233.423 272.355L233.281 271.875L240.978 269.605L241.119 270.085L248.816 267.815L248.675 267.335L256.372 265.065L256.513 265.545L264.21 263.275L264.068 262.795L271.765 260.526L271.907 261.005L279.603 258.735L279.462 258.256L287.159 255.986L287.3 256.465L294.997 254.195L294.856 253.716L302.552 251.446L302.694 251.925L310.391 249.655L310.249 249.176L317.946 246.906L318.087 247.386L325.784 245.116L325.643 244.636L333.34 242.366L333.481 242.846L341.178 240.576L341.036 240.096L348.733 237.826L348.875 238.306L356.571 236.036L356.43 235.556L364.127 233.286L364.268 233.766L371.965 231.496L371.824 231.016L379.52 228.747L379.662 229.226L387.359 226.956L387.217 226.477L394.914 224.207L395.055 224.686L402.752 222.416L402.611 221.937L410.307 219.667L410.449 220.146L418.146 217.877L418.004 217.397L425.701 215.127L425.843 215.607L433.539 213.337L433.398 212.857L441.095 210.587L441.236 211.067L448.933 208.797L448.791 208.317L456.488 206.047L456.63 206.527L464.326 204.257L464.185 203.777L471.882 201.508L472.023 201.987L479.72 199.717L479.579 199.238L487.275 196.968L487.417 197.447L495.114 195.177L494.972 194.698L502.669 192.428L502.81 192.907L510.507 190.637L510.366 190.158L518.063 187.888L518.204 188.368L525.901 186.098L525.759 185.618L533.456 183.348L533.598 183.828L541.294 181.558L541.153 181.078L548.85 178.808L548.991 179.288L556.688 177.018L556.547 176.538L564.243 174.268L564.385 174.748L572.082 172.478L571.94 171.999L579.637 169.729L579.778 170.208L587.475 167.938L587.334 167.459L595.031 165.189L595.172 165.668L602.869 163.398L602.727 162.919L610.424 160.649L610.566 161.128L618.262 158.859L618.121 158.379L625.818 156.109L625.959 156.589L633.656 154.319L633.515 153.839L641.211 151.569L641.353 152.049L649.05 149.779L648.908 149.299L656.605 147.029L656.746 147.509L664.443 145.239L664.302 144.759L671.998 142.49L672.14 142.969L679.837 140.699L679.695 140.22L687.392 137.95L687.534 138.429L695.23 136.159L695.089 135.68L702.786 133.41L702.927 133.889L710.624 131.619L710.482 131.14L718.179 128.87L718.321 129.35L726.017 127.08L725.876 126.6L733.573 124.33L733.714 124.81L741.411 122.54L741.27 122.06L748.966 119.79L749.108 120.27L756.805 118L756.663 117.52L764.36 115.25L764.501 115.73L772.198 113.46L772.057 112.98L779.754 110.711L779.895 111.19L787.592 108.92L787.45 108.441L795.147 106.171L795.289 106.65L802.985 104.38L802.844 103.901L810.541 101.631L810.682 102.11L818.379 99.8405L818.238 99.361L825.934 97.091L826.076 97.5706L833.773 95.3007L833.631 94.8211L841.328 92.5512L841.469 93.0308L849.166 90.7609L849.025 90.2813L856.722 88.0114L856.863 88.4909L864.56 86.221L864.418 85.7414L872.115 83.4715L872.257 83.9511L879.953 81.6812L879.812 81.2016L887.509 78.9317L887.65 79.4112L895.347 77.1413L895.205 76.6617L902.902 74.3918L903.044 74.8714L910.741 72.6015L910.599 72.1219L918.296 69.852L918.437 70.3315L926.134 68.0616L925.993 67.582L933.689 65.3121L933.831 65.7917L941.528 63.5218L941.386 63.0422L949.083 60.7723L949.225 61.2518L956.921 58.9819L956.78 58.5023L964.477 56.2324L964.618 56.712L972.315 54.4421L972.173 53.9625L979.87 51.6926L980.012 52.1722L987.708 49.9022L987.567 49.4227L995.264 47.1527L995.405 47.6323L1003.1 45.3624L1002.96 44.8828L1010.66 42.6129L1010.8 43.0925L1018.5 40.8225L1018.35 40.343L1026.05 38.0731L1026.19 38.5526L1033.89 36.2827L1033.75 35.8031L1041.44 33.5332L1041.59 34.0128L1049.28 31.7429L1049.14 31.2633L1056.84 28.9934L1056.98 29.4729L1064.68 27.203L1064.54 26.7234L1072.23 24.4535L1072.37 24.9331L1080.07 22.6631L1079.93 22.1836L1087.63 19.9136L1087.77 20.3932L1095.46 18.1233L1095.32 17.6437L1103.02 15.3738L1103.16 15.8534L1110.86 13.5835L1110.72 13.1039L1118.41 10.834L1118.55 11.3135L1126.25 9.0436L1126.11 8.56402L1133.81 6.2941L1133.95 6.77368L1141.64 4.50376L1141.5 4.02418L1149.2 1.75426L1149.34 2.23384L1151.31 1.65416L1149.85 3.11028L1150.2 3.46379L1144.52 9.15316L1144.16 8.79961L1138.47 14.4889L1138.83 14.8425L1133.14 20.5318L1132.79 20.1783L1127.1 25.8676L1127.45 26.2211L1121.76 31.9104L1121.41 31.5569L1115.72 37.2463L1116.07 37.5998L1110.39 43.2891L1110.03 42.9356L1104.34 48.6249L1104.7 48.9784L1099.01 54.6678L1098.66 54.3142L1092.97 60.0036L1093.32 60.3571L1087.63 66.0464L1087.28 65.6929L1081.59 71.3822L1081.94 71.7357L1076.26 77.4251L1075.9 77.0716L1070.21 82.7609L1070.57 83.1144L1064.88 88.8037L1064.52 88.4502L1058.84 94.1395L1059.19 94.4931L1053.5 100.182L1053.15 99.8289L1047.46 105.518L1047.81 105.872L1042.12 111.561L1041.77 111.208L1036.08 116.897L1036.44 117.25L1030.75 122.94L1030.39 122.586L1024.71 128.276L1025.06 128.629L1019.37 134.318L1019.02 133.965L1013.33 139.654L1013.68 140.008L1007.99 145.697L1007.64 145.344L1001.95 151.033L1002.31 151.386L996.618 157.076L996.264 156.722L990.576 162.411L990.929 162.765L985.241 168.454L984.887 168.101L979.199 173.79L979.552 174.144L973.864 179.833L973.51 179.479L967.822 185.169L968.176 185.522L962.487 191.212L962.134 190.858L956.445 196.548L956.799 196.901L951.11 202.59L950.757 202.237L945.068 207.926L945.422 208.28L939.733 213.969L939.38 213.616L933.691 219.305L934.045 219.658L928.357 225.348L928.003 224.994L922.315 230.684L922.668 231.037L916.98 236.726L916.626 236.373L910.938 242.062L911.291 242.416L905.603 248.105L905.249 247.752L899.561 253.441L899.915 253.794L894.226 259.484L893.873 259.13L888.184 264.82L888.538 265.173L882.849 270.862L882.496 270.509L876.807 276.198L877.161 276.552L871.472 282.241L871.119 281.888L865.43 287.577L865.784 287.93L860.096 293.62L859.742 293.266L854.054 298.956L854.407 299.309L848.719 304.998L848.365 304.645L842.677 310.334L843.03 310.688L837.342 316.377L836.988 316.024L831.3 321.713L831.654 322.066L825.965 327.756L825.612 327.402L819.923 333.092L820.277 333.445L814.588 339.135L814.235 338.781L808.546 344.47L808.9 344.824L803.211 350.513L802.858 350.16L797.169 355.849L797.523 356.203L791.835 361.892L791.481 361.538L785.793 367.228L786.146 367.581L780.458 373.271L780.104 372.917L774.416 378.606L774.769 378.96L769.081 384.649L768.727 384.296L763.039 389.985L763.393 390.339L757.704 396.028L757.351 395.674L751.662 401.364L752.016 401.717L746.327 407.407L745.974 407.053L740.285 412.742L740.639 413.096L734.951 418.785L734.597 418.432L728.908 424.121L729.262 424.475L723.574 430.164L723.22 429.81L717.532 435.5L717.885 435.853L712.197 441.543L711.843 441.189L706.155 446.878L706.508 447.232L700.82 452.921L700.466 452.568L694.778 458.257L695.132 458.611L689.443 464.3L689.09 463.946L683.401 469.636L683.755 469.989L678.066 475.679L677.713 475.325L672.024 481.014L672.378 481.368L666.689 487.057L666.336 486.704L660.647 492.393L661.001 492.747L655.313 498.436L654.959 498.082L649.271 503.772L649.624 504.125L643.936 509.815L643.582 509.461L637.894 515.151L638.247 515.504L632.559 521.193L632.205 520.84L626.517 526.529L626.871 526.883L621.182 532.572L620.829 532.219L615.14 537.908L615.494 538.261L609.805 543.951L609.452 543.597L603.763 549.287L604.117 549.64L598.429 555.329L598.075 554.976L592.387 560.665L592.74 561.019L587.052 566.708L586.698 566.355L581.01 572.044L581.363 572.397L575.675 578.087L575.321 577.733L569.633 583.423L569.986 583.776L564.298 589.465L563.944 589.112L558.256 594.801L558.61 595.155L552.921 600.844L552.568 600.491L546.879 606.18L547.233 606.533L541.544 612.223L541.191 611.869L535.502 617.559L535.856 617.912L530.168 623.602L529.814 623.248L524.126 628.937L524.479 629.291L518.791 634.98L518.437 634.627L512.749 640.316L513.102 640.67L507.414 646.359L507.06 646.005L501.372 651.695L501.725 652.048L496.037 657.738L495.683 657.384L489.995 663.073L490.349 663.427L484.66 669.116L484.307 668.763L478.618 674.452L478.972 674.806L473.283 680.495L472.93 680.141L467.241 685.831L467.595 686.184L461.907 691.874L461.553 691.52L455.865 697.209L456.218 697.563L450.53 703.252L450.176 702.899L444.488 708.588L444.841 708.942L439.153 714.631L438.799 714.277L433.111 719.967L433.464 720.32L427.776 726.01L427.423 725.656L421.734 731.345L422.088 731.699L416.399 737.388L416.046 737.035L410.357 742.724L410.711 743.078L405.022 748.767L404.669 748.413L398.98 754.103L399.334 754.456L393.646 760.146L393.292 759.792L387.604 765.481L387.957 765.835L382.269 771.524L381.915 771.171L376.227 776.86L376.58 777.214L370.892 782.903L370.538 782.549L364.85 788.239L365.204 788.592L359.515 794.282L359.162 793.928L353.473 799.617L353.827 799.971L348.138 805.66L347.785 805.307L342.096 810.996L342.45 811.35L336.761 817.039L336.408 816.685L330.719 822.375L331.073 822.728L325.385 828.418L325.031 828.064L319.343 833.753L319.696 834.107L314.008 839.796L313.654 839.443L307.966 845.132L308.319 845.486L302.631 851.175L302.277 850.822L296.589 856.511L296.943 856.864L291.254 862.554L290.901 862.2L285.212 867.89L285.566 868.243L279.877 873.932L279.524 873.579L273.835 879.268L274.189 879.622L268.5 885.311L268.147 884.958L262.459 890.647L262.812 891L257.124 896.69L256.77 896.336L251.082 902.026L251.435 902.379L245.747 908.068L245.393 907.715L239.705 913.404L240.058 913.758L234.37 919.447L234.016 919.094L228.328 924.783L228.682 925.136L222.993 930.826L222.64 930.472L216.951 936.162L217.305 936.515L211.616 942.204L211.263 941.851L209.273 943.841V941.025Z" stroke="#0B132B" stroke-dasharray="8 8"/>
</g>
<defs>
<clipPath id="clip0_42_463">
<rect width="1226" height="1226" fill="white"/>
</clipPath>
</defs>
</svg>
