<svg width="160" height="180" viewBox="0 0 160 180" fill="none" xmlns="http://www.w3.org/2000/svg">
<rect x="1" y="1" width="158" height="178" rx="11" fill="#F4F4F9" stroke="#DDDCEC" stroke-width="2"/>
<path d="M59.4761 130.294L47.8436 134.366C46.8649 134.708 46.3511 135.776 46.6924 136.755C47.0336 137.734 48.1061 138.255 49.0811 137.906L60.5074 133.905C59.9674 132.784 59.6224 131.561 59.4761 130.294Z" fill="#D5D3E8"/>
<path d="M112.366 134.442L100.523 130.298C100.373 131.565 100.036 132.788 99.4922 133.905L111.132 137.978C111.338 138.053 111.545 138.083 111.751 138.083C112.527 138.083 113.251 137.599 113.521 136.827C113.858 135.852 113.345 134.779 112.366 134.442Z" fill="#D5D3E8"/>
<path d="M110.094 72.9904L109.408 73.2192C109.359 74.5617 109.303 75.8967 109.243 77.2279L111.279 76.5492C112.348 76.1892 113.75 76.9092 113.75 78.3267V83.7679C113.75 87.5254 111.504 90.8592 108.107 92.3367C107.938 93.7992 107.75 95.2017 107.548 96.5442L108.527 96.2179C113.893 94.4292 117.5 89.4267 117.5 83.7679V78.3267C117.5 74.6179 113.649 71.7979 110.094 72.9904Z" fill="#D5D3E8"/>
<path d="M46.25 83.7677V78.3265C46.25 77.1677 47.2213 76.4477 48.1213 76.4477C48.32 76.4477 48.5225 76.4815 48.7175 76.5452L50.795 77.239C50.7312 75.9115 50.675 74.5727 50.63 73.2302L49.9062 72.9902C46.3325 71.794 42.5 74.6177 42.5 78.3265V83.7677C42.5 89.4265 46.1075 94.429 51.4737 96.2177L52.475 96.5515C52.2725 95.2127 52.0887 93.814 51.9275 92.3515C48.5112 90.8777 46.25 87.5402 46.25 83.7677Z" fill="#D5D3E8"/>
<path d="M98.75 116.25V128.997C98.75 132.923 96.2713 136.467 92.5775 137.809L80 142.38L67.4225 137.809C63.7287 136.467 61.25 132.923 61.25 128.997V116.25H61.9625C60.8525 115.035 59.8138 113.813 58.8463 112.605C58.0738 112.838 57.5 113.524 57.5 114.375V128.997C57.5 134.494 60.9725 139.452 66.14 141.33L79.3588 146.138C79.565 146.213 79.7825 146.25 80 146.25C80.2175 146.25 80.435 146.213 80.6412 146.138L93.86 141.33C99.0275 139.452 102.5 134.494 102.5 128.997V114.375C102.5 113.52 101.915 112.827 101.135 112.602C100.167 113.805 99.1288 115.028 98.015 116.25H98.75Z" fill="#D5D3E8"/>
<path d="M86.7841 127.5H73.2279C72.9541 127.5 72.6804 127.44 72.4329 127.324C66.1441 124.384 57.9654 115.114 54.4141 109.778C50.9641 104.591 49.1004 90.6938 48.5416 66.0338C48.3466 57.4463 51.5416 49.3425 57.5304 43.215C63.4966 37.11 71.4841 33.75 80.0191 33.75C88.5466 33.75 96.5304 37.11 102.497 43.2037C108.489 49.3312 111.684 57.4312 111.497 66.015C110.949 90.705 109.055 104.64 105.523 109.864C101.912 115.211 93.7104 124.455 87.5754 127.324C87.3279 127.44 87.0579 127.5 86.7841 127.5ZM73.6591 123.75H86.3491C91.1754 121.286 98.4691 113.603 102.418 107.768C105.44 103.294 107.233 89.22 107.747 65.9325C107.912 58.365 105.095 51.2288 99.8154 45.8288C94.5616 40.4588 87.5304 37.5 80.0191 37.5C72.5004 37.5 65.4691 40.4625 60.2154 45.8363C54.9354 51.2362 52.1191 58.38 52.2916 65.9512C52.8166 89.2125 54.5829 103.26 57.5341 107.7C61.3291 113.404 68.7766 121.253 73.6591 123.75Z" fill="#D5D3E8"/>
<path d="M29.375 127.5C30.41 127.5 31.25 128.34 31.25 129.375V138.75H40.625C41.66 138.75 42.5 139.59 42.5 140.625C42.5 141.66 41.66 142.5 40.625 142.5H29.375C28.34 142.5 27.5 141.66 27.5 140.625V129.375C27.5 128.34 28.34 127.5 29.375 127.5Z" fill="#D5D3E8"/>
<path d="M130.625 127.5C131.66 127.5 132.5 128.34 132.5 129.375V140.625C132.5 141.66 131.66 142.5 130.625 142.5H119.375C118.34 142.5 117.5 141.66 117.5 140.625C117.5 139.59 118.34 138.75 119.375 138.75H128.75V129.375C128.75 128.34 129.59 127.5 130.625 127.5Z" fill="#D5D3E8"/>
<path d="M130.625 52.5C129.59 52.5 128.75 51.66 128.75 50.625V41.25H119.375C118.34 41.25 117.5 40.41 117.5 39.375C117.5 38.34 118.34 37.5 119.375 37.5H130.625C131.66 37.5 132.5 38.34 132.5 39.375V50.625C132.5 51.66 131.66 52.5 130.625 52.5Z" fill="#D5D3E8"/>
<path d="M29.375 52.5C28.34 52.5 27.5 51.66 27.5 50.625V39.375C27.5 38.34 28.34 37.5 29.375 37.5H40.625C41.66 37.5 42.5 38.34 42.5 39.375C42.5 40.41 41.66 41.25 40.625 41.25H31.25V50.625C31.25 51.66 30.41 52.5 29.375 52.5Z" fill="#D5D3E8"/>
</svg>
