<svg width="40" height="40" viewBox="0 0 40 40" fill="none" xmlns="http://www.w3.org/2000/svg">
<path opacity="0.08" d="M20 39.375C30.7005 39.375 39.375 30.7005 39.375 20C39.375 9.29948 30.7005 0.625 20 0.625C9.29948 0.625 0.625 9.29948 0.625 20C0.625 30.7005 9.29948 39.375 20 39.375Z" fill="#2D248A"/>
<path d="M35.5481 31.5468C33.7411 29.1275 31.3948 27.1631 28.6955 25.8097C25.9963 24.4562 23.0186 23.7509 19.999 23.75C16.9794 23.7491 14.0012 24.4524 11.3011 25.8042C8.60104 27.156 6.25345 29.1189 4.44495 31.537C6.24426 33.9674 8.58801 35.9423 11.2883 37.3034C13.9885 38.6646 16.9702 39.3741 19.9941 39.375C23.018 39.376 26.0001 38.6683 28.7012 37.3089C31.4023 35.9494 33.7473 33.976 35.5481 31.5468Z" fill="#614AD3"/>
<path d="M20 21.25C24.1421 21.25 27.5 17.8921 27.5 13.75C27.5 9.60786 24.1421 6.25 20 6.25C15.8579 6.25 12.5 9.60786 12.5 13.75C12.5 17.8921 15.8579 21.25 20 21.25Z" fill="#614AD3"/>
</svg>
