<svg width="28" height="28" viewBox="0 0 28 28" fill="none" xmlns="http://www.w3.org/2000/svg">
<g clip-path="url(#clip0_324_935)">
<path d="M27.6988 5.66617L27.6945 5.62461C27.5534 4.26836 26.9441 2.99086 25.9789 2.02672C25.0142 1.06258 23.7351 0.453906 22.3777 0.312812C20.3827 0.105 17.0944 0 14.0078 0C10.9213 0 7.63234 0.105 5.63734 0.312812C4.28 0.453906 3.00086 1.06258 2.03617 2.02672C1.07148 2.99086 0.462266 4.26836 0.320625 5.62461L0.31625 5.66617C0.143984 7.32102 0.0078125 7.5868 0.0078125 11.077C0.0078125 14.5671 0.143984 15.1304 0.316797 16.7858L0.321172 16.8273C0.462266 18.1836 1.07148 19.4616 2.03672 20.4252C3.00141 21.3894 4.28055 21.998 5.63789 22.1391C6.73875 22.2534 8.23336 22.3371 9.87016 22.3885L13.0464 27.4323C13.5233 28.1892 14.6274 28.1892 15.1043 27.4323L18.2833 22.3841C19.8665 22.3322 21.3086 22.2502 22.3788 22.1391C23.7362 21.998 25.0153 21.3894 25.98 20.4252C26.9447 19.4611 27.5539 18.1836 27.6955 16.8273L27.6999 16.7858C27.8722 15.1309 28.0089 14.5677 28.0089 11.0775C28.0089 7.58734 27.8727 7.32211 27.6999 5.66672L27.6988 5.66617Z" fill="#F24C4C"/>
<path d="M0.320625 16.8268C0.354531 17.1538 0.416328 17.4759 0.503281 17.7904C2.38836 18.6337 4.47633 19.104 6.67477 19.104C15.0305 19.104 21.8041 12.3304 21.8041 3.97469C21.8041 2.67914 21.6405 1.42188 21.3343 0.221484C19.3426 0.074375 16.6038 0 14.0078 0C10.9207 0 7.63234 0.105 5.63734 0.312812C4.28 0.453906 3.00086 1.06258 2.03617 2.02672C1.07148 2.99086 0.462266 4.26836 0.320625 5.62461L0.31625 5.66617C0.143984 7.32102 0.0078125 7.5868 0.0078125 11.077C0.0078125 14.5671 0.143984 15.1304 0.316797 16.7858L0.321172 16.8273L0.320625 16.8268Z" fill="#F8B400"/>
<path d="M14.0042 19.6361C12.9783 19.6361 12.1465 18.8048 12.1465 17.78C12.1465 16.7552 12.9783 15.9239 14.0042 15.9239C15.0302 15.9239 15.862 16.7546 15.862 17.78C15.862 18.8054 15.0302 19.6361 14.0042 19.6361ZM16.498 11.0737C15.2686 12.0351 15.2462 12.7055 15.2462 13.8682C15.2462 14.2931 15.0225 14.7848 13.9271 14.7848C13.0105 14.7848 12.6977 14.4495 12.6977 13.2869C12.6977 11.3646 13.547 10.448 14.1956 9.88914C14.9334 9.26297 16.1852 8.57008 16.1852 7.36312C16.1852 6.335 15.291 5.84281 14.1732 5.84281C11.8933 5.84281 12.3849 7.56437 11.1774 7.56437C10.5737 7.56437 9.83594 7.16187 9.83594 6.29015C9.83594 5.0832 11.2217 3.29437 14.2399 3.29437C17.1012 3.29437 19.0016 4.8814 19.0016 6.98304C19.0016 9.08469 17.1012 10.6045 16.498 11.0737Z" fill="white"/>
</g>
<defs>
<clipPath id="clip0_324_935">
<rect width="28" height="28" fill="white"/>
</clipPath>
</defs>
</svg>
