<svg width="40" height="40" viewBox="0 0 40 40" fill="none" xmlns="http://www.w3.org/2000/svg">
<g opacity="0.08" clip-path="url(#clip0_128_262)">
<path d="M3.59505 32.8091C1.34784 30.3372 -0.000488281 27.6405 -0.000488281 23.1461C-0.000488281 15.2809 5.61754 8.31453 13.4828 4.71899L15.5053 7.64037C8.08947 11.6853 6.51642 16.8539 6.06698 20.2247C7.19058 19.5506 8.76363 19.3259 10.3367 19.5506C14.3817 20 17.5277 23.1461 17.5277 27.4158C17.5277 29.4383 16.6289 31.4608 15.2805 33.0338C13.7075 34.6069 11.9097 35.281 9.66251 35.281C7.19058 35.281 4.94337 34.1574 3.59505 32.8091ZM26.0671 32.8091C23.8199 30.3372 22.4716 27.6405 22.4716 23.1461C22.4716 15.2809 28.0896 8.31453 35.9549 4.71899L37.9774 7.64037C30.5616 11.6853 28.9885 16.8539 28.5391 20.2247C29.6627 19.5506 31.2357 19.3259 32.8088 19.5506C36.8537 20 39.9998 23.1461 39.9998 27.4158C39.9998 29.4383 39.101 31.4608 37.7526 33.0338C36.4043 34.6069 34.3818 35.281 32.1346 35.281C29.6627 35.281 27.4155 34.1574 26.0671 32.8091Z" fill="#2D248A"/>
</g>
<defs>
<clipPath id="clip0_128_262">
<rect width="40" height="40" fill="white"/>
</clipPath>
</defs>
</svg>
