<svg width="116" height="116" viewBox="0 0 116 116" fill="none" xmlns="http://www.w3.org/2000/svg">
<path d="M23.5625 99.6875C23.3909 99.6857 23.2203 99.6613 23.055 99.615C22.6785 99.5052 22.3478 99.2762 22.1125 98.9625C21.8772 98.6488 21.75 98.2672 21.75 97.875V62.6491H1.8125C1.3318 62.6491 0.870779 62.4581 0.530869 62.1182C0.190959 61.7783 0 61.3173 0 60.8366V18.125C0 17.6443 0.190959 17.1833 0.530869 16.8434C0.870779 16.5035 1.3318 16.3125 1.8125 16.3125H47.125C47.6057 16.3125 48.0667 16.5035 48.4066 16.8434C48.7465 17.1833 48.9375 17.6443 48.9375 18.125V60.8003C48.9376 61.1436 48.8402 61.4799 48.6566 61.77L25.0941 98.8447C24.9305 99.1029 24.7044 99.3156 24.4366 99.4629C24.1688 99.6103 23.8681 99.6875 23.5625 99.6875ZM3.625 58.9878H23.5625C24.0432 58.9878 24.5042 59.1788 24.8441 59.5187C25.184 59.8586 25.375 60.3196 25.375 60.8003V91.6128L45.3125 60.2656V19.9375H3.625V58.9878Z" fill="#0B132B"/>
<path d="M90.625 99.6875C90.4534 99.6857 90.2828 99.6613 90.1175 99.615C89.741 99.5052 89.4103 99.2762 89.175 98.9625C88.9397 98.6488 88.8125 98.2672 88.8125 97.875V62.6491H68.875C68.3943 62.6491 67.9333 62.4581 67.5934 62.1182C67.2535 61.7783 67.0625 61.3173 67.0625 60.8366V18.125C67.0625 17.6443 67.2535 17.1833 67.5934 16.8434C67.9333 16.5035 68.3943 16.3125 68.875 16.3125H114.188C114.668 16.3125 115.129 16.5035 115.469 16.8434C115.809 17.1833 116 17.6443 116 18.125V60.8003C116 61.1436 115.903 61.4799 115.719 61.77L92.1566 98.8447C91.993 99.1029 91.7669 99.3156 91.4991 99.4629C91.2313 99.6103 90.9306 99.6875 90.625 99.6875ZM70.6875 58.9878H90.625C91.1057 58.9878 91.5667 59.1788 91.9066 59.5187C92.2465 59.8586 92.4375 60.3196 92.4375 60.8003V91.6128L112.375 60.2656V19.9375H70.6875V58.9878Z" fill="#0B132B"/>
</svg>
