<svg width="18" height="17" viewBox="0 0 18 17" fill="none" xmlns="http://www.w3.org/2000/svg">
<path d="M11.3289 5.39698L11.4452 5.63278L11.7054 5.67059L16.6628 6.39106C16.663 6.39109 16.6632 6.39112 16.6634 6.39115C16.7365 6.4023 16.779 6.46741 16.7695 6.52924L16.7694 6.52923L16.7686 6.53477C16.765 6.56044 16.7528 6.58525 16.7324 6.60545C16.7323 6.60556 16.7321 6.60568 16.732 6.60579L13.145 10.1029L12.9568 10.2864L13.0013 10.5455L13.8489 15.485L13.849 15.4854C13.8605 15.5518 13.816 15.6165 13.747 15.6284L13.7463 15.6285C13.7188 15.6333 13.6912 15.6283 13.6704 15.6172L13.6682 15.616L9.23263 13.284L8.99995 13.1617L8.76727 13.284L4.33172 15.616L4.33095 15.6164C4.31045 15.6273 4.28733 15.6321 4.26422 15.6305C4.2411 15.6288 4.21891 15.6207 4.20016 15.6071C4.1814 15.5935 4.16684 15.5749 4.15812 15.5534C4.14941 15.532 4.14688 15.5085 4.15083 15.4856L4.15094 15.485L4.9986 10.5455L5.04306 10.2864L4.85485 10.1029L1.26696 6.60489L1.26692 6.60486C1.24301 6.58155 1.22934 6.54971 1.22889 6.51632C1.22845 6.48323 1.24106 6.4513 1.26395 6.42744C1.28409 6.40716 1.30878 6.39512 1.33433 6.39147L1.33553 6.39129L6.29451 5.67059L6.55471 5.63278L6.67102 5.39698L8.88661 0.905255C8.88674 0.905004 8.88686 0.904753 8.88699 0.904504C8.91922 0.841057 8.99584 0.817111 9.05595 0.846788L9.05654 0.847073C9.08056 0.858893 9.10004 0.878381 9.11186 0.902402L9.11208 0.902835L11.3289 5.39698Z" stroke="#F8B400"/>
</svg>
