<svg width="18" height="17" viewBox="0 0 18 17" fill="none" xmlns="http://www.w3.org/2000/svg">
<path d="M16.7363 5.89649L11.7773 5.17579L9.56049 0.681648C9.49995 0.558601 9.40034 0.458992 9.27729 0.398445C8.9687 0.246101 8.5937 0.373054 8.4394 0.681648L6.2226 5.17579L1.26362 5.89649C1.1269 5.91602 1.0019 5.98048 0.906195 6.07813C0.790495 6.19705 0.726739 6.35704 0.728937 6.52294C0.731134 6.68884 0.799105 6.84709 0.917914 6.9629L4.5058 10.4609L3.65815 15.4004C3.63827 15.5153 3.65099 15.6335 3.69485 15.7415C3.73872 15.8496 3.81198 15.9432 3.90633 16.0117C4.00068 16.0802 4.11234 16.1209 4.22866 16.1292C4.34497 16.1375 4.46128 16.113 4.5644 16.0586L8.99995 13.7266L13.4355 16.0586C13.5566 16.1231 13.6972 16.1445 13.832 16.1211C14.1718 16.0625 14.4003 15.7402 14.3417 15.4004L13.4941 10.4609L17.082 6.9629C17.1796 6.8672 17.2441 6.74219 17.2636 6.60548C17.3164 6.26368 17.0781 5.94727 16.7363 5.89649Z" fill="#F8B400"/>
</svg>
