<svg width="120" height="120" viewBox="0 0 120 120" fill="none" xmlns="http://www.w3.org/2000/svg">
<path d="M108.265 27.0703C109.558 27.0703 110.608 28.1203 110.608 29.4141C110.608 30.7078 109.558 31.7578 108.265 31.7578C106.971 31.7578 105.921 30.7078 105.921 29.4141C105.921 28.1203 106.971 27.0703 108.265 27.0703Z" fill="#80ED99"/>
<path d="M108.265 88.0078C109.558 88.0078 110.608 89.0578 110.608 90.3516C110.608 91.6453 109.558 92.6953 108.265 92.6953C106.971 92.6953 105.921 91.6453 105.921 90.3516C105.921 89.0578 106.971 88.0078 108.265 88.0078Z" fill="#80ED99"/>
<path d="M96.5459 102.07C99.1357 102.07 101.233 104.168 101.233 106.758C101.233 109.348 99.1357 111.445 96.5459 111.445C93.9561 111.445 91.8584 109.348 91.8584 106.758C91.8584 104.168 93.9561 102.07 96.5459 102.07Z" fill="#57CC99"/>
<path d="M91.8584 5.97656C93.1521 5.97656 94.2021 7.02656 94.2021 8.32031C94.2021 9.61406 93.1521 10.6641 91.8584 10.6641C90.5646 10.6641 89.5146 9.61406 89.5146 8.32031C89.5146 7.02656 90.5646 5.97656 91.8584 5.97656Z" fill="#80ED99"/>
<path d="M59.0459 13.0078C33.1568 13.0078 12.1709 33.9937 12.1709 59.8828C12.1709 85.7719 33.1568 106.758 59.0459 106.758C84.935 106.758 105.921 85.7719 105.921 59.8828C105.921 33.9937 84.935 13.0078 59.0459 13.0078Z" fill="#22577A"/>
<path d="M59.0459 95.0391C39.6303 95.0391 23.8896 79.2984 23.8896 59.8828C23.8896 40.4672 39.6303 24.7266 59.0459 24.7266C78.4615 24.7266 94.2021 40.4672 94.2021 59.8828C94.2021 79.2984 78.4615 95.0391 59.0459 95.0391Z" fill="white"/>
<path d="M76.4714 48.8017C78.3022 50.6321 78.3022 53.5993 76.4714 55.4298L59.8988 72.0048L53.2707 78.6329L46.6402 72.0048L41.6691 67.0313C40.7553 66.1173 40.2959 64.9173 40.2959 63.7173C40.2959 62.5173 40.7553 61.3173 41.6691 60.403C43.4998 58.5725 46.467 58.5725 48.2972 60.403L53.2707 65.3741L69.8436 48.8017C70.76 47.8876 71.9576 47.4282 73.1576 47.4282C74.3576 47.4282 75.5553 47.8876 76.4714 48.8017Z" fill="#07CC66"/>
<path d="M23.8896 106.758C25.1834 106.758 26.2334 107.808 26.2334 109.102C26.2334 110.395 25.1834 111.445 23.8896 111.445C22.5957 111.445 21.5459 110.395 21.5459 109.102C21.5459 107.808 22.5957 106.758 23.8896 106.758Z" fill="#80ED99"/>
<path d="M18.0303 10.6641C21.267 10.6641 23.8896 13.2867 23.8896 16.5234C23.8896 19.7602 21.267 22.3828 18.0303 22.3828C14.7933 22.3828 12.1709 19.7602 12.1709 16.5234C12.1709 13.2867 14.7933 10.6641 18.0303 10.6641Z" fill="#57CC99"/>
<path d="M9.82715 29.4141C11.1209 29.4141 12.1709 30.4641 12.1709 31.7578C12.1709 33.0516 11.1209 34.1016 9.82715 34.1016C8.53316 34.1016 7.4834 33.0516 7.4834 31.7578C7.4834 30.4641 8.53316 29.4141 9.82715 29.4141Z" fill="#80ED99"/>
<path d="M9.82715 88.0078C11.1209 88.0078 12.1709 89.0578 12.1709 90.3516C12.1709 91.6453 11.1209 92.6953 9.82715 92.6953C8.53316 92.6953 7.4834 91.6453 7.4834 90.3516C7.4834 89.0578 8.53316 88.0078 9.82715 88.0078Z" fill="#80ED99"/>
<path d="M87.1709 59.8828C87.1709 58.5884 86.1214 57.5391 84.8271 57.5391C83.5329 57.5391 82.4834 58.5884 82.4834 59.8828C82.4834 72.8065 71.9696 83.3203 59.0459 83.3203C57.7514 83.3203 56.7021 84.3698 56.7021 85.6641V94.9594C57.477 95.0105 58.2582 95.0391 59.0459 95.0391C59.8336 95.0391 60.6146 95.0105 61.3896 94.9594V87.911C75.8051 86.7159 87.1709 74.6016 87.1709 59.8828Z" fill="#D0DCE7"/>
<path d="M30.9209 59.8828C30.9209 61.177 31.9702 62.2266 33.2646 62.2266C34.5589 62.2266 35.6084 61.177 35.6084 59.8828C35.6084 46.9594 46.1222 36.4453 59.0459 36.4453C60.3401 36.4453 61.3896 35.396 61.3896 34.1016V24.8062C60.6146 24.7552 59.8336 24.7266 59.0459 24.7266C58.2582 24.7266 57.477 24.7552 56.7021 24.8062V31.8546C42.2867 33.0497 30.9209 45.1641 30.9209 59.8828Z" fill="#D0DCE7"/>
</svg>
