<svg width="18" height="18" viewBox="0 0 18 18" fill="none" xmlns="http://www.w3.org/2000/svg">
<path d="M9 18C13.9706 18 18 13.9706 18 9C18 4.02944 13.9706 0 9 0C4.02944 0 0 4.02944 0 9C0 13.9706 4.02944 18 9 18Z" fill="#32BA7C"/>
<path d="M6.7002 13.0599L11.328 17.6877C15.1608 16.6656 17.9999 13.1735 17.9999 9C17.9999 8.91483 17.9999 8.82966 17.9999 8.74448L14.3658 5.39433L6.7002 13.0599Z" fill="#0AA06E"/>
<path d="M9.22691 11.0158C9.62438 11.4132 9.62438 12.0946 9.22691 12.4921L8.40356 13.3155C8.00609 13.7129 7.3247 13.7129 6.92722 13.3155L3.32154 9.68139C2.92407 9.28391 2.92407 8.60252 3.32154 8.20505L4.14489 7.3817C4.54237 6.98423 5.22375 6.98423 5.62123 7.3817L9.22691 11.0158Z" fill="white"/>
<path d="M12.3781 4.74132C12.7756 4.34385 13.457 4.34385 13.8545 4.74132L14.6778 5.56467C15.0753 5.96214 15.0753 6.64353 14.6778 7.04101L8.43178 13.2587C8.0343 13.6561 7.35291 13.6561 6.95544 13.2587L6.13209 12.4353C5.73462 12.0379 5.73462 11.3565 6.13209 10.959L12.3781 4.74132Z" fill="white"/>
</svg>
