<svg width="20" height="17" viewBox="0 0 20 17" fill="none" xmlns="http://www.w3.org/2000/svg">
<path d="M10.0473 16.0256C11.3377 16.0256 12.3838 14.9795 12.3838 13.6891C12.3838 12.3986 11.3377 11.3525 10.0473 11.3525C8.75691 11.3525 7.71082 12.3986 7.71082 13.6891C7.71082 14.9795 8.75691 16.0256 10.0473 16.0256Z" fill="#F9F8FB"/>
<path d="M15.6315 8.05964C15.5968 8.02401 15.5602 7.99222 15.5245 7.95948L15.4196 7.86028C15.4022 7.84198 15.383 7.8285 15.3608 7.81116C12.3395 5.06629 7.71563 5.17512 4.83207 8.05868L4.49402 8.3977L4.02594 8.86577C3.45578 9.43593 3.45867 10.3653 4.0298 10.9365C4.60189 11.5095 5.53129 11.5105 6.10049 10.9403L6.90758 10.1332C8.74135 8.30042 11.7241 8.30042 13.5569 10.1323L14.1396 10.6966C14.704 11.261 15.6247 11.2601 16.192 10.6918C16.4665 10.4183 16.6177 10.0533 16.6186 9.66515C16.6196 9.27894 16.4703 8.91392 16.1958 8.64136L15.6315 8.05964Z" fill="#F9F8FB"/>
<path d="M19.612 5.1713L19.1266 4.68589C19.1247 4.68397 19.1237 4.68108 19.1198 4.68011L18.7365 4.29487C18.6691 4.22841 18.5959 4.17063 18.5189 4.12055C13.5945 -0.202867 6.10434 -0.0699579 1.33693 4.51639C1.31381 4.53757 1.28781 4.55202 1.26469 4.57514L0.388262 5.45253C-0.131819 5.97165 -0.12893 6.8163 0.39404 7.33927C0.916047 7.86128 1.7607 7.86513 2.28078 7.34408L3.15721 6.46862C3.16299 6.46091 3.16781 6.45417 3.17358 6.44935C7.02892 2.725 13.1447 2.70188 17.0309 6.37327L17.7204 7.06382C18.2396 7.58294 19.0861 7.58101 19.6081 7.059C20.1292 6.53603 20.1311 5.69042 19.612 5.1713Z" fill="#F9F8FB"/>
</svg>
